<svg width="1000" height="1000" viewBox="0 0 1000 1000" fill="none" xmlns="http://www.w3.org/2000/svg">
<path d="M814.998 201.393C814.998 307.323 814.161 656.429 814.161 724.951C814.161 793.473 768.423 785.86 771.544 773.632C774.665 761.405 773.644 275.371 771.69 216.233C769.737 157.096 280.209 187.961 270.793 193.379C261.377 198.797 246.818 237.04 253.85 247.659C390.388 255.313 711.227 227.981 711.04 273.32C710.853 318.66 731.937 759.429 713.594 830.406C642.588 878.252 181.867 868.793 185.018 824.272C191.006 739.684 180.693 327.815 188.406 249.481C189.59 237.453 204.367 177.927 219.963 168.662C252.286 149.46 814.998 95.4639 814.998 201.393Z" fill="#1E7561"/>
<path d="M445.199 322.311C588.56 322.311 655.9 304.832 655.9 422.464C655.9 540.094 590.404 535.934 447.042 535.934C303.675 535.934 234.502 540.094 234.502 422.464C234.502 304.832 301.831 322.311 445.199 322.311Z" fill="#B1D782"/>
<path d="M445.202 558.957C525.063 558.957 562.576 553.204 562.576 591.924C562.576 630.643 526.09 629.274 446.229 629.274C366.365 629.274 327.832 630.644 327.832 591.924C327.832 553.204 365.338 558.957 445.202 558.957Z" fill="#B1D782"/>
</svg>
