<?xml version="1.0" encoding="UTF-8"?><svg id="a" xmlns="http://www.w3.org/2000/svg" viewBox="0 0 375 100"><defs><style>.b{fill:#17716d;}.c{fill:#fff;}.d{fill:#1c947b;}</style></defs><rect class="c" width="375" height="100"/><path class="d" d="M0,67l6.3,1c6.4,1,19,3,31.5,5.7,12.5,2.6,24.9,6,37.4,5.8,12.5-.2,25.1-3.8,37.6-6.8s24.9-5.4,37.4-6.2,25.1-.2,37.6.8,24.9,2.4,37.4,3.2,25.1,1.2,37.6.5c12.5-.7,24.9-2.3,37.4-1.5s25.1,4.2,37.6,5.3c12.5,1.2,24.9.2,31-.3l6.2-.5V0H0v67Z"/><path class="b" d="M0,56l6.3.2c6.4.1,19,.5,31.5-1.9,12.5-2.3,24.9-7.3,37.4-7.3s25.1,5,37.6,5.2c12.5.1,24.9-4.5,37.4-6.9,12.5-2.3,25.1-2.3,37.6.2s24.9,7.5,37.4,8.8c12.5,1.4,25.1-1,37.6-3.6,12.5-2.7,24.9-5.7,37.4-6.7s25.1,0,37.6,2.7c12.5,2.6,24.9,7,31,9.1l6.2,2.2V0H0v56Z"/><path d="M0,26l6.3-.8c6.4-.9,19-2.5,31.5-4.4,12.5-1.8,24.9-3.8,37.4-2.3,12.5,1.5,25.1,6.5,37.6,6.5s24.9-5,37.4-7.3c12.5-2.4,25.1-2,37.6-1.2,12.5.8,24.9,2.2,37.4,2.2s25.1-1.4,37.6-.9c12.5.5,24.9,2.9,37.4,3.4s25.1-.9,37.6-1c12.5-.2,24.9.8,31,1.3l6.2.5V0H0v26Z"/></svg>