<?xml version="1.0" encoding="UTF-8"?>
<svg id="visual" xmlns="http://www.w3.org/2000/svg" version="1.1" viewBox="0 0 375 100">
  <!-- Generator: Adobe Illustrator 29.0.1, SVG Export Plug-In . SVG Version: 2.1.0 Build 192)  -->
  <defs>
    <style>
      .st0 {
        fill: #17716d;
      }

      .st1 {
        fill: #264e53;
      }

      .st2 {
        fill: #1c947b;
      }
    </style>
  </defs>
  <path class="st2" d="M0,25l6.3-1.3c6.4-1.4,19-4,31.5-3.9,12.5.2,24.9,3.2,37.4,5.7,12.5,2.5,25.1,4.5,37.6,3s24.9-6.5,37.4-6.2c12.5.4,25.1,6,37.6,7.2s24.9-2.2,37.4-3.7,25.1-1.1,37.6.5c12.5,1.7,24.9,4.7,37.4,3.9,12.5-.9,25.1-5.5,37.6-7.4,12.5-1.8,24.9-.8,31-.3l6.2.5v77H0V25Z"/>
  <path class="st0" d="M0,68.6l6.3.3c6.4.4,19,1,31.5,1s24.9-.6,37.4-3.1c12.5-2.5,25.1-6.9,37.6-8.2s24.9.3,37.4,1.3,25.1,1.4,37.6,1.2,24.9-.8,37.4.5,25.1,4.7,37.6,4.5c12.5-.2,24.9-3.8,37.4-6s25.1-2.8,37.6-.5,24.9,7.7,31,10.3l6.2,2.7V14.6H0v54Z"/>
  <path class="st1" d="M0,34.2l6.3-.7c6.4-.7,19-2.1,31.5-.3,12.5,1.9,24.9,6.8,37.4,6.7,12.5-.3,25.1-5.8,37.6-8.2,12.5-2.6,24.9-2.1,37.4-1.4,12.5.7,25.1,1.5,37.6,2.9s24.9,3.3,37.4,2.6c12.5-.7,25.1-4,37.6-4.8,12.5-1,24.9.4,37.4,1.1,12.5.7,25.1.7,37.6,1,12.5.1,24.9.7,31,.8l6.2.3V0H0v34.2Z"/>
</svg>