<svg id="visual" viewBox="0 0 375 100" width="375" height="100" xmlns="http://www.w3.org/2000/svg" xmlns:xlink="http://www.w3.org/1999/xlink" version="1.1"><path d="M0 80L6.3 79.5C12.7 79 25.3 78 37.8 78.5C50.3 79 62.7 81 75.2 80.7C87.7 80.3 100.3 77.7 112.8 76.2C125.3 74.7 137.7 74.3 150.2 74.2C162.7 74 175.3 74 187.8 74.3C200.3 74.7 212.7 75.3 225.2 74.2C237.7 73 250.3 70 262.8 70.8C275.3 71.7 287.7 76.3 300.2 76.2C312.7 76 325.3 71 337.8 70.3C350.3 69.7 362.7 73.3 368.8 75.2L375 77L375 0L368.8 0C362.7 0 350.3 0 337.8 0C325.3 0 312.7 0 300.2 0C287.7 0 275.3 0 262.8 0C250.3 0 237.7 0 225.2 0C212.7 0 200.3 0 187.8 0C175.3 0 162.7 0 150.2 0C137.7 0 125.3 0 112.8 0C100.3 0 87.7 0 75.2 0C62.7 0 50.3 0 37.8 0C25.3 0 12.7 0 6.3 0L0 0Z" fill="#1c947b"></path><path d="M0 57L6.3 55.8C12.7 54.7 25.3 52.3 37.8 51.7C50.3 51 62.7 52 75.2 52.3C87.7 52.7 100.3 52.3 112.8 52.7C125.3 53 137.7 54 150.2 54.8C162.7 55.7 175.3 56.3 187.8 54.8C200.3 53.3 212.7 49.7 225.2 49.2C237.7 48.7 250.3 51.3 262.8 51.3C275.3 51.3 287.7 48.7 300.2 49.5C312.7 50.3 325.3 54.7 337.8 54.2C350.3 53.7 362.7 48.3 368.8 45.7L375 43L375 0L368.8 0C362.7 0 350.3 0 337.8 0C325.3 0 312.7 0 300.2 0C287.7 0 275.3 0 262.8 0C250.3 0 237.7 0 225.2 0C212.7 0 200.3 0 187.8 0C175.3 0 162.7 0 150.2 0C137.7 0 125.3 0 112.8 0C100.3 0 87.7 0 75.2 0C62.7 0 50.3 0 37.8 0C25.3 0 12.7 0 6.3 0L0 0Z" fill="#17716d"></path><path d="M0 31L6.3 31.2C12.7 31.3 25.3 31.7 37.8 30.8C50.3 30 62.7 28 75.2 27.8C87.7 27.7 100.3 29.3 112.8 29.8C125.3 30.3 137.7 29.7 150.2 27.3C162.7 25 175.3 21 187.8 20.3C200.3 19.7 212.7 22.3 225.2 23.8C237.7 25.3 250.3 25.7 262.8 25.7C275.3 25.7 287.7 25.3 300.2 24.5C312.7 23.7 325.3 22.3 337.8 21.7C350.3 21 362.7 21 368.8 21L375 21L375 0L368.8 0C362.7 0 350.3 0 337.8 0C325.3 0 312.7 0 300.2 0C287.7 0 275.3 0 262.8 0C250.3 0 237.7 0 225.2 0C212.7 0 200.3 0 187.8 0C175.3 0 162.7 0 150.2 0C137.7 0 125.3 0 112.8 0C100.3 0 87.7 0 75.2 0C62.7 0 50.3 0 37.8 0C25.3 0 12.7 0 6.3 0L0 0Z" fill="#264e53"></path></svg>