<svg id="visual" viewBox="0 0 1440 100" width="1440" height="100" xmlns="http://www.w3.org/2000/svg" xmlns:xlink="http://www.w3.org/1999/xlink" version="1.1"><rect x="0" y="0" width="1440" height="100" fill="#264E53"></rect><path d="M0 9L24 12.7C48 16.3 96 23.7 144 25.8C192 28 240 25 288 26C336 27 384 32 432 31C480 30 528 23 576 22.2C624 21.3 672 26.7 720 26.5C768 26.3 816 20.7 864 19.7C912 18.7 960 22.3 1008 23.2C1056 24 1104 22 1152 19.3C1200 16.7 1248 13.3 1296 14.8C1344 16.3 1392 22.7 1416 25.8L1440 29L1440 101L1416 101C1392 101 1344 101 1296 101C1248 101 1200 101 1152 101C1104 101 1056 101 1008 101C960 101 912 101 864 101C816 101 768 101 720 101C672 101 624 101 576 101C528 101 480 101 432 101C384 101 336 101 288 101C240 101 192 101 144 101C96 101 48 101 24 101L0 101Z" fill="#1c947b"></path><path d="M0 54L24 55.8C48 57.7 96 61.3 144 59.3C192 57.3 240 49.7 288 44.2C336 38.7 384 35.3 432 37C480 38.7 528 45.3 576 48.2C624 51 672 50 720 47.3C768 44.7 816 40.3 864 40.7C912 41 960 46 1008 48C1056 50 1104 49 1152 51.2C1200 53.3 1248 58.7 1296 60.7C1344 62.7 1392 61.3 1416 60.7L1440 60L1440 101L1416 101C1392 101 1344 101 1296 101C1248 101 1200 101 1152 101C1104 101 1056 101 1008 101C960 101 912 101 864 101C816 101 768 101 720 101C672 101 624 101 576 101C528 101 480 101 432 101C384 101 336 101 288 101C240 101 192 101 144 101C96 101 48 101 24 101L0 101Z" fill="#99c9bb"></path><path d="M0 71L24 70.3C48 69.7 96 68.3 144 68.5C192 68.7 240 70.3 288 73.8C336 77.3 384 82.7 432 84.2C480 85.7 528 83.3 576 82.2C624 81 672 81 720 77.8C768 74.7 816 68.3 864 66.8C912 65.3 960 68.7 1008 70.3C1056 72 1104 72 1152 74.3C1200 76.7 1248 81.3 1296 81.5C1344 81.7 1392 77.3 1416 75.2L1440 73L1440 101L1416 101C1392 101 1344 101 1296 101C1248 101 1200 101 1152 101C1104 101 1056 101 1008 101C960 101 912 101 864 101C816 101 768 101 720 101C672 101 624 101 576 101C528 101 480 101 432 101C384 101 336 101 288 101C240 101 192 101 144 101C96 101 48 101 24 101L0 101Z" fill="#ffffff"></path></svg>