<svg id="visual" viewBox="0 0 375 100" width="375" height="100" xmlns="http://www.w3.org/2000/svg" xmlns:xlink="http://www.w3.org/1999/xlink" version="1.1"><path d="M0 75L6.3 76.3C12.7 77.7 25.3 80.3 37.8 80.2C50.3 80 62.7 77 75.2 74.5C87.7 72 100.3 70 112.8 71.5C125.3 73 137.7 78 150.2 77.7C162.7 77.3 175.3 71.7 187.8 70.5C200.3 69.3 212.7 72.7 225.2 74.2C237.7 75.7 250.3 75.3 262.8 73.7C275.3 72 287.7 69 300.2 69.8C312.7 70.7 325.3 75.3 337.8 77.2C350.3 79 362.7 78 368.8 77.5L375 77L375 0L368.8 0C362.7 0 350.3 0 337.8 0C325.3 0 312.7 0 300.2 0C287.7 0 275.3 0 262.8 0C250.3 0 237.7 0 225.2 0C212.7 0 200.3 0 187.8 0C175.3 0 162.7 0 150.2 0C137.7 0 125.3 0 112.8 0C100.3 0 87.7 0 75.2 0C62.7 0 50.3 0 37.8 0C25.3 0 12.7 0 6.3 0L0 0Z" fill="#1c947b"></path><path d="M0 54L6.3 54.3C12.7 54.7 25.3 55.3 37.8 55.3C50.3 55.3 62.7 54.7 75.2 52.2C87.7 49.7 100.3 45.3 112.8 44C125.3 42.7 137.7 44.3 150.2 45.3C162.7 46.3 175.3 46.7 187.8 46.5C200.3 46.3 212.7 45.7 225.2 47C237.7 48.3 250.3 51.7 262.8 51.5C275.3 51.3 287.7 47.7 300.2 45.5C312.7 43.3 325.3 42.7 337.8 45C350.3 47.3 362.7 52.7 368.8 55.3L375 58L375 0L368.8 0C362.7 0 350.3 0 337.8 0C325.3 0 312.7 0 300.2 0C287.7 0 275.3 0 262.8 0C250.3 0 237.7 0 225.2 0C212.7 0 200.3 0 187.8 0C175.3 0 162.7 0 150.2 0C137.7 0 125.3 0 112.8 0C100.3 0 87.7 0 75.2 0C62.7 0 50.3 0 37.8 0C25.3 0 12.7 0 6.3 0L0 0Z" fill="#17716d"></path><path d="M0 25L6.3 24.5C12.7 24 25.3 23 37.8 24.3C50.3 25.7 62.7 29.3 75.2 29.2C87.7 29 100.3 25 112.8 23.2C125.3 21.3 137.7 21.7 150.2 22.2C162.7 22.7 175.3 23.3 187.8 24.3C200.3 25.3 212.7 26.7 225.2 26.2C237.7 25.7 250.3 23.3 262.8 22.7C275.3 22 287.7 23 300.2 23.5C312.7 24 325.3 24 337.8 24.2C350.3 24.3 362.7 24.7 368.8 24.8L375 25L375 0L368.8 0C362.7 0 350.3 0 337.8 0C325.3 0 312.7 0 300.2 0C287.7 0 275.3 0 262.8 0C250.3 0 237.7 0 225.2 0C212.7 0 200.3 0 187.8 0C175.3 0 162.7 0 150.2 0C137.7 0 125.3 0 112.8 0C100.3 0 87.7 0 75.2 0C62.7 0 50.3 0 37.8 0C25.3 0 12.7 0 6.3 0L0 0Z" fill="#264e53"></path></svg>