<svg id="visual" viewBox="0 0 1440 100" width="1440" height="100" xmlns="http://www.w3.org/2000/svg" xmlns:xlink="http://www.w3.org/1999/xlink" version="1.1"><path d="M0 27L24 26C48 25 96 23 144 24.8C192 26.7 240 32.3 288 32.3C336 32.3 384 26.7 432 27.2C480 27.7 528 34.3 576 32.2C624 30 672 19 720 17.7C768 16.3 816 24.7 864 30C912 35.3 960 37.7 1008 35.7C1056 33.7 1104 27.3 1152 24.2C1200 21 1248 21 1296 20.7C1344 20.3 1392 19.7 1416 19.3L1440 19L1440 101L1416 101C1392 101 1344 101 1296 101C1248 101 1200 101 1152 101C1104 101 1056 101 1008 101C960 101 912 101 864 101C816 101 768 101 720 101C672 101 624 101 576 101C528 101 480 101 432 101C384 101 336 101 288 101C240 101 192 101 144 101C96 101 48 101 24 101L0 101Z" fill="#264e53"></path><path d="M0 42L24 42C48 42 96 42 144 45C192 48 240 54 288 53.2C336 52.3 384 44.7 432 45C480 45.3 528 53.7 576 56C624 58.3 672 54.7 720 53.2C768 51.7 816 52.3 864 52C912 51.7 960 50.3 1008 52.3C1056 54.3 1104 59.7 1152 59.5C1200 59.3 1248 53.7 1296 51.3C1344 49 1392 50 1416 50.5L1440 51L1440 101L1416 101C1392 101 1344 101 1296 101C1248 101 1200 101 1152 101C1104 101 1056 101 1008 101C960 101 912 101 864 101C816 101 768 101 720 101C672 101 624 101 576 101C528 101 480 101 432 101C384 101 336 101 288 101C240 101 192 101 144 101C96 101 48 101 24 101L0 101Z" fill="#17716d"></path><path d="M0 85L24 83.2C48 81.3 96 77.7 144 74.8C192 72 240 70 288 72.8C336 75.7 384 83.3 432 83.3C480 83.3 528 75.7 576 71.3C624 67 672 66 720 65.8C768 65.7 816 66.3 864 68.8C912 71.3 960 75.7 1008 79.7C1056 83.7 1104 87.3 1152 87.7C1200 88 1248 85 1296 82C1344 79 1392 76 1416 74.5L1440 73L1440 101L1416 101C1392 101 1344 101 1296 101C1248 101 1200 101 1152 101C1104 101 1056 101 1008 101C960 101 912 101 864 101C816 101 768 101 720 101C672 101 624 101 576 101C528 101 480 101 432 101C384 101 336 101 288 101C240 101 192 101 144 101C96 101 48 101 24 101L0 101Z" fill="#1c947b"></path></svg>