<svg id="visual" viewBox="0 0 1440 100" width="1440" height="100" xmlns="http://www.w3.org/2000/svg" xmlns:xlink="http://www.w3.org/1999/xlink" version="1.1"><rect x="0" y="0" width="1440" height="100" fill="#264E53"></rect><path d="M0 16L24 18.8C48 21.7 96 27.3 144 29.7C192 32 240 31 288 28.8C336 26.7 384 23.3 432 21.2C480 19 528 18 576 21.5C624 25 672 33 720 32.2C768 31.3 816 21.7 864 17.2C912 12.7 960 13.3 1008 14.3C1056 15.3 1104 16.7 1152 19C1200 21.3 1248 24.7 1296 25C1344 25.3 1392 22.7 1416 21.3L1440 20L1440 101L1416 101C1392 101 1344 101 1296 101C1248 101 1200 101 1152 101C1104 101 1056 101 1008 101C960 101 912 101 864 101C816 101 768 101 720 101C672 101 624 101 576 101C528 101 480 101 432 101C384 101 336 101 288 101C240 101 192 101 144 101C96 101 48 101 24 101L0 101Z" fill="#1c947b"></path><path d="M0 37L24 37.7C48 38.3 96 39.7 144 41.5C192 43.3 240 45.7 288 49.2C336 52.7 384 57.3 432 58.8C480 60.3 528 58.7 576 57C624 55.3 672 53.7 720 52.8C768 52 816 52 864 52C912 52 960 52 1008 52C1056 52 1104 52 1152 49.7C1200 47.3 1248 42.7 1296 42.7C1344 42.7 1392 47.3 1416 49.7L1440 52L1440 101L1416 101C1392 101 1344 101 1296 101C1248 101 1200 101 1152 101C1104 101 1056 101 1008 101C960 101 912 101 864 101C816 101 768 101 720 101C672 101 624 101 576 101C528 101 480 101 432 101C384 101 336 101 288 101C240 101 192 101 144 101C96 101 48 101 24 101L0 101Z" fill="#99c9bb"></path><path d="M0 83L24 82.8C48 82.7 96 82.3 144 80.5C192 78.7 240 75.3 288 72.8C336 70.3 384 68.7 432 70.3C480 72 528 77 576 76.2C624 75.3 672 68.7 720 69.2C768 69.7 816 77.3 864 80.3C912 83.3 960 81.7 1008 77.2C1056 72.7 1104 65.3 1152 64.2C1200 63 1248 68 1296 71.3C1344 74.7 1392 76.3 1416 77.2L1440 78L1440 101L1416 101C1392 101 1344 101 1296 101C1248 101 1200 101 1152 101C1104 101 1056 101 1008 101C960 101 912 101 864 101C816 101 768 101 720 101C672 101 624 101 576 101C528 101 480 101 432 101C384 101 336 101 288 101C240 101 192 101 144 101C96 101 48 101 24 101L0 101Z" fill="#ffffff"></path></svg>