<svg id="visual" viewBox="0 0 375 100" width="375" height="100" xmlns="http://www.w3.org/2000/svg" xmlns:xlink="http://www.w3.org/1999/xlink" version="1.1"><rect x="0" y="0" width="375" height="100" fill="#fff"></rect><path d="M0 79L6.3 77.2C12.7 75.3 25.3 71.7 37.8 71.2C50.3 70.7 62.7 73.3 75.2 74.5C87.7 75.7 100.3 75.3 112.8 73.7C125.3 72 137.7 69 150.2 67.8C162.7 66.7 175.3 67.3 187.8 68.8C200.3 70.3 212.7 72.7 225.2 73.2C237.7 73.7 250.3 72.3 262.8 73.5C275.3 74.7 287.7 78.3 300.2 77.3C312.7 76.3 325.3 70.7 337.8 69.3C350.3 68 362.7 71 368.8 72.5L375 74L375 0L368.8 0C362.7 0 350.3 0 337.8 0C325.3 0 312.7 0 300.2 0C287.7 0 275.3 0 262.8 0C250.3 0 237.7 0 225.2 0C212.7 0 200.3 0 187.8 0C175.3 0 162.7 0 150.2 0C137.7 0 125.3 0 112.8 0C100.3 0 87.7 0 75.2 0C62.7 0 50.3 0 37.8 0C25.3 0 12.7 0 6.3 0L0 0Z" fill="#1c947b"></path><path d="M0 45L6.3 46.2C12.7 47.3 25.3 49.7 37.8 49.8C50.3 50 62.7 48 75.2 48C87.7 48 100.3 50 112.8 51C125.3 52 137.7 52 150.2 51.8C162.7 51.7 175.3 51.3 187.8 52.3C200.3 53.3 212.7 55.7 225.2 53.7C237.7 51.7 250.3 45.3 262.8 45C275.3 44.7 287.7 50.3 300.2 51.3C312.7 52.3 325.3 48.7 337.8 46.7C350.3 44.7 362.7 44.3 368.8 44.2L375 44L375 0L368.8 0C362.7 0 350.3 0 337.8 0C325.3 0 312.7 0 300.2 0C287.7 0 275.3 0 262.8 0C250.3 0 237.7 0 225.2 0C212.7 0 200.3 0 187.8 0C175.3 0 162.7 0 150.2 0C137.7 0 125.3 0 112.8 0C100.3 0 87.7 0 75.2 0C62.7 0 50.3 0 37.8 0C25.3 0 12.7 0 6.3 0L0 0Z" fill="#17716d"></path><path d="M0 31L6.3 28.8C12.7 26.7 25.3 22.3 37.8 20.2C50.3 18 62.7 18 75.2 18.8C87.7 19.7 100.3 21.3 112.8 23.5C125.3 25.7 137.7 28.3 150.2 28.8C162.7 29.3 175.3 27.7 187.8 25.3C200.3 23 212.7 20 225.2 20C237.7 20 250.3 23 262.8 22.8C275.3 22.7 287.7 19.3 300.2 18.5C312.7 17.7 325.3 19.3 337.8 20.7C350.3 22 362.7 23 368.8 23.5L375 24L375 0L368.8 0C362.7 0 350.3 0 337.8 0C325.3 0 312.7 0 300.2 0C287.7 0 275.3 0 262.8 0C250.3 0 237.7 0 225.2 0C212.7 0 200.3 0 187.8 0C175.3 0 162.7 0 150.2 0C137.7 0 125.3 0 112.8 0C100.3 0 87.7 0 75.2 0C62.7 0 50.3 0 37.8 0C25.3 0 12.7 0 6.3 0L0 0Z" fill="#264e53"></path></svg>