<svg id="visual" viewBox="0 0 1440 100" width="1440" height="100" xmlns="http://www.w3.org/2000/svg" xmlns:xlink="http://www.w3.org/1999/xlink" version="1.1"><path d="M0 36L24 33.2C48 30.3 96 24.7 144 21.5C192 18.3 240 17.7 288 18C336 18.3 384 19.7 432 19.8C480 20 528 19 576 17.8C624 16.7 672 15.3 720 16.8C768 18.3 816 22.7 864 25.2C912 27.7 960 28.3 1008 25.2C1056 22 1104 15 1152 13.2C1200 11.3 1248 14.7 1296 17.2C1344 19.7 1392 21.3 1416 22.2L1440 23L1440 101L1416 101C1392 101 1344 101 1296 101C1248 101 1200 101 1152 101C1104 101 1056 101 1008 101C960 101 912 101 864 101C816 101 768 101 720 101C672 101 624 101 576 101C528 101 480 101 432 101C384 101 336 101 288 101C240 101 192 101 144 101C96 101 48 101 24 101L0 101Z" fill="#264e53"></path><path d="M0 52L24 50.2C48 48.3 96 44.7 144 44.3C192 44 240 47 288 50.8C336 54.7 384 59.3 432 58.3C480 57.3 528 50.7 576 49C624 47.3 672 50.7 720 49.2C768 47.7 816 41.3 864 39.7C912 38 960 41 1008 40.8C1056 40.7 1104 37.3 1152 35.3C1200 33.3 1248 32.7 1296 34.7C1344 36.7 1392 41.3 1416 43.7L1440 46L1440 101L1416 101C1392 101 1344 101 1296 101C1248 101 1200 101 1152 101C1104 101 1056 101 1008 101C960 101 912 101 864 101C816 101 768 101 720 101C672 101 624 101 576 101C528 101 480 101 432 101C384 101 336 101 288 101C240 101 192 101 144 101C96 101 48 101 24 101L0 101Z" fill="#17716d"></path><path d="M0 77L24 77.3C48 77.7 96 78.3 144 75.5C192 72.7 240 66.3 288 67.2C336 68 384 76 432 79.3C480 82.7 528 81.3 576 80.2C624 79 672 78 720 76.7C768 75.3 816 73.7 864 72.5C912 71.3 960 70.7 1008 68.3C1056 66 1104 62 1152 65.3C1200 68.7 1248 79.3 1296 82.2C1344 85 1392 80 1416 77.5L1440 75L1440 101L1416 101C1392 101 1344 101 1296 101C1248 101 1200 101 1152 101C1104 101 1056 101 1008 101C960 101 912 101 864 101C816 101 768 101 720 101C672 101 624 101 576 101C528 101 480 101 432 101C384 101 336 101 288 101C240 101 192 101 144 101C96 101 48 101 24 101L0 101Z" fill="#1c947b"></path></svg>