<svg id="visual" viewBox="0 0 375 100" width="375" height="100" xmlns="http://www.w3.org/2000/svg" xmlns:xlink="http://www.w3.org/1999/xlink" version="1.1"><rect x="0" y="0" width="375" height="100" fill="#fff"></rect><path d="M0 70L6.3 70.3C12.7 70.7 25.3 71.3 37.8 71.2C50.3 71 62.7 70 75.2 70C87.7 70 100.3 71 112.8 73.5C125.3 76 137.7 80 150.2 81.5C162.7 83 175.3 82 187.8 79.8C200.3 77.7 212.7 74.3 225.2 73C237.7 71.7 250.3 72.3 262.8 71.8C275.3 71.3 287.7 69.7 300.2 70.3C312.7 71 325.3 74 337.8 75.8C350.3 77.7 362.7 78.3 368.8 78.7L375 79L375 0L368.8 0C362.7 0 350.3 0 337.8 0C325.3 0 312.7 0 300.2 0C287.7 0 275.3 0 262.8 0C250.3 0 237.7 0 225.2 0C212.7 0 200.3 0 187.8 0C175.3 0 162.7 0 150.2 0C137.7 0 125.3 0 112.8 0C100.3 0 87.7 0 75.2 0C62.7 0 50.3 0 37.8 0C25.3 0 12.7 0 6.3 0L0 0Z" fill="#1c947b"></path><path d="M0 56L6.3 54.8C12.7 53.7 25.3 51.3 37.8 50.7C50.3 50 62.7 51 75.2 52C87.7 53 100.3 54 112.8 55C125.3 56 137.7 57 150.2 55.7C162.7 54.3 175.3 50.7 187.8 49.2C200.3 47.7 212.7 48.3 225.2 50C237.7 51.7 250.3 54.3 262.8 55.8C275.3 57.3 287.7 57.7 300.2 57.2C312.7 56.7 325.3 55.3 337.8 54.7C350.3 54 362.7 54 368.8 54L375 54L375 0L368.8 0C362.7 0 350.3 0 337.8 0C325.3 0 312.7 0 300.2 0C287.7 0 275.3 0 262.8 0C250.3 0 237.7 0 225.2 0C212.7 0 200.3 0 187.8 0C175.3 0 162.7 0 150.2 0C137.7 0 125.3 0 112.8 0C100.3 0 87.7 0 75.2 0C62.7 0 50.3 0 37.8 0C25.3 0 12.7 0 6.3 0L0 0Z" fill="#17716d"></path><path d="M0 27L6.3 28C12.7 29 25.3 31 37.8 29.3C50.3 27.7 62.7 22.3 75.2 22.2C87.7 22 100.3 27 112.8 27.5C125.3 28 137.7 24 150.2 21C162.7 18 175.3 16 187.8 15.5C200.3 15 212.7 16 225.2 17.2C237.7 18.3 250.3 19.7 262.8 19.7C275.3 19.7 287.7 18.3 300.2 20.2C312.7 22 325.3 27 337.8 28.7C350.3 30.3 362.7 28.7 368.8 27.8L375 27L375 0L368.8 0C362.7 0 350.3 0 337.8 0C325.3 0 312.7 0 300.2 0C287.7 0 275.3 0 262.8 0C250.3 0 237.7 0 225.2 0C212.7 0 200.3 0 187.8 0C175.3 0 162.7 0 150.2 0C137.7 0 125.3 0 112.8 0C100.3 0 87.7 0 75.2 0C62.7 0 50.3 0 37.8 0C25.3 0 12.7 0 6.3 0L0 0Z" fill="#264e53"></path></svg>