<svg id="visual" viewBox="0 0 375 100" width="375" height="100" xmlns="http://www.w3.org/2000/svg" xmlns:xlink="http://www.w3.org/1999/xlink" version="1.1"><path d="M0 64L6.3 66.2C12.7 68.3 25.3 72.7 37.8 75.2C50.3 77.7 62.7 78.3 75.2 76.3C87.7 74.3 100.3 69.7 112.8 70.3C125.3 71 137.7 77 150.2 77.3C162.7 77.7 175.3 72.3 187.8 69.3C200.3 66.3 212.7 65.7 225.2 67.8C237.7 70 250.3 75 262.8 76.5C275.3 78 287.7 76 300.2 74.7C312.7 73.3 325.3 72.7 337.8 71.8C350.3 71 362.7 70 368.8 69.5L375 69L375 0L368.8 0C362.7 0 350.3 0 337.8 0C325.3 0 312.7 0 300.2 0C287.7 0 275.3 0 262.8 0C250.3 0 237.7 0 225.2 0C212.7 0 200.3 0 187.8 0C175.3 0 162.7 0 150.2 0C137.7 0 125.3 0 112.8 0C100.3 0 87.7 0 75.2 0C62.7 0 50.3 0 37.8 0C25.3 0 12.7 0 6.3 0L0 0Z" fill="#264e53"></path><path d="M0 41L6.3 44C12.7 47 25.3 53 37.8 53.2C50.3 53.3 62.7 47.7 75.2 46.5C87.7 45.3 100.3 48.7 112.8 49.5C125.3 50.3 137.7 48.7 150.2 46.8C162.7 45 175.3 43 187.8 43C200.3 43 212.7 45 225.2 44.8C237.7 44.7 250.3 42.3 262.8 41.8C275.3 41.3 287.7 42.7 300.2 43C312.7 43.3 325.3 42.7 337.8 42C350.3 41.3 362.7 40.7 368.8 40.3L375 40L375 0L368.8 0C362.7 0 350.3 0 337.8 0C325.3 0 312.7 0 300.2 0C287.7 0 275.3 0 262.8 0C250.3 0 237.7 0 225.2 0C212.7 0 200.3 0 187.8 0C175.3 0 162.7 0 150.2 0C137.7 0 125.3 0 112.8 0C100.3 0 87.7 0 75.2 0C62.7 0 50.3 0 37.8 0C25.3 0 12.7 0 6.3 0L0 0Z" fill="#17716d"></path><path d="M0 23L6.3 23.3C12.7 23.7 25.3 24.3 37.8 23.7C50.3 23 62.7 21 75.2 21.8C87.7 22.7 100.3 26.3 112.8 26C125.3 25.7 137.7 21.3 150.2 20.8C162.7 20.3 175.3 23.7 187.8 25.5C200.3 27.3 212.7 27.7 225.2 27.5C237.7 27.3 250.3 26.7 262.8 25.2C275.3 23.7 287.7 21.3 300.2 22C312.7 22.7 325.3 26.3 337.8 26.5C350.3 26.7 362.7 23.3 368.8 21.7L375 20L375 0L368.8 0C362.7 0 350.3 0 337.8 0C325.3 0 312.7 0 300.2 0C287.7 0 275.3 0 262.8 0C250.3 0 237.7 0 225.2 0C212.7 0 200.3 0 187.8 0C175.3 0 162.7 0 150.2 0C137.7 0 125.3 0 112.8 0C100.3 0 87.7 0 75.2 0C62.7 0 50.3 0 37.8 0C25.3 0 12.7 0 6.3 0L0 0Z" fill="#1c947b"></path></svg>