<svg id="visual" viewBox="0 0 375 100" width="375" height="100" xmlns="http://www.w3.org/2000/svg" xmlns:xlink="http://www.w3.org/1999/xlink" version="1.1"><rect x="0" y="0" width="375" height="100" fill="#fff"></rect><path d="M0 84L6.3 81.8C12.7 79.7 25.3 75.3 37.8 73.2C50.3 71 62.7 71 75.2 72.3C87.7 73.7 100.3 76.3 112.8 77.3C125.3 78.3 137.7 77.7 150.2 77.3C162.7 77 175.3 77 187.8 77.8C200.3 78.7 212.7 80.3 225.2 78.8C237.7 77.3 250.3 72.7 262.8 70.7C275.3 68.7 287.7 69.3 300.2 69.5C312.7 69.7 325.3 69.3 337.8 70.5C350.3 71.7 362.7 74.3 368.8 75.7L375 77L375 0L368.8 0C362.7 0 350.3 0 337.8 0C325.3 0 312.7 0 300.2 0C287.7 0 275.3 0 262.8 0C250.3 0 237.7 0 225.2 0C212.7 0 200.3 0 187.8 0C175.3 0 162.7 0 150.2 0C137.7 0 125.3 0 112.8 0C100.3 0 87.7 0 75.2 0C62.7 0 50.3 0 37.8 0C25.3 0 12.7 0 6.3 0L0 0Z" fill="#264e53"></path><path d="M0 41L6.3 42.8C12.7 44.7 25.3 48.3 37.8 50.3C50.3 52.3 62.7 52.7 75.2 51.7C87.7 50.7 100.3 48.3 112.8 49.2C125.3 50 137.7 54 150.2 54.3C162.7 54.7 175.3 51.3 187.8 50.3C200.3 49.3 212.7 50.7 225.2 51.5C237.7 52.3 250.3 52.7 262.8 53.3C275.3 54 287.7 55 300.2 55.3C312.7 55.7 325.3 55.3 337.8 54C350.3 52.7 362.7 50.3 368.8 49.2L375 48L375 0L368.8 0C362.7 0 350.3 0 337.8 0C325.3 0 312.7 0 300.2 0C287.7 0 275.3 0 262.8 0C250.3 0 237.7 0 225.2 0C212.7 0 200.3 0 187.8 0C175.3 0 162.7 0 150.2 0C137.7 0 125.3 0 112.8 0C100.3 0 87.7 0 75.2 0C62.7 0 50.3 0 37.8 0C25.3 0 12.7 0 6.3 0L0 0Z" fill="#17716d"></path><path d="M0 24L6.3 25C12.7 26 25.3 28 37.8 26.7C50.3 25.3 62.7 20.7 75.2 20.3C87.7 20 100.3 24 112.8 25C125.3 26 137.7 24 150.2 24.5C162.7 25 175.3 28 187.8 28C200.3 28 212.7 25 225.2 23.5C237.7 22 250.3 22 262.8 22.2C275.3 22.3 287.7 22.7 300.2 23.5C312.7 24.3 325.3 25.7 337.8 27.2C350.3 28.7 362.7 30.3 368.8 31.2L375 32L375 0L368.8 0C362.7 0 350.3 0 337.8 0C325.3 0 312.7 0 300.2 0C287.7 0 275.3 0 262.8 0C250.3 0 237.7 0 225.2 0C212.7 0 200.3 0 187.8 0C175.3 0 162.7 0 150.2 0C137.7 0 125.3 0 112.8 0C100.3 0 87.7 0 75.2 0C62.7 0 50.3 0 37.8 0C25.3 0 12.7 0 6.3 0L0 0Z" fill="#1c947b"></path></svg>