<svg id="visual" viewBox="0 0 375 100" width="375" height="100" xmlns="http://www.w3.org/2000/svg" xmlns:xlink="http://www.w3.org/1999/xlink" version="1.1"><rect x="0" y="0" width="375" height="100" fill="#fff"></rect><path d="M0 70L6.3 70.7C12.7 71.3 25.3 72.7 37.8 74.3C50.3 76 62.7 78 75.2 78.8C87.7 79.7 100.3 79.3 112.8 76.8C125.3 74.3 137.7 69.7 150.2 69.5C162.7 69.3 175.3 73.7 187.8 73.8C200.3 74 212.7 70 225.2 69C237.7 68 250.3 70 262.8 70C275.3 70 287.7 68 300.2 68.5C312.7 69 325.3 72 337.8 73.7C350.3 75.3 362.7 75.7 368.8 75.8L375 76L375 0L368.8 0C362.7 0 350.3 0 337.8 0C325.3 0 312.7 0 300.2 0C287.7 0 275.3 0 262.8 0C250.3 0 237.7 0 225.2 0C212.7 0 200.3 0 187.8 0C175.3 0 162.7 0 150.2 0C137.7 0 125.3 0 112.8 0C100.3 0 87.7 0 75.2 0C62.7 0 50.3 0 37.8 0C25.3 0 12.7 0 6.3 0L0 0Z" fill="#264e53"></path><path d="M0 56L6.3 55.2C12.7 54.3 25.3 52.7 37.8 52.8C50.3 53 62.7 55 75.2 55C87.7 55 100.3 53 112.8 50.5C125.3 48 137.7 45 150.2 43C162.7 41 175.3 40 187.8 40.8C200.3 41.7 212.7 44.3 225.2 45.3C237.7 46.3 250.3 45.7 262.8 45.3C275.3 45 287.7 45 300.2 46.5C312.7 48 325.3 51 337.8 51.7C350.3 52.3 362.7 50.7 368.8 49.8L375 49L375 0L368.8 0C362.7 0 350.3 0 337.8 0C325.3 0 312.7 0 300.2 0C287.7 0 275.3 0 262.8 0C250.3 0 237.7 0 225.2 0C212.7 0 200.3 0 187.8 0C175.3 0 162.7 0 150.2 0C137.7 0 125.3 0 112.8 0C100.3 0 87.7 0 75.2 0C62.7 0 50.3 0 37.8 0C25.3 0 12.7 0 6.3 0L0 0Z" fill="#17716d"></path><path d="M0 18L6.3 20.2C12.7 22.3 25.3 26.7 37.8 26.3C50.3 26 62.7 21 75.2 21C87.7 21 100.3 26 112.8 28.5C125.3 31 137.7 31 150.2 30.5C162.7 30 175.3 29 187.8 27.8C200.3 26.7 212.7 25.3 225.2 24.7C237.7 24 250.3 24 262.8 25.3C275.3 26.7 287.7 29.3 300.2 30.7C312.7 32 325.3 32 337.8 29.3C350.3 26.7 362.7 21.3 368.8 18.7L375 16L375 0L368.8 0C362.7 0 350.3 0 337.8 0C325.3 0 312.7 0 300.2 0C287.7 0 275.3 0 262.8 0C250.3 0 237.7 0 225.2 0C212.7 0 200.3 0 187.8 0C175.3 0 162.7 0 150.2 0C137.7 0 125.3 0 112.8 0C100.3 0 87.7 0 75.2 0C62.7 0 50.3 0 37.8 0C25.3 0 12.7 0 6.3 0L0 0Z" fill="#1c947b"></path></svg>