<?xml version="1.0" encoding="UTF-8"?>
<svg id="visual" xmlns="http://www.w3.org/2000/svg" version="1.1" viewBox="0 0 1440 100">
  <!-- Generator: Adobe Illustrator 29.0.1, SVG Export Plug-In . SVG Version: 2.1.0 Build 192)  -->
  <defs>
    <style>
      .st0 {
        fill: #17716d;
      }

      .st1 {
        fill: #264e53;
      }

      .st2 {
        fill: #1c947b;
      }
    </style>
  </defs>
  <path class="st1" d="M0,11l24,3.7c24,3.6,72,11,120,13.1,48,2.2,96-.8,144,.2s96,6,144,5,96-8,144-8.8c48-.9,96,4.5,144,4.3s96-5.8,144-6.8,96,2.6,144,3.5c48,.8,96-1.2,144-3.9,48-2.6,96-6,144-4.5s96,7.9,120,11l24,3.2v69H0V11Z"/>
  <path class="st0" d="M0,55l24-1.8c24-1.9,72-5.5,120-3.5s96,9.6,144,15.1,96,8.9,144,7.2,96-8.3,144-11.2c48-2.8,96-1.8,144,.9,48,2.6,96,7,144,6.6,48-.3,96-5.3,144-7.3s96-1,144-3.2c48-2.1,96-7.5,144-9.5s96-.6,120,0l24,.7V11H0v44Z"/>
  <path class="st2" d="M0,27l24,.7c24,.6,72,2,120,1.8s96-1.8,144-5.3,96-8.9,144-10.4,96,.9,144,2c48,1.2,96,1.2,144,4.4,48,3.1,96,9.5,144,11s96-1.9,144-3.5c48-1.7,96-1.7,144-4,48-2.4,96-7,144-7.2s96,4.2,120,6.3l24,2.2V0H0v27Z"/>
</svg>