<svg id="visual" viewBox="0 0 1440 100" width="1440" height="100" xmlns="http://www.w3.org/2000/svg" xmlns:xlink="http://www.w3.org/1999/xlink" version="1.1"><rect x="0" y="0" width="1440" height="100" fill="#ffffff"></rect><path d="M0 83L24 79.7C48 76.3 96 69.7 144 68.7C192 67.7 240 72.3 288 75.8C336 79.3 384 81.7 432 83C480 84.3 528 84.7 576 85.7C624 86.7 672 88.3 720 84.7C768 81 816 72 864 69.3C912 66.7 960 70.3 1008 73.2C1056 76 1104 78 1152 76.3C1200 74.7 1248 69.3 1296 67.5C1344 65.7 1392 67.3 1416 68.2L1440 69L1440 0L1416 0C1392 0 1344 0 1296 0C1248 0 1200 0 1152 0C1104 0 1056 0 1008 0C960 0 912 0 864 0C816 0 768 0 720 0C672 0 624 0 576 0C528 0 480 0 432 0C384 0 336 0 288 0C240 0 192 0 144 0C96 0 48 0 24 0L0 0Z" fill="#264e53"></path><path d="M0 34L24 38C48 42 96 50 144 51.8C192 53.7 240 49.3 288 49.5C336 49.7 384 54.3 432 55.7C480 57 528 55 576 53.5C624 52 672 51 720 47.7C768 44.3 816 38.7 864 40.8C912 43 960 53 1008 54C1056 55 1104 47 1152 47C1200 47 1248 55 1296 58.7C1344 62.3 1392 61.7 1416 61.3L1440 61L1440 0L1416 0C1392 0 1344 0 1296 0C1248 0 1200 0 1152 0C1104 0 1056 0 1008 0C960 0 912 0 864 0C816 0 768 0 720 0C672 0 624 0 576 0C528 0 480 0 432 0C384 0 336 0 288 0C240 0 192 0 144 0C96 0 48 0 24 0L0 0Z" fill="#17716d"></path><path d="M0 13L24 16.7C48 20.3 96 27.7 144 29.5C192 31.3 240 27.7 288 27.7C336 27.7 384 31.3 432 32C480 32.7 528 30.3 576 28.3C624 26.3 672 24.7 720 26.3C768 28 816 33 864 33.5C912 34 960 30 1008 28.8C1056 27.7 1104 29.3 1152 30.7C1200 32 1248 33 1296 30.7C1344 28.3 1392 22.7 1416 19.8L1440 17L1440 0L1416 0C1392 0 1344 0 1296 0C1248 0 1200 0 1152 0C1104 0 1056 0 1008 0C960 0 912 0 864 0C816 0 768 0 720 0C672 0 624 0 576 0C528 0 480 0 432 0C384 0 336 0 288 0C240 0 192 0 144 0C96 0 48 0 24 0L0 0Z" fill="#1c947b"></path></svg>