<svg id="visual" viewBox="0 0 1440 100" width="1440" height="100" xmlns="http://www.w3.org/2000/svg" xmlns:xlink="http://www.w3.org/1999/xlink" version="1.1"><path d="M0 62L24 64.8C48 67.7 96 73.3 144 76.5C192 79.7 240 80.3 288 80C336 79.7 384 78.3 432 78.2C480 78 528 79 576 80.2C624 81.3 672 82.7 720 81.2C768 79.7 816 75.3 864 72.8C912 70.3 960 69.7 1008 72.8C1056 76 1104 83 1152 84.8C1200 86.7 1248 83.3 1296 80.8C1344 78.3 1392 76.7 1416 75.8L1440 75L1440 0L1416 0C1392 0 1344 0 1296 0C1248 0 1200 0 1152 0C1104 0 1056 0 1008 0C960 0 912 0 864 0C816 0 768 0 720 0C672 0 624 0 576 0C528 0 480 0 432 0C384 0 336 0 288 0C240 0 192 0 144 0C96 0 48 0 24 0L0 0Z" fill="#264e53"></path><path d="M0 46L24 47.8C48 49.7 96 53.3 144 53.7C192 54 240 51 288 47.2C336 43.3 384 38.7 432 39.7C480 40.7 528 47.3 576 49C624 50.7 672 47.3 720 48.8C768 50.3 816 56.7 864 58.3C912 60 960 57 1008 57.2C1056 57.3 1104 60.7 1152 62.7C1200 64.7 1248 65.3 1296 63.3C1344 61.3 1392 56.7 1416 54.3L1440 52L1440 0L1416 0C1392 0 1344 0 1296 0C1248 0 1200 0 1152 0C1104 0 1056 0 1008 0C960 0 912 0 864 0C816 0 768 0 720 0C672 0 624 0 576 0C528 0 480 0 432 0C384 0 336 0 288 0C240 0 192 0 144 0C96 0 48 0 24 0L0 0Z" fill="#17716d"></path><path d="M0 21L24 20.7C48 20.3 96 19.7 144 22.5C192 25.3 240 31.7 288 30.8C336 30 384 22 432 18.7C480 15.3 528 16.7 576 17.8C624 19 672 20 720 21.3C768 22.7 816 24.3 864 25.5C912 26.7 960 27.3 1008 29.7C1056 32 1104 36 1152 32.7C1200 29.3 1248 18.7 1296 15.8C1344 13 1392 18 1416 20.5L1440 23L1440 0L1416 0C1392 0 1344 0 1296 0C1248 0 1200 0 1152 0C1104 0 1056 0 1008 0C960 0 912 0 864 0C816 0 768 0 720 0C672 0 624 0 576 0C528 0 480 0 432 0C384 0 336 0 288 0C240 0 192 0 144 0C96 0 48 0 24 0L0 0Z" fill="#1c947b"></path></svg>