<svg id="visual" viewBox="0 0 1440 100" width="1440" height="100" xmlns="http://www.w3.org/2000/svg" xmlns:xlink="http://www.w3.org/1999/xlink" version="1.1"><rect x="0" y="0" width="1440" height="100" fill="#ffffff"></rect><path d="M0 86L24 82.8C48 79.7 96 73.3 144 72.5C192 71.7 240 76.3 288 79.5C336 82.7 384 84.3 432 82.8C480 81.3 528 76.7 576 72.3C624 68 672 64 720 63C768 62 816 64 864 66C912 68 960 70 1008 70.8C1056 71.7 1104 71.3 1152 69C1200 66.7 1248 62.3 1296 64C1344 65.7 1392 73.3 1416 77.2L1440 81L1440 0L1416 0C1392 0 1344 0 1296 0C1248 0 1200 0 1152 0C1104 0 1056 0 1008 0C960 0 912 0 864 0C816 0 768 0 720 0C672 0 624 0 576 0C528 0 480 0 432 0C384 0 336 0 288 0C240 0 192 0 144 0C96 0 48 0 24 0L0 0Z" fill="#264e53"></path><path d="M0 47L24 45.2C48 43.3 96 39.7 144 40.2C192 40.7 240 45.3 288 45.8C336 46.3 384 42.7 432 41C480 39.3 528 39.7 576 43.3C624 47 672 54 720 53C768 52 816 43 864 43.8C912 44.7 960 55.3 1008 57.3C1056 59.3 1104 52.7 1152 48.5C1200 44.3 1248 42.7 1296 40.5C1344 38.3 1392 35.7 1416 34.3L1440 33L1440 0L1416 0C1392 0 1344 0 1296 0C1248 0 1200 0 1152 0C1104 0 1056 0 1008 0C960 0 912 0 864 0C816 0 768 0 720 0C672 0 624 0 576 0C528 0 480 0 432 0C384 0 336 0 288 0C240 0 192 0 144 0C96 0 48 0 24 0L0 0Z" fill="#17716d"></path><path d="M0 12L24 15.3C48 18.7 96 25.3 144 29C192 32.7 240 33.3 288 31C336 28.7 384 23.3 432 24.2C480 25 528 32 576 35.5C624 39 672 39 720 34.2C768 29.3 816 19.7 864 15.5C912 11.3 960 12.7 1008 12.3C1056 12 1104 10 1152 10.7C1200 11.3 1248 14.7 1296 17C1344 19.3 1392 20.7 1416 21.3L1440 22L1440 0L1416 0C1392 0 1344 0 1296 0C1248 0 1200 0 1152 0C1104 0 1056 0 1008 0C960 0 912 0 864 0C816 0 768 0 720 0C672 0 624 0 576 0C528 0 480 0 432 0C384 0 336 0 288 0C240 0 192 0 144 0C96 0 48 0 24 0L0 0Z" fill="#1c947b"></path></svg>