<svg id="visual" viewBox="0 0 1440 100" width="1440" height="100" xmlns="http://www.w3.org/2000/svg" xmlns:xlink="http://www.w3.org/1999/xlink" version="1.1"><rect x="0" y="0" width="1440" height="100" fill="#ffffff"></rect><path d="M0 87L24 84.8C48 82.7 96 78.3 144 77.8C192 77.3 240 80.7 288 82.8C336 85 384 86 432 83C480 80 528 73 576 71.8C624 70.7 672 75.3 720 77.2C768 79 816 78 864 78.2C912 78.3 960 79.7 1008 80.7C1056 81.7 1104 82.3 1152 79.2C1200 76 1248 69 1296 68.7C1344 68.3 1392 74.7 1416 77.8L1440 81L1440 0L1416 0C1392 0 1344 0 1296 0C1248 0 1200 0 1152 0C1104 0 1056 0 1008 0C960 0 912 0 864 0C816 0 768 0 720 0C672 0 624 0 576 0C528 0 480 0 432 0C384 0 336 0 288 0C240 0 192 0 144 0C96 0 48 0 24 0L0 0Z" fill="#264e53"></path><path d="M0 66L24 61.8C48 57.7 96 49.3 144 45.7C192 42 240 43 288 42C336 41 384 38 432 36C480 34 528 33 576 34.5C624 36 672 40 720 41C768 42 816 40 864 42.8C912 45.7 960 53.3 1008 54.2C1056 55 1104 49 1152 46.7C1200 44.3 1248 45.7 1296 45.2C1344 44.7 1392 42.3 1416 41.2L1440 40L1440 0L1416 0C1392 0 1344 0 1296 0C1248 0 1200 0 1152 0C1104 0 1056 0 1008 0C960 0 912 0 864 0C816 0 768 0 720 0C672 0 624 0 576 0C528 0 480 0 432 0C384 0 336 0 288 0C240 0 192 0 144 0C96 0 48 0 24 0L0 0Z" fill="#17716d"></path><path d="M0 29L24 28.5C48 28 96 27 144 23.7C192 20.3 240 14.7 288 16.8C336 19 384 29 432 31.5C480 34 528 29 576 24.3C624 19.7 672 15.3 720 15.8C768 16.3 816 21.7 864 26.2C912 30.7 960 34.3 1008 36C1056 37.7 1104 37.3 1152 36.5C1200 35.7 1248 34.3 1296 32.5C1344 30.7 1392 28.3 1416 27.2L1440 26L1440 0L1416 0C1392 0 1344 0 1296 0C1248 0 1200 0 1152 0C1104 0 1056 0 1008 0C960 0 912 0 864 0C816 0 768 0 720 0C672 0 624 0 576 0C528 0 480 0 432 0C384 0 336 0 288 0C240 0 192 0 144 0C96 0 48 0 24 0L0 0Z" fill="#1c947b"></path></svg>