<svg id="visual" viewBox="0 0 1440 100" width="1440" height="100" xmlns="http://www.w3.org/2000/svg" xmlns:xlink="http://www.w3.org/1999/xlink" version="1.1"><path d="M0 71L24 72C48 73 96 75 144 73.2C192 71.3 240 65.7 288 65.7C336 65.7 384 71.3 432 70.8C480 70.3 528 63.7 576 65.8C624 68 672 79 720 80.3C768 81.7 816 73.3 864 68C912 62.7 960 60.3 1008 62.3C1056 64.3 1104 70.7 1152 73.8C1200 77 1248 77 1296 77.3C1344 77.7 1392 78.3 1416 78.7L1440 79L1440 0L1416 0C1392 0 1344 0 1296 0C1248 0 1200 0 1152 0C1104 0 1056 0 1008 0C960 0 912 0 864 0C816 0 768 0 720 0C672 0 624 0 576 0C528 0 480 0 432 0C384 0 336 0 288 0C240 0 192 0 144 0C96 0 48 0 24 0L0 0Z" fill="#264e53"></path><path d="M0 56L24 56C48 56 96 56 144 53C192 50 240 44 288 44.8C336 45.7 384 53.3 432 53C480 52.7 528 44.3 576 42C624 39.7 672 43.3 720 44.8C768 46.3 816 45.7 864 46C912 46.3 960 47.7 1008 45.7C1056 43.7 1104 38.3 1152 38.5C1200 38.7 1248 44.3 1296 46.7C1344 49 1392 48 1416 47.5L1440 47L1440 0L1416 0C1392 0 1344 0 1296 0C1248 0 1200 0 1152 0C1104 0 1056 0 1008 0C960 0 912 0 864 0C816 0 768 0 720 0C672 0 624 0 576 0C528 0 480 0 432 0C384 0 336 0 288 0C240 0 192 0 144 0C96 0 48 0 24 0L0 0Z" fill="#17716d"></path><path d="M0 13L24 14.8C48 16.7 96 20.3 144 23.2C192 26 240 28 288 25.2C336 22.3 384 14.7 432 14.7C480 14.7 528 22.3 576 26.7C624 31 672 32 720 32.2C768 32.3 816 31.7 864 29.2C912 26.7 960 22.3 1008 18.3C1056 14.3 1104 10.7 1152 10.3C1200 10 1248 13 1296 16C1344 19 1392 22 1416 23.5L1440 25L1440 0L1416 0C1392 0 1344 0 1296 0C1248 0 1200 0 1152 0C1104 0 1056 0 1008 0C960 0 912 0 864 0C816 0 768 0 720 0C672 0 624 0 576 0C528 0 480 0 432 0C384 0 336 0 288 0C240 0 192 0 144 0C96 0 48 0 24 0L0 0Z" fill="#1c947b"></path></svg>