<?xml version="1.0" encoding="UTF-8"?>
<svg id="visual" xmlns="http://www.w3.org/2000/svg" version="1.1" viewBox="0 0 375 100">
  <!-- Generator: Adobe Illustrator 29.0.1, SVG Export Plug-In . SVG Version: 2.1.0 Build 192)  -->
  <defs>
    <style>
      .st0 {
        fill: #17716d;
      }

      .st1 {
        fill: #264e53;
      }

      .st2 {
        fill: #1c947b;
      }
    </style>
  </defs>
  <path class="st1" d="M0,19l6.3.8c6.4.9,19,2.5,31.5,3.4,12.5.8,24.9.8,37.4-.2,12.5-1,25.1-3,37.6-3.3,12.5-.4,24.9,1,37.4.8s25.1-1.8,37.6-.5,24.9,5.7,37.4,7.7,25.1,1.6,37.6,0c12.5-1.7,24.9-4.7,37.4-4.4,12.5.4,25.1,4,37.6,4.9,12.5.8,24.9-1.2,31-2.2l6.2-1v75H0V19Z"/>
  <path class="st0" d="M0,70.8l6.3-1.2c6.4-1.1,19-3.5,31.5-4.1,12.5-.7,24.9.3,37.4,3,12.5,2.6,25.1,7,37.6,9.1,12.5,2.2,24.9,2.2,37.4-.8s25.1-9,37.6-10.8c12.5-1.9,24.9.5,37.4,1.3s25.1.2,37.6,2c12.5,1.8,24.9,6.2,37.4,8.2s25.1,1.6,37.6-.7,24.9-6.7,31-8.8l6.2-2.2V20.8H0v50Z"/>
  <path class="st2" d="M0,25.5l6.3,2.6c6.4,2.4,19,7.5,31.5,7.5s24.9-5.1,37.4-7.4c12.5-2.2,25.1-1.6,37.6-1.5,12.5.3,24.9.3,37.4.8,12.5.6,25.1,1.5,37.6,3.8s24.9,5.9,37.4,8.9,25.1,5.4,37.6,4.9c12.5-.4,24.9-4.1,37.4-3.8s25.1,4.2,37.6,4.1c12.5-.3,24.9-4.8,31-7.1l6.2-2.2V0H0v25.5Z"/>
</svg>