<svg id="visual" viewBox="0 0 375 100" width="375" height="100" xmlns="http://www.w3.org/2000/svg" xmlns:xlink="http://www.w3.org/1999/xlink" version="1.1"><rect x="0" y="0" width="375" height="100" fill="#fff"></rect><path d="M0 67L6.3 68C12.7 69 25.3 71 37.8 73.7C50.3 76.3 62.7 79.7 75.2 79.5C87.7 79.3 100.3 75.7 112.8 72.7C125.3 69.7 137.7 67.3 150.2 66.5C162.7 65.7 175.3 66.3 187.8 67.3C200.3 68.3 212.7 69.7 225.2 70.5C237.7 71.3 250.3 71.7 262.8 71C275.3 70.3 287.7 68.7 300.2 69.5C312.7 70.3 325.3 73.7 337.8 74.8C350.3 76 362.7 75 368.8 74.5L375 74L375 0L368.8 0C362.7 0 350.3 0 337.8 0C325.3 0 312.7 0 300.2 0C287.7 0 275.3 0 262.8 0C250.3 0 237.7 0 225.2 0C212.7 0 200.3 0 187.8 0C175.3 0 162.7 0 150.2 0C137.7 0 125.3 0 112.8 0C100.3 0 87.7 0 75.2 0C62.7 0 50.3 0 37.8 0C25.3 0 12.7 0 6.3 0L0 0Z" fill="#264e53"></path><path d="M0 56L6.3 56.2C12.7 56.3 25.3 56.7 37.8 54.3C50.3 52 62.7 47 75.2 47C87.7 47 100.3 52 112.8 52.2C125.3 52.3 137.7 47.7 150.2 45.3C162.7 43 175.3 43 187.8 45.5C200.3 48 212.7 53 225.2 54.3C237.7 55.7 250.3 53.3 262.8 50.7C275.3 48 287.7 45 300.2 44C312.7 43 325.3 44 337.8 46.7C350.3 49.3 362.7 53.7 368.8 55.8L375 58L375 0L368.8 0C362.7 0 350.3 0 337.8 0C325.3 0 312.7 0 300.2 0C287.7 0 275.3 0 262.8 0C250.3 0 237.7 0 225.2 0C212.7 0 200.3 0 187.8 0C175.3 0 162.7 0 150.2 0C137.7 0 125.3 0 112.8 0C100.3 0 87.7 0 75.2 0C62.7 0 50.3 0 37.8 0C25.3 0 12.7 0 6.3 0L0 0Z" fill="#17716d"></path><path d="M0 26L6.3 25.2C12.7 24.3 25.3 22.7 37.8 20.8C50.3 19 62.7 17 75.2 18.5C87.7 20 100.3 25 112.8 25C125.3 25 137.7 20 150.2 17.7C162.7 15.3 175.3 15.7 187.8 16.5C200.3 17.3 212.7 18.7 225.2 18.7C237.7 18.7 250.3 17.3 262.8 17.8C275.3 18.3 287.7 20.7 300.2 21.2C312.7 21.7 325.3 20.3 337.8 20.2C350.3 20 362.7 21 368.8 21.5L375 22L375 0L368.8 0C362.7 0 350.3 0 337.8 0C325.3 0 312.7 0 300.2 0C287.7 0 275.3 0 262.8 0C250.3 0 237.7 0 225.2 0C212.7 0 200.3 0 187.8 0C175.3 0 162.7 0 150.2 0C137.7 0 125.3 0 112.8 0C100.3 0 87.7 0 75.2 0C62.7 0 50.3 0 37.8 0C25.3 0 12.7 0 6.3 0L0 0Z" fill="#1c947b"></path></svg>