<svg id="visual" viewBox="0 0 375 100" width="375" height="100" xmlns="http://www.w3.org/2000/svg" xmlns:xlink="http://www.w3.org/1999/xlink" version="1.1"><path d="M0 84L6.3 82.7C12.7 81.3 25.3 78.7 37.8 75.7C50.3 72.7 62.7 69.3 75.2 67.8C87.7 66.3 100.3 66.7 112.8 68.7C125.3 70.7 137.7 74.3 150.2 74.5C162.7 74.7 175.3 71.3 187.8 70.5C200.3 69.7 212.7 71.3 225.2 71.5C237.7 71.7 250.3 70.3 262.8 71.8C275.3 73.3 287.7 77.7 300.2 77C312.7 76.3 325.3 70.7 337.8 68.2C350.3 65.7 362.7 66.3 368.8 66.7L375 67L375 0L368.8 0C362.7 0 350.3 0 337.8 0C325.3 0 312.7 0 300.2 0C287.7 0 275.3 0 262.8 0C250.3 0 237.7 0 225.2 0C212.7 0 200.3 0 187.8 0C175.3 0 162.7 0 150.2 0C137.7 0 125.3 0 112.8 0C100.3 0 87.7 0 75.2 0C62.7 0 50.3 0 37.8 0C25.3 0 12.7 0 6.3 0L0 0Z" fill="#264e53"></path><path d="M0 55L6.3 53.5C12.7 52 25.3 49 37.8 47.7C50.3 46.3 62.7 46.7 75.2 48.7C87.7 50.7 100.3 54.3 112.8 56C125.3 57.7 137.7 57.3 150.2 55.2C162.7 53 175.3 49 187.8 48.3C200.3 47.7 212.7 50.3 225.2 49.8C237.7 49.3 250.3 45.7 262.8 45.2C275.3 44.7 287.7 47.3 300.2 47.3C312.7 47.3 325.3 44.7 337.8 44.2C350.3 43.7 362.7 45.3 368.8 46.2L375 47L375 0L368.8 0C362.7 0 350.3 0 337.8 0C325.3 0 312.7 0 300.2 0C287.7 0 275.3 0 262.8 0C250.3 0 237.7 0 225.2 0C212.7 0 200.3 0 187.8 0C175.3 0 162.7 0 150.2 0C137.7 0 125.3 0 112.8 0C100.3 0 87.7 0 75.2 0C62.7 0 50.3 0 37.8 0C25.3 0 12.7 0 6.3 0L0 0Z" fill="#17716d"></path><path d="M0 14L6.3 16.5C12.7 19 25.3 24 37.8 27.2C50.3 30.3 62.7 31.7 75.2 29.8C87.7 28 100.3 23 112.8 21C125.3 19 137.7 20 150.2 20.8C162.7 21.7 175.3 22.3 187.8 23.2C200.3 24 212.7 25 225.2 23.5C237.7 22 250.3 18 262.8 16.2C275.3 14.3 287.7 14.7 300.2 15.2C312.7 15.7 325.3 16.3 337.8 16.3C350.3 16.3 362.7 15.7 368.8 15.3L375 15L375 0L368.8 0C362.7 0 350.3 0 337.8 0C325.3 0 312.7 0 300.2 0C287.7 0 275.3 0 262.8 0C250.3 0 237.7 0 225.2 0C212.7 0 200.3 0 187.8 0C175.3 0 162.7 0 150.2 0C137.7 0 125.3 0 112.8 0C100.3 0 87.7 0 75.2 0C62.7 0 50.3 0 37.8 0C25.3 0 12.7 0 6.3 0L0 0Z" fill="#1c947b"></path></svg>