<svg id="visual" viewBox="0 0 1440 100" width="1440" height="100" xmlns="http://www.w3.org/2000/svg" xmlns:xlink="http://www.w3.org/1999/xlink" version="1.1"><rect x="0" y="0" width="1440" height="100" fill="#ffffff"></rect><path d="M0 15L24 18.3C48 21.7 96 28.3 144 29.3C192 30.3 240 25.7 288 22.2C336 18.7 384 16.3 432 15C480 13.7 528 13.3 576 12.3C624 11.3 672 9.7 720 13.3C768 17 816 26 864 28.7C912 31.3 960 27.7 1008 24.8C1056 22 1104 20 1152 21.7C1200 23.3 1248 28.7 1296 30.5C1344 32.3 1392 30.7 1416 29.8L1440 29L1440 101L1416 101C1392 101 1344 101 1296 101C1248 101 1200 101 1152 101C1104 101 1056 101 1008 101C960 101 912 101 864 101C816 101 768 101 720 101C672 101 624 101 576 101C528 101 480 101 432 101C384 101 336 101 288 101C240 101 192 101 144 101C96 101 48 101 24 101L0 101Z" fill="#264e53"></path><path d="M0 64L24 60C48 56 96 48 144 46.2C192 44.3 240 48.7 288 48.5C336 48.3 384 43.7 432 42.3C480 41 528 43 576 44.5C624 46 672 47 720 50.3C768 53.7 816 59.3 864 57.2C912 55 960 45 1008 44C1056 43 1104 51 1152 51C1200 51 1248 43 1296 39.3C1344 35.7 1392 36.3 1416 36.7L1440 37L1440 101L1416 101C1392 101 1344 101 1296 101C1248 101 1200 101 1152 101C1104 101 1056 101 1008 101C960 101 912 101 864 101C816 101 768 101 720 101C672 101 624 101 576 101C528 101 480 101 432 101C384 101 336 101 288 101C240 101 192 101 144 101C96 101 48 101 24 101L0 101Z" fill="#17716d"></path><path d="M0 85L24 81.3C48 77.7 96 70.3 144 68.5C192 66.7 240 70.3 288 70.3C336 70.3 384 66.7 432 66C480 65.3 528 67.7 576 69.7C624 71.7 672 73.3 720 71.7C768 70 816 65 864 64.5C912 64 960 68 1008 69.2C1056 70.3 1104 68.7 1152 67.3C1200 66 1248 65 1296 67.3C1344 69.7 1392 75.3 1416 78.2L1440 81L1440 101L1416 101C1392 101 1344 101 1296 101C1248 101 1200 101 1152 101C1104 101 1056 101 1008 101C960 101 912 101 864 101C816 101 768 101 720 101C672 101 624 101 576 101C528 101 480 101 432 101C384 101 336 101 288 101C240 101 192 101 144 101C96 101 48 101 24 101L0 101Z" fill="#1c947b"></path></svg>