<svg id="visual" viewBox="0 0 1440 100" width="1440" height="100" xmlns="http://www.w3.org/2000/svg" xmlns:xlink="http://www.w3.org/1999/xlink" version="1.1"><rect x="0" y="0" width="1440" height="100" fill="#ffffff"></rect><path d="M0 11L24 13.2C48 15.3 96 19.7 144 20.2C192 20.7 240 17.3 288 15.2C336 13 384 12 432 15C480 18 528 25 576 26.2C624 27.3 672 22.7 720 20.8C768 19 816 20 864 19.8C912 19.7 960 18.3 1008 17.3C1056 16.3 1104 15.7 1152 18.8C1200 22 1248 29 1296 29.3C1344 29.7 1392 23.3 1416 20.2L1440 17L1440 101L1416 101C1392 101 1344 101 1296 101C1248 101 1200 101 1152 101C1104 101 1056 101 1008 101C960 101 912 101 864 101C816 101 768 101 720 101C672 101 624 101 576 101C528 101 480 101 432 101C384 101 336 101 288 101C240 101 192 101 144 101C96 101 48 101 24 101L0 101Z" fill="#264e53"></path><path d="M0 32L24 36.2C48 40.3 96 48.7 144 52.3C192 56 240 55 288 56C336 57 384 60 432 62C480 64 528 65 576 63.5C624 62 672 58 720 57C768 56 816 58 864 55.2C912 52.3 960 44.7 1008 43.8C1056 43 1104 49 1152 51.3C1200 53.7 1248 52.3 1296 52.8C1344 53.3 1392 55.7 1416 56.8L1440 58L1440 101L1416 101C1392 101 1344 101 1296 101C1248 101 1200 101 1152 101C1104 101 1056 101 1008 101C960 101 912 101 864 101C816 101 768 101 720 101C672 101 624 101 576 101C528 101 480 101 432 101C384 101 336 101 288 101C240 101 192 101 144 101C96 101 48 101 24 101L0 101Z" fill="#17716d"></path><path d="M0 69L24 69.5C48 70 96 71 144 74.3C192 77.7 240 83.3 288 81.2C336 79 384 69 432 66.5C480 64 528 69 576 73.7C624 78.3 672 82.7 720 82.2C768 81.7 816 76.3 864 71.8C912 67.3 960 63.7 1008 62C1056 60.3 1104 60.7 1152 61.5C1200 62.3 1248 63.7 1296 65.5C1344 67.3 1392 69.7 1416 70.8L1440 72L1440 101L1416 101C1392 101 1344 101 1296 101C1248 101 1200 101 1152 101C1104 101 1056 101 1008 101C960 101 912 101 864 101C816 101 768 101 720 101C672 101 624 101 576 101C528 101 480 101 432 101C384 101 336 101 288 101C240 101 192 101 144 101C96 101 48 101 24 101L0 101Z" fill="#1c947b"></path></svg>