<svg id="visual" viewBox="0 0 1440 100" width="1440" height="100" xmlns="http://www.w3.org/2000/svg" xmlns:xlink="http://www.w3.org/1999/xlink" version="1.1"><rect x="0" y="0" width="1440" height="100" fill="#ffffff"></rect><path d="M0 12L24 15.2C48 18.3 96 24.7 144 25.5C192 26.3 240 21.7 288 18.5C336 15.3 384 13.7 432 15.2C480 16.7 528 21.3 576 25.7C624 30 672 34 720 35C768 36 816 34 864 32C912 30 960 28 1008 27.2C1056 26.3 1104 26.7 1152 29C1200 31.3 1248 35.7 1296 34C1344 32.3 1392 24.7 1416 20.8L1440 17L1440 101L1416 101C1392 101 1344 101 1296 101C1248 101 1200 101 1152 101C1104 101 1056 101 1008 101C960 101 912 101 864 101C816 101 768 101 720 101C672 101 624 101 576 101C528 101 480 101 432 101C384 101 336 101 288 101C240 101 192 101 144 101C96 101 48 101 24 101L0 101Z" fill="#264e53"></path><path d="M0 51L24 52.8C48 54.7 96 58.3 144 57.8C192 57.3 240 52.7 288 52.2C336 51.7 384 55.3 432 57C480 58.7 528 58.3 576 54.7C624 51 672 44 720 45C768 46 816 55 864 54.2C912 53.3 960 42.7 1008 40.7C1056 38.7 1104 45.3 1152 49.5C1200 53.7 1248 55.3 1296 57.5C1344 59.7 1392 62.3 1416 63.7L1440 65L1440 101L1416 101C1392 101 1344 101 1296 101C1248 101 1200 101 1152 101C1104 101 1056 101 1008 101C960 101 912 101 864 101C816 101 768 101 720 101C672 101 624 101 576 101C528 101 480 101 432 101C384 101 336 101 288 101C240 101 192 101 144 101C96 101 48 101 24 101L0 101Z" fill="#17716d"></path><path d="M0 86L24 82.7C48 79.3 96 72.7 144 69C192 65.3 240 64.7 288 67C336 69.3 384 74.7 432 73.8C480 73 528 66 576 62.5C624 59 672 59 720 63.8C768 68.7 816 78.3 864 82.5C912 86.7 960 85.3 1008 85.7C1056 86 1104 88 1152 87.3C1200 86.7 1248 83.3 1296 81C1344 78.7 1392 77.3 1416 76.7L1440 76L1440 101L1416 101C1392 101 1344 101 1296 101C1248 101 1200 101 1152 101C1104 101 1056 101 1008 101C960 101 912 101 864 101C816 101 768 101 720 101C672 101 624 101 576 101C528 101 480 101 432 101C384 101 336 101 288 101C240 101 192 101 144 101C96 101 48 101 24 101L0 101Z" fill="#1c947b"></path></svg>