<svg id="visual" viewBox="0 0 375 100" width="375" height="100" xmlns="http://www.w3.org/2000/svg" xmlns:xlink="http://www.w3.org/1999/xlink" version="1.1"><rect x="0" y="0" width="375" height="100" fill="#fff"></rect><path d="M0 22L6.3 21.2C12.7 20.3 25.3 18.7 37.8 19.5C50.3 20.3 62.7 23.7 75.2 24.7C87.7 25.7 100.3 24.3 112.8 22.3C125.3 20.3 137.7 17.7 150.2 18C162.7 18.3 175.3 21.7 187.8 23.5C200.3 25.3 212.7 25.7 225.2 24.8C237.7 24 250.3 22 262.8 22.5C275.3 23 287.7 26 300.2 25C312.7 24 325.3 19 337.8 19.3C350.3 19.7 362.7 25.3 368.8 28.2L375 31L375 101L368.8 101C362.7 101 350.3 101 337.8 101C325.3 101 312.7 101 300.2 101C287.7 101 275.3 101 262.8 101C250.3 101 237.7 101 225.2 101C212.7 101 200.3 101 187.8 101C175.3 101 162.7 101 150.2 101C137.7 101 125.3 101 112.8 101C100.3 101 87.7 101 75.2 101C62.7 101 50.3 101 37.8 101C25.3 101 12.7 101 6.3 101L0 101Z" fill="#264e53"></path><path d="M0 44L6.3 45.8C12.7 47.7 25.3 51.3 37.8 53C50.3 54.7 62.7 54.3 75.2 53C87.7 51.7 100.3 49.3 112.8 49C125.3 48.7 137.7 50.3 150.2 51.8C162.7 53.3 175.3 54.7 187.8 52.8C200.3 51 212.7 46 225.2 46.3C237.7 46.7 250.3 52.3 262.8 54.3C275.3 56.3 287.7 54.7 300.2 52.2C312.7 49.7 325.3 46.3 337.8 45.8C350.3 45.3 362.7 47.7 368.8 48.8L375 50L375 101L368.8 101C362.7 101 350.3 101 337.8 101C325.3 101 312.7 101 300.2 101C287.7 101 275.3 101 262.8 101C250.3 101 237.7 101 225.2 101C212.7 101 200.3 101 187.8 101C175.3 101 162.7 101 150.2 101C137.7 101 125.3 101 112.8 101C100.3 101 87.7 101 75.2 101C62.7 101 50.3 101 37.8 101C25.3 101 12.7 101 6.3 101L0 101Z" fill="#17716d"></path><path d="M0 70L6.3 69.7C12.7 69.3 25.3 68.7 37.8 68.8C50.3 69 62.7 70 75.2 70.3C87.7 70.7 100.3 70.3 112.8 70.2C125.3 70 137.7 70 150.2 69.2C162.7 68.3 175.3 66.7 187.8 67.3C200.3 68 212.7 71 225.2 72.8C237.7 74.7 250.3 75.3 262.8 75.5C275.3 75.7 287.7 75.3 300.2 76.3C312.7 77.3 325.3 79.7 337.8 79.2C350.3 78.7 362.7 75.3 368.8 73.7L375 72L375 101L368.8 101C362.7 101 350.3 101 337.8 101C325.3 101 312.7 101 300.2 101C287.7 101 275.3 101 262.8 101C250.3 101 237.7 101 225.2 101C212.7 101 200.3 101 187.8 101C175.3 101 162.7 101 150.2 101C137.7 101 125.3 101 112.8 101C100.3 101 87.7 101 75.2 101C62.7 101 50.3 101 37.8 101C25.3 101 12.7 101 6.3 101L0 101Z" fill="#1c947b"></path></svg>