<svg id="visual" viewBox="0 0 375 100" width="375" height="100" xmlns="http://www.w3.org/2000/svg" xmlns:xlink="http://www.w3.org/1999/xlink" version="1.1"><rect x="0" y="0" width="375" height="100" fill="#fff"></rect><path d="M0 20L6.3 22.2C12.7 24.3 25.3 28.7 37.8 28C50.3 27.3 62.7 21.7 75.2 21.5C87.7 21.3 100.3 26.7 112.8 26.8C125.3 27 137.7 22 150.2 19.8C162.7 17.7 175.3 18.3 187.8 18C200.3 17.7 212.7 16.3 225.2 18.5C237.7 20.7 250.3 26.3 262.8 27.3C275.3 28.3 287.7 24.7 300.2 22.7C312.7 20.7 325.3 20.3 337.8 22.3C350.3 24.3 362.7 28.7 368.8 30.8L375 33L375 101L368.8 101C362.7 101 350.3 101 337.8 101C325.3 101 312.7 101 300.2 101C287.7 101 275.3 101 262.8 101C250.3 101 237.7 101 225.2 101C212.7 101 200.3 101 187.8 101C175.3 101 162.7 101 150.2 101C137.7 101 125.3 101 112.8 101C100.3 101 87.7 101 75.2 101C62.7 101 50.3 101 37.8 101C25.3 101 12.7 101 6.3 101L0 101Z" fill="#264e53"></path><path d="M0 45L6.3 45C12.7 45 25.3 45 37.8 44.2C50.3 43.3 62.7 41.7 75.2 41.5C87.7 41.3 100.3 42.7 112.8 42.7C125.3 42.7 137.7 41.3 150.2 41.7C162.7 42 175.3 44 187.8 46C200.3 48 212.7 50 225.2 49.5C237.7 49 250.3 46 262.8 46.7C275.3 47.3 287.7 51.7 300.2 51C312.7 50.3 325.3 44.7 337.8 41.8C350.3 39 362.7 39 368.8 39L375 39L375 101L368.8 101C362.7 101 350.3 101 337.8 101C325.3 101 312.7 101 300.2 101C287.7 101 275.3 101 262.8 101C250.3 101 237.7 101 225.2 101C212.7 101 200.3 101 187.8 101C175.3 101 162.7 101 150.2 101C137.7 101 125.3 101 112.8 101C100.3 101 87.7 101 75.2 101C62.7 101 50.3 101 37.8 101C25.3 101 12.7 101 6.3 101L0 101Z" fill="#17716d"></path><path d="M0 65L6.3 66C12.7 67 25.3 69 37.8 70.8C50.3 72.7 62.7 74.3 75.2 73.5C87.7 72.7 100.3 69.3 112.8 70C125.3 70.7 137.7 75.3 150.2 77.2C162.7 79 175.3 78 187.8 76C200.3 74 212.7 71 225.2 71.7C237.7 72.3 250.3 76.7 262.8 76.8C275.3 77 287.7 73 300.2 72.7C312.7 72.3 325.3 75.7 337.8 75C350.3 74.3 362.7 69.7 368.8 67.3L375 65L375 101L368.8 101C362.7 101 350.3 101 337.8 101C325.3 101 312.7 101 300.2 101C287.7 101 275.3 101 262.8 101C250.3 101 237.7 101 225.2 101C212.7 101 200.3 101 187.8 101C175.3 101 162.7 101 150.2 101C137.7 101 125.3 101 112.8 101C100.3 101 87.7 101 75.2 101C62.7 101 50.3 101 37.8 101C25.3 101 12.7 101 6.3 101L0 101Z" fill="#1c947b"></path></svg>