<svg id="visual" viewBox="0 0 1440 100" width="1440" height="100" xmlns="http://www.w3.org/2000/svg" xmlns:xlink="http://www.w3.org/1999/xlink" version="1.1"><rect x="0" y="0" width="1440" height="100" fill="#264E53"></rect><path d="M0 82L24 79.2C48 76.3 96 70.7 144 68.3C192 66 240 67 288 69.2C336 71.3 384 74.7 432 76.8C480 79 528 80 576 76.5C624 73 672 65 720 65.8C768 66.7 816 76.3 864 80.8C912 85.3 960 84.7 1008 83.7C1056 82.7 1104 81.3 1152 79C1200 76.7 1248 73.3 1296 73C1344 72.7 1392 75.3 1416 76.7L1440 78L1440 0L1416 0C1392 0 1344 0 1296 0C1248 0 1200 0 1152 0C1104 0 1056 0 1008 0C960 0 912 0 864 0C816 0 768 0 720 0C672 0 624 0 576 0C528 0 480 0 432 0C384 0 336 0 288 0C240 0 192 0 144 0C96 0 48 0 24 0L0 0Z" fill="#1c947b"></path><path d="M0 61L24 60.3C48 59.7 96 58.3 144 56.5C192 54.7 240 52.3 288 48.8C336 45.3 384 40.7 432 39.2C480 37.7 528 39.3 576 41C624 42.7 672 44.3 720 45.2C768 46 816 46 864 46C912 46 960 46 1008 46C1056 46 1104 46 1152 48.3C1200 50.7 1248 55.3 1296 55.3C1344 55.3 1392 50.7 1416 48.3L1440 46L1440 0L1416 0C1392 0 1344 0 1296 0C1248 0 1200 0 1152 0C1104 0 1056 0 1008 0C960 0 912 0 864 0C816 0 768 0 720 0C672 0 624 0 576 0C528 0 480 0 432 0C384 0 336 0 288 0C240 0 192 0 144 0C96 0 48 0 24 0L0 0Z" fill="#99c9bb"></path><path d="M0 15L24 15.2C48 15.3 96 15.7 144 17.5C192 19.3 240 22.7 288 25.2C336 27.7 384 29.3 432 27.7C480 26 528 21 576 21.8C624 22.7 672 29.3 720 28.8C768 28.3 816 20.7 864 17.7C912 14.7 960 16.3 1008 20.8C1056 25.3 1104 32.7 1152 33.8C1200 35 1248 30 1296 26.7C1344 23.3 1392 21.7 1416 20.8L1440 20L1440 0L1416 0C1392 0 1344 0 1296 0C1248 0 1200 0 1152 0C1104 0 1056 0 1008 0C960 0 912 0 864 0C816 0 768 0 720 0C672 0 624 0 576 0C528 0 480 0 432 0C384 0 336 0 288 0C240 0 192 0 144 0C96 0 48 0 24 0L0 0Z" fill="#ffffff"></path></svg>