<svg id="visual" viewBox="0 0 375 100" width="375" height="100" xmlns="http://www.w3.org/2000/svg" xmlns:xlink="http://www.w3.org/1999/xlink" version="1.1"><rect x="0" y="0" width="375" height="100" fill="#fff"></rect><path d="M0 19L6.3 20C12.7 21 25.3 23 37.8 25.3C50.3 27.7 62.7 30.3 75.2 30C87.7 29.7 100.3 26.3 112.8 24.7C125.3 23 137.7 23 150.2 22.5C162.7 22 175.3 21 187.8 21.3C200.3 21.7 212.7 23.3 225.2 25.3C237.7 27.3 250.3 29.7 262.8 29.5C275.3 29.3 287.7 26.7 300.2 25.8C312.7 25 325.3 26 337.8 26C350.3 26 362.7 25 368.8 24.5L375 24L375 101L368.8 101C362.7 101 350.3 101 337.8 101C325.3 101 312.7 101 300.2 101C287.7 101 275.3 101 262.8 101C250.3 101 237.7 101 225.2 101C212.7 101 200.3 101 187.8 101C175.3 101 162.7 101 150.2 101C137.7 101 125.3 101 112.8 101C100.3 101 87.7 101 75.2 101C62.7 101 50.3 101 37.8 101C25.3 101 12.7 101 6.3 101L0 101Z" fill="#1c947b"></path><path d="M0 41L6.3 44C12.7 47 25.3 53 37.8 53.7C50.3 54.3 62.7 49.7 75.2 48.7C87.7 47.7 100.3 50.3 112.8 52.5C125.3 54.7 137.7 56.3 150.2 57.3C162.7 58.3 175.3 58.7 187.8 58.5C200.3 58.3 212.7 57.7 225.2 55.7C237.7 53.7 250.3 50.3 262.8 50.3C275.3 50.3 287.7 53.7 300.2 54.2C312.7 54.7 325.3 52.3 337.8 52.7C350.3 53 362.7 56 368.8 57.5L375 59L375 101L368.8 101C362.7 101 350.3 101 337.8 101C325.3 101 312.7 101 300.2 101C287.7 101 275.3 101 262.8 101C250.3 101 237.7 101 225.2 101C212.7 101 200.3 101 187.8 101C175.3 101 162.7 101 150.2 101C137.7 101 125.3 101 112.8 101C100.3 101 87.7 101 75.2 101C62.7 101 50.3 101 37.8 101C25.3 101 12.7 101 6.3 101L0 101Z" fill="#17716d"></path><path d="M0 81L6.3 81.2C12.7 81.3 25.3 81.7 37.8 79.3C50.3 77 62.7 72 75.2 72C87.7 72 100.3 77 112.8 77.2C125.3 77.3 137.7 72.7 150.2 72.2C162.7 71.7 175.3 75.3 187.8 76.8C200.3 78.3 212.7 77.7 225.2 75.7C237.7 73.7 250.3 70.3 262.8 69.2C275.3 68 287.7 69 300.2 71.3C312.7 73.7 325.3 77.3 337.8 76.7C350.3 76 362.7 71 368.8 68.5L375 66L375 101L368.8 101C362.7 101 350.3 101 337.8 101C325.3 101 312.7 101 300.2 101C287.7 101 275.3 101 262.8 101C250.3 101 237.7 101 225.2 101C212.7 101 200.3 101 187.8 101C175.3 101 162.7 101 150.2 101C137.7 101 125.3 101 112.8 101C100.3 101 87.7 101 75.2 101C62.7 101 50.3 101 37.8 101C25.3 101 12.7 101 6.3 101L0 101Z" fill="#264e53"></path></svg>