<svg id="visual" viewBox="0 0 375 100" width="375" height="100" xmlns="http://www.w3.org/2000/svg" xmlns:xlink="http://www.w3.org/1999/xlink" version="1.1"><rect x="0" y="0" width="375" height="100" fill="#fff"></rect><path d="M0 16L6.3 16C12.7 16 25.3 16 37.8 17.5C50.3 19 62.7 22 75.2 22.5C87.7 23 100.3 21 112.8 22.3C125.3 23.7 137.7 28.3 150.2 30C162.7 31.7 175.3 30.3 187.8 29.5C200.3 28.7 212.7 28.3 225.2 27.2C237.7 26 250.3 24 262.8 22.5C275.3 21 287.7 20 300.2 21.2C312.7 22.3 325.3 25.7 337.8 27.8C350.3 30 362.7 31 368.8 31.5L375 32L375 101L368.8 101C362.7 101 350.3 101 337.8 101C325.3 101 312.7 101 300.2 101C287.7 101 275.3 101 262.8 101C250.3 101 237.7 101 225.2 101C212.7 101 200.3 101 187.8 101C175.3 101 162.7 101 150.2 101C137.7 101 125.3 101 112.8 101C100.3 101 87.7 101 75.2 101C62.7 101 50.3 101 37.8 101C25.3 101 12.7 101 6.3 101L0 101Z" fill="#264e53"></path><path d="M0 39L6.3 41.5C12.7 44 25.3 49 37.8 51.5C50.3 54 62.7 54 75.2 54.3C87.7 54.7 100.3 55.3 112.8 54.2C125.3 53 137.7 50 150.2 48.2C162.7 46.3 175.3 45.7 187.8 44.8C200.3 44 212.7 43 225.2 42.2C237.7 41.3 250.3 40.7 262.8 43.2C275.3 45.7 287.7 51.3 300.2 54.3C312.7 57.3 325.3 57.7 337.8 56.5C350.3 55.3 362.7 52.7 368.8 51.3L375 50L375 101L368.8 101C362.7 101 350.3 101 337.8 101C325.3 101 312.7 101 300.2 101C287.7 101 275.3 101 262.8 101C250.3 101 237.7 101 225.2 101C212.7 101 200.3 101 187.8 101C175.3 101 162.7 101 150.2 101C137.7 101 125.3 101 112.8 101C100.3 101 87.7 101 75.2 101C62.7 101 50.3 101 37.8 101C25.3 101 12.7 101 6.3 101L0 101Z" fill="#17716d"></path><path d="M0 67L6.3 69C12.7 71 25.3 75 37.8 74.5C50.3 74 62.7 69 75.2 69C87.7 69 100.3 74 112.8 74.2C125.3 74.3 137.7 69.7 150.2 67.5C162.7 65.3 175.3 65.7 187.8 67.7C200.3 69.7 212.7 73.3 225.2 74.3C237.7 75.3 250.3 73.7 262.8 71.7C275.3 69.7 287.7 67.3 300.2 66.8C312.7 66.3 325.3 67.7 337.8 69.3C350.3 71 362.7 73 368.8 74L375 75L375 101L368.8 101C362.7 101 350.3 101 337.8 101C325.3 101 312.7 101 300.2 101C287.7 101 275.3 101 262.8 101C250.3 101 237.7 101 225.2 101C212.7 101 200.3 101 187.8 101C175.3 101 162.7 101 150.2 101C137.7 101 125.3 101 112.8 101C100.3 101 87.7 101 75.2 101C62.7 101 50.3 101 37.8 101C25.3 101 12.7 101 6.3 101L0 101Z" fill="#1c947b"></path></svg>