<?xml version="1.0" encoding="UTF-8"?><svg id="a" xmlns="http://www.w3.org/2000/svg" viewBox="0 0 375 50.37"><defs><style>.b{fill:#17716d;}.c{fill:#1c947b;}</style></defs><path class="c" d="M0,45.16l6.3.42c6.4.42,19,1.25,31.5,2.37,12.5,1.08,24.9,2.5,37.4,2.42,12.5-.08,25.1-1.58,37.6-2.83,12.5-1.25,24.9-2.25,37.4-2.58s25.1-.08,37.6.33c12.5.42,24.9,1,37.4,1.33,12.5.33,25.1.5,37.6.21,12.5-.29,24.9-.96,37.4-.62,12.5.33,25.1,1.75,37.6,2.21,12.5.5,24.9.08,31-.12l6.2-.21v-30.83H0v27.91Z"/><path class="b" d="M0,31.69l6.3.08c6.4.04,19,.19,31.5-.73,12.5-.88,24.9-2.8,37.4-2.8s25.1,1.92,37.6,2c12.5.04,24.9-1.73,37.4-2.65,12.5-.88,25.1-.88,37.6.08s24.9,2.88,37.4,3.38c12.5.54,25.1-.38,37.6-1.38,12.5-1.04,24.9-2.19,37.4-2.57,12.5-.38,25.1,0,37.6,1.04,12.5,1,24.9,2.69,31,3.5l6.2.85V10.17H0v21.51Z"/><path class="b" d="M375,.59l-6.3-.06c-6.4-.03-19-.15-31.5.57-12.5.68-24.9,2.17-37.4,2.17s-25.1-1.49-37.6-1.55c-12.5-.03-24.9,1.34-37.4,2.05-12.5.68-25.1.68-37.6-.06-12.5-.74-24.9-2.23-37.4-2.62-12.5-.42-25.1.3-37.6,1.07-12.5.8-24.9,1.7-37.4,1.99s-25.1,0-37.6-.8C24.7,2.59,12.3,1.28,6.2.65L0,0v17.25h375V.59Z"/></svg>