<svg width="1200" height="400" viewBox="0 0 1200 400" fill="none" xmlns="http://www.w3.org/2000/svg">
<path d="M418.224 118.236C430.28 118.236 439.596 121.113 446.172 126.867C452.839 132.621 456.173 140.75 456.173 151.253C456.173 162.213 452.839 170.753 446.172 176.872C439.596 182.9 430.28 185.914 418.224 185.914H397.263V214.136H378.905V118.236H418.224ZM417.265 169.748C424.206 169.748 429.503 168.241 433.157 165.227C436.901 162.213 438.774 157.738 438.774 151.801C438.774 145.956 436.901 141.572 433.157 138.649C429.503 135.726 424.206 134.265 417.265 134.265H397.263V169.748H417.265ZM541.634 118.236V134.265H489.711V157.966H536.291V173.995H489.711V198.107H543.278V214.136H471.353V118.236H541.634ZM601.795 118.236C611.385 118.236 619.97 120.291 627.551 124.401C635.132 128.42 641.068 134.082 645.361 141.389C649.654 148.696 651.8 156.961 651.8 166.186C651.8 175.411 649.608 183.676 645.224 190.983C640.931 198.198 634.949 203.861 627.277 207.971C619.605 212.081 610.883 214.136 601.11 214.136H561.928V118.236H601.795ZM602.206 197.97C608.051 197.97 613.303 196.646 617.961 193.997C622.71 191.257 626.409 187.512 629.058 182.763C631.707 177.922 633.031 172.442 633.031 166.323C633.031 160.204 631.661 154.724 628.921 149.883C626.181 144.951 622.391 141.161 617.55 138.512C612.801 135.772 607.458 134.402 601.521 134.402H580.286V197.97H602.206ZM686.247 118.236V214.136H667.889V118.236H686.247ZM772.237 193.86H725.383L716.889 214.136H697.846L739.905 118.236H758.948L800.459 214.136H780.731L772.237 193.86ZM765.661 178.105L748.947 137.827L731.959 178.105H765.661ZM830.472 118.236V159.199H878.285V118.236H896.643V214.136H878.285V175.228H830.472V214.136H812.114V118.236H830.472ZM990.63 118.236V134.265H938.707V157.966H985.287V173.995H938.707V198.107H992.274V214.136H920.349V118.236H990.63ZM1029.28 118.236V197.559H1070.66V214.136H1010.92V118.236H1029.28ZM1124.36 118.236C1136.42 118.236 1145.73 121.113 1152.31 126.867C1158.98 132.621 1162.31 140.75 1162.31 151.253C1162.31 162.213 1158.98 170.753 1152.31 176.872C1145.73 182.9 1136.42 185.914 1124.36 185.914H1103.4V214.136H1085.04V118.236H1124.36ZM1123.4 169.748C1130.34 169.748 1135.64 168.241 1139.3 165.227C1143.04 162.213 1144.91 157.738 1144.91 151.801C1144.91 145.956 1143.04 141.572 1139.3 138.649C1135.64 135.726 1130.34 134.265 1123.4 134.265H1103.4V169.748H1123.4Z" fill="white"/>
<mask id="path-2-outside-1_344_706" maskUnits="userSpaceOnUse" x="377.58" y="246.864" width="728" height="56" fill="black">
<rect fill="white" x="377.58" y="246.864" width="728" height="56"/>
<path d="M396.383 251.585C402.446 251.585 407.123 252.995 410.413 255.815C413.703 258.635 415.348 262.63 415.348 267.8C415.348 273.111 413.703 277.223 410.413 280.137C407.123 283.004 402.446 284.438 396.383 284.438H382.001V300.864H379.04V251.585H396.383ZM396.313 281.547C401.483 281.547 405.478 280.372 408.298 278.022C411.118 275.625 412.528 272.241 412.528 267.87C412.528 263.546 411.118 260.233 408.298 257.93C405.478 255.627 401.483 254.475 396.313 254.475H382.001V281.547H396.313ZM438.687 264.063C442.212 264.063 445.267 264.886 447.852 266.531C450.484 268.129 452.458 270.385 453.774 273.299C455.137 276.213 455.795 279.55 455.748 283.31H423.671C423.812 286.271 424.54 288.879 425.856 291.135C427.172 293.391 428.958 295.154 431.214 296.423C433.47 297.645 436.008 298.256 438.828 298.256C441.319 298.256 443.622 297.833 445.737 296.987C447.899 296.094 449.732 294.825 451.236 293.18L452.928 295.083C451.189 296.963 449.098 298.42 446.654 299.454C444.21 300.441 441.554 300.935 438.687 300.935C435.256 300.935 432.178 300.159 429.452 298.608C426.726 297.01 424.587 294.825 423.036 292.052C421.532 289.232 420.78 286.059 420.78 282.534C420.78 279.009 421.556 275.837 423.107 273.017C424.658 270.197 426.773 268.011 429.452 266.46C432.178 264.862 435.256 264.063 438.687 264.063ZM453.069 280.701C452.787 276.471 451.354 273.087 448.769 270.549C446.184 268.011 442.823 266.742 438.687 266.742C434.551 266.742 431.12 268.035 428.394 270.62C425.668 273.158 424.117 276.518 423.741 280.701H453.069ZM498.815 248.553V300.864H495.854V291.276C494.444 294.331 492.376 296.728 489.65 298.467C486.924 300.206 483.775 301.076 480.203 301.076C476.772 301.076 473.693 300.277 470.967 298.679C468.241 297.081 466.103 294.895 464.552 292.122C463.048 289.302 462.296 286.106 462.296 282.534C462.296 278.962 463.048 275.766 464.552 272.946C466.103 270.126 468.218 267.917 470.897 266.319C473.623 264.721 476.701 263.922 480.132 263.922C483.751 263.922 486.924 264.792 489.65 266.531C492.376 268.27 494.444 270.667 495.854 273.722V248.553H498.815ZM480.555 298.326C483.469 298.326 486.078 297.645 488.381 296.282C490.731 294.919 492.564 293.039 493.88 290.642C495.196 288.245 495.854 285.542 495.854 282.534C495.854 279.526 495.196 276.824 493.88 274.427C492.564 272.03 490.731 270.15 488.381 268.787C486.078 267.424 483.469 266.742 480.555 266.742C477.641 266.742 475.009 267.424 472.659 268.787C470.356 270.15 468.523 272.03 467.16 274.427C465.844 276.824 465.186 279.526 465.186 282.534C465.186 285.542 465.844 288.245 467.16 290.642C468.476 293.039 470.286 294.919 472.589 296.282C474.939 297.645 477.594 298.326 480.555 298.326ZM516.708 264.134V300.864H513.817V264.134H516.708ZM515.298 251.021C515.956 251.021 516.52 251.279 516.99 251.796C517.507 252.266 517.765 252.854 517.765 253.559C517.765 254.311 517.507 254.945 516.99 255.462C516.52 255.932 515.956 256.167 515.298 256.167C514.64 256.167 514.052 255.932 513.535 255.462C513.065 254.945 512.83 254.311 512.83 253.559C512.83 252.854 513.065 252.266 513.535 251.796C514.052 251.279 514.64 251.021 515.298 251.021ZM555.06 300.864L554.989 293.603C553.485 296.094 551.464 297.95 548.926 299.172C546.435 300.347 543.568 300.935 540.325 300.935C537.928 300.935 535.813 300.465 533.98 299.525C532.147 298.585 530.714 297.316 529.68 295.718C528.693 294.073 528.199 292.216 528.199 290.148C528.199 287.093 529.421 284.696 531.865 282.957C534.309 281.171 537.646 280.278 541.876 280.278H554.919V276.683C554.872 273.534 553.932 271.09 552.099 269.351C550.266 267.612 547.54 266.742 543.921 266.742C541.712 266.742 539.62 267.165 537.646 268.011C535.672 268.81 533.651 269.985 531.583 271.536L530.173 269.28C532.57 267.541 534.873 266.249 537.082 265.403C539.291 264.51 541.712 264.063 544.344 264.063C548.621 264.063 551.911 265.168 554.214 267.377C556.564 269.586 557.762 272.617 557.809 276.471L557.95 300.864H555.06ZM540.748 298.256C544.273 298.256 547.258 297.48 549.702 295.929C552.146 294.378 553.908 292.028 554.989 288.879V282.887H542.158C538.539 282.887 535.766 283.498 533.839 284.72C531.959 285.942 531.019 287.728 531.019 290.078C531.019 292.522 531.889 294.496 533.628 296C535.414 297.504 537.787 298.256 540.748 298.256ZM588.715 298.326C586.13 300.065 583.522 300.935 580.89 300.935C578.258 300.935 576.237 300.089 574.827 298.397C573.417 296.658 572.712 294.096 572.712 290.712V267.588H567.354V265.05H572.712V255.956H575.532V265.05H588.01V267.588H575.532V290.36C575.532 295.483 577.435 298.044 581.242 298.044C583.404 298.044 585.519 297.339 587.587 295.929L588.715 298.326ZM600.635 273.369C601.81 270.408 603.549 268.152 605.852 266.601C608.202 265.003 611.022 264.157 614.312 264.063V267.095C610.317 267.095 607.121 268.34 604.724 270.831C602.327 273.275 600.964 276.659 600.635 280.983V300.864H597.674V264.134H600.635V273.369ZM625.212 264.134V300.864H622.321V264.134H625.212ZM623.802 251.021C624.46 251.021 625.024 251.279 625.494 251.796C626.011 252.266 626.269 252.854 626.269 253.559C626.269 254.311 626.011 254.945 625.494 255.462C625.024 255.932 624.46 256.167 623.802 256.167C623.144 256.167 622.556 255.932 622.039 255.462C621.569 254.945 621.334 254.311 621.334 253.559C621.334 252.854 621.569 252.266 622.039 251.796C622.556 251.279 623.144 251.021 623.802 251.021ZM665.397 271.325C662.201 268.364 658.417 266.883 654.046 266.883C651.132 266.883 648.524 267.541 646.221 268.857C643.918 270.173 642.108 272.03 640.792 274.427C639.523 276.777 638.889 279.456 638.889 282.464C638.889 285.519 639.523 288.245 640.792 290.642C642.108 293.039 643.918 294.895 646.221 296.211C648.524 297.527 651.132 298.185 654.046 298.185C656.49 298.185 658.746 297.739 660.814 296.846C662.882 295.953 664.621 294.684 666.031 293.039L667.794 294.942C666.149 296.869 664.128 298.35 661.731 299.384C659.381 300.418 656.796 300.935 653.976 300.935C650.545 300.935 647.466 300.159 644.74 298.608C642.014 297.01 639.876 294.825 638.325 292.052C636.774 289.232 635.998 286.059 635.998 282.534C635.998 279.009 636.774 275.837 638.325 273.017C639.876 270.197 642.014 268.011 644.74 266.46C647.466 264.862 650.545 264.063 653.976 264.063C656.608 264.063 659.028 264.51 661.237 265.403C663.493 266.296 665.444 267.565 667.089 269.21L665.397 271.325ZM691.088 251.585L709.77 297.339L728.523 251.585H731.766L711.321 300.864H708.219L687.774 251.585H691.088ZM742.528 264.134V300.864H739.638V264.134H742.528ZM741.118 251.021C741.776 251.021 742.34 251.279 742.81 251.796C743.327 252.266 743.586 252.854 743.586 253.559C743.586 254.311 743.327 254.945 742.81 255.462C742.34 255.932 741.776 256.167 741.118 256.167C740.46 256.167 739.873 255.932 739.356 255.462C738.886 254.945 738.651 254.311 738.651 253.559C738.651 252.854 738.886 252.266 739.356 251.796C739.873 251.279 740.46 251.021 741.118 251.021ZM760.224 273.369C761.399 270.408 763.138 268.152 765.441 266.601C767.791 265.003 770.611 264.157 773.901 264.063V267.095C769.906 267.095 766.71 268.34 764.313 270.831C761.916 273.275 760.553 276.659 760.224 280.983V300.864H757.263V264.134H760.224V273.369ZM799.183 298.326C796.598 300.065 793.989 300.935 791.357 300.935C788.725 300.935 786.704 300.089 785.294 298.397C783.884 296.658 783.179 294.096 783.179 290.712V267.588H777.821V265.05H783.179V255.956H785.999V265.05H798.478V267.588H785.999V290.36C785.999 295.483 787.903 298.044 791.71 298.044C793.872 298.044 795.987 297.339 798.055 295.929L799.183 298.326ZM838.597 264.134V300.864H835.707V291.065C834.532 294.261 832.675 296.705 830.137 298.397C827.646 300.042 824.591 300.888 820.972 300.935C816.554 300.935 813.1 299.666 810.609 297.128C808.165 294.59 806.943 291.065 806.943 286.553V264.134H809.833V285.989C809.833 289.749 810.867 292.686 812.935 294.801C815.003 296.916 817.894 297.974 821.607 297.974C826.025 297.88 829.479 296.423 831.97 293.603C834.461 290.783 835.707 286.952 835.707 282.111V264.134H838.597ZM876.923 300.864L876.852 293.603C875.348 296.094 873.327 297.95 870.789 299.172C868.298 300.347 865.431 300.935 862.188 300.935C859.791 300.935 857.676 300.465 855.843 299.525C854.01 298.585 852.577 297.316 851.543 295.718C850.556 294.073 850.062 292.216 850.062 290.148C850.062 287.093 851.284 284.696 853.728 282.957C856.172 281.171 859.509 280.278 863.739 280.278H876.782V276.683C876.735 273.534 875.795 271.09 873.962 269.351C872.129 267.612 869.403 266.742 865.784 266.742C863.575 266.742 861.483 267.165 859.509 268.011C857.535 268.81 855.514 269.985 853.446 271.536L852.036 269.28C854.433 267.541 856.736 266.249 858.945 265.403C861.154 264.51 863.575 264.063 866.207 264.063C870.484 264.063 873.774 265.168 876.077 267.377C878.427 269.586 879.625 272.617 879.672 276.471L879.813 300.864H876.923ZM862.611 298.256C866.136 298.256 869.121 297.48 871.565 295.929C874.009 294.378 875.771 292.028 876.852 288.879V282.887H864.021C860.402 282.887 857.629 283.498 855.702 284.72C853.822 285.942 852.882 287.728 852.882 290.078C852.882 292.522 853.752 294.496 855.491 296C857.277 297.504 859.65 298.256 862.611 298.256ZM896.619 248.553V300.864H893.658V248.553H896.619ZM963.776 260.186C961.708 258.259 959.335 256.755 956.656 255.674C953.977 254.593 951.18 254.052 948.266 254.052C944.177 254.052 940.394 255.039 936.916 257.013C933.485 258.987 930.759 261.666 928.738 265.05C926.717 268.434 925.706 272.124 925.706 276.119C925.706 280.114 926.717 283.803 928.738 287.187C930.759 290.571 933.485 293.274 936.916 295.295C940.394 297.269 944.177 298.256 948.266 298.256C951.18 298.256 953.953 297.739 956.585 296.705C959.264 295.624 961.661 294.12 963.776 292.193L965.609 294.237C963.306 296.399 960.627 298.091 957.572 299.313C954.564 300.535 951.439 301.146 948.196 301.146C943.59 301.146 939.336 300.042 935.435 297.833C931.534 295.577 928.432 292.545 926.129 288.738C923.873 284.884 922.745 280.701 922.745 276.189C922.745 271.677 923.873 267.518 926.129 263.711C928.432 259.857 931.534 256.825 935.435 254.616C939.336 252.36 943.59 251.232 948.196 251.232C951.439 251.232 954.541 251.82 957.502 252.995C960.51 254.17 963.189 255.815 965.539 257.93L963.776 260.186ZM979.718 248.553V300.864H976.757V248.553H979.718ZM997.609 264.134V300.864H994.718V264.134H997.609ZM996.199 251.021C996.857 251.021 997.421 251.279 997.891 251.796C998.408 252.266 998.666 252.854 998.666 253.559C998.666 254.311 998.408 254.945 997.891 255.462C997.421 255.932 996.857 256.167 996.199 256.167C995.541 256.167 994.953 255.932 994.436 255.462C993.966 254.945 993.731 254.311 993.731 253.559C993.731 252.854 993.966 252.266 994.436 251.796C994.953 251.279 995.541 251.021 996.199 251.021ZM1030.32 264.063C1034.79 264.063 1038.26 265.356 1040.75 267.941C1043.29 270.479 1044.56 273.98 1044.56 278.445V300.864H1041.6V279.009C1041.6 275.249 1040.54 272.312 1038.43 270.197C1036.31 268.082 1033.38 267.024 1029.62 267.024C1025.43 267.118 1022.07 268.411 1019.53 270.902C1017.04 273.346 1015.63 276.706 1015.3 280.983V300.864H1012.34V264.134H1015.3V273.51C1016.53 270.502 1018.41 268.199 1020.94 266.601C1023.53 265.003 1026.65 264.157 1030.32 264.063ZM1060.95 264.134V300.864H1058.06V264.134H1060.95ZM1059.54 251.021C1060.2 251.021 1060.76 251.279 1061.23 251.796C1061.75 252.266 1062.01 252.854 1062.01 253.559C1062.01 254.311 1061.75 254.945 1061.23 255.462C1060.76 255.932 1060.2 256.167 1059.54 256.167C1058.88 256.167 1058.29 255.932 1057.78 255.462C1057.31 254.945 1057.07 254.311 1057.07 253.559C1057.07 252.854 1057.31 252.266 1057.78 251.796C1058.29 251.279 1058.88 251.021 1059.54 251.021ZM1101.13 271.325C1097.94 268.364 1094.15 266.883 1089.78 266.883C1086.87 266.883 1084.26 267.541 1081.96 268.857C1079.65 270.173 1077.85 272.03 1076.53 274.427C1075.26 276.777 1074.63 279.456 1074.63 282.464C1074.63 285.519 1075.26 288.245 1076.53 290.642C1077.85 293.039 1079.65 294.895 1081.96 296.211C1084.26 297.527 1086.87 298.185 1089.78 298.185C1092.23 298.185 1094.48 297.739 1096.55 296.846C1098.62 295.953 1100.36 294.684 1101.77 293.039L1103.53 294.942C1101.89 296.869 1099.86 298.35 1097.47 299.384C1095.12 300.418 1092.53 300.935 1089.71 300.935C1086.28 300.935 1083.2 300.159 1080.48 298.608C1077.75 297.01 1075.61 294.825 1074.06 292.052C1072.51 289.232 1071.74 286.059 1071.74 282.534C1071.74 279.009 1072.51 275.837 1074.06 273.017C1075.61 270.197 1077.75 268.011 1080.48 266.46C1083.2 264.862 1086.28 264.063 1089.71 264.063C1092.34 264.063 1094.77 264.51 1096.97 265.403C1099.23 266.296 1101.18 267.565 1102.83 269.21L1101.13 271.325Z"/>
</mask>
<path d="M396.383 251.585C402.446 251.585 407.123 252.995 410.413 255.815C413.703 258.635 415.348 262.63 415.348 267.8C415.348 273.111 413.703 277.223 410.413 280.137C407.123 283.004 402.446 284.438 396.383 284.438H382.001V300.864H379.04V251.585H396.383ZM396.313 281.547C401.483 281.547 405.478 280.372 408.298 278.022C411.118 275.625 412.528 272.241 412.528 267.87C412.528 263.546 411.118 260.233 408.298 257.93C405.478 255.627 401.483 254.475 396.313 254.475H382.001V281.547H396.313ZM438.687 264.063C442.212 264.063 445.267 264.886 447.852 266.531C450.484 268.129 452.458 270.385 453.774 273.299C455.137 276.213 455.795 279.55 455.748 283.31H423.671C423.812 286.271 424.54 288.879 425.856 291.135C427.172 293.391 428.958 295.154 431.214 296.423C433.47 297.645 436.008 298.256 438.828 298.256C441.319 298.256 443.622 297.833 445.737 296.987C447.899 296.094 449.732 294.825 451.236 293.18L452.928 295.083C451.189 296.963 449.098 298.42 446.654 299.454C444.21 300.441 441.554 300.935 438.687 300.935C435.256 300.935 432.178 300.159 429.452 298.608C426.726 297.01 424.587 294.825 423.036 292.052C421.532 289.232 420.78 286.059 420.78 282.534C420.78 279.009 421.556 275.837 423.107 273.017C424.658 270.197 426.773 268.011 429.452 266.46C432.178 264.862 435.256 264.063 438.687 264.063ZM453.069 280.701C452.787 276.471 451.354 273.087 448.769 270.549C446.184 268.011 442.823 266.742 438.687 266.742C434.551 266.742 431.12 268.035 428.394 270.62C425.668 273.158 424.117 276.518 423.741 280.701H453.069ZM498.815 248.553V300.864H495.854V291.276C494.444 294.331 492.376 296.728 489.65 298.467C486.924 300.206 483.775 301.076 480.203 301.076C476.772 301.076 473.693 300.277 470.967 298.679C468.241 297.081 466.103 294.895 464.552 292.122C463.048 289.302 462.296 286.106 462.296 282.534C462.296 278.962 463.048 275.766 464.552 272.946C466.103 270.126 468.218 267.917 470.897 266.319C473.623 264.721 476.701 263.922 480.132 263.922C483.751 263.922 486.924 264.792 489.65 266.531C492.376 268.27 494.444 270.667 495.854 273.722V248.553H498.815ZM480.555 298.326C483.469 298.326 486.078 297.645 488.381 296.282C490.731 294.919 492.564 293.039 493.88 290.642C495.196 288.245 495.854 285.542 495.854 282.534C495.854 279.526 495.196 276.824 493.88 274.427C492.564 272.03 490.731 270.15 488.381 268.787C486.078 267.424 483.469 266.742 480.555 266.742C477.641 266.742 475.009 267.424 472.659 268.787C470.356 270.15 468.523 272.03 467.16 274.427C465.844 276.824 465.186 279.526 465.186 282.534C465.186 285.542 465.844 288.245 467.16 290.642C468.476 293.039 470.286 294.919 472.589 296.282C474.939 297.645 477.594 298.326 480.555 298.326ZM516.708 264.134V300.864H513.817V264.134H516.708ZM515.298 251.021C515.956 251.021 516.52 251.279 516.99 251.796C517.507 252.266 517.765 252.854 517.765 253.559C517.765 254.311 517.507 254.945 516.99 255.462C516.52 255.932 515.956 256.167 515.298 256.167C514.64 256.167 514.052 255.932 513.535 255.462C513.065 254.945 512.83 254.311 512.83 253.559C512.83 252.854 513.065 252.266 513.535 251.796C514.052 251.279 514.64 251.021 515.298 251.021ZM555.06 300.864L554.989 293.603C553.485 296.094 551.464 297.95 548.926 299.172C546.435 300.347 543.568 300.935 540.325 300.935C537.928 300.935 535.813 300.465 533.98 299.525C532.147 298.585 530.714 297.316 529.68 295.718C528.693 294.073 528.199 292.216 528.199 290.148C528.199 287.093 529.421 284.696 531.865 282.957C534.309 281.171 537.646 280.278 541.876 280.278H554.919V276.683C554.872 273.534 553.932 271.09 552.099 269.351C550.266 267.612 547.54 266.742 543.921 266.742C541.712 266.742 539.62 267.165 537.646 268.011C535.672 268.81 533.651 269.985 531.583 271.536L530.173 269.28C532.57 267.541 534.873 266.249 537.082 265.403C539.291 264.51 541.712 264.063 544.344 264.063C548.621 264.063 551.911 265.168 554.214 267.377C556.564 269.586 557.762 272.617 557.809 276.471L557.95 300.864H555.06ZM540.748 298.256C544.273 298.256 547.258 297.48 549.702 295.929C552.146 294.378 553.908 292.028 554.989 288.879V282.887H542.158C538.539 282.887 535.766 283.498 533.839 284.72C531.959 285.942 531.019 287.728 531.019 290.078C531.019 292.522 531.889 294.496 533.628 296C535.414 297.504 537.787 298.256 540.748 298.256ZM588.715 298.326C586.13 300.065 583.522 300.935 580.89 300.935C578.258 300.935 576.237 300.089 574.827 298.397C573.417 296.658 572.712 294.096 572.712 290.712V267.588H567.354V265.05H572.712V255.956H575.532V265.05H588.01V267.588H575.532V290.36C575.532 295.483 577.435 298.044 581.242 298.044C583.404 298.044 585.519 297.339 587.587 295.929L588.715 298.326ZM600.635 273.369C601.81 270.408 603.549 268.152 605.852 266.601C608.202 265.003 611.022 264.157 614.312 264.063V267.095C610.317 267.095 607.121 268.34 604.724 270.831C602.327 273.275 600.964 276.659 600.635 280.983V300.864H597.674V264.134H600.635V273.369ZM625.212 264.134V300.864H622.321V264.134H625.212ZM623.802 251.021C624.46 251.021 625.024 251.279 625.494 251.796C626.011 252.266 626.269 252.854 626.269 253.559C626.269 254.311 626.011 254.945 625.494 255.462C625.024 255.932 624.46 256.167 623.802 256.167C623.144 256.167 622.556 255.932 622.039 255.462C621.569 254.945 621.334 254.311 621.334 253.559C621.334 252.854 621.569 252.266 622.039 251.796C622.556 251.279 623.144 251.021 623.802 251.021ZM665.397 271.325C662.201 268.364 658.417 266.883 654.046 266.883C651.132 266.883 648.524 267.541 646.221 268.857C643.918 270.173 642.108 272.03 640.792 274.427C639.523 276.777 638.889 279.456 638.889 282.464C638.889 285.519 639.523 288.245 640.792 290.642C642.108 293.039 643.918 294.895 646.221 296.211C648.524 297.527 651.132 298.185 654.046 298.185C656.49 298.185 658.746 297.739 660.814 296.846C662.882 295.953 664.621 294.684 666.031 293.039L667.794 294.942C666.149 296.869 664.128 298.35 661.731 299.384C659.381 300.418 656.796 300.935 653.976 300.935C650.545 300.935 647.466 300.159 644.74 298.608C642.014 297.01 639.876 294.825 638.325 292.052C636.774 289.232 635.998 286.059 635.998 282.534C635.998 279.009 636.774 275.837 638.325 273.017C639.876 270.197 642.014 268.011 644.74 266.46C647.466 264.862 650.545 264.063 653.976 264.063C656.608 264.063 659.028 264.51 661.237 265.403C663.493 266.296 665.444 267.565 667.089 269.21L665.397 271.325ZM691.088 251.585L709.77 297.339L728.523 251.585H731.766L711.321 300.864H708.219L687.774 251.585H691.088ZM742.528 264.134V300.864H739.638V264.134H742.528ZM741.118 251.021C741.776 251.021 742.34 251.279 742.81 251.796C743.327 252.266 743.586 252.854 743.586 253.559C743.586 254.311 743.327 254.945 742.81 255.462C742.34 255.932 741.776 256.167 741.118 256.167C740.46 256.167 739.873 255.932 739.356 255.462C738.886 254.945 738.651 254.311 738.651 253.559C738.651 252.854 738.886 252.266 739.356 251.796C739.873 251.279 740.46 251.021 741.118 251.021ZM760.224 273.369C761.399 270.408 763.138 268.152 765.441 266.601C767.791 265.003 770.611 264.157 773.901 264.063V267.095C769.906 267.095 766.71 268.34 764.313 270.831C761.916 273.275 760.553 276.659 760.224 280.983V300.864H757.263V264.134H760.224V273.369ZM799.183 298.326C796.598 300.065 793.989 300.935 791.357 300.935C788.725 300.935 786.704 300.089 785.294 298.397C783.884 296.658 783.179 294.096 783.179 290.712V267.588H777.821V265.05H783.179V255.956H785.999V265.05H798.478V267.588H785.999V290.36C785.999 295.483 787.903 298.044 791.71 298.044C793.872 298.044 795.987 297.339 798.055 295.929L799.183 298.326ZM838.597 264.134V300.864H835.707V291.065C834.532 294.261 832.675 296.705 830.137 298.397C827.646 300.042 824.591 300.888 820.972 300.935C816.554 300.935 813.1 299.666 810.609 297.128C808.165 294.59 806.943 291.065 806.943 286.553V264.134H809.833V285.989C809.833 289.749 810.867 292.686 812.935 294.801C815.003 296.916 817.894 297.974 821.607 297.974C826.025 297.88 829.479 296.423 831.97 293.603C834.461 290.783 835.707 286.952 835.707 282.111V264.134H838.597ZM876.923 300.864L876.852 293.603C875.348 296.094 873.327 297.95 870.789 299.172C868.298 300.347 865.431 300.935 862.188 300.935C859.791 300.935 857.676 300.465 855.843 299.525C854.01 298.585 852.577 297.316 851.543 295.718C850.556 294.073 850.062 292.216 850.062 290.148C850.062 287.093 851.284 284.696 853.728 282.957C856.172 281.171 859.509 280.278 863.739 280.278H876.782V276.683C876.735 273.534 875.795 271.09 873.962 269.351C872.129 267.612 869.403 266.742 865.784 266.742C863.575 266.742 861.483 267.165 859.509 268.011C857.535 268.81 855.514 269.985 853.446 271.536L852.036 269.28C854.433 267.541 856.736 266.249 858.945 265.403C861.154 264.51 863.575 264.063 866.207 264.063C870.484 264.063 873.774 265.168 876.077 267.377C878.427 269.586 879.625 272.617 879.672 276.471L879.813 300.864H876.923ZM862.611 298.256C866.136 298.256 869.121 297.48 871.565 295.929C874.009 294.378 875.771 292.028 876.852 288.879V282.887H864.021C860.402 282.887 857.629 283.498 855.702 284.72C853.822 285.942 852.882 287.728 852.882 290.078C852.882 292.522 853.752 294.496 855.491 296C857.277 297.504 859.65 298.256 862.611 298.256ZM896.619 248.553V300.864H893.658V248.553H896.619ZM963.776 260.186C961.708 258.259 959.335 256.755 956.656 255.674C953.977 254.593 951.18 254.052 948.266 254.052C944.177 254.052 940.394 255.039 936.916 257.013C933.485 258.987 930.759 261.666 928.738 265.05C926.717 268.434 925.706 272.124 925.706 276.119C925.706 280.114 926.717 283.803 928.738 287.187C930.759 290.571 933.485 293.274 936.916 295.295C940.394 297.269 944.177 298.256 948.266 298.256C951.18 298.256 953.953 297.739 956.585 296.705C959.264 295.624 961.661 294.12 963.776 292.193L965.609 294.237C963.306 296.399 960.627 298.091 957.572 299.313C954.564 300.535 951.439 301.146 948.196 301.146C943.59 301.146 939.336 300.042 935.435 297.833C931.534 295.577 928.432 292.545 926.129 288.738C923.873 284.884 922.745 280.701 922.745 276.189C922.745 271.677 923.873 267.518 926.129 263.711C928.432 259.857 931.534 256.825 935.435 254.616C939.336 252.36 943.59 251.232 948.196 251.232C951.439 251.232 954.541 251.82 957.502 252.995C960.51 254.17 963.189 255.815 965.539 257.93L963.776 260.186ZM979.718 248.553V300.864H976.757V248.553H979.718ZM997.609 264.134V300.864H994.718V264.134H997.609ZM996.199 251.021C996.857 251.021 997.421 251.279 997.891 251.796C998.408 252.266 998.666 252.854 998.666 253.559C998.666 254.311 998.408 254.945 997.891 255.462C997.421 255.932 996.857 256.167 996.199 256.167C995.541 256.167 994.953 255.932 994.436 255.462C993.966 254.945 993.731 254.311 993.731 253.559C993.731 252.854 993.966 252.266 994.436 251.796C994.953 251.279 995.541 251.021 996.199 251.021ZM1030.32 264.063C1034.79 264.063 1038.26 265.356 1040.75 267.941C1043.29 270.479 1044.56 273.98 1044.56 278.445V300.864H1041.6V279.009C1041.6 275.249 1040.54 272.312 1038.43 270.197C1036.31 268.082 1033.38 267.024 1029.62 267.024C1025.43 267.118 1022.07 268.411 1019.53 270.902C1017.04 273.346 1015.63 276.706 1015.3 280.983V300.864H1012.34V264.134H1015.3V273.51C1016.53 270.502 1018.41 268.199 1020.94 266.601C1023.53 265.003 1026.65 264.157 1030.32 264.063ZM1060.95 264.134V300.864H1058.06V264.134H1060.95ZM1059.54 251.021C1060.2 251.021 1060.76 251.279 1061.23 251.796C1061.75 252.266 1062.01 252.854 1062.01 253.559C1062.01 254.311 1061.75 254.945 1061.23 255.462C1060.76 255.932 1060.2 256.167 1059.54 256.167C1058.88 256.167 1058.29 255.932 1057.78 255.462C1057.31 254.945 1057.07 254.311 1057.07 253.559C1057.07 252.854 1057.31 252.266 1057.78 251.796C1058.29 251.279 1058.88 251.021 1059.54 251.021ZM1101.13 271.325C1097.94 268.364 1094.15 266.883 1089.78 266.883C1086.87 266.883 1084.26 267.541 1081.96 268.857C1079.65 270.173 1077.85 272.03 1076.53 274.427C1075.26 276.777 1074.63 279.456 1074.63 282.464C1074.63 285.519 1075.26 288.245 1076.53 290.642C1077.85 293.039 1079.65 294.895 1081.96 296.211C1084.26 297.527 1086.87 298.185 1089.78 298.185C1092.23 298.185 1094.48 297.739 1096.55 296.846C1098.62 295.953 1100.36 294.684 1101.77 293.039L1103.53 294.942C1101.89 296.869 1099.86 298.35 1097.47 299.384C1095.12 300.418 1092.53 300.935 1089.71 300.935C1086.28 300.935 1083.2 300.159 1080.48 298.608C1077.75 297.01 1075.61 294.825 1074.06 292.052C1072.51 289.232 1071.74 286.059 1071.74 282.534C1071.74 279.009 1072.51 275.837 1074.06 273.017C1075.61 270.197 1077.75 268.011 1080.48 266.46C1083.2 264.862 1086.28 264.063 1089.71 264.063C1092.34 264.063 1094.77 264.51 1096.97 265.403C1099.23 266.296 1101.18 267.565 1102.83 269.21L1101.13 271.325Z" fill="white"/>
<path d="M410.413 255.815L409.762 256.574L409.762 256.574L410.413 255.815ZM410.413 280.137L411.07 280.891L411.076 280.886L410.413 280.137ZM382.001 284.438V283.438H381.001V284.438H382.001ZM382.001 300.864V301.864H383.001V300.864H382.001ZM379.04 300.864H378.04V301.864H379.04V300.864ZM379.04 251.585V250.585H378.04V251.585H379.04ZM408.298 278.022L408.938 278.79L408.945 278.784L408.298 278.022ZM382.001 254.475V253.475H381.001V254.475H382.001ZM382.001 281.547H381.001V282.547H382.001V281.547ZM396.383 251.585V252.585C402.302 252.585 406.714 253.961 409.762 256.574L410.413 255.815L411.063 255.055C407.531 252.028 402.59 250.585 396.383 250.585V251.585ZM410.413 255.815L409.762 256.574C412.787 259.167 414.348 262.859 414.348 267.8H415.348H416.348C416.348 262.4 414.618 258.102 411.063 255.055L410.413 255.815ZM415.348 267.8H414.348C414.348 272.889 412.781 276.703 409.75 279.388L410.413 280.137L411.076 280.886C414.624 277.743 416.348 273.332 416.348 267.8H415.348ZM410.413 280.137L409.756 279.383C406.708 282.039 402.298 283.438 396.383 283.438V284.438V285.438C402.594 285.438 407.537 283.969 411.07 280.891L410.413 280.137ZM396.383 284.438V283.438H382.001V284.438V285.438H396.383V284.438ZM382.001 284.438H381.001V300.864H382.001H383.001V284.438H382.001ZM382.001 300.864V299.864H379.04V300.864V301.864H382.001V300.864ZM379.04 300.864H380.04V251.585H379.04H378.04V300.864H379.04ZM379.04 251.585V252.585H396.383V251.585V250.585H379.04V251.585ZM396.313 281.547V282.547C401.622 282.547 405.877 281.341 408.938 278.79L408.298 278.022L407.657 277.254C405.078 279.403 401.343 280.547 396.313 280.547V281.547ZM408.298 278.022L408.945 278.784C412.03 276.162 413.528 272.476 413.528 267.87H412.528H411.528C411.528 272.006 410.205 275.088 407.65 277.26L408.298 278.022ZM412.528 267.87H413.528C413.528 263.308 412.027 259.684 408.93 257.155L408.298 257.93L407.665 258.704C410.208 260.781 411.528 263.784 411.528 267.87H412.528ZM408.298 257.93L408.93 257.155C405.87 254.656 401.618 253.475 396.313 253.475V254.475V255.475C401.347 255.475 405.085 256.597 407.665 258.704L408.298 257.93ZM396.313 254.475V253.475H382.001V254.475V255.475H396.313V254.475ZM382.001 254.475H381.001V281.547H382.001H383.001V254.475H382.001ZM382.001 281.547V282.547H396.313V281.547V280.547H382.001V281.547ZM447.852 266.531L447.316 267.374L447.324 267.38L447.334 267.385L447.852 266.531ZM453.774 273.299L452.863 273.71L452.869 273.722L453.774 273.299ZM455.748 283.31V284.31H456.736L456.748 283.322L455.748 283.31ZM423.671 283.31V282.31H422.622L422.672 283.357L423.671 283.31ZM425.856 291.135L426.72 290.631L426.72 290.631L425.856 291.135ZM431.214 296.423L430.724 297.294L430.731 297.298L430.738 297.302L431.214 296.423ZM445.737 296.987L446.109 297.915L446.119 297.911L445.737 296.987ZM451.236 293.18L451.984 292.515L451.247 291.686L450.498 292.505L451.236 293.18ZM452.928 295.083L453.663 295.762L454.278 295.096L453.676 294.419L452.928 295.083ZM446.654 299.454L447.028 300.381L447.036 300.378L447.044 300.375L446.654 299.454ZM429.452 298.608L428.946 299.471L428.957 299.477L429.452 298.608ZM423.036 292.052L422.154 292.522L422.159 292.531L422.164 292.54L423.036 292.052ZM423.107 273.017L422.231 272.535L422.231 272.535L423.107 273.017ZM429.452 266.46L429.953 267.325L429.958 267.323L429.452 266.46ZM453.069 280.701V281.701H454.138L454.067 280.634L453.069 280.701ZM448.769 270.549L448.068 271.263L448.769 270.549ZM428.394 270.62L429.076 271.351L429.083 271.345L428.394 270.62ZM423.741 280.701L422.746 280.611L422.648 281.701H423.741V280.701ZM438.687 264.063V265.063C442.052 265.063 444.914 265.846 447.316 267.374L447.852 266.531L448.389 265.687C445.621 263.925 442.373 263.063 438.687 263.063V264.063ZM447.852 266.531L447.334 267.385C449.786 268.874 451.627 270.973 452.863 273.71L453.774 273.299L454.686 272.887C453.29 269.796 451.183 267.383 448.371 265.676L447.852 266.531ZM453.774 273.299L452.869 273.722C454.158 276.479 454.794 279.662 454.749 283.297L455.748 283.31L456.748 283.322C456.797 279.437 456.117 275.946 454.68 272.875L453.774 273.299ZM455.748 283.31V282.31H423.671V283.31V284.31H455.748V283.31ZM423.671 283.31L422.672 283.357C422.82 286.457 423.585 289.226 424.993 291.639L425.856 291.135L426.72 290.631C425.496 288.532 424.804 286.084 424.67 283.262L423.671 283.31ZM425.856 291.135L424.993 291.639C426.397 294.047 428.312 295.937 430.724 297.294L431.214 296.423L431.705 295.551C429.605 294.37 427.948 292.735 426.72 290.631L425.856 291.135ZM431.214 296.423L430.738 297.302C433.155 298.611 435.859 299.256 438.828 299.256V298.256V297.256C436.158 297.256 433.786 296.678 431.691 295.543L431.214 296.423ZM438.828 298.256V299.256C441.435 299.256 443.865 298.812 446.109 297.915L445.737 296.987L445.366 296.058C443.38 296.853 441.204 297.256 438.828 297.256V298.256ZM445.737 296.987L446.119 297.911C448.41 296.965 450.367 295.613 451.975 293.854L451.236 293.18L450.498 292.505C449.098 294.036 447.389 295.222 445.356 296.062L445.737 296.987ZM451.236 293.18L450.489 293.844L452.181 295.747L452.928 295.083L453.676 294.419L451.984 292.515L451.236 293.18ZM452.928 295.083L452.194 294.404C450.555 296.176 448.583 297.552 446.264 298.533L446.654 299.454L447.044 300.375C449.613 299.288 451.824 297.75 453.663 295.762L452.928 295.083ZM446.654 299.454L446.28 298.527C443.965 299.462 441.437 299.935 438.687 299.935V300.935V301.935C441.671 301.935 444.455 301.42 447.028 300.381L446.654 299.454ZM438.687 300.935V299.935C435.413 299.935 432.508 299.196 429.947 297.739L429.452 298.608L428.957 299.477C431.848 301.122 435.1 301.935 438.687 301.935V300.935ZM429.452 298.608L429.958 297.745C427.386 296.238 425.374 294.182 423.909 291.563L423.036 292.052L422.164 292.54C423.801 295.467 426.066 297.782 428.946 299.471L429.452 298.608ZM423.036 292.052L423.919 291.581C422.5 288.92 421.78 285.912 421.78 282.534H420.78H419.78C419.78 286.206 420.565 289.543 422.154 292.522L423.036 292.052ZM420.78 282.534H421.78C421.78 279.161 422.521 276.157 423.983 273.498L423.107 273.017L422.231 272.535C420.591 275.516 419.78 278.857 419.78 282.534H420.78ZM423.107 273.017L423.983 273.498C425.45 270.831 427.438 268.781 429.953 267.325L429.452 266.46L428.951 265.595C426.108 267.241 423.866 269.562 422.231 272.535L423.107 273.017ZM429.452 266.46L429.958 267.323C432.517 265.822 435.419 265.063 438.687 265.063V264.063V263.063C435.094 263.063 431.839 263.902 428.946 265.597L429.452 266.46ZM453.069 280.701L454.067 280.634C453.772 276.204 452.259 272.574 449.47 269.835L448.769 270.549L448.068 271.263C450.449 273.6 451.803 276.738 452.072 280.768L453.069 280.701ZM448.769 270.549L449.47 269.835C446.671 267.087 443.045 265.742 438.687 265.742V266.742V267.742C442.602 267.742 445.697 268.935 448.068 271.263L448.769 270.549ZM438.687 266.742V265.742C434.324 265.742 430.638 267.114 427.706 269.894L428.394 270.62L429.083 271.345C431.603 268.955 434.779 267.742 438.687 267.742V266.742ZM428.394 270.62L427.713 269.888C424.783 272.615 423.141 276.217 422.746 280.611L423.741 280.701L424.737 280.791C425.094 276.819 426.554 273.7 429.076 271.351L428.394 270.62ZM423.741 280.701V281.701H453.069V280.701V279.701H423.741V280.701ZM498.815 248.553H499.815V247.553H498.815V248.553ZM498.815 300.864V301.864H499.815V300.864H498.815ZM495.854 300.864H494.854V301.864H495.854V300.864ZM495.854 291.276H496.854L494.946 290.857L495.854 291.276ZM489.65 298.467L489.112 297.624L489.112 297.624L489.65 298.467ZM470.967 298.679L470.461 299.541L470.461 299.541L470.967 298.679ZM464.552 292.122L463.669 292.593L463.674 292.601L463.679 292.61L464.552 292.122ZM464.552 272.946L463.675 272.464L463.669 272.475L464.552 272.946ZM470.897 266.319L470.391 265.456L470.384 265.46L470.897 266.319ZM489.65 266.531L489.112 267.374L489.112 267.374L489.65 266.531ZM495.854 273.722L494.946 274.141L496.854 273.722H495.854ZM495.854 248.553V247.553H494.854V248.553H495.854ZM488.381 296.282L487.879 295.416L487.871 295.421L488.381 296.282ZM493.88 290.642L493.003 290.16L493.003 290.16L493.88 290.642ZM493.88 274.427L493.003 274.908L493.003 274.908L493.88 274.427ZM488.381 268.787L487.871 269.647L487.879 269.652L488.381 268.787ZM472.659 268.787L472.157 267.921L472.15 267.926L472.659 268.787ZM467.16 274.427L466.291 273.932L466.287 273.939L466.284 273.945L467.16 274.427ZM467.16 290.642L468.037 290.16L468.037 290.16L467.16 290.642ZM472.589 296.282L472.079 297.142L472.087 297.147L472.589 296.282ZM498.815 248.553H497.815V300.864H498.815H499.815V248.553H498.815ZM498.815 300.864V299.864H495.854V300.864V301.864H498.815V300.864ZM495.854 300.864H496.854V291.276H495.854H494.854V300.864H495.854ZM495.854 291.276L494.946 290.857C493.612 293.746 491.67 295.992 489.112 297.624L489.65 298.467L490.187 299.31C493.082 297.464 495.275 294.916 496.762 291.695L495.854 291.276ZM489.65 298.467L489.112 297.624C486.563 299.25 483.605 300.076 480.203 300.076V301.076V302.076C483.945 302.076 487.284 301.162 490.187 299.31L489.65 298.467ZM480.203 301.076V300.076C476.934 300.076 474.032 299.316 471.473 297.816L470.967 298.679L470.461 299.541C473.354 301.237 476.61 302.076 480.203 302.076V301.076ZM470.967 298.679L471.473 297.816C468.901 296.308 466.889 294.252 465.424 291.634L464.552 292.122L463.679 292.61C465.316 295.538 467.581 297.853 470.461 299.541L470.967 298.679ZM464.552 292.122L465.434 291.651C464.016 288.993 463.296 285.961 463.296 282.534H462.296H461.296C461.296 286.251 462.079 289.611 463.669 292.593L464.552 292.122ZM462.296 282.534H463.296C463.296 279.107 464.016 276.075 465.434 273.417L464.552 272.946L463.669 272.475C462.079 275.457 461.296 278.817 461.296 282.534H462.296ZM464.552 272.946L465.428 273.428C466.896 270.759 468.888 268.682 471.409 267.178L470.897 266.319L470.384 265.46C467.548 267.152 465.309 269.494 463.675 272.464L464.552 272.946ZM470.897 266.319L471.402 267.182C473.962 265.681 476.863 264.922 480.132 264.922V263.922V262.922C476.539 262.922 473.283 263.761 470.391 265.456L470.897 266.319ZM480.132 263.922V264.922C483.584 264.922 486.565 265.749 489.112 267.374L489.65 266.531L490.187 265.687C487.282 263.834 483.918 262.922 480.132 262.922V263.922ZM489.65 266.531L489.112 267.374C491.67 269.005 493.612 271.252 494.946 274.141L495.854 273.722L496.762 273.302C495.275 270.081 493.082 267.534 490.187 265.687L489.65 266.531ZM495.854 273.722H496.854V248.553H495.854H494.854V273.722H495.854ZM495.854 248.553V249.553H498.815V248.553V247.553H495.854V248.553ZM480.555 298.326V299.326C483.632 299.326 486.419 298.604 488.89 297.142L488.381 296.282L487.871 295.421C485.736 296.685 483.306 297.326 480.555 297.326V298.326ZM488.381 296.282L488.882 297.147C491.391 295.692 493.353 293.678 494.756 291.123L493.88 290.642L493.003 290.16C491.774 292.399 490.07 294.146 487.879 295.416L488.381 296.282ZM493.88 290.642L494.756 291.123C496.161 288.564 496.854 285.693 496.854 282.534H495.854H494.854C494.854 285.391 494.23 287.925 493.003 290.16L493.88 290.642ZM495.854 282.534H496.854C496.854 279.375 496.161 276.504 494.756 273.945L493.88 274.427L493.003 274.908C494.23 277.143 494.854 279.677 494.854 282.534H495.854ZM493.88 274.427L494.756 273.945C493.353 271.39 491.391 269.377 488.882 267.921L488.381 268.787L487.879 269.652C490.07 270.923 491.774 272.669 493.003 274.908L493.88 274.427ZM488.381 268.787L488.89 267.926C486.419 266.464 483.632 265.742 480.555 265.742V266.742V267.742C483.306 267.742 485.736 268.383 487.871 269.647L488.381 268.787ZM480.555 266.742V265.742C477.478 265.742 474.671 266.464 472.157 267.921L472.659 268.787L473.161 269.652C475.347 268.383 477.804 267.742 480.555 267.742V266.742ZM472.659 268.787L472.15 267.926C469.692 269.38 467.737 271.389 466.291 273.932L467.16 274.427L468.029 274.921C469.309 272.67 471.02 270.919 473.168 269.647L472.659 268.787ZM467.16 274.427L466.284 273.945C464.879 276.504 464.186 279.375 464.186 282.534H465.186H466.186C466.186 279.677 466.81 277.143 468.037 274.908L467.16 274.427ZM465.186 282.534H464.186C464.186 285.693 464.879 288.564 466.284 291.123L467.16 290.642L468.037 290.16C466.81 287.925 466.186 285.391 466.186 282.534H465.186ZM467.16 290.642L466.284 291.123C467.684 293.673 469.619 295.686 472.079 297.142L472.589 296.282L473.098 295.421C470.953 294.151 469.268 292.404 468.037 290.16L467.16 290.642ZM472.589 296.282L472.087 297.147C474.603 298.606 477.434 299.326 480.555 299.326V298.326V297.326C477.754 297.326 475.274 296.683 473.09 295.416L472.589 296.282ZM516.708 264.134H517.708V263.134H516.708V264.134ZM516.708 300.864V301.864H517.708V300.864H516.708ZM513.817 300.864H512.817V301.864H513.817V300.864ZM513.817 264.134V263.134H512.817V264.134H513.817ZM516.99 251.796L516.25 252.469L516.282 252.504L516.317 252.536L516.99 251.796ZM516.99 255.462L516.283 254.755L516.283 254.755L516.99 255.462ZM513.535 255.462L512.795 256.135L512.827 256.17L512.863 256.202L513.535 255.462ZM513.535 251.796L512.828 251.089L512.828 251.089L513.535 251.796ZM516.708 264.134H515.708V300.864H516.708H517.708V264.134H516.708ZM516.708 300.864V299.864H513.817V300.864V301.864H516.708V300.864ZM513.817 300.864H514.817V264.134H513.817H512.817V300.864H513.817ZM513.817 264.134V265.134H516.708V264.134V263.134H513.817V264.134ZM515.298 251.021V252.021C515.655 252.021 515.956 252.146 516.25 252.469L516.99 251.796L517.73 251.123C517.083 250.412 516.257 250.021 515.298 250.021V251.021ZM516.99 251.796L516.317 252.536C516.624 252.814 516.765 253.132 516.765 253.559H517.765H518.765C518.765 252.575 518.39 251.718 517.663 251.056L516.99 251.796ZM517.765 253.559H516.765C516.765 254.054 516.606 254.431 516.283 254.755L516.99 255.462L517.697 256.169C518.407 255.459 518.765 254.567 518.765 253.559H517.765ZM516.99 255.462L516.283 254.755C515.998 255.04 515.688 255.167 515.298 255.167V256.167V257.167C516.224 257.167 517.042 256.825 517.697 256.169L516.99 255.462ZM515.298 256.167V255.167C514.905 255.167 514.553 255.036 514.208 254.722L513.535 255.462L512.863 256.202C513.551 256.828 514.375 257.167 515.298 257.167V256.167ZM513.535 255.462L514.275 254.789C513.986 254.471 513.83 254.082 513.83 253.559H512.83H511.83C511.83 254.539 512.145 255.419 512.795 256.135L513.535 255.462ZM512.83 253.559H513.83C513.83 253.101 513.972 252.773 514.242 252.503L513.535 251.796L512.828 251.089C512.158 251.759 511.83 252.606 511.83 253.559H512.83ZM513.535 251.796L514.242 252.503C514.595 252.151 514.936 252.021 515.298 252.021V251.021V250.021C514.344 250.021 513.51 250.407 512.828 251.089L513.535 251.796ZM555.06 300.864L554.06 300.874L554.07 301.864H555.06V300.864ZM554.989 293.603L555.989 293.593L555.955 290.068L554.133 293.086L554.989 293.603ZM548.926 299.172L549.353 300.076L549.36 300.073L548.926 299.172ZM533.98 299.525L533.524 300.414L533.524 300.414L533.98 299.525ZM529.68 295.718L528.822 296.232L528.831 296.247L528.84 296.261L529.68 295.718ZM531.865 282.957L532.445 283.772L532.455 283.764L531.865 282.957ZM554.919 280.278V281.278H555.919V280.278H554.919ZM554.919 276.683H555.919V276.675L555.919 276.668L554.919 276.683ZM537.646 268.011L538.022 268.938L538.031 268.934L538.04 268.93L537.646 268.011ZM531.583 271.536L530.735 272.066L531.312 272.989L532.183 272.336L531.583 271.536ZM530.173 269.28L529.586 268.471L528.831 269.019L529.325 269.81L530.173 269.28ZM537.082 265.403L537.44 266.336L537.449 266.333L537.457 266.33L537.082 265.403ZM554.214 267.377L553.522 268.098L553.529 268.105L554.214 267.377ZM557.809 276.471L558.809 276.465L558.809 276.459L557.809 276.471ZM557.95 300.864V301.864H558.956L558.95 300.858L557.95 300.864ZM549.702 295.929L549.166 295.085L549.166 295.085L549.702 295.929ZM554.989 288.879L555.935 289.204L555.989 289.046V288.879H554.989ZM554.989 282.887H555.989V281.887H554.989V282.887ZM533.839 284.72L533.304 283.875L533.294 283.881L533.839 284.72ZM533.628 296L532.974 296.756L532.984 296.764L533.628 296ZM555.06 300.864L556.06 300.854L555.989 293.593L554.989 293.603L553.989 293.612L554.06 300.874L555.06 300.864ZM554.989 293.603L554.133 293.086C552.726 295.416 550.849 297.136 548.493 298.271L548.926 299.172L549.36 300.073C552.079 298.764 554.244 296.771 555.845 294.119L554.989 293.603ZM548.926 299.172L548.5 298.268C546.164 299.369 543.447 299.935 540.325 299.935V300.935V301.935C543.69 301.935 546.707 301.325 549.353 300.076L548.926 299.172ZM540.325 300.935V299.935C538.061 299.935 536.107 299.491 534.437 298.635L533.98 299.525L533.524 300.414C535.52 301.438 537.796 301.935 540.325 301.935V300.935ZM533.98 299.525L534.437 298.635C532.746 297.768 531.45 296.613 530.519 295.174L529.68 295.718L528.84 296.261C529.977 298.018 531.548 299.401 533.524 300.414L533.98 299.525ZM529.68 295.718L530.537 295.203C529.651 293.726 529.199 292.049 529.199 290.148H528.199H527.199C527.199 292.383 527.735 294.419 528.822 296.232L529.68 295.718ZM528.199 290.148H529.199C529.199 287.409 530.271 285.319 532.445 283.772L531.865 282.957L531.286 282.142C528.572 284.073 527.199 286.777 527.199 290.148H528.199ZM531.865 282.957L532.455 283.764C534.672 282.145 537.776 281.278 541.876 281.278V280.278V279.278C537.516 279.278 533.947 280.197 531.275 282.15L531.865 282.957ZM541.876 280.278V281.278H554.919V280.278V279.278H541.876V280.278ZM554.919 280.278H555.919V276.683H554.919H553.919V280.278H554.919ZM554.919 276.683L555.919 276.668C555.869 273.32 554.861 270.593 552.787 268.625L552.099 269.351L551.411 270.076C553.003 271.586 553.875 273.747 553.919 276.697L554.919 276.683ZM552.099 269.351L552.787 268.625C550.701 266.646 547.685 265.742 543.921 265.742V266.742V267.742C547.394 267.742 549.831 268.577 551.411 270.076L552.099 269.351ZM543.921 266.742V265.742C541.58 265.742 539.355 266.191 537.252 267.092L537.646 268.011L538.04 268.93C539.886 268.139 541.843 267.742 543.921 267.742V266.742ZM537.646 268.011L537.271 267.084C535.202 267.922 533.106 269.144 530.983 270.736L531.583 271.536L532.183 272.336C534.196 270.826 536.143 269.698 538.022 268.938L537.646 268.011ZM531.583 271.536L532.431 271.006L531.021 268.75L530.173 269.28L529.325 269.81L530.735 272.066L531.583 271.536ZM530.173 269.28L530.761 270.089C533.104 268.389 535.33 267.144 537.44 266.336L537.082 265.403L536.725 264.469C534.417 265.353 532.037 266.693 529.586 268.471L530.173 269.28ZM537.082 265.403L537.457 266.33C539.535 265.49 541.827 265.063 544.344 265.063V264.063V263.063C541.597 263.063 539.048 263.529 536.708 264.475L537.082 265.403ZM544.344 264.063V265.063C548.453 265.063 551.461 266.122 553.522 268.098L554.214 267.377L554.906 266.655C552.361 264.213 548.789 263.063 544.344 263.063V264.063ZM554.214 267.377L553.529 268.105C555.643 270.092 556.765 272.844 556.809 276.483L557.809 276.471L558.809 276.459C558.76 272.39 557.485 269.079 554.899 266.648L554.214 267.377ZM557.809 276.471L556.809 276.477L556.95 300.87L557.95 300.864L558.95 300.858L558.809 276.465L557.809 276.471ZM557.95 300.864V299.864H555.06V300.864V301.864H557.95V300.864ZM540.748 298.256V299.256C544.422 299.256 547.602 298.446 550.238 296.773L549.702 295.929L549.166 295.085C546.914 296.514 544.125 297.256 540.748 297.256V298.256ZM549.702 295.929L550.238 296.773C552.902 295.083 554.792 292.534 555.935 289.204L554.989 288.879L554.044 288.554C553.025 291.522 551.39 293.673 549.166 295.085L549.702 295.929ZM554.989 288.879H555.989V282.887H554.989H553.989V288.879H554.989ZM554.989 282.887V281.887H542.158V282.887V283.887H554.989V282.887ZM542.158 282.887V281.887C538.451 281.887 535.459 282.508 533.304 283.875L533.839 284.72L534.375 285.564C536.073 284.487 538.628 283.887 542.158 283.887V282.887ZM533.839 284.72L533.294 283.881C531.115 285.298 530.019 287.409 530.019 290.078H531.019H532.019C532.019 288.046 532.804 286.585 534.384 285.558L533.839 284.72ZM531.019 290.078H530.019C530.019 292.791 531 295.049 532.974 296.756L533.628 296L534.282 295.243C532.778 293.942 532.019 292.252 532.019 290.078H531.019ZM533.628 296L532.984 296.764C534.994 298.457 537.616 299.256 540.748 299.256V298.256V297.256C537.958 297.256 535.834 296.55 534.272 295.235L533.628 296ZM588.715 298.326L589.274 299.156L589.986 298.677L589.62 297.9L588.715 298.326ZM574.827 298.397L574.05 299.026L574.059 299.037L574.827 298.397ZM572.712 267.588H573.712V266.588H572.712V267.588ZM567.354 267.588H566.354V268.588H567.354V267.588ZM567.354 265.05V264.05H566.354V265.05H567.354ZM572.712 265.05V266.05H573.712V265.05H572.712ZM572.712 255.956V254.956H571.712V255.956H572.712ZM575.532 255.956H576.532V254.956H575.532V255.956ZM575.532 265.05H574.532V266.05H575.532V265.05ZM588.01 265.05H589.01V264.05H588.01V265.05ZM588.01 267.588V268.588H589.01V267.588H588.01ZM575.532 267.588V266.588H574.532V267.588H575.532ZM587.587 295.929L588.492 295.503L587.993 294.442L587.024 295.103L587.587 295.929ZM588.715 298.326L588.157 297.496C585.706 299.145 583.289 299.935 580.89 299.935V300.935V301.935C583.755 301.935 586.554 300.985 589.274 299.156L588.715 298.326ZM580.89 300.935V299.935C578.491 299.935 576.778 299.175 575.595 297.756L574.827 298.397L574.059 299.037C575.696 301.002 578.025 301.935 580.89 301.935V300.935ZM574.827 298.397L575.604 297.767C574.396 296.277 573.712 293.979 573.712 290.712H572.712H571.712C571.712 294.213 572.438 297.038 574.05 299.026L574.827 298.397ZM572.712 290.712H573.712V267.588H572.712H571.712V290.712H572.712ZM572.712 267.588V266.588H567.354V267.588V268.588H572.712V267.588ZM567.354 267.588H568.354V265.05H567.354H566.354V267.588H567.354ZM567.354 265.05V266.05H572.712V265.05V264.05H567.354V265.05ZM572.712 265.05H573.712V255.956H572.712H571.712V265.05H572.712ZM572.712 255.956V256.956H575.532V255.956V254.956H572.712V255.956ZM575.532 255.956H574.532V265.05H575.532H576.532V255.956H575.532ZM575.532 265.05V266.05H588.01V265.05V264.05H575.532V265.05ZM588.01 265.05H587.01V267.588H588.01H589.01V265.05H588.01ZM588.01 267.588V266.588H575.532V267.588V268.588H588.01V267.588ZM575.532 267.588H574.532V290.36H575.532H576.532V267.588H575.532ZM575.532 290.36H574.532C574.532 293.016 575.02 295.19 576.157 296.719C577.335 298.305 579.091 299.044 581.242 299.044V298.044V297.044C579.586 297.044 578.488 296.503 577.762 295.526C576.995 294.495 576.532 292.826 576.532 290.36H575.532ZM581.242 298.044V299.044C583.636 299.044 585.944 298.26 588.151 296.755L587.587 295.929L587.024 295.103C585.095 296.418 583.173 297.044 581.242 297.044V298.044ZM587.587 295.929L586.683 296.355L587.811 298.752L588.715 298.326L589.62 297.9L588.492 295.503L587.587 295.929ZM600.635 273.369H599.635L601.564 273.738L600.635 273.369ZM605.852 266.601L606.41 267.43L606.414 267.428L605.852 266.601ZM614.312 264.063H615.312V263.034L614.283 263.063L614.312 264.063ZM614.312 267.095V268.095H615.312V267.095H614.312ZM604.724 270.831L605.438 271.531L605.444 271.524L604.724 270.831ZM600.635 280.983L599.638 280.907L599.635 280.945V280.983H600.635ZM600.635 300.864V301.864H601.635V300.864H600.635ZM597.674 300.864H596.674V301.864H597.674V300.864ZM597.674 264.134V263.134H596.674V264.134H597.674ZM600.635 264.134H601.635V263.134H600.635V264.134ZM600.635 273.369L601.564 273.738C602.676 270.936 604.298 268.853 606.41 267.43L605.852 266.601L605.293 265.772C602.799 267.451 600.943 269.88 599.705 273L600.635 273.369ZM605.852 266.601L606.414 267.428C608.583 265.953 611.21 265.152 614.34 265.063L614.312 264.063L614.283 263.063C610.833 263.162 607.821 264.053 605.289 265.774L605.852 266.601ZM614.312 264.063H613.312V267.095H614.312H615.312V264.063H614.312ZM614.312 267.095V266.095C610.091 266.095 606.618 267.42 604.003 270.138L604.724 270.831L605.444 271.524C607.623 269.26 610.543 268.095 614.312 268.095V267.095ZM604.724 270.831L604.01 270.131C601.408 272.784 599.98 276.412 599.638 280.907L600.635 280.983L601.632 281.059C601.948 276.906 603.246 273.766 605.438 271.531L604.724 270.831ZM600.635 280.983H599.635V300.864H600.635H601.635V280.983H600.635ZM600.635 300.864V299.864H597.674V300.864V301.864H600.635V300.864ZM597.674 300.864H598.674V264.134H597.674H596.674V300.864H597.674ZM597.674 264.134V265.134H600.635V264.134V263.134H597.674V264.134ZM600.635 264.134H599.635V273.369H600.635H601.635V264.134H600.635ZM625.212 264.134H626.212V263.134H625.212V264.134ZM625.212 300.864V301.864H626.212V300.864H625.212ZM622.321 300.864H621.321V301.864H622.321V300.864ZM622.321 264.134V263.134H621.321V264.134H622.321ZM625.494 251.796L624.754 252.469L624.786 252.504L624.821 252.536L625.494 251.796ZM625.494 255.462L624.787 254.755L624.787 254.755L625.494 255.462ZM622.039 255.462L621.299 256.135L621.331 256.17L621.367 256.202L622.039 255.462ZM622.039 251.796L621.332 251.089L621.332 251.089L622.039 251.796ZM625.212 264.134H624.212V300.864H625.212H626.212V264.134H625.212ZM625.212 300.864V299.864H622.321V300.864V301.864H625.212V300.864ZM622.321 300.864H623.321V264.134H622.321H621.321V300.864H622.321ZM622.321 264.134V265.134H625.212V264.134V263.134H622.321V264.134ZM623.802 251.021V252.021C624.159 252.021 624.46 252.146 624.754 252.469L625.494 251.796L626.234 251.123C625.587 250.412 624.761 250.021 623.802 250.021V251.021ZM625.494 251.796L624.821 252.536C625.127 252.814 625.269 253.132 625.269 253.559H626.269H627.269C627.269 252.575 626.894 251.718 626.166 251.056L625.494 251.796ZM626.269 253.559H625.269C625.269 254.054 625.11 254.431 624.787 254.755L625.494 255.462L626.201 256.169C626.911 255.459 627.269 254.567 627.269 253.559H626.269ZM625.494 255.462L624.787 254.755C624.502 255.04 624.192 255.167 623.802 255.167V256.167V257.167C624.728 257.167 625.545 256.825 626.201 256.169L625.494 255.462ZM623.802 256.167V255.167C623.409 255.167 623.057 255.036 622.712 254.722L622.039 255.462L621.367 256.202C622.055 256.828 622.879 257.167 623.802 257.167V256.167ZM622.039 255.462L622.779 254.789C622.49 254.471 622.334 254.082 622.334 253.559H621.334H620.334C620.334 254.539 620.649 255.419 621.299 256.135L622.039 255.462ZM621.334 253.559H622.334C622.334 253.101 622.476 252.773 622.746 252.503L622.039 251.796L621.332 251.089C620.662 251.759 620.334 252.606 620.334 253.559H621.334ZM622.039 251.796L622.746 252.503C623.099 252.151 623.44 252.021 623.802 252.021V251.021V250.021C622.848 250.021 622.014 250.407 621.332 251.089L622.039 251.796ZM665.397 271.325L664.717 272.058L665.506 272.789L666.178 271.949L665.397 271.325ZM646.221 268.857L645.725 267.989L645.725 267.989L646.221 268.857ZM640.792 274.427L639.916 273.945L639.912 273.951L640.792 274.427ZM640.792 290.642L639.908 291.109L639.912 291.116L639.916 291.123L640.792 290.642ZM646.221 296.211L645.725 297.079L645.725 297.079L646.221 296.211ZM660.814 296.846L660.418 295.927L660.418 295.927L660.814 296.846ZM666.031 293.039L666.765 292.359L666.002 291.536L665.272 292.388L666.031 293.039ZM667.794 294.942L668.554 295.591L669.132 294.915L668.528 294.263L667.794 294.942ZM661.731 299.384L661.335 298.465L661.328 298.468L661.731 299.384ZM644.74 298.608L644.234 299.471L644.246 299.477L644.74 298.608ZM638.325 292.052L637.449 292.533L637.452 292.54L638.325 292.052ZM638.325 273.017L637.449 272.535L637.449 272.535L638.325 273.017ZM644.74 266.46L645.235 267.329L645.246 267.323L644.74 266.46ZM661.237 265.403L660.862 266.33L660.869 266.332L661.237 265.403ZM667.089 269.21L667.87 269.834L668.429 269.135L667.796 268.502L667.089 269.21ZM665.397 271.325L666.076 270.591C662.695 267.458 658.668 265.883 654.046 265.883V266.883V267.883C658.166 267.883 661.707 269.269 664.717 272.058L665.397 271.325ZM654.046 266.883V265.883C650.976 265.883 648.193 266.578 645.725 267.989L646.221 268.857L646.717 269.725C648.854 268.504 651.289 267.883 654.046 267.883V266.883ZM646.221 268.857L645.725 267.989C643.256 269.399 641.318 271.392 639.916 273.945L640.792 274.427L641.669 274.908C642.899 272.667 644.579 270.947 646.717 269.725L646.221 268.857ZM640.792 274.427L639.912 273.951C638.555 276.465 637.889 279.311 637.889 282.464H638.889H639.889C639.889 279.6 640.492 277.088 641.672 274.902L640.792 274.427ZM638.889 282.464H637.889C637.889 285.661 638.554 288.551 639.908 291.109L640.792 290.642L641.676 290.174C640.493 287.938 639.889 285.376 639.889 282.464H638.889ZM640.792 290.642L639.916 291.123C641.318 293.676 643.256 295.669 645.725 297.079L646.221 296.211L646.717 295.343C644.579 294.121 642.899 292.401 641.669 290.16L640.792 290.642ZM646.221 296.211L645.725 297.079C648.193 298.49 650.976 299.185 654.046 299.185V298.185V297.185C651.289 297.185 648.854 296.564 646.717 295.343L646.221 296.211ZM654.046 298.185V299.185C656.615 299.185 659.007 298.715 661.211 297.764L660.814 296.846L660.418 295.927C658.485 296.762 656.366 297.185 654.046 297.185V298.185ZM660.814 296.846L661.211 297.764C663.413 296.813 665.278 295.454 666.791 293.689L666.031 293.039L665.272 292.388C663.965 293.913 662.352 295.092 660.418 295.927L660.814 296.846ZM666.031 293.039L665.297 293.718L667.06 295.621L667.794 294.942L668.528 294.263L666.765 292.359L666.031 293.039ZM667.794 294.942L667.033 294.293C665.491 296.1 663.596 297.49 661.335 298.465L661.731 299.384L662.127 300.302C664.66 299.209 666.807 297.638 668.554 295.591L667.794 294.942ZM661.731 299.384L661.328 298.468C659.117 299.441 656.671 299.935 653.976 299.935V300.935V301.935C656.921 301.935 659.645 301.394 662.133 300.299L661.731 299.384ZM653.976 300.935V299.935C650.701 299.935 647.796 299.196 645.235 297.739L644.74 298.608L644.246 299.477C647.136 301.122 650.388 301.935 653.976 301.935V300.935ZM644.74 298.608L645.246 297.745C642.674 296.238 640.662 294.182 639.198 291.563L638.325 292.052L637.452 292.54C639.089 295.467 641.354 297.782 644.235 299.471L644.74 298.608ZM638.325 292.052L639.201 291.57C637.739 288.911 636.998 285.907 636.998 282.534H635.998H634.998C634.998 286.211 635.809 289.552 637.449 292.533L638.325 292.052ZM635.998 282.534H636.998C636.998 279.161 637.739 276.157 639.201 273.498L638.325 273.017L637.449 272.535C635.809 275.516 634.998 278.857 634.998 282.534H635.998ZM638.325 273.017L639.201 273.498C640.665 270.836 642.674 268.786 645.235 267.329L644.74 266.46L644.246 265.591C641.355 267.236 639.086 269.557 637.449 272.535L638.325 273.017ZM644.74 266.46L645.246 267.323C647.806 265.822 650.707 265.063 653.976 265.063V264.063V263.063C650.383 263.063 647.127 263.902 644.235 265.597L644.74 266.46ZM653.976 264.063V265.063C656.493 265.063 658.784 265.49 660.862 266.33L661.237 265.403L661.612 264.475C659.272 263.529 656.723 263.063 653.976 263.063V264.063ZM661.237 265.403L660.869 266.332C663.004 267.177 664.837 268.372 666.382 269.917L667.089 269.21L667.796 268.502C666.05 266.757 663.983 265.414 661.605 264.473L661.237 265.403ZM667.089 269.21L666.308 268.585L664.616 270.7L665.397 271.325L666.178 271.949L667.87 269.834L667.089 269.21ZM691.088 251.585L692.014 251.206L691.76 250.585H691.088V251.585ZM709.77 297.339L708.845 297.717L709.769 299.98L710.696 297.718L709.77 297.339ZM728.523 251.585V250.585H727.853L727.598 251.205L728.523 251.585ZM731.766 251.585L732.69 251.968L733.264 250.585H731.766V251.585ZM711.321 300.864V301.864H711.989L712.245 301.247L711.321 300.864ZM708.219 300.864L707.296 301.247L707.552 301.864H708.219V300.864ZM687.774 251.585V250.585H686.277L686.851 251.968L687.774 251.585ZM691.088 251.585L690.162 251.963L708.845 297.717L709.77 297.339L710.696 296.961L692.014 251.206L691.088 251.585ZM709.77 297.339L710.696 297.718L729.449 251.964L728.523 251.585L727.598 251.205L708.845 296.96L709.77 297.339ZM728.523 251.585V252.585H731.766V251.585V250.585H728.523V251.585ZM731.766 251.585L730.843 251.201L710.398 300.481L711.321 300.864L712.245 301.247L732.69 251.968L731.766 251.585ZM711.321 300.864V299.864H708.219V300.864V301.864H711.321V300.864ZM708.219 300.864L709.143 300.481L688.698 251.201L687.774 251.585L686.851 251.968L707.296 301.247L708.219 300.864ZM687.774 251.585V252.585H691.088V251.585V250.585H687.774V251.585ZM742.528 264.134H743.528V263.134H742.528V264.134ZM742.528 300.864V301.864H743.528V300.864H742.528ZM739.638 300.864H738.638V301.864H739.638V300.864ZM739.638 264.134V263.134H738.638V264.134H739.638ZM742.81 251.796L742.07 252.469L742.102 252.504L742.137 252.536L742.81 251.796ZM742.81 255.462L742.103 254.755L742.103 254.755L742.81 255.462ZM739.356 255.462L738.616 256.135L738.648 256.17L738.683 256.202L739.356 255.462ZM739.356 251.796L738.649 251.089L738.649 251.089L739.356 251.796ZM742.528 264.134H741.528V300.864H742.528H743.528V264.134H742.528ZM742.528 300.864V299.864H739.638V300.864V301.864H742.528V300.864ZM739.638 300.864H740.638V264.134H739.638H738.638V300.864H739.638ZM739.638 264.134V265.134H742.528V264.134V263.134H739.638V264.134ZM741.118 251.021V252.021C741.475 252.021 741.777 252.146 742.07 252.469L742.81 251.796L743.55 251.123C742.904 250.412 742.077 250.021 741.118 250.021V251.021ZM742.81 251.796L742.137 252.536C742.444 252.814 742.586 253.132 742.586 253.559H743.586H744.586C744.586 252.575 744.21 251.718 743.483 251.056L742.81 251.796ZM743.586 253.559H742.586C742.586 254.054 742.427 254.431 742.103 254.755L742.81 255.462L743.517 256.169C744.228 255.459 744.586 254.567 744.586 253.559H743.586ZM742.81 255.462L742.103 254.755C741.818 255.04 741.508 255.167 741.118 255.167V256.167V257.167C742.044 257.167 742.862 256.825 743.517 256.169L742.81 255.462ZM741.118 256.167V255.167C740.725 255.167 740.374 255.036 740.028 254.722L739.356 255.462L738.683 256.202C739.372 256.828 740.195 257.167 741.118 257.167V256.167ZM739.356 255.462L740.096 254.789C739.806 254.471 739.651 254.082 739.651 253.559H738.651H737.651C737.651 254.539 737.965 255.419 738.616 256.135L739.356 255.462ZM738.651 253.559H739.651C739.651 253.101 739.793 252.773 740.063 252.503L739.356 251.796L738.649 251.089C737.979 251.759 737.651 252.606 737.651 253.559H738.651ZM739.356 251.796L740.063 252.503C740.415 252.151 740.756 252.021 741.118 252.021V251.021V250.021C740.164 250.021 739.33 250.407 738.649 251.089L739.356 251.796ZM760.224 273.369H759.224L761.153 273.738L760.224 273.369ZM765.441 266.601L765.999 267.43L766.003 267.428L765.441 266.601ZM773.901 264.063H774.901V263.034L773.872 263.063L773.901 264.063ZM773.901 267.095V268.095H774.901V267.095H773.901ZM764.313 270.831L765.027 271.531L765.033 271.524L764.313 270.831ZM760.224 280.983L759.227 280.907L759.224 280.945V280.983H760.224ZM760.224 300.864V301.864H761.224V300.864H760.224ZM757.263 300.864H756.263V301.864H757.263V300.864ZM757.263 264.134V263.134H756.263V264.134H757.263ZM760.224 264.134H761.224V263.134H760.224V264.134ZM760.224 273.369L761.153 273.738C762.265 270.936 763.887 268.853 765.999 267.43L765.441 266.601L764.882 265.772C762.388 267.451 760.532 269.88 759.294 273L760.224 273.369ZM765.441 266.601L766.003 267.428C768.171 265.953 770.799 265.152 773.929 265.063L773.901 264.063L773.872 263.063C770.422 263.162 767.41 264.053 764.878 265.774L765.441 266.601ZM773.901 264.063H772.901V267.095H773.901H774.901V264.063H773.901ZM773.901 267.095V266.095C769.68 266.095 766.207 267.42 763.592 270.138L764.313 270.831L765.033 271.524C767.212 269.26 770.131 268.095 773.901 268.095V267.095ZM764.313 270.831L763.599 270.131C760.997 272.784 759.569 276.412 759.227 280.907L760.224 280.983L761.221 281.059C761.537 276.906 762.835 273.766 765.027 271.531L764.313 270.831ZM760.224 280.983H759.224V300.864H760.224H761.224V280.983H760.224ZM760.224 300.864V299.864H757.263V300.864V301.864H760.224V300.864ZM757.263 300.864H758.263V264.134H757.263H756.263V300.864H757.263ZM757.263 264.134V265.134H760.224V264.134V263.134H757.263V264.134ZM760.224 264.134H759.224V273.369H760.224H761.224V264.134H760.224ZM799.183 298.326L799.741 299.156L800.453 298.677L800.087 297.9L799.183 298.326ZM785.294 298.397L784.517 299.026L784.526 299.037L785.294 298.397ZM783.179 267.588H784.179V266.588H783.179V267.588ZM777.821 267.588H776.821V268.588H777.821V267.588ZM777.821 265.05V264.05H776.821V265.05H777.821ZM783.179 265.05V266.05H784.179V265.05H783.179ZM783.179 255.956V254.956H782.179V255.956H783.179ZM785.999 255.956H786.999V254.956H785.999V255.956ZM785.999 265.05H784.999V266.05H785.999V265.05ZM798.478 265.05H799.478V264.05H798.478V265.05ZM798.478 267.588V268.588H799.478V267.588H798.478ZM785.999 267.588V266.588H784.999V267.588H785.999ZM798.055 295.929L798.959 295.503L798.46 294.442L797.491 295.103L798.055 295.929ZM799.183 298.326L798.624 297.496C796.174 299.145 793.756 299.935 791.357 299.935V300.935V301.935C794.222 301.935 797.022 300.985 799.741 299.156L799.183 298.326ZM791.357 300.935V299.935C788.958 299.935 787.245 299.175 786.062 297.756L785.294 298.397L784.526 299.037C786.163 301.002 788.492 301.935 791.357 301.935V300.935ZM785.294 298.397L786.071 297.767C784.863 296.277 784.179 293.979 784.179 290.712H783.179H782.179C782.179 294.213 782.905 297.038 784.517 299.026L785.294 298.397ZM783.179 290.712H784.179V267.588H783.179H782.179V290.712H783.179ZM783.179 267.588V266.588H777.821V267.588V268.588H783.179V267.588ZM777.821 267.588H778.821V265.05H777.821H776.821V267.588H777.821ZM777.821 265.05V266.05H783.179V265.05V264.05H777.821V265.05ZM783.179 265.05H784.179V255.956H783.179H782.179V265.05H783.179ZM783.179 255.956V256.956H785.999V255.956V254.956H783.179V255.956ZM785.999 255.956H784.999V265.05H785.999H786.999V255.956H785.999ZM785.999 265.05V266.05H798.478V265.05V264.05H785.999V265.05ZM798.478 265.05H797.478V267.588H798.478H799.478V265.05H798.478ZM798.478 267.588V266.588H785.999V267.588V268.588H798.478V267.588ZM785.999 267.588H784.999V290.36H785.999H786.999V267.588H785.999ZM785.999 290.36H784.999C784.999 293.016 785.487 295.19 786.624 296.719C787.802 298.305 789.559 299.044 791.71 299.044V298.044V297.044C790.054 297.044 788.955 296.503 788.229 295.526C787.463 294.495 786.999 292.826 786.999 290.36H785.999ZM791.71 298.044V299.044C794.103 299.044 796.411 298.26 798.618 296.755L798.055 295.929L797.491 295.103C795.562 296.418 793.64 297.044 791.71 297.044V298.044ZM798.055 295.929L797.15 296.355L798.278 298.752L799.183 298.326L800.087 297.9L798.959 295.503L798.055 295.929ZM838.597 264.134H839.597V263.134H838.597V264.134ZM838.597 300.864V301.864H839.597V300.864H838.597ZM835.707 300.864H834.707V301.864H835.707V300.864ZM835.707 291.065H836.707L834.768 290.719L835.707 291.065ZM830.137 298.397L830.688 299.231L830.692 299.229L830.137 298.397ZM820.972 300.935V301.935L820.985 301.934L820.972 300.935ZM810.609 297.128L809.888 297.821L809.895 297.828L810.609 297.128ZM806.943 264.134V263.134H805.943V264.134H806.943ZM809.833 264.134H810.833V263.134H809.833V264.134ZM812.935 294.801L812.22 295.5L812.22 295.5L812.935 294.801ZM821.607 297.974V298.974H821.617L821.628 298.973L821.607 297.974ZM831.97 293.603L831.221 292.94L831.221 292.94L831.97 293.603ZM835.707 264.134V263.134H834.707V264.134H835.707ZM838.597 264.134H837.597V300.864H838.597H839.597V264.134H838.597ZM838.597 300.864V299.864H835.707V300.864V301.864H838.597V300.864ZM835.707 300.864H836.707V291.065H835.707H834.707V300.864H835.707ZM835.707 291.065L834.768 290.719C833.657 293.741 831.924 296.004 829.582 297.564L830.137 298.397L830.692 299.229C833.426 297.405 835.406 294.78 836.645 291.41L835.707 291.065ZM830.137 298.397L829.586 297.562C827.286 299.081 824.428 299.89 820.959 299.935L820.972 300.935L820.985 301.934C824.755 301.885 828.006 301.002 830.688 299.231L830.137 298.397ZM820.972 300.935V299.935C816.753 299.935 813.582 298.729 811.322 296.427L810.609 297.128L809.895 297.828C812.617 300.602 816.355 301.935 820.972 301.935V300.935ZM810.609 297.128L811.329 296.434C809.111 294.13 807.943 290.881 807.943 286.553H806.943H805.943C805.943 291.248 807.218 295.049 809.888 297.821L810.609 297.128ZM806.943 286.553H807.943V264.134H806.943H805.943V286.553H806.943ZM806.943 264.134V265.134H809.833V264.134V263.134H806.943V264.134ZM809.833 264.134H808.833V285.989H809.833H810.833V264.134H809.833ZM809.833 285.989H808.833C808.833 289.936 809.923 293.151 812.22 295.5L812.935 294.801L813.65 294.102C811.811 292.221 810.833 289.561 810.833 285.989H809.833ZM812.935 294.801L812.22 295.5C814.522 297.854 817.697 298.974 821.607 298.974V297.974V296.974C818.09 296.974 815.485 295.978 813.65 294.102L812.935 294.801ZM821.607 297.974L821.628 298.973C826.272 298.874 830.011 297.331 832.72 294.265L831.97 293.603L831.221 292.94C828.947 295.514 825.777 296.885 821.585 296.974L821.607 297.974ZM831.97 293.603L832.72 294.265C835.414 291.214 836.707 287.124 836.707 282.111H835.707H834.707C834.707 286.78 833.508 290.351 831.221 292.94L831.97 293.603ZM835.707 282.111H836.707V264.134H835.707H834.707V282.111H835.707ZM835.707 264.134V265.134H838.597V264.134V263.134H835.707V264.134ZM876.923 300.864L875.923 300.874L875.932 301.864H876.923V300.864ZM876.852 293.603L877.852 293.593L877.818 290.068L875.996 293.086L876.852 293.603ZM870.789 299.172L871.216 300.076L871.223 300.073L870.789 299.172ZM855.843 299.525L855.387 300.414L855.387 300.414L855.843 299.525ZM851.543 295.718L850.685 296.232L850.694 296.247L850.703 296.261L851.543 295.718ZM853.728 282.957L854.308 283.772L854.318 283.764L853.728 282.957ZM876.782 280.278V281.278H877.782V280.278H876.782ZM876.782 276.683H877.782V276.675L877.782 276.668L876.782 276.683ZM859.509 268.011L859.884 268.938L859.894 268.934L859.903 268.93L859.509 268.011ZM853.446 271.536L852.598 272.066L853.175 272.989L854.046 272.336L853.446 271.536ZM852.036 269.28L851.449 268.471L850.694 269.019L851.188 269.81L852.036 269.28ZM858.945 265.403L859.303 266.336L859.311 266.333L859.32 266.33L858.945 265.403ZM876.077 267.377L875.384 268.098L875.392 268.105L876.077 267.377ZM879.672 276.471L880.672 276.465L880.672 276.459L879.672 276.471ZM879.813 300.864V301.864H880.819L880.813 300.858L879.813 300.864ZM871.565 295.929L871.029 295.085L871.029 295.085L871.565 295.929ZM876.852 288.879L877.798 289.204L877.852 289.046V288.879H876.852ZM876.852 282.887H877.852V281.887H876.852V282.887ZM855.702 284.72L855.167 283.875L855.157 283.881L855.702 284.72ZM855.491 296L854.836 296.756L854.847 296.764L855.491 296ZM876.923 300.864L877.923 300.854L877.852 293.593L876.852 293.603L875.852 293.612L875.923 300.874L876.923 300.864ZM876.852 293.603L875.996 293.086C874.589 295.416 872.712 297.136 870.355 298.271L870.789 299.172L871.223 300.073C873.942 298.764 876.107 296.771 877.708 294.119L876.852 293.603ZM870.789 299.172L870.363 298.268C868.027 299.369 865.31 299.935 862.188 299.935V300.935V301.935C865.553 301.935 868.57 301.325 871.216 300.076L870.789 299.172ZM862.188 300.935V299.935C859.924 299.935 857.97 299.491 856.299 298.635L855.843 299.525L855.387 300.414C857.382 301.438 859.658 301.935 862.188 301.935V300.935ZM855.843 299.525L856.299 298.635C854.609 297.768 853.313 296.613 852.382 295.174L851.543 295.718L850.703 296.261C851.84 298.018 853.411 299.401 855.387 300.414L855.843 299.525ZM851.543 295.718L852.4 295.203C851.514 293.726 851.062 292.049 851.062 290.148H850.062H849.062C849.062 292.383 849.598 294.419 850.685 296.232L851.543 295.718ZM850.062 290.148H851.062C851.062 287.409 852.133 285.319 854.308 283.772L853.728 282.957L853.148 282.142C850.435 284.073 849.062 286.777 849.062 290.148H850.062ZM853.728 282.957L854.318 283.764C856.535 282.145 859.639 281.278 863.739 281.278V280.278V279.278C859.379 279.278 855.81 280.197 853.138 282.15L853.728 282.957ZM863.739 280.278V281.278H876.782V280.278V279.278H863.739V280.278ZM876.782 280.278H877.782V276.683H876.782H875.782V280.278H876.782ZM876.782 276.683L877.782 276.668C877.732 273.32 876.724 270.593 874.65 268.625L873.962 269.351L873.273 270.076C874.865 271.586 875.738 273.747 875.782 276.697L876.782 276.683ZM873.962 269.351L874.65 268.625C872.564 266.646 869.548 265.742 865.784 265.742V266.742V267.742C869.257 267.742 871.693 268.577 873.273 270.076L873.962 269.351ZM865.784 266.742V265.742C863.443 265.742 861.217 266.191 859.115 267.092L859.509 268.011L859.903 268.93C861.749 268.139 863.706 267.742 865.784 267.742V266.742ZM859.509 268.011L859.134 267.084C857.065 267.922 854.969 269.144 852.846 270.736L853.446 271.536L854.046 272.336C856.059 270.826 858.005 269.698 859.884 268.938L859.509 268.011ZM853.446 271.536L854.294 271.006L852.884 268.75L852.036 269.28L851.188 269.81L852.598 272.066L853.446 271.536ZM852.036 269.28L852.623 270.089C854.967 268.389 857.193 267.144 859.303 266.336L858.945 265.403L858.587 264.469C856.279 265.353 853.9 266.693 851.449 268.471L852.036 269.28ZM858.945 265.403L859.32 266.33C861.398 265.49 863.69 265.063 866.207 265.063V264.063V263.063C863.46 263.063 860.91 263.529 858.57 264.475L858.945 265.403ZM866.207 264.063V265.063C870.316 265.063 873.324 266.122 875.384 268.098L876.077 267.377L876.769 266.655C874.224 264.213 870.652 263.063 866.207 263.063V264.063ZM876.077 267.377L875.392 268.105C877.506 270.092 878.628 272.844 878.672 276.483L879.672 276.471L880.672 276.459C880.622 272.39 879.348 269.079 876.762 266.648L876.077 267.377ZM879.672 276.471L878.672 276.477L878.813 300.87L879.813 300.864L880.813 300.858L880.672 276.465L879.672 276.471ZM879.813 300.864V299.864H876.923V300.864V301.864H879.813V300.864ZM862.611 298.256V299.256C866.284 299.256 869.464 298.446 872.1 296.773L871.565 295.929L871.029 295.085C868.777 296.514 865.988 297.256 862.611 297.256V298.256ZM871.565 295.929L872.1 296.773C874.764 295.083 876.655 292.534 877.798 289.204L876.852 288.879L875.906 288.554C874.887 291.522 873.253 293.673 871.029 295.085L871.565 295.929ZM876.852 288.879H877.852V282.887H876.852H875.852V288.879H876.852ZM876.852 282.887V281.887H864.021V282.887V283.887H876.852V282.887ZM864.021 282.887V281.887C860.314 281.887 857.322 282.508 855.167 283.875L855.702 284.72L856.238 285.564C857.936 284.487 860.49 283.887 864.021 283.887V282.887ZM855.702 284.72L855.157 283.881C852.977 285.298 851.882 287.409 851.882 290.078H852.882H853.882C853.882 288.046 854.667 286.585 856.247 285.558L855.702 284.72ZM852.882 290.078H851.882C851.882 292.791 852.863 295.049 854.836 296.756L855.491 296L856.145 295.243C854.641 293.942 853.882 292.252 853.882 290.078H852.882ZM855.491 296L854.847 296.764C856.857 298.457 859.479 299.256 862.611 299.256V298.256V297.256C859.821 297.256 857.696 296.55 856.135 295.235L855.491 296ZM896.619 248.553H897.619V247.553H896.619V248.553ZM896.619 300.864V301.864H897.619V300.864H896.619ZM893.658 300.864H892.658V301.864H893.658V300.864ZM893.658 248.553V247.553H892.658V248.553H893.658ZM896.619 248.553H895.619V300.864H896.619H897.619V248.553H896.619ZM896.619 300.864V299.864H893.658V300.864V301.864H896.619V300.864ZM893.658 300.864H894.658V248.553H893.658H892.658V300.864H893.658ZM893.658 248.553V249.553H896.619V248.553V247.553H893.658V248.553ZM963.776 260.186L963.095 260.917L963.893 261.661L964.564 260.801L963.776 260.186ZM956.656 255.674L956.282 256.601L956.282 256.601L956.656 255.674ZM936.916 257.013L936.422 256.143L936.417 256.146L936.916 257.013ZM928.738 265.05L929.596 265.563L929.596 265.563L928.738 265.05ZM928.738 287.187L929.596 286.674L929.596 286.674L928.738 287.187ZM936.916 295.295L936.408 296.156L936.415 296.16L936.422 296.164L936.916 295.295ZM956.585 296.705L956.951 297.635L956.96 297.632L956.585 296.705ZM963.776 292.193L964.521 291.525L963.848 290.774L963.103 291.453L963.776 292.193ZM965.609 294.237L966.294 294.966L967.006 294.297L966.354 293.569L965.609 294.237ZM957.572 299.313L957.201 298.385L957.196 298.387L957.572 299.313ZM935.435 297.833L934.935 298.698L934.943 298.703L935.435 297.833ZM926.129 288.738L925.266 289.243L925.27 289.249L925.274 289.256L926.129 288.738ZM926.129 263.711L925.271 263.198L925.269 263.201L926.129 263.711ZM935.435 254.616L935.928 255.486L935.936 255.482L935.435 254.616ZM957.502 252.995L957.133 253.924L957.138 253.926L957.502 252.995ZM965.539 257.93L966.327 258.545L966.901 257.81L966.208 257.186L965.539 257.93ZM963.776 260.186L964.458 259.454C962.299 257.442 959.82 255.872 957.03 254.746L956.656 255.674L956.282 256.601C958.85 257.637 961.118 259.076 963.095 260.917L963.776 260.186ZM956.656 255.674L957.03 254.746C954.231 253.617 951.308 253.052 948.266 253.052V254.052V255.052C951.053 255.052 953.723 255.568 956.282 256.601L956.656 255.674ZM948.266 254.052V253.052C944.008 253.052 940.054 254.082 936.422 256.143L936.916 257.013L937.41 257.883C940.734 255.996 944.346 255.052 948.266 255.052V254.052ZM936.916 257.013L936.417 256.146C932.839 258.205 929.988 261.006 927.879 264.537L928.738 265.05L929.596 265.563C931.529 262.326 934.131 259.769 937.415 257.88L936.916 257.013ZM928.738 265.05L927.879 264.537C925.765 268.078 924.706 271.946 924.706 276.119H925.706H926.706C926.706 272.301 927.669 268.79 929.596 265.563L928.738 265.05ZM925.706 276.119H924.706C924.706 280.291 925.765 284.159 927.879 287.7L928.738 287.187L929.596 286.674C927.669 283.447 926.706 279.936 926.706 276.119H925.706ZM928.738 287.187L927.879 287.7C929.987 291.229 932.835 294.051 936.408 296.156L936.916 295.295L937.423 294.433C934.135 292.496 931.531 289.913 929.596 286.674L928.738 287.187ZM936.916 295.295L936.422 296.164C940.054 298.226 944.008 299.256 948.266 299.256V298.256V297.256C944.346 297.256 940.734 296.311 937.41 294.425L936.916 295.295ZM948.266 298.256V299.256C951.302 299.256 954.199 298.716 956.951 297.635L956.585 296.705L956.22 295.774C953.708 296.761 951.059 297.256 948.266 297.256V298.256ZM956.585 296.705L956.96 297.632C959.748 296.507 962.246 294.939 964.45 292.932L963.776 292.193L963.103 291.453C961.077 293.3 958.781 294.74 956.211 295.777L956.585 296.705ZM963.776 292.193L963.032 292.86L964.865 294.905L965.609 294.237L966.354 293.569L964.521 291.525L963.776 292.193ZM965.609 294.237L964.925 293.508C962.717 295.581 960.145 297.207 957.201 298.385L957.572 299.313L957.944 300.241C961.11 298.975 963.896 297.217 966.294 294.966L965.609 294.237ZM957.572 299.313L957.196 298.387C954.307 299.56 951.31 300.146 948.196 300.146V301.146V302.146C951.568 302.146 954.821 301.51 957.949 300.239L957.572 299.313ZM948.196 301.146V300.146C943.758 300.146 939.675 299.084 935.928 296.962L935.435 297.833L934.943 298.703C938.998 300.999 943.422 302.146 948.196 302.146V301.146ZM935.435 297.833L935.936 296.967C932.179 294.794 929.2 291.881 926.985 288.22L926.129 288.738L925.274 289.256C927.665 293.209 930.89 296.359 934.935 298.698L935.435 297.833ZM926.129 288.738L926.992 288.233C924.827 284.534 923.745 280.525 923.745 276.189H922.745H921.745C921.745 280.877 922.92 285.234 925.266 289.243L926.129 288.738ZM922.745 276.189H923.745C923.745 271.853 924.827 267.87 926.99 264.22L926.129 263.711L925.269 263.201C922.92 267.165 921.745 271.501 921.745 276.189H922.745ZM926.129 263.711L926.988 264.223C929.202 260.518 932.178 257.61 935.928 255.486L935.435 254.616L934.943 253.746C930.891 256.04 927.663 259.195 925.271 263.198L926.129 263.711ZM935.435 254.616L935.936 255.482C939.681 253.316 943.762 252.232 948.196 252.232V251.232V250.232C943.418 250.232 938.991 251.404 934.935 253.75L935.435 254.616ZM948.196 251.232V252.232C951.315 252.232 954.292 252.796 957.133 253.924L957.502 252.995L957.871 252.065C954.79 250.843 951.563 250.232 948.196 250.232V251.232ZM957.502 252.995L957.138 253.926C960.036 255.058 962.611 256.64 964.87 258.673L965.539 257.93L966.208 257.186C963.766 254.989 960.984 253.281 957.866 252.063L957.502 252.995ZM965.539 257.93L964.751 257.314L962.988 259.57L963.776 260.186L964.564 260.801L966.327 258.545L965.539 257.93ZM979.718 248.553H980.718V247.553H979.718V248.553ZM979.718 300.864V301.864H980.718V300.864H979.718ZM976.757 300.864H975.757V301.864H976.757V300.864ZM976.757 248.553V247.553H975.757V248.553H976.757ZM979.718 248.553H978.718V300.864H979.718H980.718V248.553H979.718ZM979.718 300.864V299.864H976.757V300.864V301.864H979.718V300.864ZM976.757 300.864H977.757V248.553H976.757H975.757V300.864H976.757ZM976.757 248.553V249.553H979.718V248.553V247.553H976.757V248.553ZM997.609 264.134H998.609V263.134H997.609V264.134ZM997.609 300.864V301.864H998.609V300.864H997.609ZM994.718 300.864H993.718V301.864H994.718V300.864ZM994.718 264.134V263.134H993.718V264.134H994.718ZM997.891 251.796L997.151 252.469L997.183 252.504L997.218 252.536L997.891 251.796ZM997.891 255.462L997.184 254.755L997.184 254.755L997.891 255.462ZM994.436 255.462L993.696 256.135L993.728 256.17L993.764 256.202L994.436 255.462ZM994.436 251.796L993.729 251.089L993.729 251.089L994.436 251.796ZM997.609 264.134H996.609V300.864H997.609H998.609V264.134H997.609ZM997.609 300.864V299.864H994.718V300.864V301.864H997.609V300.864ZM994.718 300.864H995.718V264.134H994.718H993.718V300.864H994.718ZM994.718 264.134V265.134H997.609V264.134V263.134H994.718V264.134ZM996.199 251.021V252.021C996.556 252.021 996.857 252.146 997.151 252.469L997.891 251.796L998.631 251.123C997.984 250.412 997.158 250.021 996.199 250.021V251.021ZM997.891 251.796L997.218 252.536C997.524 252.814 997.666 253.132 997.666 253.559H998.666H999.666C999.666 252.575 999.291 251.718 998.563 251.056L997.891 251.796ZM998.666 253.559H997.666C997.666 254.054 997.507 254.431 997.184 254.755L997.891 255.462L998.598 256.169C999.308 255.459 999.666 254.567 999.666 253.559H998.666ZM997.891 255.462L997.184 254.755C996.899 255.04 996.589 255.167 996.199 255.167V256.167V257.167C997.125 257.167 997.942 256.825 998.598 256.169L997.891 255.462ZM996.199 256.167V255.167C995.806 255.167 995.454 255.036 995.109 254.722L994.436 255.462L993.764 256.202C994.452 256.828 995.276 257.167 996.199 257.167V256.167ZM994.436 255.462L995.176 254.789C994.887 254.471 994.731 254.082 994.731 253.559H993.731H992.731C992.731 254.539 993.046 255.419 993.696 256.135L994.436 255.462ZM993.731 253.559H994.731C994.731 253.101 994.873 252.773 995.143 252.503L994.436 251.796L993.729 251.089C993.059 251.759 992.731 252.606 992.731 253.559H993.731ZM994.436 251.796L995.143 252.503C995.496 252.151 995.837 252.021 996.199 252.021V251.021V250.021C995.245 250.021 994.411 250.407 993.729 251.089L994.436 251.796ZM1030.32 264.063V263.063H1030.31L1030.3 263.063L1030.32 264.063ZM1040.75 267.941L1040.03 268.634L1040.04 268.641L1040.05 268.648L1040.75 267.941ZM1044.56 300.864V301.864H1045.56V300.864H1044.56ZM1041.6 300.864H1040.6V301.864H1041.6V300.864ZM1038.43 270.197L1039.14 269.489L1039.14 269.489L1038.43 270.197ZM1029.62 267.024V266.024H1029.6L1029.59 266.024L1029.62 267.024ZM1019.53 270.902L1020.23 271.615L1020.23 271.615L1019.53 270.902ZM1015.3 280.983L1014.31 280.906L1014.3 280.945V280.983H1015.3ZM1015.3 300.864V301.864H1016.3V300.864H1015.3ZM1012.34 300.864H1011.34V301.864H1012.34V300.864ZM1012.34 264.134V263.134H1011.34V264.134H1012.34ZM1015.3 264.134H1016.3V263.134H1015.3V264.134ZM1015.3 273.51H1014.3L1016.23 273.886L1015.3 273.51ZM1020.94 266.601L1020.42 265.75L1020.41 265.755L1020.94 266.601ZM1030.32 264.063V265.063C1034.58 265.063 1037.78 266.291 1040.03 268.634L1040.75 267.941L1041.47 267.247C1038.75 264.421 1034.99 263.063 1030.32 263.063V264.063ZM1040.75 267.941L1040.05 268.648C1042.35 270.955 1043.56 274.177 1043.56 278.445H1044.56H1045.56C1045.56 273.783 1044.23 270.002 1041.46 267.233L1040.75 267.941ZM1044.56 278.445H1043.56V300.864H1044.56H1045.56V278.445H1044.56ZM1044.56 300.864V299.864H1041.6V300.864V301.864H1044.56V300.864ZM1041.6 300.864H1042.6V279.009H1041.6H1040.6V300.864H1041.6ZM1041.6 279.009H1042.6C1042.6 275.056 1041.48 271.837 1039.14 269.489L1038.43 270.197L1037.72 270.904C1039.6 272.786 1040.6 275.442 1040.6 279.009H1041.6ZM1038.43 270.197L1039.14 269.489C1036.79 267.142 1033.57 266.024 1029.62 266.024V267.024V268.024C1033.18 268.024 1035.84 269.022 1037.72 270.904L1038.43 270.197ZM1029.62 267.024L1029.59 266.024C1025.2 266.123 1021.58 267.488 1018.83 270.188L1019.53 270.902L1020.23 271.615C1022.56 269.333 1025.66 268.113 1029.64 268.024L1029.62 267.024ZM1019.53 270.902L1018.83 270.188C1016.13 272.838 1014.65 276.446 1014.31 280.906L1015.3 280.983L1016.3 281.06C1016.62 276.966 1017.95 273.853 1020.23 271.615L1019.53 270.902ZM1015.3 280.983H1014.3V300.864H1015.3H1016.3V280.983H1015.3ZM1015.3 300.864V299.864H1012.34V300.864V301.864H1015.3V300.864ZM1012.34 300.864H1013.34V264.134H1012.34H1011.34V300.864H1012.34ZM1012.34 264.134V265.134H1015.3V264.134V263.134H1012.34V264.134ZM1015.3 264.134H1014.3V273.51H1015.3H1016.3V264.134H1015.3ZM1015.3 273.51L1016.23 273.886C1017.38 271.055 1019.13 268.924 1021.48 267.447L1020.94 266.601L1020.41 265.755C1017.68 267.474 1015.67 269.949 1014.38 273.134L1015.3 273.51ZM1020.94 266.601L1021.47 267.452C1023.88 265.964 1026.82 265.153 1030.35 265.063L1030.32 264.063L1030.3 263.063C1026.49 263.161 1023.18 264.042 1020.42 265.75L1020.94 266.601ZM1060.95 264.134H1061.95V263.134H1060.95V264.134ZM1060.95 300.864V301.864H1061.95V300.864H1060.95ZM1058.06 300.864H1057.06V301.864H1058.06V300.864ZM1058.06 264.134V263.134H1057.06V264.134H1058.06ZM1061.23 251.796L1060.49 252.469L1060.52 252.504L1060.56 252.536L1061.23 251.796ZM1061.23 255.462L1060.52 254.755L1060.52 254.755L1061.23 255.462ZM1057.78 255.462L1057.04 256.135L1057.07 256.17L1057.1 256.202L1057.78 255.462ZM1057.78 251.796L1057.07 251.089L1057.07 251.089L1057.78 251.796ZM1060.95 264.134H1059.95V300.864H1060.95H1061.95V264.134H1060.95ZM1060.95 300.864V299.864H1058.06V300.864V301.864H1060.95V300.864ZM1058.06 300.864H1059.06V264.134H1058.06H1057.06V300.864H1058.06ZM1058.06 264.134V265.134H1060.95V264.134V263.134H1058.06V264.134ZM1059.54 251.021V252.021C1059.9 252.021 1060.2 252.146 1060.49 252.469L1061.23 251.796L1061.97 251.123C1061.32 250.412 1060.5 250.021 1059.54 250.021V251.021ZM1061.23 251.796L1060.56 252.536C1060.86 252.814 1061.01 253.132 1061.01 253.559H1062.01H1063.01C1063.01 252.575 1062.63 251.718 1061.9 251.056L1061.23 251.796ZM1062.01 253.559H1061.01C1061.01 254.054 1060.85 254.431 1060.52 254.755L1061.23 255.462L1061.94 256.169C1062.65 255.459 1063.01 254.567 1063.01 253.559H1062.01ZM1061.23 255.462L1060.52 254.755C1060.24 255.04 1059.93 255.167 1059.54 255.167V256.167V257.167C1060.46 257.167 1061.28 256.825 1061.94 256.169L1061.23 255.462ZM1059.54 256.167V255.167C1059.15 255.167 1058.79 255.036 1058.45 254.722L1057.78 255.462L1057.1 256.202C1057.79 256.828 1058.62 257.167 1059.54 257.167V256.167ZM1057.78 255.462L1058.52 254.789C1058.23 254.471 1058.07 254.082 1058.07 253.559H1057.07H1056.07C1056.07 254.539 1056.39 255.419 1057.04 256.135L1057.78 255.462ZM1057.07 253.559H1058.07C1058.07 253.101 1058.21 252.773 1058.48 252.503L1057.78 251.796L1057.07 251.089C1056.4 251.759 1056.07 252.606 1056.07 253.559H1057.07ZM1057.78 251.796L1058.48 252.503C1058.84 252.151 1059.18 252.021 1059.54 252.021V251.021V250.021C1058.58 250.021 1057.75 250.407 1057.07 251.089L1057.78 251.796ZM1101.13 271.325L1100.45 272.058L1101.24 272.789L1101.91 271.949L1101.13 271.325ZM1081.96 268.857L1081.46 267.989L1081.46 267.989L1081.96 268.857ZM1076.53 274.427L1075.65 273.945L1075.65 273.951L1076.53 274.427ZM1076.53 290.642L1075.65 291.109L1075.65 291.116L1075.65 291.123L1076.53 290.642ZM1081.96 296.211L1081.46 297.079L1081.46 297.079L1081.96 296.211ZM1096.55 296.846L1096.15 295.927L1096.15 295.927L1096.55 296.846ZM1101.77 293.039L1102.5 292.359L1101.74 291.536L1101.01 292.388L1101.77 293.039ZM1103.53 294.942L1104.29 295.591L1104.87 294.915L1104.26 294.263L1103.53 294.942ZM1097.47 299.384L1097.07 298.465L1097.06 298.468L1097.47 299.384ZM1080.48 298.608L1079.97 299.471L1079.98 299.477L1080.48 298.608ZM1074.06 292.052L1073.19 292.533L1073.19 292.54L1074.06 292.052ZM1074.06 273.017L1073.19 272.535L1073.19 272.535L1074.06 273.017ZM1080.48 266.46L1080.97 267.329L1080.98 267.323L1080.48 266.46ZM1096.97 265.403L1096.6 266.33L1096.61 266.332L1096.97 265.403ZM1102.83 269.21L1103.61 269.834L1104.17 269.135L1103.53 268.502L1102.83 269.21ZM1101.13 271.325L1101.81 270.591C1098.43 267.458 1094.41 265.883 1089.78 265.883V266.883V267.883C1093.9 267.883 1097.44 269.269 1100.45 272.058L1101.13 271.325ZM1089.78 266.883V265.883C1086.71 265.883 1083.93 266.578 1081.46 267.989L1081.96 268.857L1082.45 269.725C1084.59 268.504 1087.03 267.883 1089.78 267.883V266.883ZM1081.96 268.857L1081.46 267.989C1078.99 269.399 1077.05 271.392 1075.65 273.945L1076.53 274.427L1077.41 274.908C1078.64 272.667 1080.32 270.947 1082.45 269.725L1081.96 268.857ZM1076.53 274.427L1075.65 273.951C1074.29 276.465 1073.63 279.311 1073.63 282.464H1074.63H1075.63C1075.63 279.6 1076.23 277.088 1077.41 274.902L1076.53 274.427ZM1074.63 282.464H1073.63C1073.63 285.661 1074.29 288.551 1075.65 291.109L1076.53 290.642L1077.41 290.174C1076.23 287.938 1075.63 285.376 1075.63 282.464H1074.63ZM1076.53 290.642L1075.65 291.123C1077.05 293.676 1078.99 295.669 1081.46 297.079L1081.96 296.211L1082.45 295.343C1080.32 294.121 1078.64 292.401 1077.41 290.16L1076.53 290.642ZM1081.96 296.211L1081.46 297.079C1083.93 298.49 1086.71 299.185 1089.78 299.185V298.185V297.185C1087.03 297.185 1084.59 296.564 1082.45 295.343L1081.96 296.211ZM1089.78 298.185V299.185C1092.35 299.185 1094.74 298.715 1096.95 297.764L1096.55 296.846L1096.15 295.927C1094.22 296.762 1092.1 297.185 1089.78 297.185V298.185ZM1096.55 296.846L1096.95 297.764C1099.15 296.813 1101.01 295.454 1102.53 293.689L1101.77 293.039L1101.01 292.388C1099.7 293.913 1098.09 295.092 1096.15 295.927L1096.55 296.846ZM1101.77 293.039L1101.03 293.718L1102.8 295.621L1103.53 294.942L1104.26 294.263L1102.5 292.359L1101.77 293.039ZM1103.53 294.942L1102.77 294.293C1101.23 296.1 1099.33 297.49 1097.07 298.465L1097.47 299.384L1097.86 300.302C1100.4 299.209 1102.54 297.638 1104.29 295.591L1103.53 294.942ZM1097.47 299.384L1097.06 298.468C1094.85 299.441 1092.41 299.935 1089.71 299.935V300.935V301.935C1092.66 301.935 1095.38 301.394 1097.87 300.299L1097.47 299.384ZM1089.71 300.935V299.935C1086.44 299.935 1083.53 299.196 1080.97 297.739L1080.48 298.608L1079.98 299.477C1082.87 301.122 1086.12 301.935 1089.71 301.935V300.935ZM1080.48 298.608L1080.98 297.745C1078.41 296.238 1076.4 294.182 1074.93 291.563L1074.06 292.052L1073.19 292.54C1074.83 295.467 1077.09 297.782 1079.97 299.471L1080.48 298.608ZM1074.06 292.052L1074.94 291.57C1073.48 288.911 1072.74 285.907 1072.74 282.534H1071.74H1070.74C1070.74 286.211 1071.55 289.552 1073.19 292.533L1074.06 292.052ZM1071.74 282.534H1072.74C1072.74 279.161 1073.48 276.157 1074.94 273.498L1074.06 273.017L1073.19 272.535C1071.55 275.516 1070.74 278.857 1070.74 282.534H1071.74ZM1074.06 273.017L1074.94 273.498C1076.4 270.836 1078.41 268.786 1080.97 267.329L1080.48 266.46L1079.98 265.591C1077.09 267.236 1074.82 269.557 1073.19 272.535L1074.06 273.017ZM1080.48 266.46L1080.98 267.323C1083.54 265.822 1086.44 265.063 1089.71 265.063V264.063V263.063C1086.12 263.063 1082.86 263.902 1079.97 265.597L1080.48 266.46ZM1089.71 264.063V265.063C1092.23 265.063 1094.52 265.49 1096.6 266.33L1096.97 265.403L1097.35 264.475C1095.01 263.529 1092.46 263.063 1089.71 263.063V264.063ZM1096.97 265.403L1096.61 266.332C1098.74 267.177 1100.57 268.372 1102.12 269.917L1102.83 269.21L1103.53 268.502C1101.79 266.757 1099.72 265.414 1097.34 264.473L1096.97 265.403ZM1102.83 269.21L1102.04 268.585L1100.35 270.7L1101.13 271.325L1101.91 271.949L1103.61 269.834L1102.83 269.21Z" fill="white" mask="url(#path-2-outside-1_344_706)"/>
<path d="M246.221 134.325C276.999 134.325 301.949 159.274 301.949 190.051C301.949 220.827 276.999 245.777 246.221 245.777H207.676V284.321C207.676 315.097 182.726 340.046 151.948 340.046C121.171 340.046 96.2207 315.097 96.2207 284.321V237.221C96.2207 176.073 138.02 134.325 199.084 134.325H246.221Z" fill="#1E7561"/>
<path d="M57.6774 245.768C26.8999 245.768 1.94975 220.818 1.94968 190.042C1.94968 159.265 26.8998 134.316 57.6774 134.316H96.2222V95.7721C96.2222 64.9956 121.172 40.0463 151.95 40.0463C182.728 40.0463 207.678 64.9956 207.678 95.7721V142.871C207.678 204.019 165.878 245.768 104.814 245.768H57.6774Z" fill="#B1D782"/>
<path d="M207.678 142.871C207.678 204.019 165.879 245.768 104.814 245.768H96.2207V237.222C96.2207 176.074 138.02 134.325 199.084 134.325H207.678V142.871Z" fill="#FFED8D"/>
</svg>
