<svg width="751" height="751" viewBox="0 0 751 751" fill="none" xmlns="http://www.w3.org/2000/svg">
<path d="M611.006 236.003C687.951 236.003 750.326 298.376 750.327 375.318C750.327 452.259 687.951 514.632 611.006 514.632H514.644V610.993C514.644 687.934 452.268 750.307 375.324 750.307C298.38 750.307 236.004 687.934 236.004 610.993V493.245C236.004 340.374 340.504 236.003 493.165 236.003H611.006Z" fill="#1E7561"/>
<path d="M139.646 514.611C62.7016 514.611 0.325976 452.237 0.325813 375.296C0.325813 298.355 62.7015 235.981 139.646 235.981H236.008V139.621C236.008 62.6798 298.384 0.306441 375.328 0.306441C452.273 0.306441 514.648 62.6798 514.648 139.621V257.369C514.648 410.24 410.149 514.611 257.488 514.611H139.646Z" fill="#B1D782"/>
<path d="M514.649 257.368C514.649 410.239 410.149 514.611 257.488 514.611H236.004V493.245C236.004 340.375 340.504 236.003 493.164 236.003H514.649V257.368Z" fill="#FFED8D"/>
</svg>
