<svg width="1200" height="401" viewBox="0 0 1200 401" fill="none" xmlns="http://www.w3.org/2000/svg">
<path d="M495.75 127.485C505.694 127.485 513.378 129.858 518.802 134.604C524.301 139.35 527.051 146.055 527.051 154.718C527.051 163.758 524.301 170.802 518.802 175.849C513.378 180.821 505.694 183.307 495.75 183.307H478.461V206.585H463.319V127.485H495.75ZM494.959 169.973C500.684 169.973 505.054 168.73 508.067 166.244C511.156 163.758 512.7 160.067 512.7 155.17C512.7 150.349 511.156 146.733 508.067 144.322C505.054 141.912 500.684 140.706 494.959 140.706H478.461V169.973H494.959ZM597.541 127.485V140.706H554.714V160.255H593.134V173.476H554.714V193.364H598.897V206.585H539.572V127.485H597.541ZM647.163 127.485C655.073 127.485 662.154 129.18 668.407 132.57C674.66 135.885 679.556 140.556 683.097 146.582C686.638 152.609 688.408 159.427 688.408 167.035C688.408 174.644 686.6 181.462 682.984 187.488C679.443 193.44 674.509 198.11 668.181 201.5C661.853 204.89 654.659 206.585 646.598 206.585H614.28V127.485H647.163ZM647.502 193.251C652.323 193.251 656.655 192.159 660.497 189.974C664.414 187.714 667.465 184.626 669.65 180.708C671.835 176.716 672.927 172.196 672.927 167.148C672.927 162.101 671.797 157.581 669.537 153.588C667.277 149.52 664.151 146.394 660.158 144.209C656.241 141.949 651.834 140.819 646.937 140.819H629.422V193.251H647.502ZM716.82 127.485V206.585H701.678V127.485H716.82ZM787.746 189.861H749.1L742.094 206.585H726.387L761.078 127.485H776.785L811.024 206.585H794.752L787.746 189.861ZM782.322 176.866L768.536 143.644L754.524 176.866H782.322ZM835.779 127.485V161.272H875.216V127.485H890.358V206.585H875.216V174.493H835.779V206.585H820.637V127.485H835.779ZM967.881 127.485V140.706H925.054V160.255H963.474V173.476H925.054V193.364H969.237V206.585H909.912V127.485H967.881ZM999.762 127.485V192.912H1033.89V206.585H984.62V127.485H999.762ZM1078.19 127.485C1088.13 127.485 1095.81 129.858 1101.24 134.604C1106.74 139.35 1109.49 146.055 1109.49 154.718C1109.49 163.758 1106.74 170.802 1101.24 175.849C1095.81 180.821 1088.13 183.307 1078.19 183.307H1060.9V206.585H1045.75V127.485H1078.19ZM1077.39 169.973C1083.12 169.973 1087.49 168.73 1090.5 166.244C1093.59 163.758 1095.14 160.067 1095.14 155.17C1095.14 150.349 1093.59 146.733 1090.5 144.322C1087.49 141.912 1083.12 140.706 1077.39 140.706H1060.9V169.973H1077.39Z" fill="black"/>
<path d="M478.235 250.092C483.094 250.092 486.841 251.222 489.478 253.482C492.115 255.742 493.433 258.943 493.433 263.087C493.433 267.343 492.115 270.639 489.478 272.974C486.841 275.272 483.094 276.421 478.235 276.421H466.709V289.585H464.336V250.092H478.235ZM478.178 274.104C482.321 274.104 485.523 273.163 487.783 271.279C490.043 269.358 491.173 266.646 491.173 263.143C491.173 259.678 490.043 257.022 487.783 255.177C485.523 253.331 482.321 252.408 478.178 252.408H466.709V274.104H478.178ZM512.138 260.092C514.963 260.092 517.412 260.751 519.483 262.07C521.593 263.35 523.175 265.158 524.229 267.494C525.322 269.829 525.849 272.503 525.811 275.517H500.104C500.217 277.89 500.801 279.98 501.855 281.788C502.91 283.596 504.341 285.009 506.149 286.026C507.957 287.005 509.991 287.495 512.251 287.495C514.248 287.495 516.093 287.156 517.788 286.478C519.521 285.762 520.99 284.745 522.195 283.427L523.551 284.952C522.158 286.459 520.481 287.627 518.523 288.455C516.564 289.246 514.436 289.642 512.138 289.642C509.389 289.642 506.921 289.02 504.737 287.777C502.552 286.497 500.838 284.745 499.595 282.523C498.39 280.263 497.787 277.72 497.787 274.895C497.787 272.07 498.409 269.528 499.652 267.268C500.895 265.008 502.59 263.256 504.737 262.013C506.921 260.733 509.389 260.092 512.138 260.092ZM523.664 273.426C523.438 270.036 522.289 267.324 520.218 265.29C518.146 263.256 515.453 262.239 512.138 262.239C508.824 262.239 506.074 263.275 503.889 265.347C501.705 267.381 500.462 270.074 500.16 273.426H523.664ZM560.325 247.662V289.585H557.952V281.901C556.822 284.35 555.165 286.271 552.98 287.664C550.796 289.058 548.272 289.755 545.409 289.755C542.66 289.755 540.192 289.114 538.008 287.834C535.823 286.553 534.109 284.802 532.866 282.579C531.661 280.319 531.058 277.758 531.058 274.895C531.058 272.033 531.661 269.471 532.866 267.211C534.109 264.951 535.804 263.181 537.951 261.9C540.136 260.62 542.603 259.979 545.353 259.979C548.253 259.979 550.796 260.676 552.98 262.07C555.165 263.463 556.822 265.384 557.952 267.833V247.662H560.325ZM545.692 287.551C548.027 287.551 550.118 287.005 551.963 285.913C553.847 284.82 555.316 283.314 556.37 281.393C557.425 279.472 557.952 277.306 557.952 274.895C557.952 272.485 557.425 270.319 556.37 268.398C555.316 266.477 553.847 264.97 551.963 263.878C550.118 262.785 548.027 262.239 545.692 262.239C543.356 262.239 541.247 262.785 539.364 263.878C537.518 264.97 536.049 266.477 534.957 268.398C533.902 270.319 533.375 272.485 533.375 274.895C533.375 277.306 533.902 279.472 534.957 281.393C536.011 283.314 537.462 284.82 539.307 285.913C541.191 287.005 543.319 287.551 545.692 287.551ZM574.665 260.149V289.585H572.349V260.149H574.665ZM573.535 249.64C574.062 249.64 574.514 249.847 574.891 250.261C575.305 250.638 575.513 251.109 575.513 251.674C575.513 252.276 575.305 252.785 574.891 253.199C574.514 253.576 574.062 253.764 573.535 253.764C573.008 253.764 572.537 253.576 572.123 253.199C571.746 252.785 571.558 252.276 571.558 251.674C571.558 251.109 571.746 250.638 572.123 250.261C572.537 249.847 573.008 249.64 573.535 249.64ZM605.401 289.585L605.345 283.766C604.139 285.762 602.52 287.25 600.486 288.229C598.489 289.171 596.192 289.642 593.593 289.642C591.672 289.642 589.977 289.265 588.508 288.512C587.039 287.758 585.89 286.741 585.061 285.461C584.27 284.142 583.875 282.655 583.875 280.997C583.875 278.549 584.854 276.628 586.813 275.234C588.771 273.803 591.446 273.087 594.836 273.087H605.288V270.206C605.25 267.682 604.497 265.723 603.028 264.33C601.559 262.936 599.374 262.239 596.474 262.239C594.704 262.239 593.028 262.578 591.446 263.256C589.864 263.897 588.244 264.838 586.587 266.081L585.457 264.273C587.378 262.88 589.223 261.844 590.994 261.166C592.764 260.45 594.704 260.092 596.813 260.092C600.241 260.092 602.877 260.977 604.723 262.748C606.606 264.518 607.567 266.948 607.605 270.036L607.718 289.585H605.401ZM593.932 287.495C596.757 287.495 599.148 286.873 601.107 285.63C603.066 284.387 604.478 282.504 605.345 279.98V275.178H595.062C592.161 275.178 589.939 275.667 588.395 276.647C586.888 277.626 586.135 279.057 586.135 280.941C586.135 282.899 586.831 284.481 588.225 285.687C589.656 286.892 591.559 287.495 593.932 287.495ZM632.373 287.551C630.302 288.945 628.211 289.642 626.102 289.642C623.992 289.642 622.373 288.964 621.243 287.608C620.113 286.214 619.548 284.161 619.548 281.449V262.917H615.254V260.883H619.548V253.595H621.808V260.883H631.808V262.917H621.808V281.167C621.808 285.272 623.333 287.325 626.384 287.325C628.117 287.325 629.812 286.76 631.469 285.63L632.373 287.551ZM641.926 267.55C642.867 265.177 644.261 263.369 646.107 262.126C647.99 260.846 650.25 260.168 652.887 260.092V262.522C649.685 262.522 647.124 263.52 645.203 265.516C643.282 267.475 642.189 270.187 641.926 273.652V289.585H639.553V260.149H641.926V267.55ZM661.622 260.149V289.585H659.306V260.149H661.622ZM660.492 249.64C661.02 249.64 661.472 249.847 661.848 250.261C662.263 250.638 662.47 251.109 662.47 251.674C662.47 252.276 662.263 252.785 661.848 253.199C661.472 253.576 661.02 253.764 660.492 253.764C659.965 253.764 659.494 253.576 659.08 253.199C658.703 252.785 658.515 252.276 658.515 251.674C658.515 251.109 658.703 250.638 659.08 250.261C659.494 249.847 659.965 249.64 660.492 249.64ZM693.827 265.912C691.266 263.539 688.234 262.352 684.731 262.352C682.395 262.352 680.305 262.88 678.459 263.934C676.614 264.989 675.163 266.477 674.109 268.398C673.092 270.281 672.583 272.428 672.583 274.839C672.583 277.287 673.092 279.472 674.109 281.393C675.163 283.314 676.614 284.802 678.459 285.856C680.305 286.911 682.395 287.438 684.731 287.438C686.689 287.438 688.497 287.08 690.155 286.365C691.812 285.649 693.206 284.632 694.336 283.314L695.748 284.839C694.43 286.384 692.81 287.57 690.889 288.399C689.006 289.227 686.934 289.642 684.674 289.642C681.925 289.642 679.457 289.02 677.273 287.777C675.088 286.497 673.374 284.745 672.131 282.523C670.888 280.263 670.267 277.72 670.267 274.895C670.267 272.07 670.888 269.528 672.131 267.268C673.374 265.008 675.088 263.256 677.273 262.013C679.457 260.733 681.925 260.092 684.674 260.092C686.784 260.092 688.723 260.45 690.494 261.166C692.302 261.881 693.865 262.898 695.183 264.217L693.827 265.912ZM714.417 250.092L729.389 286.76L744.418 250.092H747.017L730.632 289.585H728.146L711.761 250.092H714.417ZM755.642 260.149V289.585H753.325V260.149H755.642ZM754.512 249.64C755.039 249.64 755.491 249.847 755.868 250.261C756.282 250.638 756.489 251.109 756.489 251.674C756.489 252.276 756.282 252.785 755.868 253.199C755.491 253.576 755.039 253.764 754.512 253.764C753.984 253.764 753.514 253.576 753.099 253.199C752.723 252.785 752.534 252.276 752.534 251.674C752.534 251.109 752.723 250.638 753.099 250.261C753.514 249.847 753.984 249.64 754.512 249.64ZM769.823 267.55C770.765 265.177 772.159 263.369 774.004 262.126C775.888 260.846 778.148 260.168 780.784 260.092V262.522C777.583 262.522 775.021 263.52 773.1 265.516C771.179 267.475 770.087 270.187 769.823 273.652V289.585H767.45V260.149H769.823V267.55ZM801.046 287.551C798.974 288.945 796.883 289.642 794.774 289.642C792.665 289.642 791.045 288.964 789.915 287.608C788.785 286.214 788.22 284.161 788.22 281.449V262.917H783.926V260.883H788.22V253.595H790.48V260.883H800.481V262.917H790.48V281.167C790.48 285.272 792.006 287.325 795.057 287.325C796.789 287.325 798.484 286.76 800.142 285.63L801.046 287.551ZM832.633 260.149V289.585H830.317V281.732C829.375 284.293 827.887 286.252 825.853 287.608C823.857 288.926 821.408 289.604 818.508 289.642C814.967 289.642 812.199 288.625 810.203 286.591C808.244 284.557 807.265 281.732 807.265 278.116V260.149H809.581V277.664C809.581 280.677 810.41 283.031 812.067 284.726C813.724 286.421 816.041 287.269 819.017 287.269C822.557 287.193 825.326 286.026 827.322 283.766C829.318 281.506 830.317 278.436 830.317 274.556V260.149H832.633ZM863.348 289.585L863.291 283.766C862.086 285.762 860.466 287.25 858.432 288.229C856.436 289.171 854.138 289.642 851.539 289.642C849.618 289.642 847.923 289.265 846.454 288.512C844.985 287.758 843.837 286.741 843.008 285.461C842.217 284.142 841.821 282.655 841.821 280.997C841.821 278.549 842.801 276.628 844.759 275.234C846.718 273.803 849.392 273.087 852.782 273.087H863.235V270.206C863.197 267.682 862.444 265.723 860.975 264.33C859.506 262.936 857.321 262.239 854.421 262.239C852.651 262.239 850.974 262.578 849.392 263.256C847.81 263.897 846.191 264.838 844.533 266.081L843.403 264.273C845.324 262.88 847.17 261.844 848.94 261.166C850.711 260.45 852.651 260.092 854.76 260.092C858.188 260.092 860.824 260.977 862.67 262.748C864.553 264.518 865.514 266.948 865.551 270.036L865.664 289.585H863.348ZM851.878 287.495C854.703 287.495 857.095 286.873 859.054 285.63C861.013 284.387 862.425 282.504 863.291 279.98V275.178H853.008C850.108 275.178 847.886 275.667 846.341 276.647C844.835 277.626 844.081 279.057 844.081 280.941C844.081 282.899 844.778 284.481 846.172 285.687C847.603 286.892 849.505 287.495 851.878 287.495ZM879.133 247.662V289.585H876.76V247.662H879.133ZM932.954 256.985C931.297 255.44 929.395 254.235 927.248 253.369C925.101 252.502 922.86 252.069 920.524 252.069C917.247 252.069 914.215 252.86 911.428 254.442C908.678 256.024 906.493 258.171 904.874 260.883C903.254 263.595 902.444 266.552 902.444 269.754C902.444 272.955 903.254 275.912 904.874 278.624C906.493 281.336 908.678 283.502 911.428 285.122C914.215 286.704 917.247 287.495 920.524 287.495C922.86 287.495 925.082 287.08 927.191 286.252C929.338 285.385 931.259 284.18 932.954 282.636L934.423 284.274C932.578 286.007 930.431 287.363 927.982 288.342C925.572 289.322 923.067 289.811 920.468 289.811C916.776 289.811 913.368 288.926 910.241 287.156C907.115 285.348 904.629 282.918 902.783 279.867C900.975 276.779 900.071 273.426 900.071 269.81C900.071 266.194 900.975 262.861 902.783 259.81C904.629 256.721 907.115 254.292 910.241 252.521C913.368 250.713 916.776 249.809 920.468 249.809C923.067 249.809 925.553 250.28 927.926 251.222C930.336 252.163 932.483 253.482 934.367 255.177L932.954 256.985ZM945.73 247.662V289.585H943.357V247.662H945.73ZM960.068 260.149V289.585H957.751V260.149H960.068ZM958.938 249.64C959.465 249.64 959.917 249.847 960.294 250.261C960.708 250.638 960.915 251.109 960.915 251.674C960.915 252.276 960.708 252.785 960.294 253.199C959.917 253.576 959.465 253.764 958.938 253.764C958.411 253.764 957.94 253.576 957.525 253.199C957.149 252.785 956.96 252.276 956.96 251.674C956.96 251.109 957.149 250.638 957.525 250.261C957.94 249.847 958.411 249.64 958.938 249.64ZM986.284 260.092C989.862 260.092 992.65 261.128 994.646 263.2C996.68 265.234 997.697 268.04 997.697 271.618V289.585H995.324V272.07C995.324 269.057 994.476 266.703 992.781 265.008C991.086 263.313 988.732 262.465 985.719 262.465C982.367 262.541 979.673 263.576 977.639 265.573C975.643 267.531 974.513 270.225 974.249 273.652V289.585H971.876V260.149H974.249V267.663C975.229 265.253 976.735 263.407 978.769 262.126C980.841 260.846 983.346 260.168 986.284 260.092ZM1010.83 260.149V289.585H1008.51V260.149H1010.83ZM1009.7 249.64C1010.23 249.64 1010.68 249.847 1011.06 250.261C1011.47 250.638 1011.68 251.109 1011.68 251.674C1011.68 252.276 1011.47 252.785 1011.06 253.199C1010.68 253.576 1010.23 253.764 1009.7 253.764C1009.17 253.764 1008.7 253.576 1008.29 253.199C1007.91 252.785 1007.72 252.276 1007.72 251.674C1007.72 251.109 1007.91 250.638 1008.29 250.261C1008.7 249.847 1009.17 249.64 1009.7 249.64ZM1043.03 265.912C1040.47 263.539 1037.44 262.352 1033.94 262.352C1031.6 262.352 1029.51 262.88 1027.67 263.934C1025.82 264.989 1024.37 266.477 1023.32 268.398C1022.3 270.281 1021.79 272.428 1021.79 274.839C1021.79 277.287 1022.3 279.472 1023.32 281.393C1024.37 283.314 1025.82 284.802 1027.67 285.856C1029.51 286.911 1031.6 287.438 1033.94 287.438C1035.9 287.438 1037.7 287.08 1039.36 286.365C1041.02 285.649 1042.41 284.632 1043.54 283.314L1044.96 284.839C1043.64 286.384 1042.02 287.57 1040.1 288.399C1038.21 289.227 1036.14 289.642 1033.88 289.642C1031.13 289.642 1028.66 289.02 1026.48 287.777C1024.3 286.497 1022.58 284.745 1021.34 282.523C1020.1 280.263 1019.47 277.72 1019.47 274.895C1019.47 272.07 1020.1 269.528 1021.34 267.268C1022.58 265.008 1024.3 263.256 1026.48 262.013C1028.66 260.733 1031.13 260.092 1033.88 260.092C1035.99 260.092 1037.93 260.45 1039.7 261.166C1041.51 261.881 1043.07 262.898 1044.39 264.217L1043.03 265.912Z" fill="black"/>
<path d="M334.599 143.585C365.376 143.585 390.327 168.535 390.327 199.311C390.327 230.088 365.376 255.037 334.599 255.037H296.054V293.581C296.054 324.358 271.103 349.307 240.326 349.307C209.548 349.307 184.598 324.358 184.598 293.581V246.482C184.598 185.334 226.398 143.585 287.462 143.585H334.599Z" fill="#1E7561"/>
<path d="M146.055 255.029C115.277 255.029 90.3267 230.079 90.3266 199.303C90.3266 168.526 115.277 143.577 146.055 143.577H184.6V105.033C184.6 74.2561 209.55 49.3068 240.328 49.3068C271.105 49.3068 296.056 74.2561 296.056 105.033V152.132C296.056 213.28 254.256 255.029 193.191 255.029H146.055Z" fill="#B1D782"/>
<path d="M296.056 152.132C296.056 213.28 254.256 255.028 193.191 255.029H184.598V246.482C184.598 185.334 226.398 143.585 287.462 143.585H296.056V152.132Z" fill="#FFED8D"/>
</svg>
