<svg width="1000" height="1000" viewBox="0 0 1000 1000" fill="none" xmlns="http://www.w3.org/2000/svg">
<path d="M657.12 232.884C708.416 232.884 749.999 274.467 750 325.761C750 377.055 708.416 418.637 657.12 418.637H592.878V482.877C592.878 534.171 551.295 575.753 499.999 575.753C448.703 575.753 407.119 534.171 407.119 482.877V404.379C407.119 302.465 476.785 232.884 578.559 232.884H657.12Z" fill="#1E7561"/>
<path d="M342.882 418.622C291.586 418.622 250.003 377.04 250.002 325.746C250.002 274.452 291.586 232.87 342.882 232.87H407.123V168.63C407.123 117.336 448.707 75.7533 500.003 75.7533C551.299 75.7533 592.883 117.336 592.883 168.63V247.128C592.883 349.042 523.217 418.622 421.443 418.622H342.882Z" fill="#B1D782"/>
<path d="M592.882 247.128C592.882 349.042 523.216 418.622 421.442 418.622H407.119V404.379C407.119 302.465 476.785 232.884 578.559 232.884H592.882V247.128Z" fill="#FFED8D"/>
<mask id="path-4-outside-1_349_67" maskUnits="userSpaceOnUse" x="100" y="823.658" width="805" height="61" fill="black">
<rect fill="white" x="100" y="823.658" width="805" height="61"/>
<path d="M120.563 828.136C127.271 828.136 132.445 829.696 136.085 832.816C139.725 835.936 141.545 840.356 141.545 846.076C141.545 851.952 139.725 856.502 136.085 859.726C132.445 862.898 127.271 864.484 120.563 864.484H104.651V882.658H101.375V828.136H120.563ZM120.485 861.286C126.205 861.286 130.625 859.986 133.745 857.386C136.865 854.734 138.425 850.99 138.425 846.154C138.425 841.37 136.865 837.704 133.745 835.156C130.625 832.608 126.205 831.334 120.485 831.334H104.651V861.286H120.485ZM167.368 841.942C171.268 841.942 174.648 842.852 177.508 844.672C180.42 846.44 182.604 848.936 184.06 852.16C185.568 855.384 186.296 859.076 186.244 863.236H150.754C150.91 866.512 151.716 869.398 153.172 871.894C154.628 874.39 156.604 876.34 159.1 877.744C161.596 879.096 164.404 879.772 167.524 879.772C170.28 879.772 172.828 879.304 175.168 878.368C177.56 877.38 179.588 875.976 181.252 874.156L183.124 876.262C181.2 878.342 178.886 879.954 176.182 881.098C173.478 882.19 170.54 882.736 167.368 882.736C163.572 882.736 160.166 881.878 157.15 880.162C154.134 878.394 151.768 875.976 150.052 872.908C148.388 869.788 147.556 866.278 147.556 862.378C147.556 858.478 148.414 854.968 150.13 851.848C151.846 848.728 154.186 846.31 157.15 844.594C160.166 842.826 163.572 841.942 167.368 841.942ZM183.28 860.35C182.968 855.67 181.382 851.926 178.522 849.118C175.662 846.31 171.944 844.906 167.368 844.906C162.792 844.906 158.996 846.336 155.98 849.196C152.964 852.004 151.248 855.722 150.832 860.35H183.28ZM233.891 824.782V882.658H230.615V872.05C229.055 875.43 226.767 878.082 223.751 880.006C220.735 881.93 217.251 882.892 213.299 882.892C209.503 882.892 206.097 882.008 203.081 880.24C200.065 878.472 197.699 876.054 195.983 872.986C194.319 869.866 193.487 866.33 193.487 862.378C193.487 858.426 194.319 854.89 195.983 851.77C197.699 848.65 200.039 846.206 203.003 844.438C206.019 842.67 209.425 841.786 213.221 841.786C217.225 841.786 220.735 842.748 223.751 844.672C226.767 846.596 229.055 849.248 230.615 852.628V824.782H233.891ZM213.689 879.85C216.913 879.85 219.799 879.096 222.347 877.588C224.947 876.08 226.975 874 228.431 871.348C229.887 868.696 230.615 865.706 230.615 862.378C230.615 859.05 229.887 856.06 228.431 853.408C226.975 850.756 224.947 848.676 222.347 847.168C219.799 845.66 216.913 844.906 213.689 844.906C210.465 844.906 207.553 845.66 204.953 847.168C202.405 848.676 200.377 850.756 198.869 853.408C197.413 856.06 196.685 859.05 196.685 862.378C196.685 865.706 197.413 868.696 198.869 871.348C200.325 874 202.327 876.08 204.875 877.588C207.475 879.096 210.413 879.85 213.689 879.85ZM253.688 842.02V882.658H250.49V842.02H253.688ZM252.128 827.512C252.856 827.512 253.48 827.798 254 828.37C254.572 828.89 254.858 829.54 254.858 830.32C254.858 831.152 254.572 831.854 254 832.426C253.48 832.946 252.856 833.206 252.128 833.206C251.4 833.206 250.75 832.946 250.178 832.426C249.658 831.854 249.398 831.152 249.398 830.32C249.398 829.54 249.658 828.89 250.178 828.37C250.75 827.798 251.4 827.512 252.128 827.512ZM296.12 882.658L296.042 874.624C294.378 877.38 292.142 879.434 289.334 880.786C286.578 882.086 283.406 882.736 279.818 882.736C277.166 882.736 274.826 882.216 272.798 881.176C270.77 880.136 269.184 878.732 268.04 876.964C266.948 875.144 266.402 873.09 266.402 870.802C266.402 867.422 267.754 864.77 270.458 862.846C273.162 860.87 276.854 859.882 281.534 859.882H295.964V855.904C295.912 852.42 294.872 849.716 292.844 847.792C290.816 845.868 287.8 844.906 283.796 844.906C281.352 844.906 279.038 845.374 276.854 846.31C274.67 847.194 272.434 848.494 270.146 850.21L268.586 847.714C271.238 845.79 273.786 844.36 276.23 843.424C278.674 842.436 281.352 841.942 284.264 841.942C288.996 841.942 292.636 843.164 295.184 845.608C297.784 848.052 299.11 851.406 299.162 855.67L299.318 882.658H296.12ZM280.286 879.772C284.186 879.772 287.488 878.914 290.192 877.198C292.896 875.482 294.846 872.882 296.042 869.398V862.768H281.846C277.842 862.768 274.774 863.444 272.642 864.796C270.562 866.148 269.522 868.124 269.522 870.724C269.522 873.428 270.484 875.612 272.408 877.276C274.384 878.94 277.01 879.772 280.286 879.772ZM333.356 879.85C330.496 881.774 327.61 882.736 324.698 882.736C321.786 882.736 319.55 881.8 317.99 879.928C316.43 878.004 315.65 875.17 315.65 871.426V845.842H309.722V843.034H315.65V832.972H318.77V843.034H332.576V845.842H318.77V871.036C318.77 876.704 320.876 879.538 325.088 879.538C327.48 879.538 329.82 878.758 332.108 877.198L333.356 879.85ZM346.543 852.238C347.843 848.962 349.767 846.466 352.315 844.75C354.915 842.982 358.035 842.046 361.675 841.942V845.296C357.255 845.296 353.719 846.674 351.067 849.43C348.415 852.134 346.907 855.878 346.543 860.662V882.658H343.267V842.02H346.543V852.238ZM373.735 842.02V882.658H370.537V842.02H373.735ZM372.175 827.512C372.903 827.512 373.527 827.798 374.047 828.37C374.619 828.89 374.905 829.54 374.905 830.32C374.905 831.152 374.619 831.854 374.047 832.426C373.527 832.946 372.903 833.206 372.175 833.206C371.447 833.206 370.797 832.946 370.225 832.426C369.705 831.854 369.445 831.152 369.445 830.32C369.445 829.54 369.705 828.89 370.225 828.37C370.797 827.798 371.447 827.512 372.175 827.512ZM418.195 849.976C414.659 846.7 410.473 845.062 405.637 845.062C402.413 845.062 399.527 845.79 396.979 847.246C394.431 848.702 392.429 850.756 390.973 853.408C389.569 856.008 388.867 858.972 388.867 862.3C388.867 865.68 389.569 868.696 390.973 871.348C392.429 874 394.431 876.054 396.979 877.51C399.527 878.966 402.413 879.694 405.637 879.694C408.341 879.694 410.837 879.2 413.125 878.212C415.413 877.224 417.337 875.82 418.897 874L420.847 876.106C419.027 878.238 416.791 879.876 414.139 881.02C411.539 882.164 408.679 882.736 405.559 882.736C401.763 882.736 398.357 881.878 395.341 880.162C392.325 878.394 389.959 875.976 388.243 872.908C386.527 869.788 385.669 866.278 385.669 862.378C385.669 858.478 386.527 854.968 388.243 851.848C389.959 848.728 392.325 846.31 395.341 844.594C398.357 842.826 401.763 841.942 405.559 841.942C408.471 841.942 411.149 842.436 413.593 843.424C416.089 844.412 418.247 845.816 420.067 847.636L418.195 849.976ZM446.619 828.136L467.289 878.758L488.037 828.136H491.625L469.005 882.658H465.573L442.953 828.136H446.619ZM503.532 842.02V882.658H500.334V842.02H503.532ZM501.972 827.512C502.7 827.512 503.324 827.798 503.844 828.37C504.416 828.89 504.702 829.54 504.702 830.32C504.702 831.152 504.416 831.854 503.844 832.426C503.324 832.946 502.7 833.206 501.972 833.206C501.244 833.206 500.594 832.946 500.022 832.426C499.502 831.854 499.242 831.152 499.242 830.32C499.242 829.54 499.502 828.89 500.022 828.37C500.594 827.798 501.244 827.512 501.972 827.512ZM523.11 852.238C524.41 848.962 526.334 846.466 528.882 844.75C531.482 842.982 534.602 842.046 538.242 841.942V845.296C533.822 845.296 530.286 846.674 527.634 849.43C524.982 852.134 523.474 855.878 523.11 860.662V882.658H519.834V842.02H523.11V852.238ZM566.213 879.85C563.353 881.774 560.467 882.736 557.555 882.736C554.643 882.736 552.407 881.8 550.847 879.928C549.287 878.004 548.507 875.17 548.507 871.426V845.842H542.579V843.034H548.507V832.972H551.627V843.034H565.433V845.842H551.627V871.036C551.627 876.704 553.733 879.538 557.945 879.538C560.337 879.538 562.677 878.758 564.965 877.198L566.213 879.85ZM609.821 842.02V882.658H606.623V871.816C605.323 875.352 603.269 878.056 600.461 879.928C597.705 881.748 594.325 882.684 590.321 882.736C585.433 882.736 581.611 881.332 578.855 878.524C576.151 875.716 574.799 871.816 574.799 866.824V842.02H577.997V866.2C577.997 870.36 579.141 873.61 581.429 875.95C583.717 878.29 586.915 879.46 591.023 879.46C595.911 879.356 599.733 877.744 602.489 874.624C605.245 871.504 606.623 867.266 606.623 861.91V842.02H609.821ZM652.223 882.658L652.145 874.624C650.481 877.38 648.245 879.434 645.437 880.786C642.681 882.086 639.509 882.736 635.921 882.736C633.269 882.736 630.929 882.216 628.901 881.176C626.873 880.136 625.287 878.732 624.143 876.964C623.051 875.144 622.505 873.09 622.505 870.802C622.505 867.422 623.857 864.77 626.561 862.846C629.265 860.87 632.957 859.882 637.637 859.882H652.067V855.904C652.015 852.42 650.975 849.716 648.947 847.792C646.919 845.868 643.903 844.906 639.899 844.906C637.455 844.906 635.141 845.374 632.957 846.31C630.773 847.194 628.537 848.494 626.249 850.21L624.689 847.714C627.341 845.79 629.889 844.36 632.333 843.424C634.777 842.436 637.455 841.942 640.367 841.942C645.099 841.942 648.739 843.164 651.287 845.608C653.887 848.052 655.213 851.406 655.265 855.67L655.421 882.658H652.223ZM636.389 879.772C640.289 879.772 643.591 878.914 646.295 877.198C648.999 875.482 650.949 872.882 652.145 869.398V862.768H637.949C633.945 862.768 630.877 863.444 628.745 864.796C626.665 866.148 625.625 868.124 625.625 870.724C625.625 873.428 626.587 875.612 628.511 877.276C630.487 878.94 633.113 879.772 636.389 879.772ZM674.015 824.782V882.658H670.739V824.782H674.015ZM748.317 837.652C746.029 835.52 743.403 833.856 740.439 832.66C737.475 831.464 734.381 830.866 731.157 830.866C726.633 830.866 722.447 831.958 718.599 834.142C714.803 836.326 711.787 839.29 709.551 843.034C707.315 846.778 706.197 850.86 706.197 855.28C706.197 859.7 707.315 863.782 709.551 867.526C711.787 871.27 714.803 874.26 718.599 876.496C722.447 878.68 726.633 879.772 731.157 879.772C734.381 879.772 737.449 879.2 740.361 878.056C743.325 876.86 745.977 875.196 748.317 873.064L750.345 875.326C747.797 877.718 744.833 879.59 741.453 880.942C738.125 882.294 734.667 882.97 731.079 882.97C725.983 882.97 721.277 881.748 716.961 879.304C712.645 876.808 709.213 873.454 706.665 869.242C704.169 864.978 702.921 860.35 702.921 855.358C702.921 850.366 704.169 845.764 706.665 841.552C709.213 837.288 712.645 833.934 716.961 831.49C721.277 828.994 725.983 827.746 731.079 827.746C734.667 827.746 738.099 828.396 741.375 829.696C744.703 830.996 747.667 832.816 750.267 835.156L748.317 837.652ZM765.955 824.782V882.658H762.679V824.782H765.955ZM785.748 842.02V882.658H782.55V842.02H785.748ZM784.188 827.512C784.916 827.512 785.54 827.798 786.06 828.37C786.632 828.89 786.918 829.54 786.918 830.32C786.918 831.152 786.632 831.854 786.06 832.426C785.54 832.946 784.916 833.206 784.188 833.206C783.46 833.206 782.81 832.946 782.238 832.426C781.718 831.854 781.458 831.152 781.458 830.32C781.458 829.54 781.718 828.89 782.238 828.37C782.81 827.798 783.46 827.512 784.188 827.512ZM821.94 841.942C826.88 841.942 830.728 843.372 833.484 846.232C836.292 849.04 837.696 852.914 837.696 857.854V882.658H834.42V858.478C834.42 854.318 833.25 851.068 830.91 848.728C828.57 846.388 825.32 845.218 821.16 845.218C816.532 845.322 812.814 846.752 810.006 849.508C807.25 852.212 805.69 855.93 805.326 860.662V882.658H802.05V842.02H805.326V852.394C806.678 849.066 808.758 846.518 811.566 844.75C814.426 842.982 817.884 842.046 821.94 841.942ZM855.827 842.02V882.658H852.629V842.02H855.827ZM854.267 827.512C854.995 827.512 855.619 827.798 856.139 828.37C856.711 828.89 856.997 829.54 856.997 830.32C856.997 831.152 856.711 831.854 856.139 832.426C855.619 832.946 854.995 833.206 854.267 833.206C853.539 833.206 852.889 832.946 852.317 832.426C851.797 831.854 851.537 831.152 851.537 830.32C851.537 829.54 851.797 828.89 852.317 828.37C852.889 827.798 853.539 827.512 854.267 827.512ZM900.287 849.976C896.751 846.7 892.565 845.062 887.729 845.062C884.505 845.062 881.619 845.79 879.071 847.246C876.523 848.702 874.521 850.756 873.065 853.408C871.661 856.008 870.959 858.972 870.959 862.3C870.959 865.68 871.661 868.696 873.065 871.348C874.521 874 876.523 876.054 879.071 877.51C881.619 878.966 884.505 879.694 887.729 879.694C890.433 879.694 892.929 879.2 895.217 878.212C897.505 877.224 899.429 875.82 900.989 874L902.939 876.106C901.119 878.238 898.883 879.876 896.231 881.02C893.631 882.164 890.771 882.736 887.651 882.736C883.855 882.736 880.449 881.878 877.433 880.162C874.417 878.394 872.051 875.976 870.335 872.908C868.619 869.788 867.761 866.278 867.761 862.378C867.761 858.478 868.619 854.968 870.335 851.848C872.051 848.728 874.417 846.31 877.433 844.594C880.449 842.826 883.855 841.942 887.651 841.942C890.563 841.942 893.241 842.436 895.685 843.424C898.181 844.412 900.339 845.816 902.159 847.636L900.287 849.976Z"/>
</mask>
<path d="M120.563 828.136C127.271 828.136 132.445 829.696 136.085 832.816C139.725 835.936 141.545 840.356 141.545 846.076C141.545 851.952 139.725 856.502 136.085 859.726C132.445 862.898 127.271 864.484 120.563 864.484H104.651V882.658H101.375V828.136H120.563ZM120.485 861.286C126.205 861.286 130.625 859.986 133.745 857.386C136.865 854.734 138.425 850.99 138.425 846.154C138.425 841.37 136.865 837.704 133.745 835.156C130.625 832.608 126.205 831.334 120.485 831.334H104.651V861.286H120.485ZM167.368 841.942C171.268 841.942 174.648 842.852 177.508 844.672C180.42 846.44 182.604 848.936 184.06 852.16C185.568 855.384 186.296 859.076 186.244 863.236H150.754C150.91 866.512 151.716 869.398 153.172 871.894C154.628 874.39 156.604 876.34 159.1 877.744C161.596 879.096 164.404 879.772 167.524 879.772C170.28 879.772 172.828 879.304 175.168 878.368C177.56 877.38 179.588 875.976 181.252 874.156L183.124 876.262C181.2 878.342 178.886 879.954 176.182 881.098C173.478 882.19 170.54 882.736 167.368 882.736C163.572 882.736 160.166 881.878 157.15 880.162C154.134 878.394 151.768 875.976 150.052 872.908C148.388 869.788 147.556 866.278 147.556 862.378C147.556 858.478 148.414 854.968 150.13 851.848C151.846 848.728 154.186 846.31 157.15 844.594C160.166 842.826 163.572 841.942 167.368 841.942ZM183.28 860.35C182.968 855.67 181.382 851.926 178.522 849.118C175.662 846.31 171.944 844.906 167.368 844.906C162.792 844.906 158.996 846.336 155.98 849.196C152.964 852.004 151.248 855.722 150.832 860.35H183.28ZM233.891 824.782V882.658H230.615V872.05C229.055 875.43 226.767 878.082 223.751 880.006C220.735 881.93 217.251 882.892 213.299 882.892C209.503 882.892 206.097 882.008 203.081 880.24C200.065 878.472 197.699 876.054 195.983 872.986C194.319 869.866 193.487 866.33 193.487 862.378C193.487 858.426 194.319 854.89 195.983 851.77C197.699 848.65 200.039 846.206 203.003 844.438C206.019 842.67 209.425 841.786 213.221 841.786C217.225 841.786 220.735 842.748 223.751 844.672C226.767 846.596 229.055 849.248 230.615 852.628V824.782H233.891ZM213.689 879.85C216.913 879.85 219.799 879.096 222.347 877.588C224.947 876.08 226.975 874 228.431 871.348C229.887 868.696 230.615 865.706 230.615 862.378C230.615 859.05 229.887 856.06 228.431 853.408C226.975 850.756 224.947 848.676 222.347 847.168C219.799 845.66 216.913 844.906 213.689 844.906C210.465 844.906 207.553 845.66 204.953 847.168C202.405 848.676 200.377 850.756 198.869 853.408C197.413 856.06 196.685 859.05 196.685 862.378C196.685 865.706 197.413 868.696 198.869 871.348C200.325 874 202.327 876.08 204.875 877.588C207.475 879.096 210.413 879.85 213.689 879.85ZM253.688 842.02V882.658H250.49V842.02H253.688ZM252.128 827.512C252.856 827.512 253.48 827.798 254 828.37C254.572 828.89 254.858 829.54 254.858 830.32C254.858 831.152 254.572 831.854 254 832.426C253.48 832.946 252.856 833.206 252.128 833.206C251.4 833.206 250.75 832.946 250.178 832.426C249.658 831.854 249.398 831.152 249.398 830.32C249.398 829.54 249.658 828.89 250.178 828.37C250.75 827.798 251.4 827.512 252.128 827.512ZM296.12 882.658L296.042 874.624C294.378 877.38 292.142 879.434 289.334 880.786C286.578 882.086 283.406 882.736 279.818 882.736C277.166 882.736 274.826 882.216 272.798 881.176C270.77 880.136 269.184 878.732 268.04 876.964C266.948 875.144 266.402 873.09 266.402 870.802C266.402 867.422 267.754 864.77 270.458 862.846C273.162 860.87 276.854 859.882 281.534 859.882H295.964V855.904C295.912 852.42 294.872 849.716 292.844 847.792C290.816 845.868 287.8 844.906 283.796 844.906C281.352 844.906 279.038 845.374 276.854 846.31C274.67 847.194 272.434 848.494 270.146 850.21L268.586 847.714C271.238 845.79 273.786 844.36 276.23 843.424C278.674 842.436 281.352 841.942 284.264 841.942C288.996 841.942 292.636 843.164 295.184 845.608C297.784 848.052 299.11 851.406 299.162 855.67L299.318 882.658H296.12ZM280.286 879.772C284.186 879.772 287.488 878.914 290.192 877.198C292.896 875.482 294.846 872.882 296.042 869.398V862.768H281.846C277.842 862.768 274.774 863.444 272.642 864.796C270.562 866.148 269.522 868.124 269.522 870.724C269.522 873.428 270.484 875.612 272.408 877.276C274.384 878.94 277.01 879.772 280.286 879.772ZM333.356 879.85C330.496 881.774 327.61 882.736 324.698 882.736C321.786 882.736 319.55 881.8 317.99 879.928C316.43 878.004 315.65 875.17 315.65 871.426V845.842H309.722V843.034H315.65V832.972H318.77V843.034H332.576V845.842H318.77V871.036C318.77 876.704 320.876 879.538 325.088 879.538C327.48 879.538 329.82 878.758 332.108 877.198L333.356 879.85ZM346.543 852.238C347.843 848.962 349.767 846.466 352.315 844.75C354.915 842.982 358.035 842.046 361.675 841.942V845.296C357.255 845.296 353.719 846.674 351.067 849.43C348.415 852.134 346.907 855.878 346.543 860.662V882.658H343.267V842.02H346.543V852.238ZM373.735 842.02V882.658H370.537V842.02H373.735ZM372.175 827.512C372.903 827.512 373.527 827.798 374.047 828.37C374.619 828.89 374.905 829.54 374.905 830.32C374.905 831.152 374.619 831.854 374.047 832.426C373.527 832.946 372.903 833.206 372.175 833.206C371.447 833.206 370.797 832.946 370.225 832.426C369.705 831.854 369.445 831.152 369.445 830.32C369.445 829.54 369.705 828.89 370.225 828.37C370.797 827.798 371.447 827.512 372.175 827.512ZM418.195 849.976C414.659 846.7 410.473 845.062 405.637 845.062C402.413 845.062 399.527 845.79 396.979 847.246C394.431 848.702 392.429 850.756 390.973 853.408C389.569 856.008 388.867 858.972 388.867 862.3C388.867 865.68 389.569 868.696 390.973 871.348C392.429 874 394.431 876.054 396.979 877.51C399.527 878.966 402.413 879.694 405.637 879.694C408.341 879.694 410.837 879.2 413.125 878.212C415.413 877.224 417.337 875.82 418.897 874L420.847 876.106C419.027 878.238 416.791 879.876 414.139 881.02C411.539 882.164 408.679 882.736 405.559 882.736C401.763 882.736 398.357 881.878 395.341 880.162C392.325 878.394 389.959 875.976 388.243 872.908C386.527 869.788 385.669 866.278 385.669 862.378C385.669 858.478 386.527 854.968 388.243 851.848C389.959 848.728 392.325 846.31 395.341 844.594C398.357 842.826 401.763 841.942 405.559 841.942C408.471 841.942 411.149 842.436 413.593 843.424C416.089 844.412 418.247 845.816 420.067 847.636L418.195 849.976ZM446.619 828.136L467.289 878.758L488.037 828.136H491.625L469.005 882.658H465.573L442.953 828.136H446.619ZM503.532 842.02V882.658H500.334V842.02H503.532ZM501.972 827.512C502.7 827.512 503.324 827.798 503.844 828.37C504.416 828.89 504.702 829.54 504.702 830.32C504.702 831.152 504.416 831.854 503.844 832.426C503.324 832.946 502.7 833.206 501.972 833.206C501.244 833.206 500.594 832.946 500.022 832.426C499.502 831.854 499.242 831.152 499.242 830.32C499.242 829.54 499.502 828.89 500.022 828.37C500.594 827.798 501.244 827.512 501.972 827.512ZM523.11 852.238C524.41 848.962 526.334 846.466 528.882 844.75C531.482 842.982 534.602 842.046 538.242 841.942V845.296C533.822 845.296 530.286 846.674 527.634 849.43C524.982 852.134 523.474 855.878 523.11 860.662V882.658H519.834V842.02H523.11V852.238ZM566.213 879.85C563.353 881.774 560.467 882.736 557.555 882.736C554.643 882.736 552.407 881.8 550.847 879.928C549.287 878.004 548.507 875.17 548.507 871.426V845.842H542.579V843.034H548.507V832.972H551.627V843.034H565.433V845.842H551.627V871.036C551.627 876.704 553.733 879.538 557.945 879.538C560.337 879.538 562.677 878.758 564.965 877.198L566.213 879.85ZM609.821 842.02V882.658H606.623V871.816C605.323 875.352 603.269 878.056 600.461 879.928C597.705 881.748 594.325 882.684 590.321 882.736C585.433 882.736 581.611 881.332 578.855 878.524C576.151 875.716 574.799 871.816 574.799 866.824V842.02H577.997V866.2C577.997 870.36 579.141 873.61 581.429 875.95C583.717 878.29 586.915 879.46 591.023 879.46C595.911 879.356 599.733 877.744 602.489 874.624C605.245 871.504 606.623 867.266 606.623 861.91V842.02H609.821ZM652.223 882.658L652.145 874.624C650.481 877.38 648.245 879.434 645.437 880.786C642.681 882.086 639.509 882.736 635.921 882.736C633.269 882.736 630.929 882.216 628.901 881.176C626.873 880.136 625.287 878.732 624.143 876.964C623.051 875.144 622.505 873.09 622.505 870.802C622.505 867.422 623.857 864.77 626.561 862.846C629.265 860.87 632.957 859.882 637.637 859.882H652.067V855.904C652.015 852.42 650.975 849.716 648.947 847.792C646.919 845.868 643.903 844.906 639.899 844.906C637.455 844.906 635.141 845.374 632.957 846.31C630.773 847.194 628.537 848.494 626.249 850.21L624.689 847.714C627.341 845.79 629.889 844.36 632.333 843.424C634.777 842.436 637.455 841.942 640.367 841.942C645.099 841.942 648.739 843.164 651.287 845.608C653.887 848.052 655.213 851.406 655.265 855.67L655.421 882.658H652.223ZM636.389 879.772C640.289 879.772 643.591 878.914 646.295 877.198C648.999 875.482 650.949 872.882 652.145 869.398V862.768H637.949C633.945 862.768 630.877 863.444 628.745 864.796C626.665 866.148 625.625 868.124 625.625 870.724C625.625 873.428 626.587 875.612 628.511 877.276C630.487 878.94 633.113 879.772 636.389 879.772ZM674.015 824.782V882.658H670.739V824.782H674.015ZM748.317 837.652C746.029 835.52 743.403 833.856 740.439 832.66C737.475 831.464 734.381 830.866 731.157 830.866C726.633 830.866 722.447 831.958 718.599 834.142C714.803 836.326 711.787 839.29 709.551 843.034C707.315 846.778 706.197 850.86 706.197 855.28C706.197 859.7 707.315 863.782 709.551 867.526C711.787 871.27 714.803 874.26 718.599 876.496C722.447 878.68 726.633 879.772 731.157 879.772C734.381 879.772 737.449 879.2 740.361 878.056C743.325 876.86 745.977 875.196 748.317 873.064L750.345 875.326C747.797 877.718 744.833 879.59 741.453 880.942C738.125 882.294 734.667 882.97 731.079 882.97C725.983 882.97 721.277 881.748 716.961 879.304C712.645 876.808 709.213 873.454 706.665 869.242C704.169 864.978 702.921 860.35 702.921 855.358C702.921 850.366 704.169 845.764 706.665 841.552C709.213 837.288 712.645 833.934 716.961 831.49C721.277 828.994 725.983 827.746 731.079 827.746C734.667 827.746 738.099 828.396 741.375 829.696C744.703 830.996 747.667 832.816 750.267 835.156L748.317 837.652ZM765.955 824.782V882.658H762.679V824.782H765.955ZM785.748 842.02V882.658H782.55V842.02H785.748ZM784.188 827.512C784.916 827.512 785.54 827.798 786.06 828.37C786.632 828.89 786.918 829.54 786.918 830.32C786.918 831.152 786.632 831.854 786.06 832.426C785.54 832.946 784.916 833.206 784.188 833.206C783.46 833.206 782.81 832.946 782.238 832.426C781.718 831.854 781.458 831.152 781.458 830.32C781.458 829.54 781.718 828.89 782.238 828.37C782.81 827.798 783.46 827.512 784.188 827.512ZM821.94 841.942C826.88 841.942 830.728 843.372 833.484 846.232C836.292 849.04 837.696 852.914 837.696 857.854V882.658H834.42V858.478C834.42 854.318 833.25 851.068 830.91 848.728C828.57 846.388 825.32 845.218 821.16 845.218C816.532 845.322 812.814 846.752 810.006 849.508C807.25 852.212 805.69 855.93 805.326 860.662V882.658H802.05V842.02H805.326V852.394C806.678 849.066 808.758 846.518 811.566 844.75C814.426 842.982 817.884 842.046 821.94 841.942ZM855.827 842.02V882.658H852.629V842.02H855.827ZM854.267 827.512C854.995 827.512 855.619 827.798 856.139 828.37C856.711 828.89 856.997 829.54 856.997 830.32C856.997 831.152 856.711 831.854 856.139 832.426C855.619 832.946 854.995 833.206 854.267 833.206C853.539 833.206 852.889 832.946 852.317 832.426C851.797 831.854 851.537 831.152 851.537 830.32C851.537 829.54 851.797 828.89 852.317 828.37C852.889 827.798 853.539 827.512 854.267 827.512ZM900.287 849.976C896.751 846.7 892.565 845.062 887.729 845.062C884.505 845.062 881.619 845.79 879.071 847.246C876.523 848.702 874.521 850.756 873.065 853.408C871.661 856.008 870.959 858.972 870.959 862.3C870.959 865.68 871.661 868.696 873.065 871.348C874.521 874 876.523 876.054 879.071 877.51C881.619 878.966 884.505 879.694 887.729 879.694C890.433 879.694 892.929 879.2 895.217 878.212C897.505 877.224 899.429 875.82 900.989 874L902.939 876.106C901.119 878.238 898.883 879.876 896.231 881.02C893.631 882.164 890.771 882.736 887.651 882.736C883.855 882.736 880.449 881.878 877.433 880.162C874.417 878.394 872.051 875.976 870.335 872.908C868.619 869.788 867.761 866.278 867.761 862.378C867.761 858.478 868.619 854.968 870.335 851.848C872.051 848.728 874.417 846.31 877.433 844.594C880.449 842.826 883.855 841.942 887.651 841.942C890.563 841.942 893.241 842.436 895.685 843.424C898.181 844.412 900.339 845.816 902.159 847.636L900.287 849.976Z" fill="#1E7561"/>
<path d="M136.085 832.816L135.434 833.576L135.434 833.576L136.085 832.816ZM136.085 859.726L136.742 860.48L136.748 860.475L136.085 859.726ZM104.651 864.484V863.484H103.651V864.484H104.651ZM104.651 882.658V883.658H105.651V882.658H104.651ZM101.375 882.658H100.375V883.658H101.375V882.658ZM101.375 828.136V827.136H100.375V828.136H101.375ZM133.745 857.386L134.385 858.155L134.392 858.148L133.745 857.386ZM104.651 831.334V830.334H103.651V831.334H104.651ZM104.651 861.286H103.651V862.286H104.651V861.286ZM120.563 828.136V829.136C127.127 829.136 132.036 830.663 135.434 833.576L136.085 832.816L136.735 832.057C132.853 828.73 127.415 827.136 120.563 827.136V828.136ZM136.085 832.816L135.434 833.576C138.809 836.469 140.545 840.586 140.545 846.076H141.545H142.545C142.545 840.127 140.64 835.404 136.735 832.057L136.085 832.816ZM141.545 846.076H140.545C140.545 851.731 138.803 855.983 135.422 858.978L136.085 859.726L136.748 860.475C140.646 857.022 142.545 852.174 142.545 846.076H141.545ZM136.085 859.726L135.428 858.973C132.03 861.934 127.123 863.484 120.563 863.484V864.484V865.484C127.418 865.484 132.859 863.863 136.742 860.48L136.085 859.726ZM120.563 864.484V863.484H104.651V864.484V865.484H120.563V864.484ZM104.651 864.484H103.651V882.658H104.651H105.651V864.484H104.651ZM104.651 882.658V881.658H101.375V882.658V883.658H104.651V882.658ZM101.375 882.658H102.375V828.136H101.375H100.375V882.658H101.375ZM101.375 828.136V829.136H120.563V828.136V827.136H101.375V828.136ZM120.485 861.286V862.286C126.344 862.286 131.024 860.955 134.385 858.155L133.745 857.386L133.104 856.618C130.225 859.018 126.065 860.286 120.485 860.286V861.286ZM133.745 857.386L134.392 858.148C137.777 855.271 139.425 851.225 139.425 846.154H138.425H137.425C137.425 850.756 135.952 854.197 133.097 856.625L133.745 857.386ZM138.425 846.154H139.425C139.425 841.133 137.774 837.156 134.377 834.382L133.745 835.156L133.112 835.931C135.955 838.253 137.425 841.608 137.425 846.154H138.425ZM133.745 835.156L134.377 834.382C131.017 831.638 126.34 830.334 120.485 830.334V831.334V832.334C126.069 832.334 130.232 833.579 133.112 835.931L133.745 835.156ZM120.485 831.334V830.334H104.651V831.334V832.334H120.485V831.334ZM104.651 831.334H103.651V861.286H104.651H105.651V831.334H104.651ZM104.651 861.286V862.286H120.485V861.286V860.286H104.651V861.286ZM177.508 844.672L176.971 845.516L176.98 845.522L176.989 845.527L177.508 844.672ZM184.06 852.16L183.148 852.572L183.154 852.584L184.06 852.16ZM186.244 863.236V864.236H187.231L187.243 863.249L186.244 863.236ZM150.754 863.236V862.236H149.705L149.755 863.284L150.754 863.236ZM153.172 871.894L154.035 871.391L154.035 871.391L153.172 871.894ZM159.1 877.744L158.609 878.616L158.616 878.62L158.623 878.624L159.1 877.744ZM175.168 878.368L175.539 879.297L175.549 879.293L175.168 878.368ZM181.252 874.156L181.999 873.492L181.262 872.663L180.513 873.482L181.252 874.156ZM183.124 876.262L183.858 876.941L184.473 876.276L183.871 875.598L183.124 876.262ZM176.182 881.098L176.556 882.026L176.564 882.023L176.571 882.019L176.182 881.098ZM157.15 880.162L156.644 881.025L156.655 881.032L157.15 880.162ZM150.052 872.908L149.169 873.379L149.174 873.388L149.179 873.397L150.052 872.908ZM150.13 851.848L149.253 851.367L149.253 851.367L150.13 851.848ZM157.15 844.594L157.651 845.46L157.655 845.457L157.15 844.594ZM183.28 860.35V861.35H184.348L184.277 860.284L183.28 860.35ZM178.522 849.118L177.821 849.832L178.522 849.118ZM155.98 849.196L156.661 849.928L156.668 849.922L155.98 849.196ZM150.832 860.35L149.836 860.261L149.738 861.35H150.832V860.35ZM167.368 841.942V842.942C171.107 842.942 174.294 843.813 176.971 845.516L177.508 844.672L178.044 843.829C175.001 841.892 171.428 840.942 167.368 840.942V841.942ZM177.508 844.672L176.989 845.527C179.721 847.186 181.772 849.524 183.148 852.572L184.06 852.16L184.971 851.749C183.435 848.348 181.118 845.695 178.027 843.818L177.508 844.672ZM184.06 852.16L183.154 852.584C184.588 855.65 185.294 859.189 185.244 863.224L186.244 863.236L187.243 863.249C187.297 858.964 186.547 855.118 184.965 851.737L184.06 852.16ZM186.244 863.236V862.236H150.754V863.236V864.236H186.244V863.236ZM150.754 863.236L149.755 863.284C149.917 866.699 150.76 869.746 152.308 872.398L153.172 871.894L154.035 871.391C152.671 869.051 151.902 866.326 151.752 863.189L150.754 863.236ZM153.172 871.894L152.308 872.398C153.852 875.046 155.957 877.124 158.609 878.616L159.1 877.744L159.59 876.873C157.25 875.557 155.403 873.734 154.035 871.391L153.172 871.894ZM159.1 877.744L158.623 878.624C161.28 880.063 164.254 880.772 167.524 880.772V879.772V878.772C164.553 878.772 161.911 878.13 159.576 876.865L159.1 877.744ZM167.524 879.772V880.772C170.395 880.772 173.07 880.284 175.539 879.297L175.168 878.368L174.796 877.44C172.585 878.324 170.164 878.772 167.524 878.772V879.772ZM175.168 878.368L175.549 879.293C178.07 878.252 180.222 876.765 181.99 874.831L181.252 874.156L180.513 873.482C178.953 875.188 177.049 876.509 174.786 877.444L175.168 878.368ZM181.252 874.156L180.504 874.821L182.376 876.927L183.124 876.262L183.871 875.598L181.999 873.492L181.252 874.156ZM183.124 876.262L182.389 875.583C180.565 877.555 178.37 879.087 175.792 880.177L176.182 881.098L176.571 882.019C179.401 880.822 181.834 879.129 183.858 876.941L183.124 876.262ZM176.182 881.098L175.807 880.171C173.232 881.211 170.423 881.736 167.368 881.736V882.736V883.736C170.657 883.736 173.723 883.17 176.556 882.026L176.182 881.098ZM167.368 882.736V881.736C163.728 881.736 160.495 880.916 157.644 879.293L157.15 880.162L156.655 881.032C159.836 882.841 163.415 883.736 167.368 883.736V882.736ZM157.15 880.162L157.655 879.3C154.794 877.622 152.554 875.334 150.924 872.42L150.052 872.908L149.179 873.397C150.981 876.619 153.473 879.167 156.644 881.025L157.15 880.162ZM150.052 872.908L150.934 872.438C149.355 869.477 148.556 866.132 148.556 862.378H147.556H146.556C146.556 866.425 147.42 870.1 149.169 873.379L150.052 872.908ZM147.556 862.378H148.556C148.556 858.631 149.379 855.289 151.006 852.33L150.13 851.848L149.253 851.367C147.449 854.648 146.556 858.326 146.556 862.378H147.556ZM150.13 851.848L151.006 852.33C152.638 849.363 154.851 847.081 157.651 845.46L157.15 844.594L156.648 843.729C153.52 845.54 151.053 848.094 149.253 851.367L150.13 851.848ZM157.15 844.594L157.655 845.457C160.505 843.787 163.734 842.942 167.368 842.942V841.942V840.942C163.409 840.942 159.826 841.866 156.644 843.732L157.15 844.594ZM183.28 860.35L184.277 860.284C183.952 855.403 182.286 851.413 179.222 848.405L178.522 849.118L177.821 849.832C180.477 852.439 181.983 855.938 182.282 860.417L183.28 860.35ZM178.522 849.118L179.222 848.405C176.148 845.387 172.165 843.906 167.368 843.906V844.906V845.906C171.722 845.906 175.175 847.234 177.821 849.832L178.522 849.118ZM167.368 844.906V843.906C162.564 843.906 158.513 845.416 155.291 848.471L155.98 849.196L156.668 849.922C159.478 847.257 163.019 845.906 167.368 845.906V844.906ZM155.98 849.196L155.298 848.465C152.078 851.462 150.271 855.421 149.836 860.261L150.832 860.35L151.828 860.44C152.224 856.024 153.849 852.547 156.661 849.928L155.98 849.196ZM150.832 860.35V861.35H183.28V860.35V859.35H150.832V860.35ZM233.891 824.782H234.891V823.782H233.891V824.782ZM233.891 882.658V883.658H234.891V882.658H233.891ZM230.615 882.658H229.615V883.658H230.615V882.658ZM230.615 872.05H231.615L229.707 871.631L230.615 872.05ZM223.751 880.006L223.213 879.163L223.213 879.163L223.751 880.006ZM203.081 880.24L202.575 881.103L202.575 881.103L203.081 880.24ZM195.983 872.986L195.101 873.457L195.106 873.466L195.11 873.475L195.983 872.986ZM195.983 851.77L195.107 851.288L195.101 851.3L195.983 851.77ZM203.003 844.438L202.497 843.576L202.491 843.58L203.003 844.438ZM223.751 844.672L223.213 845.516L223.213 845.516L223.751 844.672ZM230.615 852.628L229.707 853.048L231.615 852.628H230.615ZM230.615 824.782V823.782H229.615V824.782H230.615ZM222.347 877.588L221.845 876.723L221.838 876.728L222.347 877.588ZM228.431 871.348L227.555 870.867L227.555 870.867L228.431 871.348ZM228.431 853.408L227.555 853.89L227.555 853.89L228.431 853.408ZM222.347 847.168L221.838 848.029L221.845 848.033L222.347 847.168ZM204.953 847.168L204.451 846.303L204.444 846.308L204.953 847.168ZM198.869 853.408L198 852.914L197.996 852.921L197.993 852.927L198.869 853.408ZM198.869 871.348L199.746 870.867L199.746 870.867L198.869 871.348ZM204.875 877.588L204.366 878.449L204.373 878.453L204.875 877.588ZM233.891 824.782H232.891V882.658H233.891H234.891V824.782H233.891ZM233.891 882.658V881.658H230.615V882.658V883.658H233.891V882.658ZM230.615 882.658H231.615V872.05H230.615H229.615V882.658H230.615ZM230.615 872.05L229.707 871.631C228.224 874.845 226.061 877.347 223.213 879.163L223.751 880.006L224.289 880.85C227.473 878.818 229.886 876.016 231.523 872.47L230.615 872.05ZM223.751 880.006L223.213 879.163C220.375 880.974 217.081 881.892 213.299 881.892V882.892V883.892C217.421 883.892 221.096 882.887 224.289 880.85L223.751 880.006ZM213.299 882.892V881.892C209.665 881.892 206.436 881.048 203.587 879.378L203.081 880.24L202.575 881.103C205.758 882.969 209.341 883.892 213.299 883.892V882.892ZM203.081 880.24L203.587 879.378C200.725 877.7 198.486 875.412 196.856 872.498L195.983 872.986L195.11 873.475C196.913 876.697 199.405 879.245 202.575 881.103L203.081 880.24ZM195.983 872.986L196.866 872.516C195.287 869.557 194.487 866.186 194.487 862.378H193.487H192.487C192.487 866.475 193.351 870.176 195.101 873.457L195.983 872.986ZM193.487 862.378H194.487C194.487 858.571 195.287 855.2 196.866 852.241L195.983 851.77L195.101 851.3C193.351 854.581 192.487 858.282 192.487 862.378H193.487ZM195.983 851.77L196.859 852.252C198.493 849.283 200.709 846.971 203.515 845.297L203.003 844.438L202.491 843.58C199.369 845.442 196.906 848.018 195.107 851.289L195.983 851.77ZM203.003 844.438L203.509 845.301C206.358 843.631 209.587 842.786 213.221 842.786V841.786V840.786C209.263 840.786 205.68 841.71 202.497 843.576L203.003 844.438ZM213.221 841.786V842.786C217.058 842.786 220.377 843.706 223.213 845.516L223.751 844.672L224.289 843.829C221.094 841.791 217.392 840.786 213.221 840.786V841.786ZM223.751 844.672L223.213 845.516C226.061 847.332 228.224 849.834 229.707 853.048L230.615 852.628L231.523 852.209C229.886 848.663 227.473 845.861 224.289 843.829L223.751 844.672ZM230.615 852.628H231.615V824.782H230.615H229.615V852.628H230.615ZM230.615 824.782V825.782H233.891V824.782V823.782H230.615V824.782ZM213.689 879.85V880.85C217.076 880.85 220.141 880.056 222.856 878.449L222.347 877.588L221.838 876.728C219.458 878.137 216.75 878.85 213.689 878.85V879.85ZM222.347 877.588L222.849 878.453C225.608 876.853 227.765 874.64 229.308 871.83L228.431 871.348L227.555 870.867C226.186 873.361 224.287 875.307 221.845 876.723L222.347 877.588ZM228.431 871.348L229.308 871.83C230.853 869.016 231.615 865.857 231.615 862.378H230.615H229.615C229.615 865.555 228.922 868.377 227.555 870.867L228.431 871.348ZM230.615 862.378H231.615C231.615 858.899 230.853 855.741 229.308 852.927L228.431 853.408L227.555 853.89C228.922 856.38 229.615 859.201 229.615 862.378H230.615ZM228.431 853.408L229.308 852.927C227.765 850.117 225.608 847.903 222.849 846.303L222.347 847.168L221.845 848.033C224.287 849.449 226.186 851.396 227.555 853.89L228.431 853.408ZM222.347 847.168L222.856 846.308C220.141 844.701 217.076 843.906 213.689 843.906V844.906V845.906C216.75 845.906 219.458 846.62 221.838 848.029L222.347 847.168ZM213.689 844.906V843.906C210.302 843.906 207.215 844.701 204.451 846.303L204.953 847.168L205.455 848.033C207.891 846.62 210.628 845.906 213.689 845.906V844.906ZM204.953 847.168L204.444 846.308C201.741 847.907 199.591 850.116 198 852.914L198.869 853.408L199.738 853.903C201.163 851.397 203.069 849.446 205.462 848.029L204.953 847.168ZM198.869 853.408L197.993 852.927C196.448 855.741 195.685 858.899 195.685 862.378H196.685H197.685C197.685 859.201 198.379 856.38 199.746 853.89L198.869 853.408ZM196.685 862.378H195.685C195.685 865.857 196.448 869.016 197.993 871.83L198.869 871.348L199.746 870.867C198.379 868.377 197.685 865.555 197.685 862.378H196.685ZM198.869 871.348L197.993 871.83C199.533 874.635 201.66 876.848 204.366 878.449L204.875 877.588L205.384 876.728C202.994 875.313 201.117 873.366 199.746 870.867L198.869 871.348ZM204.875 877.588L204.373 878.453C207.139 880.058 210.253 880.85 213.689 880.85V879.85V878.85C210.573 878.85 207.811 878.135 205.377 876.723L204.875 877.588ZM253.688 842.02H254.688V841.02H253.688V842.02ZM253.688 882.658V883.658H254.688V882.658H253.688ZM250.49 882.658H249.49V883.658H250.49V882.658ZM250.49 842.02V841.02H249.49V842.02H250.49ZM254 828.37L253.26 829.043L253.292 829.078L253.327 829.11L254 828.37ZM254 832.426L253.293 831.719L253.293 831.719L254 832.426ZM250.178 832.426L249.438 833.099L249.47 833.134L249.505 833.166L250.178 832.426ZM250.178 828.37L249.471 827.663L249.471 827.663L250.178 828.37ZM253.688 842.02H252.688V882.658H253.688H254.688V842.02H253.688ZM253.688 882.658V881.658H250.49V882.658V883.658H253.688V882.658ZM250.49 882.658H251.49V842.02H250.49H249.49V882.658H250.49ZM250.49 842.02V843.02H253.688V842.02V841.02H250.49V842.02ZM252.128 827.512V828.512C252.555 828.512 252.916 828.665 253.26 829.043L254 828.37L254.74 827.698C254.044 826.932 253.157 826.512 252.128 826.512V827.512ZM254 828.37L253.327 829.11C253.689 829.439 253.858 829.819 253.858 830.32H254.858H255.858C255.858 829.262 255.455 828.342 254.673 827.631L254 828.37ZM254.858 830.32H253.858C253.858 830.896 253.671 831.341 253.293 831.719L254 832.426L254.707 833.134C255.472 832.368 255.858 831.409 255.858 830.32H254.858ZM254 832.426L253.293 831.719C252.958 832.054 252.588 832.206 252.128 832.206V833.206V834.206C253.124 834.206 254.002 833.839 254.707 833.134L254 832.426ZM252.128 833.206V832.206C251.665 832.206 251.251 832.05 250.851 831.687L250.178 832.426L249.505 833.166C250.249 833.842 251.135 834.206 252.128 834.206V833.206ZM250.178 832.426L250.918 831.754C250.579 831.381 250.398 830.924 250.398 830.32H249.398H248.398C248.398 831.381 248.737 832.328 249.438 833.099L250.178 832.426ZM249.398 830.32H250.398C250.398 829.788 250.565 829.398 250.885 829.078L250.178 828.37L249.471 827.663C248.751 828.383 248.398 829.293 248.398 830.32H249.398ZM250.178 828.37L250.885 829.078C251.292 828.67 251.696 828.512 252.128 828.512V827.512V826.512C251.104 826.512 250.208 826.927 249.471 827.663L250.178 828.37ZM296.12 882.658L295.12 882.668L295.13 883.658H296.12V882.658ZM296.042 874.624L297.042 874.615L297.008 871.09L295.186 874.108L296.042 874.624ZM289.334 880.786L289.761 881.691L289.768 881.687L289.334 880.786ZM272.798 881.176L272.342 882.066L272.342 882.066L272.798 881.176ZM268.04 876.964L267.182 877.479L267.191 877.493L267.2 877.508L268.04 876.964ZM270.458 862.846L271.038 863.661L271.048 863.654L270.458 862.846ZM295.964 859.882V860.882H296.964V859.882H295.964ZM295.964 855.904H296.964V855.897L296.964 855.89L295.964 855.904ZM276.854 846.31L277.229 847.237L277.239 847.234L277.248 847.23L276.854 846.31ZM270.146 850.21L269.298 850.74L269.875 851.664L270.746 851.01L270.146 850.21ZM268.586 847.714L267.999 846.905L267.243 847.453L267.738 848.244L268.586 847.714ZM276.23 843.424L276.588 844.358L276.596 844.355L276.605 844.352L276.23 843.424ZM295.184 845.608L294.492 846.33L294.499 846.337L295.184 845.608ZM299.162 855.67L300.162 855.665L300.162 855.658L299.162 855.67ZM299.318 882.658V883.658H300.324L300.318 882.653L299.318 882.658ZM290.192 877.198L289.656 876.354L289.656 876.354L290.192 877.198ZM296.042 869.398L296.988 869.723L297.042 869.565V869.398H296.042ZM296.042 862.768H297.042V861.768H296.042V862.768ZM272.642 864.796L272.106 863.952L272.097 863.958L272.642 864.796ZM272.408 877.276L271.754 878.033L271.764 878.041L272.408 877.276ZM296.12 882.658L297.12 882.649L297.042 874.615L296.042 874.624L295.042 874.634L295.12 882.668L296.12 882.658ZM296.042 874.624L295.186 874.108C293.619 876.703 291.527 878.621 288.9 879.885L289.334 880.786L289.768 881.687C292.757 880.248 295.137 878.058 296.898 875.141L296.042 874.624ZM289.334 880.786L288.907 879.882C286.306 881.109 283.284 881.736 279.818 881.736V882.736V883.736C283.527 883.736 286.849 883.064 289.761 881.691L289.334 880.786ZM279.818 882.736V881.736C277.299 881.736 275.12 881.243 273.254 880.287L272.798 881.176L272.342 882.066C274.532 883.19 277.033 883.736 279.818 883.736V882.736ZM272.798 881.176L273.254 880.287C271.369 879.32 269.921 878.03 268.88 876.421L268.04 876.964L267.2 877.508C268.447 879.435 270.171 880.953 272.342 882.066L272.798 881.176ZM268.04 876.964L268.897 876.45C267.906 874.797 267.402 872.924 267.402 870.802H266.402H265.402C265.402 873.257 265.99 875.491 267.182 877.479L268.04 876.964ZM266.402 870.802H267.402C267.402 867.739 268.603 865.394 271.038 863.661L270.458 862.846L269.878 862.032C266.905 864.147 265.402 867.106 265.402 870.802H266.402ZM270.458 862.846L271.048 863.654C273.525 861.844 276.984 860.882 281.534 860.882V859.882V858.882C276.724 858.882 272.799 859.897 269.868 862.039L270.458 862.846ZM281.534 859.882V860.882H295.964V859.882V858.882H281.534V859.882ZM295.964 859.882H296.964V855.904H295.964H294.964V859.882H295.964ZM295.964 855.904L296.964 855.89C296.909 852.207 295.801 849.22 293.532 847.067L292.844 847.792L292.156 848.518C293.943 850.213 294.915 852.634 294.964 855.919L295.964 855.904ZM292.844 847.792L293.532 847.067C291.251 844.903 287.946 843.906 283.796 843.906V844.906V845.906C287.654 845.906 290.381 846.834 292.156 848.518L292.844 847.792ZM283.796 844.906V843.906C281.22 843.906 278.772 844.4 276.46 845.391L276.854 846.31L277.248 847.23C279.304 846.348 281.483 845.906 283.796 845.906V844.906ZM276.854 846.31L276.479 845.383C274.2 846.306 271.889 847.653 269.546 849.41L270.146 850.21L270.746 851.01C272.979 849.336 275.14 848.083 277.229 847.237L276.854 846.31ZM270.146 850.21L270.994 849.68L269.434 847.184L268.586 847.714L267.738 848.244L269.298 850.74L270.146 850.21ZM268.586 847.714L269.173 848.524C271.771 846.639 274.243 845.256 276.588 844.358L276.23 843.424L275.872 842.491C273.329 843.465 270.705 844.942 267.999 846.905L268.586 847.714ZM276.23 843.424L276.605 844.352C278.918 843.416 281.467 842.942 284.264 842.942V841.942V840.942C281.237 840.942 278.43 841.456 275.855 842.497L276.23 843.424ZM284.264 841.942V842.942C288.828 842.942 292.186 844.119 294.492 846.33L295.184 845.608L295.876 844.887C293.086 842.21 289.164 840.942 284.264 840.942V841.942ZM295.184 845.608L294.499 846.337C296.863 848.559 298.113 851.633 298.162 855.683L299.162 855.67L300.162 855.658C300.107 851.18 298.705 847.546 295.869 844.88L295.184 845.608ZM299.162 855.67L298.162 855.676L298.318 882.664L299.318 882.658L300.318 882.653L300.162 855.665L299.162 855.67ZM299.318 882.658V881.658H296.12V882.658V883.658H299.318V882.658ZM280.286 879.772V880.772C284.334 880.772 287.832 879.881 290.728 878.043L290.192 877.198L289.656 876.354C287.144 877.948 284.038 878.772 280.286 878.772V879.772ZM290.192 877.198L290.728 878.043C293.652 876.187 295.73 873.388 296.988 869.723L296.042 869.398L295.096 869.074C293.962 872.377 292.14 874.778 289.656 876.354L290.192 877.198ZM296.042 869.398H297.042V862.768H296.042H295.042V869.398H296.042ZM296.042 862.768V861.768H281.846V862.768V863.768H296.042V862.768ZM281.846 862.768V861.768C277.754 861.768 274.467 862.455 272.106 863.952L272.642 864.796L273.177 865.641C275.081 864.434 277.93 863.768 281.846 863.768V862.768ZM272.642 864.796L272.097 863.958C269.717 865.505 268.522 867.806 268.522 870.724H269.522H270.522C270.522 868.443 271.407 866.792 273.187 865.635L272.642 864.796ZM269.522 870.724H268.522C268.522 873.698 269.595 876.166 271.754 878.033L272.408 877.276L273.062 876.52C271.373 875.059 270.522 873.159 270.522 870.724H269.522ZM272.408 877.276L271.764 878.041C273.964 879.894 276.839 880.772 280.286 880.772V879.772V878.772C277.181 878.772 274.804 877.987 273.052 876.512L272.408 877.276ZM333.356 879.85L333.914 880.68L334.626 880.201L334.261 879.425L333.356 879.85ZM317.99 879.928L317.213 880.558L317.222 880.569L317.99 879.928ZM315.65 845.842H316.65V844.842H315.65V845.842ZM309.722 845.842H308.722V846.842H309.722V845.842ZM309.722 843.034V842.034H308.722V843.034H309.722ZM315.65 843.034V844.034H316.65V843.034H315.65ZM315.65 832.972V831.972H314.65V832.972H315.65ZM318.77 832.972H319.77V831.972H318.77V832.972ZM318.77 843.034H317.77V844.034H318.77V843.034ZM332.576 843.034H333.576V842.034H332.576V843.034ZM332.576 845.842V846.842H333.576V845.842H332.576ZM318.77 845.842V844.842H317.77V845.842H318.77ZM332.108 877.198L333.013 876.773L332.513 875.712L331.544 876.372L332.108 877.198ZM333.356 879.85L332.798 879.021C330.072 880.855 327.377 881.736 324.698 881.736V882.736V883.736C327.843 883.736 330.92 882.694 333.914 880.68L333.356 879.85ZM324.698 882.736V881.736C322.019 881.736 320.091 880.887 318.758 879.288L317.99 879.928L317.222 880.569C319.009 882.714 321.553 883.736 324.698 883.736V882.736ZM317.99 879.928L318.767 879.299C317.409 877.624 316.65 875.053 316.65 871.426H315.65H314.65C314.65 875.288 315.451 878.385 317.213 880.558L317.99 879.928ZM315.65 871.426H316.65V845.842H315.65H314.65V871.426H315.65ZM315.65 845.842V844.842H309.722V845.842V846.842H315.65V845.842ZM309.722 845.842H310.722V843.034H309.722H308.722V845.842H309.722ZM309.722 843.034V844.034H315.65V843.034V842.034H309.722V843.034ZM315.65 843.034H316.65V832.972H315.65H314.65V843.034H315.65ZM315.65 832.972V833.972H318.77V832.972V831.972H315.65V832.972ZM318.77 832.972H317.77V843.034H318.77H319.77V832.972H318.77ZM318.77 843.034V844.034H332.576V843.034V842.034H318.77V843.034ZM332.576 843.034H331.576V845.842H332.576H333.576V843.034H332.576ZM332.576 845.842V844.842H318.77V845.842V846.842H332.576V845.842ZM318.77 845.842H317.77V871.036H318.77H319.77V845.842H318.77ZM318.77 871.036H317.77C317.77 873.965 318.309 876.344 319.547 878.009C320.826 879.731 322.734 880.538 325.088 880.538V879.538V878.538C323.229 878.538 321.979 877.929 321.152 876.816C320.284 875.648 319.77 873.776 319.77 871.036H318.77ZM325.088 879.538V880.538C327.711 880.538 330.244 879.68 332.671 878.025L332.108 877.198L331.544 876.372C329.396 877.837 327.249 878.538 325.088 878.538V879.538ZM332.108 877.198L331.203 877.624L332.451 880.276L333.356 879.85L334.261 879.425L333.013 876.773L332.108 877.198ZM346.543 852.238H345.543L347.473 852.607L346.543 852.238ZM352.315 844.75L352.874 845.58L352.878 845.577L352.315 844.75ZM361.675 841.942H362.675V840.913L361.647 840.943L361.675 841.942ZM361.675 845.296V846.296H362.675V845.296H361.675ZM351.067 849.43L351.781 850.131L351.788 850.124L351.067 849.43ZM346.543 860.662L345.546 860.587L345.543 860.624V860.662H346.543ZM346.543 882.658V883.658H347.543V882.658H346.543ZM343.267 882.658H342.267V883.658H343.267V882.658ZM343.267 842.02V841.02H342.267V842.02H343.267ZM346.543 842.02H347.543V841.02H346.543V842.02ZM346.543 852.238L347.473 852.607C348.71 849.49 350.517 847.167 352.874 845.58L352.315 844.75L351.757 843.921C349.018 845.766 346.977 848.435 345.614 851.87L346.543 852.238ZM352.315 844.75L352.878 845.577C355.296 843.933 358.224 843.041 361.704 842.942L361.675 841.942L361.647 840.943C357.847 841.051 354.534 842.032 351.753 843.924L352.315 844.75ZM361.675 841.942H360.675V845.296H361.675H362.675V841.942H361.675ZM361.675 845.296V844.296C357.029 844.296 353.217 845.754 350.347 848.737L351.067 849.43L351.788 850.124C354.222 847.595 357.481 846.296 361.675 846.296V845.296ZM351.067 849.43L350.353 848.73C347.496 851.643 345.923 855.632 345.546 860.587L346.543 860.662L347.54 860.738C347.891 856.125 349.334 852.625 351.781 850.131L351.067 849.43ZM346.543 860.662H345.543V882.658H346.543H347.543V860.662H346.543ZM346.543 882.658V881.658H343.267V882.658V883.658H346.543V882.658ZM343.267 882.658H344.267V842.02H343.267H342.267V882.658H343.267ZM343.267 842.02V843.02H346.543V842.02V841.02H343.267V842.02ZM346.543 842.02H345.543V852.238H346.543H347.543V842.02H346.543ZM373.735 842.02H374.735V841.02H373.735V842.02ZM373.735 882.658V883.658H374.735V882.658H373.735ZM370.537 882.658H369.537V883.658H370.537V882.658ZM370.537 842.02V841.02H369.537V842.02H370.537ZM374.047 828.37L373.307 829.043L373.339 829.078L373.374 829.11L374.047 828.37ZM374.047 832.426L373.34 831.719L373.34 831.719L374.047 832.426ZM370.225 832.426L369.485 833.099L369.517 833.134L369.552 833.166L370.225 832.426ZM370.225 828.37L369.518 827.663L369.518 827.663L370.225 828.37ZM373.735 842.02H372.735V882.658H373.735H374.735V842.02H373.735ZM373.735 882.658V881.658H370.537V882.658V883.658H373.735V882.658ZM370.537 882.658H371.537V842.02H370.537H369.537V882.658H370.537ZM370.537 842.02V843.02H373.735V842.02V841.02H370.537V842.02ZM372.175 827.512V828.512C372.602 828.512 372.963 828.665 373.307 829.043L374.047 828.37L374.787 827.698C374.09 826.932 373.204 826.512 372.175 826.512V827.512ZM374.047 828.37L373.374 829.11C373.736 829.439 373.905 829.819 373.905 830.32H374.905H375.905C375.905 829.262 375.502 828.342 374.719 827.631L374.047 828.37ZM374.905 830.32H373.905C373.905 830.896 373.718 831.341 373.34 831.719L374.047 832.426L374.754 833.134C375.519 832.368 375.905 831.409 375.905 830.32H374.905ZM374.047 832.426L373.34 831.719C373.005 832.054 372.635 832.206 372.175 832.206V833.206V834.206C373.171 834.206 374.049 833.839 374.754 833.134L374.047 832.426ZM372.175 833.206V832.206C371.712 832.206 371.298 832.05 370.897 831.687L370.225 832.426L369.552 833.166C370.296 833.842 371.182 834.206 372.175 834.206V833.206ZM370.225 832.426L370.965 831.754C370.625 831.381 370.445 830.924 370.445 830.32H369.445H368.445C368.445 831.381 368.784 832.328 369.485 833.099L370.225 832.426ZM369.445 830.32H370.445C370.445 829.788 370.612 829.398 370.932 829.078L370.225 828.37L369.518 827.663C368.798 828.383 368.445 829.293 368.445 830.32H369.445ZM370.225 828.37L370.932 829.078C371.339 828.67 371.743 828.512 372.175 828.512V827.512V826.512C371.151 826.512 370.254 826.927 369.518 827.663L370.225 828.37ZM418.195 849.976L417.515 850.71L418.304 851.441L418.976 850.601L418.195 849.976ZM396.979 847.246L396.483 846.378L396.483 846.378L396.979 847.246ZM390.973 853.408L390.096 852.927L390.093 852.933L390.973 853.408ZM390.973 871.348L390.089 871.816L390.093 871.823L390.096 871.83L390.973 871.348ZM396.979 877.51L396.483 878.379L396.483 878.379L396.979 877.51ZM413.125 878.212L412.728 877.294L412.728 877.294L413.125 878.212ZM418.897 874L419.631 873.321L418.868 872.497L418.138 873.35L418.897 874ZM420.847 876.106L421.607 876.756L422.185 876.079L421.581 875.427L420.847 876.106ZM414.139 881.02L413.743 880.102L413.736 880.105L414.139 881.02ZM395.341 880.162L394.835 881.025L394.846 881.032L395.341 880.162ZM388.243 872.908L387.367 873.39L387.37 873.397L388.243 872.908ZM388.243 851.848L387.367 851.367L387.367 851.367L388.243 851.848ZM395.341 844.594L395.835 845.464L395.847 845.457L395.341 844.594ZM413.593 843.424L413.218 844.352L413.225 844.354L413.593 843.424ZM420.067 847.636L420.848 848.261L421.407 847.562L420.774 846.929L420.067 847.636ZM418.195 849.976L418.874 849.243C415.153 845.795 410.724 844.062 405.637 844.062V845.062V846.062C410.222 846.062 414.165 847.606 417.515 850.71L418.195 849.976ZM405.637 845.062V844.062C402.256 844.062 399.196 844.828 396.483 846.378L396.979 847.246L397.475 848.115C399.857 846.753 402.569 846.062 405.637 846.062V845.062ZM396.979 847.246L396.483 846.378C393.769 847.929 391.638 850.119 390.096 852.927L390.973 853.408L391.849 853.89C393.22 851.394 395.092 849.476 397.475 848.115L396.979 847.246ZM390.973 853.408L390.093 852.933C388.601 855.697 387.867 858.828 387.867 862.3H388.867H389.867C389.867 859.117 390.537 856.32 391.853 853.884L390.973 853.408ZM388.867 862.3H387.867C387.867 865.823 388.599 869.003 390.089 871.816L390.973 871.348L391.857 870.881C390.538 868.39 389.867 865.538 389.867 862.3H388.867ZM390.973 871.348L390.096 871.83C391.638 874.638 393.769 876.828 396.483 878.379L396.979 877.51L397.475 876.642C395.092 875.281 393.22 873.363 391.849 870.867L390.973 871.348ZM396.979 877.51L396.483 878.379C399.196 879.929 402.256 880.694 405.637 880.694V879.694V878.694C402.569 878.694 399.857 878.004 397.475 876.642L396.979 877.51ZM405.637 879.694V880.694C408.465 880.694 411.098 880.177 413.521 879.131L413.125 878.212L412.728 877.294C410.576 878.224 408.216 878.694 405.637 878.694V879.694ZM413.125 878.212L413.521 879.131C415.943 878.085 417.993 876.591 419.656 874.651L418.897 874L418.138 873.35C416.681 875.049 414.882 876.364 412.728 877.294L413.125 878.212ZM418.897 874L418.163 874.68L420.113 876.786L420.847 876.106L421.581 875.427L419.631 873.321L418.897 874ZM420.847 876.106L420.086 875.457C418.369 877.469 416.259 879.017 413.743 880.102L414.139 881.02L414.535 881.939C417.323 880.736 419.685 879.008 421.607 876.756L420.847 876.106ZM414.139 881.02L413.736 880.105C411.275 881.188 408.554 881.736 405.559 881.736V882.736V883.736C408.804 883.736 411.803 883.141 414.542 881.936L414.139 881.02ZM405.559 882.736V881.736C401.919 881.736 398.687 880.916 395.835 879.293L395.341 880.162L394.846 881.032C398.027 882.841 401.606 883.736 405.559 883.736V882.736ZM395.341 880.162L395.847 879.3C392.985 877.622 390.745 875.334 389.116 872.42L388.243 872.908L387.37 873.397C389.172 876.619 391.665 879.167 394.835 881.025L395.341 880.162ZM388.243 872.908L389.119 872.427C387.492 869.468 386.669 866.126 386.669 862.378H385.669H384.669C384.669 866.431 385.562 870.109 387.367 873.39L388.243 872.908ZM385.669 862.378H386.669C386.669 858.631 387.492 855.289 389.119 852.33L388.243 851.848L387.367 851.367C385.562 854.648 384.669 858.326 384.669 862.378H385.669ZM388.243 851.848L389.119 852.33C390.748 849.368 392.984 847.086 395.835 845.464L395.341 844.594L394.846 843.725C391.665 845.535 389.169 848.089 387.367 851.367L388.243 851.848ZM395.341 844.594L395.847 845.457C398.696 843.787 401.925 842.942 405.559 842.942V841.942V840.942C401.601 840.942 398.017 841.866 394.835 843.732L395.341 844.594ZM405.559 841.942V842.942C408.356 842.942 410.905 843.416 413.218 844.352L413.593 843.424L413.968 842.497C411.393 841.456 408.586 840.942 405.559 840.942V841.942ZM413.593 843.424L413.225 844.354C415.599 845.294 417.64 846.624 419.36 848.344L420.067 847.636L420.774 846.929C418.853 845.009 416.578 843.531 413.961 842.495L413.593 843.424ZM420.067 847.636L419.286 847.012L417.414 849.352L418.195 849.976L418.976 850.601L420.848 848.261L420.067 847.636ZM446.619 828.136L447.545 827.758L447.291 827.136H446.619V828.136ZM467.289 878.758L466.363 879.136L467.287 881.4L468.214 879.138L467.289 878.758ZM488.037 828.136V827.136H487.366L487.112 827.757L488.037 828.136ZM491.625 828.136L492.549 828.52L493.123 827.136H491.625V828.136ZM469.005 882.658V883.658H469.673L469.929 883.042L469.005 882.658ZM465.573 882.658L464.649 883.042L464.905 883.658H465.573V882.658ZM442.953 828.136V827.136H441.456L442.029 828.52L442.953 828.136ZM446.619 828.136L445.693 828.514L466.363 879.136L467.289 878.758L468.215 878.38L447.545 827.758L446.619 828.136ZM467.289 878.758L468.214 879.138L488.962 828.516L488.037 828.136L487.112 827.757L466.364 878.379L467.289 878.758ZM488.037 828.136V829.136H491.625V828.136V827.136H488.037V828.136ZM491.625 828.136L490.701 827.753L468.081 882.275L469.005 882.658L469.929 883.042L492.549 828.52L491.625 828.136ZM469.005 882.658V881.658H465.573V882.658V883.658H469.005V882.658ZM465.573 882.658L466.497 882.275L443.877 827.753L442.953 828.136L442.029 828.52L464.649 883.042L465.573 882.658ZM442.953 828.136V829.136H446.619V828.136V827.136H442.953V828.136ZM503.532 842.02H504.532V841.02H503.532V842.02ZM503.532 882.658V883.658H504.532V882.658H503.532ZM500.334 882.658H499.334V883.658H500.334V882.658ZM500.334 842.02V841.02H499.334V842.02H500.334ZM503.844 828.37L503.104 829.043L503.136 829.078L503.171 829.11L503.844 828.37ZM503.844 832.426L503.137 831.719L503.137 831.719L503.844 832.426ZM500.022 832.426L499.282 833.099L499.314 833.134L499.349 833.166L500.022 832.426ZM500.022 828.37L499.315 827.663L499.315 827.663L500.022 828.37ZM503.532 842.02H502.532V882.658H503.532H504.532V842.02H503.532ZM503.532 882.658V881.658H500.334V882.658V883.658H503.532V882.658ZM500.334 882.658H501.334V842.02H500.334H499.334V882.658H500.334ZM500.334 842.02V843.02H503.532V842.02V841.02H500.334V842.02ZM501.972 827.512V828.512C502.399 828.512 502.76 828.665 503.104 829.043L503.844 828.37L504.584 827.698C503.887 826.932 503 826.512 501.972 826.512V827.512ZM503.844 828.37L503.171 829.11C503.532 829.439 503.702 829.819 503.702 830.32H504.702H505.702C505.702 829.262 505.299 828.342 504.516 827.631L503.844 828.37ZM504.702 830.32H503.702C503.702 830.896 503.515 831.341 503.137 831.719L503.844 832.426L504.551 833.134C505.316 832.368 505.702 831.409 505.702 830.32H504.702ZM503.844 832.426L503.137 831.719C502.802 832.054 502.431 832.206 501.972 832.206V833.206V834.206C502.968 834.206 503.845 833.839 504.551 833.134L503.844 832.426ZM501.972 833.206V832.206C501.509 832.206 501.095 832.05 500.694 831.687L500.022 832.426L499.349 833.166C500.093 833.842 500.979 834.206 501.972 834.206V833.206ZM500.022 832.426L500.762 831.754C500.422 831.381 500.242 830.924 500.242 830.32H499.242H498.242C498.242 831.381 498.581 832.328 499.282 833.099L500.022 832.426ZM499.242 830.32H500.242C500.242 829.788 500.409 829.398 500.729 829.078L500.022 828.37L499.315 827.663C498.595 828.383 498.242 829.293 498.242 830.32H499.242ZM500.022 828.37L500.729 829.078C501.136 828.67 501.54 828.512 501.972 828.512V827.512V826.512C500.948 826.512 500.051 826.927 499.315 827.663L500.022 828.37ZM523.11 852.238H522.11L524.039 852.607L523.11 852.238ZM528.882 844.75L529.44 845.58L529.444 845.577L528.882 844.75ZM538.242 841.942H539.242V840.913L538.213 840.943L538.242 841.942ZM538.242 845.296V846.296H539.242V845.296H538.242ZM527.634 849.43L528.348 850.131L528.354 850.124L527.634 849.43ZM523.11 860.662L522.113 860.587L522.11 860.624V860.662H523.11ZM523.11 882.658V883.658H524.11V882.658H523.11ZM519.834 882.658H518.834V883.658H519.834V882.658ZM519.834 842.02V841.02H518.834V842.02H519.834ZM523.11 842.02H524.11V841.02H523.11V842.02ZM523.11 852.238L524.039 852.607C525.276 849.49 527.083 847.167 529.44 845.58L528.882 844.75L528.323 843.921C525.584 845.766 523.543 848.435 522.18 851.87L523.11 852.238ZM528.882 844.75L529.444 845.577C531.862 843.933 534.79 843.041 538.27 842.942L538.242 841.942L538.213 840.943C534.413 841.051 531.101 842.032 528.319 843.924L528.882 844.75ZM538.242 841.942H537.242V845.296H538.242H539.242V841.942H538.242ZM538.242 845.296V844.296C533.596 844.296 529.783 845.754 526.913 848.737L527.634 849.43L528.354 850.124C530.788 847.595 534.047 846.296 538.242 846.296V845.296ZM527.634 849.43L526.92 848.73C524.063 851.643 522.49 855.632 522.113 860.587L523.11 860.662L524.107 860.738C524.458 856.125 525.901 852.625 528.348 850.131L527.634 849.43ZM523.11 860.662H522.11V882.658H523.11H524.11V860.662H523.11ZM523.11 882.658V881.658H519.834V882.658V883.658H523.11V882.658ZM519.834 882.658H520.834V842.02H519.834H518.834V882.658H519.834ZM519.834 842.02V843.02H523.11V842.02V841.02H519.834V842.02ZM523.11 842.02H522.11V852.238H523.11H524.11V842.02H523.11ZM566.213 879.85L566.771 880.68L567.483 880.201L567.118 879.425L566.213 879.85ZM550.847 879.928L550.07 880.558L550.079 880.569L550.847 879.928ZM548.507 845.842H549.507V844.842H548.507V845.842ZM542.579 845.842H541.579V846.842H542.579V845.842ZM542.579 843.034V842.034H541.579V843.034H542.579ZM548.507 843.034V844.034H549.507V843.034H548.507ZM548.507 832.972V831.972H547.507V832.972H548.507ZM551.627 832.972H552.627V831.972H551.627V832.972ZM551.627 843.034H550.627V844.034H551.627V843.034ZM565.433 843.034H566.433V842.034H565.433V843.034ZM565.433 845.842V846.842H566.433V845.842H565.433ZM551.627 845.842V844.842H550.627V845.842H551.627ZM564.965 877.198L565.87 876.773L565.371 875.712L564.402 876.372L564.965 877.198ZM566.213 879.85L565.655 879.021C562.929 880.855 560.234 881.736 557.555 881.736V882.736V883.736C560.7 883.736 563.777 882.694 566.771 880.68L566.213 879.85ZM557.555 882.736V881.736C554.876 881.736 552.948 880.887 551.615 879.288L550.847 879.928L550.079 880.569C551.866 882.714 554.41 883.736 557.555 883.736V882.736ZM550.847 879.928L551.624 879.299C550.266 877.624 549.507 875.053 549.507 871.426H548.507H547.507C547.507 875.288 548.308 878.385 550.07 880.558L550.847 879.928ZM548.507 871.426H549.507V845.842H548.507H547.507V871.426H548.507ZM548.507 845.842V844.842H542.579V845.842V846.842H548.507V845.842ZM542.579 845.842H543.579V843.034H542.579H541.579V845.842H542.579ZM542.579 843.034V844.034H548.507V843.034V842.034H542.579V843.034ZM548.507 843.034H549.507V832.972H548.507H547.507V843.034H548.507ZM548.507 832.972V833.972H551.627V832.972V831.972H548.507V832.972ZM551.627 832.972H550.627V843.034H551.627H552.627V832.972H551.627ZM551.627 843.034V844.034H565.433V843.034V842.034H551.627V843.034ZM565.433 843.034H564.433V845.842H565.433H566.433V843.034H565.433ZM565.433 845.842V844.842H551.627V845.842V846.842H565.433V845.842ZM551.627 845.842H550.627V871.036H551.627H552.627V845.842H551.627ZM551.627 871.036H550.627C550.627 873.965 551.166 876.344 552.404 878.009C553.683 879.731 555.592 880.538 557.945 880.538V879.538V878.538C556.087 878.538 554.836 877.929 554.009 876.816C553.141 875.648 552.627 873.776 552.627 871.036H551.627ZM557.945 879.538V880.538C560.568 880.538 563.101 879.68 565.529 878.025L564.965 877.198L564.402 876.372C562.253 877.837 560.106 878.538 557.945 878.538V879.538ZM564.965 877.198L564.06 877.624L565.308 880.276L566.213 879.85L567.118 879.425L565.87 876.773L564.965 877.198ZM609.821 842.02H610.821V841.02H609.821V842.02ZM609.821 882.658V883.658H610.821V882.658H609.821ZM606.623 882.658H605.623V883.658H606.623V882.658ZM606.623 871.816H607.623L605.684 871.471L606.623 871.816ZM600.461 879.928L601.012 880.763L601.015 880.76L600.461 879.928ZM590.321 882.736V883.737L590.334 883.736L590.321 882.736ZM578.855 878.524L578.134 879.218L578.141 879.225L578.855 878.524ZM574.799 842.02V841.02H573.799V842.02H574.799ZM577.997 842.02H578.997V841.02H577.997V842.02ZM581.429 875.95L580.714 876.65L580.714 876.65L581.429 875.95ZM591.023 879.46V880.46H591.033L591.044 880.46L591.023 879.46ZM602.489 874.624L601.739 873.962L601.739 873.962L602.489 874.624ZM606.623 842.02V841.02H605.623V842.02H606.623ZM609.821 842.02H608.821V882.658H609.821H610.821V842.02H609.821ZM609.821 882.658V881.658H606.623V882.658V883.658H609.821V882.658ZM606.623 882.658H607.623V871.816H606.623H605.623V882.658H606.623ZM606.623 871.816L605.684 871.471C604.448 874.833 602.517 877.356 599.906 879.096L600.461 879.928L601.015 880.76C604.02 878.757 606.197 875.872 607.561 872.162L606.623 871.816ZM600.461 879.928L599.91 879.094C597.345 880.788 594.161 881.686 590.308 881.737L590.321 882.736L590.334 883.736C594.488 883.682 598.065 882.709 601.012 880.763L600.461 879.928ZM590.321 882.736V881.736C585.632 881.736 582.093 880.396 579.568 877.824L578.855 878.524L578.141 879.225C581.128 882.269 585.233 883.736 590.321 883.736V882.736ZM578.855 878.524L579.575 877.831C577.097 875.257 575.799 871.633 575.799 866.824H574.799H573.799C573.799 872 575.205 876.176 578.134 879.218L578.855 878.524ZM574.799 866.824H575.799V842.02H574.799H573.799V866.824H574.799ZM574.799 842.02V843.02H577.997V842.02V841.02H574.799V842.02ZM577.997 842.02H576.997V866.2H577.997H578.997V842.02H577.997ZM577.997 866.2H576.997C576.997 870.548 578.197 874.076 580.714 876.65L581.429 875.95L582.144 875.251C580.084 873.145 578.997 870.173 578.997 866.2H577.997ZM581.429 875.95L580.714 876.65C583.235 879.228 586.718 880.46 591.023 880.46V879.46V878.46C587.111 878.46 584.198 877.352 582.144 875.251L581.429 875.95ZM591.023 879.46L591.044 880.46C596.158 880.351 600.265 878.653 603.238 875.286L602.489 874.624L601.739 873.962C599.201 876.836 595.663 878.361 591.001 878.461L591.023 879.46ZM602.489 874.624L603.238 875.286C606.198 871.936 607.623 867.439 607.623 861.91H606.623H605.623C605.623 867.094 604.292 871.073 601.739 873.962L602.489 874.624ZM606.623 861.91H607.623V842.02H606.623H605.623V861.91H606.623ZM606.623 842.02V843.02H609.821V842.02V841.02H606.623V842.02ZM652.223 882.658L651.223 882.668L651.233 883.658H652.223V882.658ZM652.145 874.624L653.145 874.615L653.111 871.09L651.289 874.108L652.145 874.624ZM645.437 880.786L645.864 881.691L645.871 881.687L645.437 880.786ZM628.901 881.176L628.445 882.066L628.445 882.066L628.901 881.176ZM624.143 876.964L623.286 877.479L623.295 877.493L623.304 877.508L624.143 876.964ZM626.561 862.846L627.141 863.661L627.151 863.654L626.561 862.846ZM652.067 859.882V860.882H653.067V859.882H652.067ZM652.067 855.904H653.067V855.897L653.067 855.89L652.067 855.904ZM632.957 846.31L633.333 847.237L633.342 847.234L633.351 847.23L632.957 846.31ZM626.249 850.21L625.401 850.74L625.978 851.664L626.849 851.01L626.249 850.21ZM624.689 847.714L624.102 846.905L623.347 847.453L623.841 848.244L624.689 847.714ZM632.333 843.424L632.691 844.358L632.7 844.355L632.708 844.352L632.333 843.424ZM651.287 845.608L650.595 846.33L650.603 846.337L651.287 845.608ZM655.265 855.67L656.265 855.665L656.265 855.658L655.265 855.67ZM655.421 882.658V883.658H656.427L656.421 882.653L655.421 882.658ZM646.295 877.198L645.76 876.354L645.76 876.354L646.295 877.198ZM652.145 869.398L653.091 869.723L653.145 869.565V869.398H652.145ZM652.145 862.768H653.145V861.768H652.145V862.768ZM628.745 864.796L628.21 863.952L628.2 863.958L628.745 864.796ZM628.511 877.276L627.857 878.033L627.867 878.041L628.511 877.276ZM652.223 882.658L653.223 882.649L653.145 874.615L652.145 874.624L651.145 874.634L651.223 882.668L652.223 882.658ZM652.145 874.624L651.289 874.108C649.722 876.703 647.631 878.621 645.004 879.885L645.437 880.786L645.871 881.687C648.86 880.248 651.241 878.058 653.002 875.141L652.145 874.624ZM645.437 880.786L645.011 879.882C642.41 881.109 639.388 881.736 635.921 881.736V882.736V883.736C639.631 883.736 642.953 883.064 645.864 881.691L645.437 880.786ZM635.921 882.736V881.736C633.402 881.736 631.223 881.243 629.358 880.287L628.901 881.176L628.445 882.066C630.636 883.19 633.137 883.736 635.921 883.736V882.736ZM628.901 881.176L629.358 880.287C627.472 879.32 626.024 878.03 624.983 876.421L624.143 876.964L623.304 877.508C624.551 879.435 626.274 880.953 628.445 882.066L628.901 881.176ZM624.143 876.964L625.001 876.45C624.009 874.797 623.505 872.924 623.505 870.802H622.505H621.505C621.505 873.257 622.093 875.491 623.286 877.479L624.143 876.964ZM622.505 870.802H623.505C623.505 867.739 624.707 865.394 627.141 863.661L626.561 862.846L625.982 862.032C623.008 864.147 621.505 867.106 621.505 870.802H622.505ZM626.561 862.846L627.151 863.654C629.628 861.844 633.088 860.882 637.637 860.882V859.882V858.882C632.827 858.882 628.903 859.897 625.971 862.039L626.561 862.846ZM637.637 859.882V860.882H652.067V859.882V858.882H637.637V859.882ZM652.067 859.882H653.067V855.904H652.067H651.067V859.882H652.067ZM652.067 855.904L653.067 855.89C653.012 852.207 651.905 849.22 649.636 847.067L648.947 847.792L648.259 848.518C650.046 850.213 651.019 852.634 651.068 855.919L652.067 855.904ZM648.947 847.792L649.636 847.067C647.355 844.903 644.049 843.906 639.899 843.906V844.906V845.906C643.758 845.906 646.484 846.834 648.259 848.518L648.947 847.792ZM639.899 844.906V843.906C637.324 843.906 634.876 844.4 632.564 845.391L632.957 846.31L633.351 847.23C635.407 846.348 637.587 845.906 639.899 845.906V844.906ZM632.957 846.31L632.582 845.383C630.303 846.306 627.992 847.653 625.649 849.41L626.249 850.21L626.849 851.01C629.082 849.336 631.244 848.083 633.333 847.237L632.957 846.31ZM626.249 850.21L627.097 849.68L625.537 847.184L624.689 847.714L623.841 848.244L625.401 850.74L626.249 850.21ZM624.689 847.714L625.277 848.524C627.875 846.639 630.346 845.256 632.691 844.358L632.333 843.424L631.976 842.491C629.433 843.465 626.808 844.942 624.102 846.905L624.689 847.714ZM632.333 843.424L632.708 844.352C635.021 843.416 637.57 842.942 640.367 842.942V841.942V840.942C637.34 840.942 634.534 841.456 631.959 842.497L632.333 843.424ZM640.367 841.942V842.942C644.931 842.942 648.29 844.119 650.595 846.33L651.287 845.608L651.98 844.887C649.189 842.21 645.267 840.942 640.367 840.942V841.942ZM651.287 845.608L650.603 846.337C652.966 848.559 654.216 851.633 654.266 855.683L655.265 855.67L656.265 855.658C656.211 851.18 654.808 847.546 651.972 844.88L651.287 845.608ZM655.265 855.67L654.265 855.676L654.421 882.664L655.421 882.658L656.421 882.653L656.265 855.665L655.265 855.67ZM655.421 882.658V881.658H652.223V882.658V883.658H655.421V882.658ZM636.389 879.772V880.772C640.438 880.772 643.935 879.881 646.831 878.043L646.295 877.198L645.76 876.354C643.248 877.948 640.141 878.772 636.389 878.772V879.772ZM646.295 877.198L646.831 878.043C649.755 876.187 651.833 873.388 653.091 869.723L652.145 869.398L651.2 869.074C650.066 872.377 648.244 874.778 645.76 876.354L646.295 877.198ZM652.145 869.398H653.145V862.768H652.145H651.145V869.398H652.145ZM652.145 862.768V861.768H637.949V862.768V863.768H652.145V862.768ZM637.949 862.768V861.768C633.857 861.768 630.57 862.455 628.21 863.952L628.745 864.796L629.281 865.641C631.185 864.434 634.034 863.768 637.949 863.768V862.768ZM628.745 864.796L628.2 863.958C625.821 865.505 624.625 867.806 624.625 870.724H625.625H626.625C626.625 868.443 627.51 866.792 629.29 865.635L628.745 864.796ZM625.625 870.724H624.625C624.625 873.698 625.698 876.166 627.857 878.033L628.511 877.276L629.166 876.52C627.476 875.059 626.625 873.159 626.625 870.724H625.625ZM628.511 877.276L627.867 878.041C630.068 879.894 632.943 880.772 636.389 880.772V879.772V878.772C633.284 878.772 630.907 877.987 629.156 876.512L628.511 877.276ZM674.015 824.782H675.015V823.782H674.015V824.782ZM674.015 882.658V883.658H675.015V882.658H674.015ZM670.739 882.658H669.739V883.658H670.739V882.658ZM670.739 824.782V823.782H669.739V824.782H670.739ZM674.015 824.782H673.015V882.658H674.015H675.015V824.782H674.015ZM674.015 882.658V881.658H670.739V882.658V883.658H674.015V882.658ZM670.739 882.658H671.739V824.782H670.739H669.739V882.658H670.739ZM670.739 824.782V825.782H674.015V824.782V823.782H670.739V824.782ZM748.317 837.652L747.635 838.384L748.433 839.128L749.105 838.268L748.317 837.652ZM740.439 832.66L740.065 833.588L740.065 833.588L740.439 832.66ZM718.599 834.142L718.105 833.273L718.1 833.276L718.599 834.142ZM709.551 843.034L710.41 843.547L710.41 843.547L709.551 843.034ZM709.551 867.526L710.41 867.014L710.41 867.014L709.551 867.526ZM718.599 876.496L718.091 877.358L718.098 877.362L718.105 877.366L718.599 876.496ZM740.361 878.056L740.727 878.987L740.735 878.984L740.361 878.056ZM748.317 873.064L749.062 872.397L748.389 871.646L747.644 872.325L748.317 873.064ZM750.345 875.326L751.029 876.056L751.742 875.387L751.09 874.659L750.345 875.326ZM741.453 880.942L741.082 880.014L741.077 880.016L741.453 880.942ZM716.961 879.304L716.46 880.17L716.468 880.175L716.961 879.304ZM706.665 869.242L705.802 869.748L705.806 869.754L705.809 869.76L706.665 869.242ZM706.665 841.552L705.807 841.039L705.805 841.043L706.665 841.552ZM716.961 831.49L717.454 832.361L717.462 832.356L716.961 831.49ZM741.375 829.696L741.006 830.626L741.011 830.628L741.375 829.696ZM750.267 835.156L751.055 835.772L751.629 835.037L750.936 834.413L750.267 835.156ZM748.317 837.652L748.999 836.921C746.619 834.703 743.888 832.974 740.813 831.733L740.439 832.66L740.065 833.588C742.918 834.739 745.439 836.337 747.635 838.384L748.317 837.652ZM740.439 832.66L740.813 831.733C737.729 830.489 734.508 829.866 731.157 829.866V830.866V831.866C734.254 831.866 737.221 832.44 740.065 833.588L740.439 832.66ZM731.157 830.866V829.866C726.464 829.866 722.107 831.001 718.105 833.273L718.599 834.142L719.093 835.012C722.787 832.916 726.802 831.866 731.157 831.866V830.866ZM718.599 834.142L718.1 833.276C714.157 835.545 711.017 838.63 708.692 842.522L709.551 843.034L710.41 843.547C712.557 839.951 715.449 837.108 719.098 835.009L718.599 834.142ZM709.551 843.034L708.692 842.522C706.363 846.423 705.197 850.682 705.197 855.28H706.197H707.197C707.197 851.038 708.267 847.134 710.41 843.547L709.551 843.034ZM706.197 855.28H705.197C705.197 859.878 706.363 864.138 708.692 868.039L709.551 867.526L710.41 867.014C708.267 863.427 707.197 859.522 707.197 855.28H706.197ZM709.551 867.526L708.692 868.039C711.015 871.929 714.153 875.038 718.091 877.358L718.599 876.496L719.107 875.635C715.453 873.483 712.559 870.612 710.41 867.014L709.551 867.526ZM718.599 876.496L718.105 877.366C722.107 879.638 726.464 880.772 731.157 880.772V879.772V878.772C726.802 878.772 722.787 877.723 719.093 875.627L718.599 876.496ZM731.157 879.772V880.772C734.502 880.772 737.695 880.178 740.727 878.987L740.361 878.056L739.995 877.126C737.203 878.223 734.26 878.772 731.157 878.772V879.772ZM740.361 878.056L740.735 878.984C743.808 877.744 746.562 876.016 748.99 873.804L748.317 873.064L747.644 872.325C745.392 874.376 742.842 875.977 739.987 877.129L740.361 878.056ZM748.317 873.064L747.572 873.732L749.6 875.994L750.345 875.326L751.09 874.659L749.062 872.397L748.317 873.064ZM750.345 875.326L749.661 874.597C747.207 876.9 744.351 878.706 741.082 880.014L741.453 880.942L741.824 881.871C745.315 880.475 748.387 878.536 751.029 876.056L750.345 875.326ZM741.453 880.942L741.077 880.016C737.868 881.319 734.538 881.97 731.079 881.97V882.97V883.97C734.796 883.97 738.382 883.269 741.829 881.869L741.453 880.942ZM731.079 882.97V881.97C726.151 881.97 721.615 880.791 717.454 878.434L716.961 879.304L716.468 880.175C720.939 882.706 725.815 883.97 731.079 883.97V882.97ZM716.961 879.304L717.462 878.439C713.289 876.026 709.98 872.791 707.521 868.725L706.665 869.242L705.809 869.76C708.446 874.118 712.001 877.591 716.46 880.17L716.961 879.304ZM706.665 869.242L707.528 868.737C705.123 864.628 703.921 860.175 703.921 855.358H702.921H701.921C701.921 860.526 703.215 865.329 705.802 869.748L706.665 869.242ZM702.921 855.358H703.921C703.921 850.542 705.123 846.117 707.525 842.062L706.665 841.552L705.805 841.043C703.215 845.412 701.921 850.191 701.921 855.358H702.921ZM706.665 841.552L707.523 842.065C709.983 837.95 713.289 834.719 717.454 832.361L716.961 831.49L716.468 830.62C712.001 833.15 708.443 836.627 705.807 841.039L706.665 841.552ZM716.961 831.49L717.462 832.356C721.622 829.95 726.155 828.746 731.079 828.746V827.746V826.746C725.811 826.746 720.932 828.039 716.46 830.625L716.961 831.49ZM731.079 827.746V828.746C734.543 828.746 737.85 829.373 741.006 830.626L741.375 829.696L741.744 828.767C738.348 827.42 734.791 826.746 731.079 826.746V827.746ZM741.375 829.696L741.011 830.628C744.229 831.885 747.09 833.642 749.598 835.9L750.267 835.156L750.936 834.413C748.245 831.991 745.177 830.108 741.739 828.765L741.375 829.696ZM750.267 835.156L749.479 834.541L747.529 837.037L748.317 837.652L749.105 838.268L751.055 835.772L750.267 835.156ZM765.955 824.782H766.955V823.782H765.955V824.782ZM765.955 882.658V883.658H766.955V882.658H765.955ZM762.679 882.658H761.679V883.658H762.679V882.658ZM762.679 824.782V823.782H761.679V824.782H762.679ZM765.955 824.782H764.955V882.658H765.955H766.955V824.782H765.955ZM765.955 882.658V881.658H762.679V882.658V883.658H765.955V882.658ZM762.679 882.658H763.679V824.782H762.679H761.679V882.658H762.679ZM762.679 824.782V825.782H765.955V824.782V823.782H762.679V824.782ZM785.748 842.02H786.748V841.02H785.748V842.02ZM785.748 882.658V883.658H786.748V882.658H785.748ZM782.55 882.658H781.55V883.658H782.55V882.658ZM782.55 842.02V841.02H781.55V842.02H782.55ZM786.06 828.37L785.321 829.043L785.353 829.078L785.388 829.11L786.06 828.37ZM786.06 832.426L785.353 831.719L785.353 831.719L786.06 832.426ZM782.238 832.426L781.499 833.099L781.531 833.134L781.566 833.166L782.238 832.426ZM782.238 828.37L781.531 827.663L781.531 827.663L782.238 828.37ZM785.748 842.02H784.748V882.658H785.748H786.748V842.02H785.748ZM785.748 882.658V881.658H782.55V882.658V883.658H785.748V882.658ZM782.55 882.658H783.55V842.02H782.55H781.55V882.658H782.55ZM782.55 842.02V843.02H785.748V842.02V841.02H782.55V842.02ZM784.188 827.512V828.512C784.616 828.512 784.977 828.665 785.321 829.043L786.06 828.37L786.8 827.698C786.104 826.932 785.217 826.512 784.188 826.512V827.512ZM786.06 828.37L785.388 829.11C785.749 829.439 785.918 829.819 785.918 830.32H786.918H787.918C787.918 829.262 787.516 828.342 786.733 827.631L786.06 828.37ZM786.918 830.32H785.918C785.918 830.896 785.732 831.341 785.353 831.719L786.06 832.426L786.768 833.134C787.533 832.368 787.918 831.409 787.918 830.32H786.918ZM786.06 832.426L785.353 831.719C785.019 832.054 784.648 832.206 784.188 832.206V833.206V834.206C785.185 834.206 786.062 833.839 786.768 833.134L786.06 832.426ZM784.188 833.206V832.206C783.726 832.206 783.312 832.05 782.911 831.687L782.238 832.426L781.566 833.166C782.309 833.842 783.195 834.206 784.188 834.206V833.206ZM782.238 832.426L782.978 831.754C782.639 831.381 782.458 830.924 782.458 830.32H781.458H780.458C780.458 831.381 780.798 832.328 781.499 833.099L782.238 832.426ZM781.458 830.32H782.458C782.458 829.788 782.625 829.398 782.946 829.078L782.238 828.37L781.531 827.663C780.812 828.383 780.458 829.293 780.458 830.32H781.458ZM782.238 828.37L782.946 829.078C783.353 828.67 783.756 828.512 784.188 828.512V827.512V826.512C783.165 826.512 782.268 826.927 781.531 827.663L782.238 828.37ZM821.94 841.942V840.942H821.928L821.915 840.943L821.94 841.942ZM833.484 846.232L832.764 846.926L832.771 846.933L832.777 846.94L833.484 846.232ZM837.696 882.658V883.658H838.696V882.658H837.696ZM834.42 882.658H833.42V883.658H834.42V882.658ZM830.91 848.728L831.618 848.021L831.618 848.021L830.91 848.728ZM821.16 845.218V844.218H821.149L821.138 844.219L821.16 845.218ZM810.006 849.508L810.707 850.222L810.707 850.222L810.006 849.508ZM805.326 860.662L804.329 860.586L804.326 860.624V860.662H805.326ZM805.326 882.658V883.658H806.326V882.658H805.326ZM802.05 882.658H801.05V883.658H802.05V882.658ZM802.05 842.02V841.02H801.05V842.02H802.05ZM805.326 842.02H806.326V841.02H805.326V842.02ZM805.326 852.394H804.326L806.253 852.771L805.326 852.394ZM811.566 844.75L811.041 843.9L811.034 843.904L811.566 844.75ZM821.94 841.942V842.942C826.679 842.942 830.241 844.307 832.764 846.926L833.484 846.232L834.205 845.539C831.216 842.437 827.082 840.942 821.94 840.942V841.942ZM833.484 846.232L832.777 846.94C835.354 849.517 836.696 853.111 836.696 857.854H837.696H838.696C838.696 852.718 837.231 848.564 834.192 845.525L833.484 846.232ZM837.696 857.854H836.696V882.658H837.696H838.696V857.854H837.696ZM837.696 882.658V881.658H834.42V882.658V883.658H837.696V882.658ZM834.42 882.658H835.42V858.478H834.42H833.42V882.658H834.42ZM834.42 858.478H835.42C835.42 854.125 834.19 850.594 831.618 848.021L830.91 848.728L830.203 849.436C832.31 851.543 833.42 854.512 833.42 858.478H834.42ZM830.91 848.728L831.618 848.021C829.045 845.448 825.514 844.218 821.16 844.218V845.218V846.218C825.127 846.218 828.096 847.328 830.203 849.436L830.91 848.728ZM821.16 845.218L821.138 844.219C816.304 844.327 812.327 845.83 809.306 848.795L810.006 849.508L810.707 850.222C813.302 847.675 816.761 846.318 821.183 846.218L821.16 845.218ZM810.006 849.508L809.306 848.795C806.34 851.705 804.708 855.67 804.329 860.586L805.326 860.662L806.324 860.739C806.673 856.191 808.161 852.72 810.707 850.222L810.006 849.508ZM805.326 860.662H804.326V882.658H805.326H806.326V860.662H805.326ZM805.326 882.658V881.658H802.05V882.658V883.658H805.326V882.658ZM802.05 882.658H803.05V842.02H802.05H801.05V882.658H802.05ZM802.05 842.02V843.02H805.326V842.02V841.02H802.05V842.02ZM805.326 842.02H804.326V852.394H805.326H806.326V842.02H805.326ZM805.326 852.394L806.253 852.771C807.533 849.62 809.483 847.244 812.099 845.597L811.566 844.75L811.034 843.904C808.034 845.793 805.824 848.513 804.4 852.018L805.326 852.394ZM811.566 844.75L812.092 845.601C814.773 843.944 818.051 843.043 821.966 842.942L821.94 841.942L821.915 840.943C817.718 841.05 814.08 842.021 811.041 843.9L811.566 844.75ZM855.827 842.02H856.827V841.02H855.827V842.02ZM855.827 882.658V883.658H856.827V882.658H855.827ZM852.629 882.658H851.629V883.658H852.629V882.658ZM852.629 842.02V841.02H851.629V842.02H852.629ZM856.139 828.37L855.399 829.043L855.431 829.078L855.466 829.11L856.139 828.37ZM856.139 832.426L855.431 831.719L855.431 831.719L856.139 832.426ZM852.317 832.426L851.577 833.099L851.609 833.134L851.644 833.166L852.317 832.426ZM852.317 828.37L851.609 827.663L851.609 827.663L852.317 828.37ZM855.827 842.02H854.827V882.658H855.827H856.827V842.02H855.827ZM855.827 882.658V881.658H852.629V882.658V883.658H855.827V882.658ZM852.629 882.658H853.629V842.02H852.629H851.629V882.658H852.629ZM852.629 842.02V843.02H855.827V842.02V841.02H852.629V842.02ZM854.267 827.512V828.512C854.694 828.512 855.055 828.665 855.399 829.043L856.139 828.37L856.879 827.698C856.182 826.932 855.295 826.512 854.267 826.512V827.512ZM856.139 828.37L855.466 829.11C855.827 829.439 855.997 829.819 855.997 830.32H856.997H857.997C857.997 829.262 857.594 828.342 856.811 827.631L856.139 828.37ZM856.997 830.32H855.997C855.997 830.896 855.81 831.341 855.431 831.719L856.139 832.426L856.846 833.134C857.611 832.368 857.997 831.409 857.997 830.32H856.997ZM856.139 832.426L855.431 831.719C855.097 832.054 854.726 832.206 854.267 832.206V833.206V834.206C855.263 834.206 856.14 833.839 856.846 833.134L856.139 832.426ZM854.267 833.206V832.206C853.804 832.206 853.39 832.05 852.989 831.687L852.317 832.426L851.644 833.166C852.388 833.842 853.274 834.206 854.267 834.206V833.206ZM852.317 832.426L853.057 831.754C852.717 831.381 852.537 830.924 852.537 830.32H851.537H850.537C850.537 831.381 850.876 832.328 851.577 833.099L852.317 832.426ZM851.537 830.32H852.537C852.537 829.788 852.704 829.398 853.024 829.078L852.317 828.37L851.609 827.663C850.89 828.383 850.537 829.293 850.537 830.32H851.537ZM852.317 828.37L853.024 829.078C853.431 828.67 853.834 828.512 854.267 828.512V827.512V826.512C853.243 826.512 852.346 826.927 851.609 827.663L852.317 828.37ZM900.287 849.976L899.607 850.71L900.396 851.441L901.067 850.601L900.287 849.976ZM879.071 847.246L878.574 846.378L878.574 846.378L879.071 847.246ZM873.065 853.408L872.188 852.927L872.185 852.933L873.065 853.408ZM873.065 871.348L872.181 871.816L872.184 871.823L872.188 871.83L873.065 871.348ZM879.071 877.51L878.574 878.379L878.574 878.379L879.071 877.51ZM895.217 878.212L894.82 877.294L894.82 877.294L895.217 878.212ZM900.989 874L901.722 873.321L900.96 872.497L900.229 873.35L900.989 874ZM902.939 876.106L903.699 876.756L904.276 876.079L903.672 875.427L902.939 876.106ZM896.231 881.02L895.835 880.102L895.828 880.105L896.231 881.02ZM877.433 880.162L876.927 881.025L876.938 881.032L877.433 880.162ZM870.335 872.908L869.458 873.39L869.462 873.397L870.335 872.908ZM870.335 851.848L869.458 851.367L869.458 851.367L870.335 851.848ZM877.433 844.594L877.927 845.464L877.938 845.457L877.433 844.594ZM895.685 843.424L895.31 844.352L895.317 844.354L895.685 843.424ZM902.159 847.636L902.939 848.261L903.499 847.562L902.866 846.929L902.159 847.636ZM900.287 849.976L900.966 849.243C897.245 845.795 892.816 844.062 887.729 844.062V845.062V846.062C892.313 846.062 896.257 847.606 899.607 850.71L900.287 849.976ZM887.729 845.062V844.062C884.348 844.062 881.288 844.828 878.574 846.378L879.071 847.246L879.567 848.115C881.949 846.753 884.661 846.062 887.729 846.062V845.062ZM879.071 847.246L878.574 846.378C875.861 847.929 873.73 850.119 872.188 852.927L873.065 853.408L873.941 853.89C875.311 851.394 877.184 849.476 879.567 848.115L879.071 847.246ZM873.065 853.408L872.185 852.933C870.692 855.697 869.959 858.828 869.959 862.3H870.959H871.959C871.959 859.117 872.629 856.32 873.945 853.884L873.065 853.408ZM870.959 862.3H869.959C869.959 865.823 870.691 869.003 872.181 871.816L873.065 871.348L873.948 870.881C872.63 868.39 871.959 865.538 871.959 862.3H870.959ZM873.065 871.348L872.188 871.83C873.73 874.638 875.861 876.828 878.574 878.379L879.071 877.51L879.567 876.642C877.184 875.281 875.311 873.363 873.941 870.867L873.065 871.348ZM879.071 877.51L878.574 878.379C881.288 879.929 884.348 880.694 887.729 880.694V879.694V878.694C884.661 878.694 881.949 878.004 879.567 876.642L879.071 877.51ZM887.729 879.694V880.694C890.557 880.694 893.19 880.177 895.613 879.131L895.217 878.212L894.82 877.294C892.668 878.224 890.308 878.694 887.729 878.694V879.694ZM895.217 878.212L895.613 879.131C898.035 878.085 900.085 876.591 901.748 874.651L900.989 874L900.229 873.35C898.772 875.049 896.974 876.364 894.82 877.294L895.217 878.212ZM900.989 874L900.255 874.68L902.205 876.786L902.939 876.106L903.672 875.427L901.722 873.321L900.989 874ZM902.939 876.106L902.178 875.457C900.46 877.469 898.35 879.017 895.835 880.102L896.231 881.02L896.627 881.939C899.415 880.736 901.777 879.008 903.699 876.756L902.939 876.106ZM896.231 881.02L895.828 880.105C893.367 881.188 890.646 881.736 887.651 881.736V882.736V883.736C890.896 883.736 893.894 883.141 896.633 881.936L896.231 881.02ZM887.651 882.736V881.736C884.011 881.736 880.779 880.916 877.927 879.293L877.433 880.162L876.938 881.032C880.119 882.841 883.698 883.736 887.651 883.736V882.736ZM877.433 880.162L877.938 879.3C875.077 877.622 872.837 875.334 871.207 872.42L870.335 872.908L869.462 873.397C871.264 876.619 873.757 879.167 876.927 881.025L877.433 880.162ZM870.335 872.908L871.211 872.427C869.584 869.468 868.761 866.126 868.761 862.378H867.761H866.761C866.761 866.431 867.654 870.109 869.458 873.39L870.335 872.908ZM867.761 862.378H868.761C868.761 858.631 869.584 855.289 871.211 852.33L870.335 851.848L869.458 851.367C867.654 854.648 866.761 858.326 866.761 862.378H867.761ZM870.335 851.848L871.211 852.33C872.84 849.368 875.076 847.086 877.927 845.464L877.433 844.594L876.938 843.725C873.757 845.535 871.261 848.089 869.458 851.367L870.335 851.848ZM877.433 844.594L877.938 845.457C880.788 843.787 884.017 842.942 887.651 842.942V841.942V840.942C883.693 840.942 880.109 841.866 876.927 843.732L877.433 844.594ZM887.651 841.942V842.942C890.448 842.942 892.997 843.416 895.31 844.352L895.685 843.424L896.059 842.497C893.484 841.456 890.678 840.942 887.651 840.942V841.942ZM895.685 843.424L895.317 844.354C897.691 845.294 899.732 846.624 901.451 848.344L902.159 847.636L902.866 846.929C900.945 845.009 898.67 843.531 896.053 842.495L895.685 843.424ZM902.159 847.636L901.378 847.012L899.506 849.352L900.287 849.976L901.067 850.601L902.939 848.261L902.159 847.636Z" fill="#1E7561" mask="url(#path-4-outside-1_349_67)"/>
<path d="M86.4767 664.774C100.909 664.774 112.061 668.218 119.933 675.106C127.914 681.994 131.905 691.725 131.905 704.298C131.905 717.418 127.914 727.641 119.933 734.966C112.061 742.182 100.909 745.79 86.4767 745.79H61.3847V779.574H39.4087V664.774H86.4767ZM85.3287 726.438C93.638 726.438 99.9794 724.634 104.353 721.026C108.835 717.418 111.077 712.061 111.077 704.954C111.077 697.957 108.835 692.709 104.353 689.21C99.9794 685.712 93.638 683.962 85.3287 683.962H61.3847V726.438H85.3287ZM234.209 664.774V683.962H172.053V712.334H227.813V731.522H172.053V760.386H236.177V779.574H150.077V664.774H234.209ZM306.226 664.774C317.706 664.774 327.984 667.234 337.058 672.154C346.133 676.965 353.24 683.744 358.378 692.49C363.517 701.237 366.086 711.132 366.086 722.174C366.086 733.217 363.462 743.112 358.214 751.858C353.076 760.496 345.914 767.274 336.73 772.194C327.546 777.114 317.105 779.574 305.406 779.574H258.502V664.774H306.226ZM306.718 760.222C313.716 760.222 320.002 758.637 325.578 755.466C331.264 752.186 335.692 747.704 338.862 742.018C342.033 736.224 343.618 729.664 343.618 722.338C343.618 715.013 341.978 708.453 338.698 702.658C335.418 696.754 330.881 692.217 325.086 689.046C319.401 685.766 313.005 684.126 305.898 684.126H280.478V760.222H306.718ZM407.322 664.774V779.574H385.346V664.774H407.322ZM510.259 755.302H454.171L444.003 779.574H421.207L471.555 664.774H494.351L544.043 779.574H520.427L510.259 755.302ZM502.387 736.442L482.379 688.226L462.043 736.442H502.387ZM579.971 664.774V713.81H637.207V664.774H659.183V779.574H637.207V732.998H579.971V779.574H557.995V664.774H579.971ZM771.693 664.774V683.962H709.537V712.334H765.297V731.522H709.537V760.386H773.661V779.574H687.561V664.774H771.693ZM817.963 664.774V759.73H867.491V779.574H795.987V664.774H817.963ZM931.781 664.774C946.213 664.774 957.365 668.218 965.237 675.106C973.219 681.994 977.209 691.725 977.209 704.298C977.209 717.418 973.219 727.641 965.237 734.966C957.365 742.182 946.213 745.79 931.781 745.79H906.689V779.574H884.713V664.774H931.781ZM930.633 726.438C938.943 726.438 945.284 724.634 949.657 721.026C954.14 717.418 956.381 712.061 956.381 704.954C956.381 697.957 954.14 692.709 949.657 689.21C945.284 685.712 938.943 683.962 930.633 683.962H906.689V726.438H930.633Z" fill="#1E7561"/>
</svg>
