<svg width="1200" height="630" viewBox="0 0 1200 630" fill="none" xmlns="http://www.w3.org/2000/svg">
<rect width="1200" height="630" fill="#1C947B"/>
<path d="M251.808 387.1C263.864 387.1 273.18 389.977 279.756 395.731C286.423 401.485 289.757 409.614 289.757 420.117C289.757 431.077 286.423 439.617 279.756 445.736C273.18 451.764 263.864 454.778 251.808 454.778H230.847V483H212.489V387.1H251.808ZM250.849 438.612C257.79 438.612 263.087 437.105 266.741 434.091C270.485 431.077 272.358 426.602 272.358 420.665C272.358 414.82 270.485 410.436 266.741 407.513C263.087 404.59 257.79 403.129 250.849 403.129H230.847V438.612H250.849ZM375.218 387.1V403.129H323.295V426.83H369.875V442.859H323.295V466.971H376.862V483H304.937V387.1H375.218ZM435.379 387.1C444.969 387.1 453.554 389.155 461.135 393.265C468.716 397.284 474.652 402.946 478.945 410.253C483.238 417.56 485.384 425.825 485.384 435.05C485.384 444.275 483.192 452.54 478.808 459.847C474.515 467.062 468.533 472.725 460.861 476.835C453.189 480.945 444.467 483 434.694 483H395.512V387.1H435.379ZM435.79 466.834C441.635 466.834 446.887 465.51 451.545 462.861C456.294 460.121 459.993 456.376 462.642 451.627C465.291 446.786 466.615 441.306 466.615 435.187C466.615 429.068 465.245 423.588 462.505 418.747C459.765 413.815 455.975 410.025 451.134 407.376C446.385 404.636 441.042 403.266 435.105 403.266H413.87V466.834H435.79ZM519.831 387.1V483H501.473V387.1H519.831ZM605.821 462.724H558.967L550.473 483H531.43L573.489 387.1H592.532L634.043 483H614.315L605.821 462.724ZM599.245 446.969L582.531 406.691L565.543 446.969H599.245ZM664.056 387.1V428.063H711.869V387.1H730.227V483H711.869V444.092H664.056V483H645.698V387.1H664.056ZM824.214 387.1V403.129H772.291V426.83H818.871V442.859H772.291V466.971H825.858V483H753.933V387.1H824.214ZM862.866 387.1V466.423H904.24V483H844.508V387.1H862.866ZM957.946 387.1C970.002 387.1 979.318 389.977 985.894 395.731C992.562 401.485 995.895 409.614 995.895 420.117C995.895 431.077 992.562 439.617 985.894 445.736C979.318 451.764 970.002 454.778 957.946 454.778H936.985V483H918.627V387.1H957.946ZM956.987 438.612C963.929 438.612 969.226 437.105 972.879 434.091C976.624 431.077 978.496 426.602 978.496 420.665C978.496 414.82 976.624 410.436 972.879 407.513C969.226 404.59 963.929 403.129 956.987 403.129H936.985V438.612H956.987Z" fill="white"/>
<path d="M256.803 520.449C262.866 520.449 267.543 521.859 270.832 524.679C274.123 527.499 275.768 531.494 275.768 536.664C275.768 541.975 274.123 546.087 270.832 549.001C267.543 551.868 262.866 553.302 256.803 553.302H242.421V569.728H239.46V520.449H256.803ZM256.733 550.411C261.903 550.411 265.898 549.236 268.718 546.886C271.538 544.489 272.948 541.105 272.948 536.734C272.948 532.41 271.538 529.097 268.718 526.794C265.898 524.491 261.903 523.339 256.733 523.339H242.421V550.411H256.733ZM299.107 532.927C302.632 532.927 305.687 533.75 308.272 535.395C310.904 536.993 312.878 539.249 314.194 542.163C315.557 545.077 316.215 548.414 316.168 552.174H284.091C284.232 555.135 284.96 557.743 286.276 559.999C287.592 562.255 289.378 564.018 291.634 565.287C293.89 566.509 296.428 567.12 299.248 567.12C301.739 567.12 304.042 566.697 306.157 565.851C308.319 564.958 310.152 563.689 311.656 562.044L313.348 563.947C311.609 565.827 309.518 567.284 307.074 568.318C304.63 569.305 301.974 569.799 299.107 569.799C295.676 569.799 292.598 569.023 289.872 567.472C287.146 565.874 285.007 563.689 283.456 560.916C281.952 558.096 281.2 554.923 281.2 551.398C281.2 547.873 281.976 544.701 283.527 541.881C285.078 539.061 287.193 536.875 289.872 535.324C292.598 533.726 295.676 532.927 299.107 532.927ZM313.489 549.565C313.207 545.335 311.774 541.951 309.189 539.413C306.604 536.875 303.243 535.606 299.107 535.606C294.971 535.606 291.54 536.899 288.814 539.484C286.088 542.022 284.537 545.382 284.161 549.565H313.489ZM359.235 517.417V569.728H356.274V560.14C354.864 563.195 352.796 565.592 350.07 567.331C347.344 569.07 344.195 569.94 340.623 569.94C337.192 569.94 334.113 569.141 331.387 567.543C328.661 565.945 326.523 563.759 324.972 560.986C323.468 558.166 322.716 554.97 322.716 551.398C322.716 547.826 323.468 544.63 324.972 541.81C326.523 538.99 328.638 536.781 331.317 535.183C334.043 533.585 337.121 532.786 340.552 532.786C344.171 532.786 347.344 533.656 350.07 535.395C352.796 537.134 354.864 539.531 356.274 542.586V517.417H359.235ZM340.975 567.19C343.889 567.19 346.498 566.509 348.801 565.146C351.151 563.783 352.984 561.903 354.3 559.506C355.616 557.109 356.274 554.406 356.274 551.398C356.274 548.39 355.616 545.688 354.3 543.291C352.984 540.894 351.151 539.014 348.801 537.651C346.498 536.288 343.889 535.606 340.975 535.606C338.061 535.606 335.429 536.288 333.079 537.651C330.776 539.014 328.943 540.894 327.58 543.291C326.264 545.688 325.606 548.39 325.606 551.398C325.606 554.406 326.264 557.109 327.58 559.506C328.896 561.903 330.706 563.783 333.009 565.146C335.359 566.509 338.014 567.19 340.975 567.19ZM377.128 532.998V569.728H374.237V532.998H377.128ZM375.718 519.885C376.376 519.885 376.94 520.143 377.41 520.66C377.927 521.13 378.185 521.718 378.185 522.423C378.185 523.175 377.927 523.809 377.41 524.326C376.94 524.796 376.376 525.031 375.718 525.031C375.06 525.031 374.472 524.796 373.955 524.326C373.485 523.809 373.25 523.175 373.25 522.423C373.25 521.718 373.485 521.13 373.955 520.66C374.472 520.143 375.06 519.885 375.718 519.885ZM415.48 569.728L415.409 562.467C413.905 564.958 411.884 566.814 409.346 568.036C406.855 569.211 403.988 569.799 400.745 569.799C398.348 569.799 396.233 569.329 394.4 568.389C392.567 567.449 391.134 566.18 390.1 564.582C389.113 562.937 388.619 561.08 388.619 559.012C388.619 555.957 389.841 553.56 392.285 551.821C394.729 550.035 398.066 549.142 402.296 549.142H415.339V545.547C415.292 542.398 414.352 539.954 412.519 538.215C410.686 536.476 407.96 535.606 404.341 535.606C402.132 535.606 400.04 536.029 398.066 536.875C396.092 537.674 394.071 538.849 392.003 540.4L390.593 538.144C392.99 536.405 395.293 535.113 397.502 534.267C399.711 533.374 402.132 532.927 404.764 532.927C409.041 532.927 412.331 534.032 414.634 536.241C416.984 538.45 418.182 541.481 418.229 545.335L418.37 569.728H415.48ZM401.168 567.12C404.693 567.12 407.678 566.344 410.122 564.793C412.566 563.242 414.328 560.892 415.409 557.743V551.751H402.578C398.959 551.751 396.186 552.362 394.259 553.584C392.379 554.806 391.439 556.592 391.439 558.942C391.439 561.386 392.309 563.36 394.048 564.864C395.834 566.368 398.207 567.12 401.168 567.12ZM449.135 567.19C446.55 568.929 443.942 569.799 441.31 569.799C438.678 569.799 436.657 568.953 435.247 567.261C433.837 565.522 433.132 562.96 433.132 559.576V536.452H427.774V533.914H433.132V524.82H435.952V533.914H448.43V536.452H435.952V559.224C435.952 564.347 437.855 566.908 441.662 566.908C443.824 566.908 445.939 566.203 448.007 564.793L449.135 567.19ZM461.055 542.233C462.23 539.272 463.969 537.016 466.272 535.465C468.622 533.867 471.442 533.021 474.732 532.927V535.959C470.737 535.959 467.541 537.204 465.144 539.695C462.747 542.139 461.384 545.523 461.055 549.847V569.728H458.094V532.998H461.055V542.233ZM485.632 532.998V569.728H482.741V532.998H485.632ZM484.222 519.885C484.88 519.885 485.444 520.143 485.914 520.66C486.431 521.13 486.689 521.718 486.689 522.423C486.689 523.175 486.431 523.809 485.914 524.326C485.444 524.796 484.88 525.031 484.222 525.031C483.564 525.031 482.976 524.796 482.459 524.326C481.989 523.809 481.754 523.175 481.754 522.423C481.754 521.718 481.989 521.13 482.459 520.66C482.976 520.143 483.564 519.885 484.222 519.885ZM525.817 540.189C522.621 537.228 518.837 535.747 514.466 535.747C511.552 535.747 508.944 536.405 506.641 537.721C504.338 539.037 502.528 540.894 501.212 543.291C499.943 545.641 499.309 548.32 499.309 551.328C499.309 554.383 499.943 557.109 501.212 559.506C502.528 561.903 504.338 563.759 506.641 565.075C508.944 566.391 511.552 567.049 514.466 567.049C516.91 567.049 519.166 566.603 521.234 565.71C523.302 564.817 525.041 563.548 526.451 561.903L528.214 563.806C526.569 565.733 524.548 567.214 522.151 568.248C519.801 569.282 517.216 569.799 514.396 569.799C510.965 569.799 507.886 569.023 505.16 567.472C502.434 565.874 500.296 563.689 498.745 560.916C497.194 558.096 496.418 554.923 496.418 551.398C496.418 547.873 497.194 544.701 498.745 541.881C500.296 539.061 502.434 536.875 505.16 535.324C507.886 533.726 510.965 532.927 514.396 532.927C517.028 532.927 519.448 533.374 521.657 534.267C523.913 535.16 525.864 536.429 527.509 538.074L525.817 540.189ZM551.508 520.449L570.19 566.203L588.943 520.449H592.186L571.741 569.728H568.639L548.194 520.449H551.508ZM602.948 532.998V569.728H600.058V532.998H602.948ZM601.538 519.885C602.196 519.885 602.76 520.143 603.23 520.66C603.747 521.13 604.006 521.718 604.006 522.423C604.006 523.175 603.747 523.809 603.23 524.326C602.76 524.796 602.196 525.031 601.538 525.031C600.88 525.031 600.293 524.796 599.776 524.326C599.306 523.809 599.071 523.175 599.071 522.423C599.071 521.718 599.306 521.13 599.776 520.66C600.293 520.143 600.88 519.885 601.538 519.885ZM620.644 542.233C621.819 539.272 623.558 537.016 625.861 535.465C628.211 533.867 631.031 533.021 634.321 532.927V535.959C630.326 535.959 627.13 537.204 624.733 539.695C622.336 542.139 620.973 545.523 620.644 549.847V569.728H617.683V532.998H620.644V542.233ZM659.603 567.19C657.018 568.929 654.409 569.799 651.777 569.799C649.145 569.799 647.124 568.953 645.714 567.261C644.304 565.522 643.599 562.96 643.599 559.576V536.452H638.241V533.914H643.599V524.82H646.419V533.914H658.898V536.452H646.419V559.224C646.419 564.347 648.323 566.908 652.13 566.908C654.292 566.908 656.407 566.203 658.475 564.793L659.603 567.19ZM699.017 532.998V569.728H696.127V559.929C694.952 563.125 693.095 565.569 690.557 567.261C688.066 568.906 685.011 569.752 681.392 569.799C676.974 569.799 673.52 568.53 671.029 565.992C668.585 563.454 667.363 559.929 667.363 555.417V532.998H670.253V554.853C670.253 558.613 671.287 561.55 673.355 563.665C675.423 565.78 678.314 566.838 682.027 566.838C686.445 566.744 689.899 565.287 692.39 562.467C694.881 559.647 696.127 555.816 696.127 550.975V532.998H699.017ZM737.343 569.728L737.272 562.467C735.768 564.958 733.747 566.814 731.209 568.036C728.718 569.211 725.851 569.799 722.608 569.799C720.211 569.799 718.096 569.329 716.263 568.389C714.43 567.449 712.997 566.18 711.963 564.582C710.976 562.937 710.482 561.08 710.482 559.012C710.482 555.957 711.704 553.56 714.148 551.821C716.592 550.035 719.929 549.142 724.159 549.142H737.202V545.547C737.155 542.398 736.215 539.954 734.382 538.215C732.549 536.476 729.823 535.606 726.204 535.606C723.995 535.606 721.903 536.029 719.929 536.875C717.955 537.674 715.934 538.849 713.866 540.4L712.456 538.144C714.853 536.405 717.156 535.113 719.365 534.267C721.574 533.374 723.995 532.927 726.627 532.927C730.904 532.927 734.194 534.032 736.497 536.241C738.847 538.45 740.045 541.481 740.092 545.335L740.233 569.728H737.343ZM723.031 567.12C726.556 567.12 729.541 566.344 731.985 564.793C734.429 563.242 736.191 560.892 737.272 557.743V551.751H724.441C720.822 551.751 718.049 552.362 716.122 553.584C714.242 554.806 713.302 556.592 713.302 558.942C713.302 561.386 714.172 563.36 715.911 564.864C717.697 566.368 720.07 567.12 723.031 567.12ZM757.039 517.417V569.728H754.078V517.417H757.039ZM824.196 529.05C822.128 527.123 819.755 525.619 817.076 524.538C814.397 523.457 811.6 522.916 808.686 522.916C804.597 522.916 800.814 523.903 797.336 525.877C793.905 527.851 791.179 530.53 789.158 533.914C787.137 537.298 786.126 540.988 786.126 544.983C786.126 548.978 787.137 552.667 789.158 556.051C791.179 559.435 793.905 562.138 797.336 564.159C800.814 566.133 804.597 567.12 808.686 567.12C811.6 567.12 814.373 566.603 817.005 565.569C819.684 564.488 822.081 562.984 824.196 561.057L826.029 563.101C823.726 565.263 821.047 566.955 817.992 568.177C814.984 569.399 811.859 570.01 808.616 570.01C804.01 570.01 799.756 568.906 795.855 566.697C791.954 564.441 788.852 561.409 786.549 557.602C784.293 553.748 783.165 549.565 783.165 545.053C783.165 540.541 784.293 536.382 786.549 532.575C788.852 528.721 791.954 525.689 795.855 523.48C799.756 521.224 804.01 520.096 808.616 520.096C811.859 520.096 814.961 520.684 817.922 521.859C820.93 523.034 823.609 524.679 825.959 526.794L824.196 529.05ZM840.138 517.417V569.728H837.177V517.417H840.138ZM858.029 532.998V569.728H855.138V532.998H858.029ZM856.619 519.885C857.277 519.885 857.841 520.143 858.311 520.66C858.828 521.13 859.086 521.718 859.086 522.423C859.086 523.175 858.828 523.809 858.311 524.326C857.841 524.796 857.277 525.031 856.619 525.031C855.961 525.031 855.373 524.796 854.856 524.326C854.386 523.809 854.151 523.175 854.151 522.423C854.151 521.718 854.386 521.13 854.856 520.66C855.373 520.143 855.961 519.885 856.619 519.885ZM890.741 532.927C895.206 532.927 898.684 534.22 901.175 536.805C903.713 539.343 904.982 542.844 904.982 547.309V569.728H902.021V547.873C902.021 544.113 900.963 541.176 898.848 539.061C896.733 536.946 893.796 535.888 890.036 535.888C885.853 535.982 882.492 537.275 879.954 539.766C877.463 542.21 876.053 545.57 875.724 549.847V569.728H872.763V532.998H875.724V542.374C876.946 539.366 878.826 537.063 881.364 535.465C883.949 533.867 887.075 533.021 890.741 532.927ZM921.368 532.998V569.728H918.478V532.998H921.368ZM919.958 519.885C920.616 519.885 921.18 520.143 921.65 520.66C922.167 521.13 922.426 521.718 922.426 522.423C922.426 523.175 922.167 523.809 921.65 524.326C921.18 524.796 920.616 525.031 919.958 525.031C919.3 525.031 918.713 524.796 918.196 524.326C917.726 523.809 917.491 523.175 917.491 522.423C917.491 521.718 917.726 521.13 918.196 520.66C918.713 520.143 919.3 519.885 919.958 519.885ZM961.553 540.189C958.357 537.228 954.574 535.747 950.203 535.747C947.289 535.747 944.68 536.405 942.377 537.721C940.074 539.037 938.265 540.894 936.949 543.291C935.68 545.641 935.045 548.32 935.045 551.328C935.045 554.383 935.68 557.109 936.949 559.506C938.265 561.903 940.074 563.759 942.377 565.075C944.68 566.391 947.289 567.049 950.203 567.049C952.647 567.049 954.903 566.603 956.971 565.71C959.039 564.817 960.778 563.548 962.188 561.903L963.95 563.806C962.305 565.733 960.284 567.214 957.887 568.248C955.537 569.282 952.952 569.799 950.132 569.799C946.701 569.799 943.623 569.023 940.897 567.472C938.171 565.874 936.032 563.689 934.481 560.916C932.93 558.096 932.155 554.923 932.155 551.398C932.155 547.873 932.93 544.701 934.481 541.881C936.032 539.061 938.171 536.875 940.897 535.324C943.623 533.726 946.701 532.927 950.132 532.927C952.764 532.927 955.185 533.374 957.394 534.267C959.65 535.16 961.6 536.429 963.245 538.074L961.553 540.189Z" fill="white"/>
<path d="M694.272 144.279C725.05 144.279 750 169.228 750 200.004C750 230.781 725.05 255.73 694.272 255.73H655.727V294.274C655.727 325.051 630.777 350 599.999 350C569.222 350 544.271 325.051 544.271 294.274V247.175C544.271 186.027 586.071 144.279 647.136 144.279H694.272Z" fill="#1E7561"/>
<path d="M505.728 255.721C474.95 255.721 450 230.772 450 199.996C450 169.219 474.95 144.27 505.728 144.27H544.273V105.726C544.273 74.9493 569.223 50 600.001 50C630.778 50 655.729 74.9493 655.729 105.726V152.825C655.729 213.973 613.929 255.721 552.864 255.721H505.728Z" fill="#B1D782"/>
<path d="M655.729 152.825C655.729 213.973 613.929 255.721 552.865 255.721H544.271V247.175C544.271 186.027 586.071 144.279 647.135 144.279H655.729V152.825Z" fill="#FFED8D"/>
</svg>
