<svg width="1200" height="400" viewBox="0 0 1200 400" fill="none" xmlns="http://www.w3.org/2000/svg">
<g clip-path="url(#clip0_344_706)">
<path d="M454.325 111.416C466.381 111.416 475.697 114.293 482.273 120.047C488.94 125.801 492.274 133.93 492.274 144.433C492.274 155.393 488.94 163.933 482.273 170.052C475.697 176.08 466.381 179.094 454.325 179.094H433.364V207.316H415.006V111.416H454.325ZM453.366 162.928C460.307 162.928 465.605 161.421 469.258 158.407C473.003 155.393 474.875 150.918 474.875 144.981C474.875 139.136 473.003 134.752 469.258 131.829C465.605 128.906 460.307 127.445 453.366 127.445H433.364V162.928H453.366ZM577.735 111.416V127.445H525.812V151.146H572.392V167.175H525.812V191.287H579.379V207.316H507.454V111.416H577.735ZM637.897 111.416C647.487 111.416 656.072 113.471 663.653 117.581C671.233 121.6 677.17 127.262 681.463 134.569C685.755 141.876 687.902 150.141 687.902 159.366C687.902 168.591 685.71 176.856 681.326 184.163C677.033 191.378 671.051 197.041 663.379 201.151C655.707 205.261 646.984 207.316 637.212 207.316H598.03V111.416H637.897ZM638.308 191.15C644.153 191.15 649.405 189.826 654.063 187.177C658.812 184.437 662.511 180.692 665.16 175.943C667.808 171.102 669.133 165.622 669.133 159.503C669.133 153.384 667.763 147.904 665.023 143.063C662.283 138.131 658.492 134.341 653.652 131.692C648.902 128.952 643.559 127.582 637.623 127.582H616.388V191.15H638.308ZM722.348 111.416V207.316H703.99V111.416H722.348ZM808.338 187.04H761.484L752.99 207.316H733.947L776.006 111.416H795.049L836.56 207.316H816.832L808.338 187.04ZM801.762 171.285L785.048 131.007L768.06 171.285H801.762ZM866.573 111.416V152.379H914.386V111.416H932.744V207.316H914.386V168.408H866.573V207.316H848.215V111.416H866.573ZM1026.73 111.416V127.445H974.808V151.146H1021.39V167.175H974.808V191.287H1028.38V207.316H956.45V111.416H1026.73ZM1065.38 111.416V190.739H1106.76V207.316H1047.03V111.416H1065.38ZM1160.46 111.416C1172.52 111.416 1181.84 114.293 1188.41 120.047C1195.08 125.801 1198.41 133.93 1198.41 144.433C1198.41 155.393 1195.08 163.933 1188.41 170.052C1181.84 176.08 1172.52 179.094 1160.46 179.094H1139.5V207.316H1121.14V111.416H1160.46ZM1159.5 162.928C1166.45 162.928 1171.74 161.421 1175.4 158.407C1179.14 155.393 1181.01 150.918 1181.01 144.981C1181.01 139.136 1179.14 134.752 1175.4 131.829C1171.74 128.906 1166.45 127.445 1159.5 127.445H1139.5V162.928H1159.5Z" fill="white"/>
<path d="M432.485 244.764C438.548 244.764 443.224 246.174 446.514 248.994C449.804 251.814 451.449 255.809 451.449 260.979C451.449 266.29 449.804 270.403 446.514 273.317C443.224 276.184 438.548 277.617 432.485 277.617H418.103V294.044H415.142V244.764H432.485ZM432.414 274.727C437.584 274.727 441.579 273.552 444.399 271.202C447.219 268.805 448.629 265.421 448.629 261.05C448.629 256.726 447.219 253.412 444.399 251.109C441.579 248.806 437.584 247.655 432.414 247.655H418.103V274.727H432.414ZM474.789 257.243C478.314 257.243 481.369 258.065 483.954 259.71C486.586 261.308 488.56 263.564 489.876 266.478C491.239 269.392 491.897 272.729 491.85 276.489H459.773C459.914 279.45 460.642 282.059 461.958 284.315C463.274 286.571 465.06 288.333 467.316 289.602C469.572 290.824 472.11 291.435 474.93 291.435C477.421 291.435 479.724 291.012 481.839 290.166C484.001 289.273 485.834 288.004 487.338 286.359L489.03 288.263C487.291 290.143 485.2 291.6 482.756 292.634C480.312 293.621 477.656 294.114 474.789 294.114C471.358 294.114 468.28 293.339 465.554 291.788C462.828 290.19 460.689 288.004 459.138 285.231C457.634 282.411 456.882 279.239 456.882 275.714C456.882 272.189 457.658 269.016 459.209 266.196C460.76 263.376 462.875 261.191 465.554 259.64C468.28 258.042 471.358 257.243 474.789 257.243ZM489.171 273.881C488.889 269.651 487.456 266.267 484.871 263.729C482.286 261.191 478.925 259.922 474.789 259.922C470.653 259.922 467.222 261.214 464.496 263.799C461.77 266.337 460.219 269.698 459.843 273.881H489.171ZM534.916 241.733V294.044H531.955V284.456C530.545 287.511 528.477 289.908 525.751 291.647C523.025 293.386 519.876 294.255 516.304 294.255C512.873 294.255 509.795 293.456 507.069 291.858C504.343 290.26 502.204 288.075 500.653 285.302C499.149 282.482 498.397 279.286 498.397 275.714C498.397 272.142 499.149 268.946 500.653 266.126C502.204 263.306 504.319 261.097 506.998 259.499C509.724 257.901 512.803 257.102 516.234 257.102C519.853 257.102 523.025 257.971 525.751 259.71C528.477 261.449 530.545 263.846 531.955 266.901V241.733H534.916ZM516.657 291.506C519.571 291.506 522.179 290.824 524.482 289.461C526.832 288.098 528.665 286.218 529.981 283.821C531.297 281.424 531.955 278.722 531.955 275.714C531.955 272.706 531.297 270.003 529.981 267.606C528.665 265.209 526.832 263.329 524.482 261.966C522.179 260.603 519.571 259.922 516.657 259.922C513.743 259.922 511.111 260.603 508.761 261.966C506.458 263.329 504.625 265.209 503.262 267.606C501.946 270.003 501.288 272.706 501.288 275.714C501.288 278.722 501.946 281.424 503.262 283.821C504.578 286.218 506.387 288.098 508.69 289.461C511.04 290.824 513.696 291.506 516.657 291.506ZM552.809 257.313V294.044H549.919V257.313H552.809ZM551.399 244.2C552.057 244.2 552.621 244.459 553.091 244.976C553.608 245.446 553.867 246.033 553.867 246.738C553.867 247.49 553.608 248.125 553.091 248.642C552.621 249.112 552.057 249.347 551.399 249.347C550.741 249.347 550.154 249.112 549.637 248.642C549.167 248.125 548.932 247.49 548.932 246.738C548.932 246.033 549.167 245.446 549.637 244.976C550.154 244.459 550.741 244.2 551.399 244.2ZM591.161 294.044L591.091 286.782C589.587 289.273 587.566 291.13 585.028 292.352C582.537 293.527 579.67 294.114 576.427 294.114C574.03 294.114 571.915 293.644 570.082 292.704C568.249 291.764 566.815 290.495 565.781 288.897C564.794 287.252 564.301 285.396 564.301 283.328C564.301 280.273 565.523 277.876 567.967 276.137C570.411 274.351 573.748 273.458 577.978 273.458H591.02V269.862C590.973 266.713 590.033 264.269 588.2 262.53C586.367 260.791 583.641 259.922 580.022 259.922C577.813 259.922 575.722 260.345 573.748 261.191C571.774 261.99 569.753 263.165 567.685 264.716L566.275 262.46C568.672 260.721 570.975 259.428 573.184 258.582C575.393 257.689 577.813 257.243 580.445 257.243C584.722 257.243 588.012 258.347 590.315 260.556C592.665 262.765 593.864 265.797 593.911 269.651L594.052 294.044H591.161ZM576.85 291.435C580.375 291.435 583.359 290.66 585.803 289.109C588.247 287.558 590.01 285.208 591.091 282.059V276.066H578.26C574.641 276.066 571.868 276.677 569.941 277.899C568.061 279.121 567.121 280.907 567.121 283.257C567.121 285.701 567.99 287.675 569.729 289.179C571.515 290.683 573.889 291.435 576.85 291.435ZM624.817 291.506C622.232 293.245 619.623 294.114 616.991 294.114C614.359 294.114 612.338 293.268 610.928 291.576C609.518 289.837 608.813 287.276 608.813 283.892V260.768H603.455V258.23H608.813V249.135H611.633V258.23H624.112V260.768H611.633V283.539C611.633 288.662 613.537 291.224 617.344 291.224C619.506 291.224 621.621 290.519 623.689 289.109L624.817 291.506ZM636.736 266.549C637.911 263.588 639.65 261.332 641.953 259.781C644.303 258.183 647.123 257.337 650.413 257.243V260.274C646.418 260.274 643.222 261.52 640.825 264.011C638.428 266.455 637.065 269.839 636.736 274.163V294.044H633.775V257.313H636.736V266.549ZM661.313 257.313V294.044H658.423V257.313H661.313ZM659.903 244.2C660.561 244.2 661.125 244.459 661.595 244.976C662.112 245.446 662.371 246.033 662.371 246.738C662.371 247.49 662.112 248.125 661.595 248.642C661.125 249.112 660.561 249.347 659.903 249.347C659.245 249.347 658.658 249.112 658.141 248.642C657.671 248.125 657.436 247.49 657.436 246.738C657.436 246.033 657.671 245.446 658.141 244.976C658.658 244.459 659.245 244.2 659.903 244.2ZM701.498 264.504C698.302 261.543 694.519 260.063 690.148 260.063C687.234 260.063 684.625 260.721 682.322 262.037C680.019 263.353 678.21 265.209 676.894 267.606C675.625 269.956 674.99 272.635 674.99 275.643C674.99 278.698 675.625 281.424 676.894 283.821C678.21 286.218 680.019 288.075 682.322 289.391C684.625 290.707 687.234 291.365 690.148 291.365C692.592 291.365 694.848 290.918 696.916 290.025C698.984 289.132 700.723 287.863 702.133 286.218L703.895 288.122C702.25 290.049 700.229 291.529 697.832 292.563C695.482 293.597 692.897 294.114 690.077 294.114C686.646 294.114 683.568 293.339 680.842 291.788C678.116 290.19 675.977 288.004 674.426 285.231C672.875 282.411 672.1 279.239 672.1 275.714C672.1 272.189 672.875 269.016 674.426 266.196C675.977 263.376 678.116 261.191 680.842 259.64C683.568 258.042 686.646 257.243 690.077 257.243C692.709 257.243 695.13 257.689 697.339 258.582C699.595 259.475 701.545 260.744 703.19 262.389L701.498 264.504ZM727.19 244.764L745.872 290.519L764.625 244.764H767.868L747.423 294.044H744.321L723.876 244.764H727.19ZM778.63 257.313V294.044H775.739V257.313H778.63ZM777.22 244.2C777.878 244.2 778.442 244.459 778.912 244.976C779.429 245.446 779.687 246.033 779.687 246.738C779.687 247.49 779.429 248.125 778.912 248.642C778.442 249.112 777.878 249.347 777.22 249.347C776.562 249.347 775.974 249.112 775.457 248.642C774.987 248.125 774.752 247.49 774.752 246.738C774.752 246.033 774.987 245.446 775.457 244.976C775.974 244.459 776.562 244.2 777.22 244.2ZM796.325 266.549C797.5 263.588 799.239 261.332 801.542 259.781C803.892 258.183 806.712 257.337 810.002 257.243V260.274C806.007 260.274 802.811 261.52 800.414 264.011C798.017 266.455 796.654 269.839 796.325 274.163V294.044H793.364V257.313H796.325V266.549ZM835.284 291.506C832.699 293.245 830.091 294.114 827.459 294.114C824.827 294.114 822.806 293.268 821.396 291.576C819.986 289.837 819.281 287.276 819.281 283.892V260.768H813.923V258.23H819.281V249.135H822.101V258.23H834.579V260.768H822.101V283.539C822.101 288.662 824.004 291.224 827.811 291.224C829.973 291.224 832.088 290.519 834.156 289.109L835.284 291.506ZM874.699 257.313V294.044H871.808V284.244C870.633 287.44 868.777 289.884 866.239 291.576C863.748 293.221 860.693 294.067 857.074 294.114C852.656 294.114 849.201 292.845 846.71 290.307C844.266 287.769 843.044 284.244 843.044 279.732V257.313H845.935V279.168C845.935 282.928 846.969 285.866 849.037 287.981C851.105 290.096 853.995 291.153 857.708 291.153C862.126 291.059 865.581 289.602 868.072 286.782C870.563 283.962 871.808 280.132 871.808 275.291V257.313H874.699ZM913.024 294.044L912.954 286.782C911.45 289.273 909.429 291.13 906.891 292.352C904.4 293.527 901.533 294.114 898.29 294.114C895.893 294.114 893.778 293.644 891.945 292.704C890.112 291.764 888.678 290.495 887.644 288.897C886.657 287.252 886.164 285.396 886.164 283.328C886.164 280.273 887.386 277.876 889.83 276.137C892.274 274.351 895.611 273.458 899.841 273.458H912.883V269.862C912.836 266.713 911.896 264.269 910.063 262.53C908.23 260.791 905.504 259.922 901.885 259.922C899.676 259.922 897.585 260.345 895.611 261.191C893.637 261.99 891.616 263.165 889.548 264.716L888.138 262.46C890.535 260.721 892.838 259.428 895.047 258.582C897.256 257.689 899.676 257.243 902.308 257.243C906.585 257.243 909.875 258.347 912.178 260.556C914.528 262.765 915.727 265.797 915.774 269.651L915.915 294.044H913.024ZM898.713 291.435C902.238 291.435 905.222 290.66 907.666 289.109C910.11 287.558 911.873 285.208 912.954 282.059V276.066H900.123C896.504 276.066 893.731 276.677 891.804 277.899C889.924 279.121 888.984 280.907 888.984 283.257C888.984 285.701 889.853 287.675 891.592 289.179C893.378 290.683 895.752 291.435 898.713 291.435ZM932.721 241.733V294.044H929.76V241.733H932.721ZM999.878 253.365C997.81 251.438 995.437 249.934 992.758 248.853C990.079 247.772 987.282 247.232 984.368 247.232C980.279 247.232 976.496 248.219 973.018 250.193C969.587 252.167 966.861 254.846 964.84 258.23C962.819 261.614 961.808 265.303 961.808 269.298C961.808 273.293 962.819 276.983 964.84 280.367C966.861 283.751 969.587 286.453 973.018 288.474C976.496 290.448 980.279 291.435 984.368 291.435C987.282 291.435 990.055 290.918 992.687 289.884C995.366 288.803 997.763 287.299 999.878 285.372L1001.71 287.417C999.408 289.579 996.729 291.271 993.674 292.493C990.666 293.715 987.541 294.326 984.298 294.326C979.692 294.326 975.438 293.221 971.537 291.012C967.636 288.756 964.534 285.725 962.231 281.918C959.975 278.064 958.847 273.881 958.847 269.369C958.847 264.857 959.975 260.697 962.231 256.89C964.534 253.036 967.636 250.005 971.537 247.796C975.438 245.54 979.692 244.412 984.298 244.412C987.541 244.412 990.643 244.999 993.604 246.174C996.612 247.349 999.291 248.994 1001.64 251.109L999.878 253.365ZM1015.82 241.733V294.044H1012.86V241.733H1015.82ZM1033.71 257.313V294.044H1030.82V257.313H1033.71ZM1032.3 244.2C1032.96 244.2 1033.52 244.459 1033.99 244.976C1034.51 245.446 1034.77 246.033 1034.77 246.738C1034.77 247.49 1034.51 248.125 1033.99 248.642C1033.52 249.112 1032.96 249.347 1032.3 249.347C1031.64 249.347 1031.05 249.112 1030.54 248.642C1030.07 248.125 1029.83 247.49 1029.83 246.738C1029.83 246.033 1030.07 245.446 1030.54 244.976C1031.05 244.459 1031.64 244.2 1032.3 244.2ZM1066.42 257.243C1070.89 257.243 1074.37 258.535 1076.86 261.12C1079.39 263.658 1080.66 267.16 1080.66 271.625V294.044H1077.7V272.189C1077.7 268.429 1076.64 265.491 1074.53 263.376C1072.41 261.261 1069.48 260.204 1065.72 260.204C1061.53 260.298 1058.17 261.59 1055.64 264.081C1053.14 266.525 1051.73 269.886 1051.41 274.163V294.044H1048.44V257.313H1051.41V266.69C1052.63 263.682 1054.51 261.379 1057.05 259.781C1059.63 258.183 1062.76 257.337 1066.42 257.243ZM1097.05 257.313V294.044H1094.16V257.313H1097.05ZM1095.64 244.2C1096.3 244.2 1096.86 244.459 1097.33 244.976C1097.85 245.446 1098.11 246.033 1098.11 246.738C1098.11 247.49 1097.85 248.125 1097.33 248.642C1096.86 249.112 1096.3 249.347 1095.64 249.347C1094.98 249.347 1094.39 249.112 1093.88 248.642C1093.41 248.125 1093.17 247.49 1093.17 246.738C1093.17 246.033 1093.41 245.446 1093.88 244.976C1094.39 244.459 1094.98 244.2 1095.64 244.2ZM1137.24 264.504C1134.04 261.543 1130.26 260.063 1125.88 260.063C1122.97 260.063 1120.36 260.721 1118.06 262.037C1115.76 263.353 1113.95 265.209 1112.63 267.606C1111.36 269.956 1110.73 272.635 1110.73 275.643C1110.73 278.698 1111.36 281.424 1112.63 283.821C1113.95 286.218 1115.76 288.075 1118.06 289.391C1120.36 290.707 1122.97 291.365 1125.88 291.365C1128.33 291.365 1130.58 290.918 1132.65 290.025C1134.72 289.132 1136.46 287.863 1137.87 286.218L1139.63 288.122C1137.99 290.049 1135.97 291.529 1133.57 292.563C1131.22 293.597 1128.63 294.114 1125.81 294.114C1122.38 294.114 1119.3 293.339 1116.58 291.788C1113.85 290.19 1111.71 288.004 1110.16 285.231C1108.61 282.411 1107.84 279.239 1107.84 275.714C1107.84 272.189 1108.61 269.016 1110.16 266.196C1111.71 263.376 1113.85 261.191 1116.58 259.64C1119.3 258.042 1122.38 257.243 1125.81 257.243C1128.45 257.243 1130.87 257.689 1133.08 258.582C1135.33 259.475 1137.28 260.744 1138.93 262.389L1137.24 264.504Z" fill="white"/>
<path d="M294.188 136.458C324.966 136.458 349.916 161.408 349.916 192.184C349.916 222.961 324.966 247.91 294.188 247.91H255.643V286.454C255.643 317.231 230.693 342.18 199.915 342.18C169.138 342.18 144.188 317.231 144.188 286.454V239.355C144.188 178.207 185.987 136.458 247.052 136.458H294.188Z" fill="#1E7561"/>
<path d="M105.644 247.901C74.8663 247.901 49.9161 222.952 49.916 192.176C49.916 161.399 74.8662 136.45 105.644 136.45H144.189V97.9057C144.189 67.1292 169.139 42.1799 199.917 42.1799C230.694 42.1799 255.645 67.1292 255.645 97.9057V145.005C255.645 206.153 213.845 247.901 152.781 247.901H105.644Z" fill="#B1D782"/>
<path d="M255.645 145.005C255.645 206.153 213.846 247.901 152.781 247.901H144.188V239.355C144.188 178.207 185.987 136.459 247.051 136.458H255.645V145.005Z" fill="#FFED8D"/>
</g>
<defs>
<clipPath id="clip0_344_706">
<rect width="1200" height="400" fill="white"/>
</clipPath>
</defs>
</svg>
