<svg width="1000" height="1000" viewBox="0 0 1000 1000" fill="none" xmlns="http://www.w3.org/2000/svg">
<path d="M657.118 232.884C708.414 232.884 749.997 274.467 749.998 325.761C749.998 377.055 708.414 418.637 657.118 418.637H592.877V482.877C592.877 534.171 551.293 575.753 499.997 575.753C448.701 575.753 407.117 534.171 407.117 482.877V404.379C407.117 302.465 476.783 232.884 578.557 232.884H657.118Z" fill="#1E7561"/>
<path d="M342.882 418.622C291.586 418.622 250.003 377.04 250.002 325.746C250.002 274.452 291.586 232.87 342.882 232.87H407.123V168.63C407.123 117.335 448.707 75.7532 500.003 75.7532C551.299 75.7532 592.883 117.335 592.883 168.63V247.128C592.883 349.042 523.217 418.622 421.443 418.622H342.882Z" fill="#B1D782"/>
<path d="M592.88 247.128C592.88 349.042 523.214 418.622 421.44 418.622H407.117V404.379C407.117 302.465 476.783 232.884 578.557 232.884H592.88V247.128Z" fill="#FFED8D"/>
<path d="M120.563 828.136C127.271 828.136 132.445 829.696 136.085 832.816C139.725 835.936 141.545 840.356 141.545 846.076C141.545 851.952 139.725 856.502 136.085 859.726C132.445 862.898 127.271 864.484 120.563 864.484H104.651V882.658H101.375V828.136H120.563ZM120.485 861.286C126.205 861.286 130.625 859.986 133.745 857.386C136.865 854.734 138.425 850.99 138.425 846.154C138.425 841.37 136.865 837.704 133.745 835.156C130.625 832.608 126.205 831.334 120.485 831.334H104.651V861.286H120.485ZM167.368 841.942C171.268 841.942 174.648 842.852 177.508 844.672C180.42 846.44 182.604 848.936 184.06 852.16C185.568 855.384 186.296 859.076 186.244 863.236H150.754C150.91 866.512 151.716 869.398 153.172 871.894C154.628 874.39 156.604 876.34 159.1 877.744C161.596 879.096 164.404 879.772 167.524 879.772C170.28 879.772 172.828 879.304 175.168 878.368C177.56 877.38 179.588 875.976 181.252 874.156L183.124 876.262C181.2 878.342 178.886 879.954 176.182 881.098C173.478 882.19 170.54 882.736 167.368 882.736C163.572 882.736 160.166 881.878 157.15 880.162C154.134 878.394 151.768 875.976 150.052 872.908C148.388 869.788 147.556 866.278 147.556 862.378C147.556 858.478 148.414 854.968 150.13 851.848C151.846 848.728 154.186 846.31 157.15 844.594C160.166 842.826 163.572 841.942 167.368 841.942ZM183.28 860.35C182.968 855.67 181.382 851.926 178.522 849.118C175.662 846.31 171.944 844.906 167.368 844.906C162.792 844.906 158.996 846.336 155.98 849.196C152.964 852.004 151.248 855.722 150.832 860.35H183.28ZM233.891 824.782V882.658H230.615V872.05C229.055 875.43 226.767 878.082 223.751 880.006C220.735 881.93 217.251 882.892 213.299 882.892C209.503 882.892 206.097 882.008 203.081 880.24C200.065 878.472 197.699 876.054 195.983 872.986C194.319 869.866 193.487 866.33 193.487 862.378C193.487 858.426 194.319 854.89 195.983 851.77C197.699 848.65 200.039 846.206 203.003 844.438C206.019 842.67 209.425 841.786 213.221 841.786C217.225 841.786 220.735 842.748 223.751 844.672C226.767 846.596 229.055 849.248 230.615 852.628V824.782H233.891ZM213.689 879.85C216.913 879.85 219.799 879.096 222.347 877.588C224.947 876.08 226.975 874 228.431 871.348C229.887 868.696 230.615 865.706 230.615 862.378C230.615 859.05 229.887 856.06 228.431 853.408C226.975 850.756 224.947 848.676 222.347 847.168C219.799 845.66 216.913 844.906 213.689 844.906C210.465 844.906 207.553 845.66 204.953 847.168C202.405 848.676 200.377 850.756 198.869 853.408C197.413 856.06 196.685 859.05 196.685 862.378C196.685 865.706 197.413 868.696 198.869 871.348C200.325 874 202.327 876.08 204.875 877.588C207.475 879.096 210.413 879.85 213.689 879.85ZM253.688 842.02V882.658H250.49V842.02H253.688ZM252.128 827.512C252.856 827.512 253.48 827.798 254 828.37C254.572 828.89 254.858 829.54 254.858 830.32C254.858 831.152 254.572 831.854 254 832.426C253.48 832.946 252.856 833.206 252.128 833.206C251.4 833.206 250.75 832.946 250.178 832.426C249.658 831.854 249.398 831.152 249.398 830.32C249.398 829.54 249.658 828.89 250.178 828.37C250.75 827.798 251.4 827.512 252.128 827.512ZM296.12 882.658L296.042 874.624C294.378 877.38 292.142 879.434 289.334 880.786C286.578 882.086 283.406 882.736 279.818 882.736C277.166 882.736 274.826 882.216 272.798 881.176C270.77 880.136 269.184 878.732 268.04 876.964C266.948 875.144 266.402 873.09 266.402 870.802C266.402 867.422 267.754 864.77 270.458 862.846C273.162 860.87 276.854 859.882 281.534 859.882H295.964V855.904C295.912 852.42 294.872 849.716 292.844 847.792C290.816 845.868 287.8 844.906 283.796 844.906C281.352 844.906 279.038 845.374 276.854 846.31C274.67 847.194 272.434 848.494 270.146 850.21L268.586 847.714C271.238 845.79 273.786 844.36 276.23 843.424C278.674 842.436 281.352 841.942 284.264 841.942C288.996 841.942 292.636 843.164 295.184 845.608C297.784 848.052 299.11 851.406 299.162 855.67L299.318 882.658H296.12ZM280.286 879.772C284.186 879.772 287.488 878.914 290.192 877.198C292.896 875.482 294.846 872.882 296.042 869.398V862.768H281.846C277.842 862.768 274.774 863.444 272.642 864.796C270.562 866.148 269.522 868.124 269.522 870.724C269.522 873.428 270.484 875.612 272.408 877.276C274.384 878.94 277.01 879.772 280.286 879.772ZM333.356 879.85C330.496 881.774 327.61 882.736 324.698 882.736C321.786 882.736 319.55 881.8 317.99 879.928C316.43 878.004 315.65 875.17 315.65 871.426V845.842H309.722V843.034H315.65V832.972H318.77V843.034H332.576V845.842H318.77V871.036C318.77 876.704 320.876 879.538 325.088 879.538C327.48 879.538 329.82 878.758 332.108 877.198L333.356 879.85ZM346.543 852.238C347.843 848.962 349.767 846.466 352.315 844.75C354.915 842.982 358.035 842.046 361.675 841.942V845.296C357.255 845.296 353.719 846.674 351.067 849.43C348.415 852.134 346.907 855.878 346.543 860.662V882.658H343.267V842.02H346.543V852.238ZM373.735 842.02V882.658H370.537V842.02H373.735ZM372.175 827.512C372.903 827.512 373.527 827.798 374.047 828.37C374.619 828.89 374.905 829.54 374.905 830.32C374.905 831.152 374.619 831.854 374.047 832.426C373.527 832.946 372.903 833.206 372.175 833.206C371.447 833.206 370.797 832.946 370.225 832.426C369.705 831.854 369.445 831.152 369.445 830.32C369.445 829.54 369.705 828.89 370.225 828.37C370.797 827.798 371.447 827.512 372.175 827.512ZM418.195 849.976C414.659 846.7 410.473 845.062 405.637 845.062C402.413 845.062 399.527 845.79 396.979 847.246C394.431 848.702 392.429 850.756 390.973 853.408C389.569 856.008 388.867 858.972 388.867 862.3C388.867 865.68 389.569 868.696 390.973 871.348C392.429 874 394.431 876.054 396.979 877.51C399.527 878.966 402.413 879.694 405.637 879.694C408.341 879.694 410.837 879.2 413.125 878.212C415.413 877.224 417.337 875.82 418.897 874L420.847 876.106C419.027 878.238 416.791 879.876 414.139 881.02C411.539 882.164 408.679 882.736 405.559 882.736C401.763 882.736 398.357 881.878 395.341 880.162C392.325 878.394 389.959 875.976 388.243 872.908C386.527 869.788 385.669 866.278 385.669 862.378C385.669 858.478 386.527 854.968 388.243 851.848C389.959 848.728 392.325 846.31 395.341 844.594C398.357 842.826 401.763 841.942 405.559 841.942C408.471 841.942 411.149 842.436 413.593 843.424C416.089 844.412 418.247 845.816 420.067 847.636L418.195 849.976ZM446.619 828.136L467.289 878.758L488.037 828.136H491.625L469.005 882.658H465.573L442.953 828.136H446.619ZM503.532 842.02V882.658H500.334V842.02H503.532ZM501.972 827.512C502.7 827.512 503.324 827.798 503.844 828.37C504.416 828.89 504.702 829.54 504.702 830.32C504.702 831.152 504.416 831.854 503.844 832.426C503.324 832.946 502.7 833.206 501.972 833.206C501.244 833.206 500.594 832.946 500.022 832.426C499.502 831.854 499.242 831.152 499.242 830.32C499.242 829.54 499.502 828.89 500.022 828.37C500.594 827.798 501.244 827.512 501.972 827.512ZM523.11 852.238C524.41 848.962 526.334 846.466 528.882 844.75C531.482 842.982 534.602 842.046 538.242 841.942V845.296C533.822 845.296 530.286 846.674 527.634 849.43C524.982 852.134 523.474 855.878 523.11 860.662V882.658H519.834V842.02H523.11V852.238ZM566.213 879.85C563.353 881.774 560.467 882.736 557.555 882.736C554.643 882.736 552.407 881.8 550.847 879.928C549.287 878.004 548.507 875.17 548.507 871.426V845.842H542.579V843.034H548.507V832.972H551.627V843.034H565.433V845.842H551.627V871.036C551.627 876.704 553.733 879.538 557.945 879.538C560.337 879.538 562.677 878.758 564.965 877.198L566.213 879.85ZM609.821 842.02V882.658H606.623V871.816C605.323 875.352 603.269 878.056 600.461 879.928C597.705 881.748 594.325 882.684 590.321 882.736C585.433 882.736 581.611 881.332 578.855 878.524C576.151 875.716 574.799 871.816 574.799 866.824V842.02H577.997V866.2C577.997 870.36 579.141 873.61 581.429 875.95C583.717 878.29 586.915 879.46 591.023 879.46C595.911 879.356 599.733 877.744 602.489 874.624C605.245 871.504 606.623 867.266 606.623 861.91V842.02H609.821ZM652.223 882.658L652.145 874.624C650.481 877.38 648.245 879.434 645.437 880.786C642.681 882.086 639.509 882.736 635.921 882.736C633.269 882.736 630.929 882.216 628.901 881.176C626.873 880.136 625.287 878.732 624.143 876.964C623.051 875.144 622.505 873.09 622.505 870.802C622.505 867.422 623.857 864.77 626.561 862.846C629.265 860.87 632.957 859.882 637.637 859.882H652.067V855.904C652.015 852.42 650.975 849.716 648.947 847.792C646.919 845.868 643.903 844.906 639.899 844.906C637.455 844.906 635.141 845.374 632.957 846.31C630.773 847.194 628.537 848.494 626.249 850.21L624.689 847.714C627.341 845.79 629.889 844.36 632.333 843.424C634.777 842.436 637.455 841.942 640.367 841.942C645.099 841.942 648.739 843.164 651.287 845.608C653.887 848.052 655.213 851.406 655.265 855.67L655.421 882.658H652.223ZM636.389 879.772C640.289 879.772 643.591 878.914 646.295 877.198C648.999 875.482 650.949 872.882 652.145 869.398V862.768H637.949C633.945 862.768 630.877 863.444 628.745 864.796C626.665 866.148 625.625 868.124 625.625 870.724C625.625 873.428 626.587 875.612 628.511 877.276C630.487 878.94 633.113 879.772 636.389 879.772ZM674.015 824.782V882.658H670.739V824.782H674.015ZM748.317 837.652C746.029 835.52 743.403 833.856 740.439 832.66C737.475 831.464 734.381 830.866 731.157 830.866C726.633 830.866 722.447 831.958 718.599 834.142C714.803 836.326 711.787 839.29 709.551 843.034C707.315 846.778 706.197 850.86 706.197 855.28C706.197 859.7 707.315 863.782 709.551 867.526C711.787 871.27 714.803 874.26 718.599 876.496C722.447 878.68 726.633 879.772 731.157 879.772C734.381 879.772 737.449 879.2 740.361 878.056C743.325 876.86 745.977 875.196 748.317 873.064L750.345 875.326C747.797 877.718 744.833 879.59 741.453 880.942C738.125 882.294 734.667 882.97 731.079 882.97C725.983 882.97 721.277 881.748 716.961 879.304C712.645 876.808 709.213 873.454 706.665 869.242C704.169 864.978 702.921 860.35 702.921 855.358C702.921 850.366 704.169 845.764 706.665 841.552C709.213 837.288 712.645 833.934 716.961 831.49C721.277 828.994 725.983 827.746 731.079 827.746C734.667 827.746 738.099 828.396 741.375 829.696C744.703 830.996 747.667 832.816 750.267 835.156L748.317 837.652ZM765.955 824.782V882.658H762.679V824.782H765.955ZM785.748 842.02V882.658H782.55V842.02H785.748ZM784.188 827.512C784.916 827.512 785.54 827.798 786.06 828.37C786.632 828.89 786.918 829.54 786.918 830.32C786.918 831.152 786.632 831.854 786.06 832.426C785.54 832.946 784.916 833.206 784.188 833.206C783.46 833.206 782.81 832.946 782.238 832.426C781.718 831.854 781.458 831.152 781.458 830.32C781.458 829.54 781.718 828.89 782.238 828.37C782.81 827.798 783.46 827.512 784.188 827.512ZM821.94 841.942C826.88 841.942 830.728 843.372 833.484 846.232C836.292 849.04 837.696 852.914 837.696 857.854V882.658H834.42V858.478C834.42 854.318 833.25 851.068 830.91 848.728C828.57 846.388 825.32 845.218 821.16 845.218C816.532 845.322 812.814 846.752 810.006 849.508C807.25 852.212 805.69 855.93 805.326 860.662V882.658H802.05V842.02H805.326V852.394C806.678 849.066 808.758 846.518 811.566 844.75C814.426 842.982 817.884 842.046 821.94 841.942ZM855.827 842.02V882.658H852.629V842.02H855.827ZM854.267 827.512C854.995 827.512 855.619 827.798 856.139 828.37C856.711 828.89 856.997 829.54 856.997 830.32C856.997 831.152 856.711 831.854 856.139 832.426C855.619 832.946 854.995 833.206 854.267 833.206C853.539 833.206 852.889 832.946 852.317 832.426C851.797 831.854 851.537 831.152 851.537 830.32C851.537 829.54 851.797 828.89 852.317 828.37C852.889 827.798 853.539 827.512 854.267 827.512ZM900.287 849.976C896.751 846.7 892.565 845.062 887.729 845.062C884.505 845.062 881.619 845.79 879.071 847.246C876.523 848.702 874.521 850.756 873.065 853.408C871.661 856.008 870.959 858.972 870.959 862.3C870.959 865.68 871.661 868.696 873.065 871.348C874.521 874 876.523 876.054 879.071 877.51C881.619 878.966 884.505 879.694 887.729 879.694C890.433 879.694 892.929 879.2 895.217 878.212C897.505 877.224 899.429 875.82 900.989 874L902.939 876.106C901.119 878.238 898.883 879.876 896.231 881.02C893.631 882.164 890.771 882.736 887.651 882.736C883.855 882.736 880.449 881.878 877.433 880.162C874.417 878.394 872.051 875.976 870.335 872.908C868.619 869.788 867.761 866.278 867.761 862.378C867.761 858.478 868.619 854.968 870.335 851.848C872.051 848.728 874.417 846.31 877.433 844.594C880.449 842.826 883.855 841.942 887.651 841.942C890.563 841.942 893.241 842.436 895.685 843.424C898.181 844.412 900.339 845.816 902.159 847.636L900.287 849.976Z" fill="black"/>
<path d="M86.4767 664.774C100.909 664.774 112.061 668.218 119.933 675.106C127.914 681.994 131.905 691.725 131.905 704.298C131.905 717.418 127.914 727.641 119.933 734.966C112.061 742.182 100.909 745.79 86.4767 745.79H61.3847V779.574H39.4087V664.774H86.4767ZM85.3287 726.438C93.638 726.438 99.9794 724.634 104.353 721.026C108.835 717.418 111.077 712.061 111.077 704.954C111.077 697.957 108.835 692.709 104.353 689.21C99.9794 685.712 93.638 683.962 85.3287 683.962H61.3847V726.438H85.3287ZM234.209 664.774V683.962H172.053V712.334H227.813V731.522H172.053V760.386H236.177V779.574H150.077V664.774H234.209ZM306.226 664.774C317.706 664.774 327.984 667.234 337.058 672.154C346.133 676.965 353.24 683.744 358.378 692.49C363.517 701.237 366.086 711.132 366.086 722.174C366.086 733.217 363.462 743.112 358.214 751.858C353.076 760.496 345.914 767.274 336.73 772.194C327.546 777.114 317.105 779.574 305.406 779.574H258.502V664.774H306.226ZM306.718 760.222C313.716 760.222 320.002 758.637 325.578 755.466C331.264 752.186 335.692 747.704 338.862 742.018C342.033 736.224 343.618 729.664 343.618 722.338C343.618 715.013 341.978 708.453 338.698 702.658C335.418 696.754 330.881 692.217 325.086 689.046C319.401 685.766 313.005 684.126 305.898 684.126H280.478V760.222H306.718ZM407.322 664.774V779.574H385.346V664.774H407.322ZM510.259 755.302H454.171L444.003 779.574H421.207L471.555 664.774H494.351L544.043 779.574H520.427L510.259 755.302ZM502.387 736.442L482.379 688.226L462.043 736.442H502.387ZM579.971 664.774V713.81H637.207V664.774H659.183V779.574H637.207V732.998H579.971V779.574H557.995V664.774H579.971ZM771.693 664.774V683.962H709.537V712.334H765.297V731.522H709.537V760.386H773.661V779.574H687.561V664.774H771.693ZM817.963 664.774V759.73H867.491V779.574H795.987V664.774H817.963ZM931.781 664.774C946.213 664.774 957.365 668.218 965.237 675.106C973.219 681.994 977.209 691.725 977.209 704.298C977.209 717.418 973.219 727.641 965.237 734.966C957.365 742.182 946.213 745.79 931.781 745.79H906.689V779.574H884.713V664.774H931.781ZM930.633 726.438C938.943 726.438 945.284 724.634 949.657 721.026C954.14 717.418 956.381 712.061 956.381 704.954C956.381 697.957 954.14 692.709 949.657 689.21C945.284 685.712 938.943 683.962 930.633 683.962H906.689V726.438H930.633Z" fill="black"/>
</svg>
