<svg width="1001" height="1001" viewBox="0 0 1001 1001" fill="none" xmlns="http://www.w3.org/2000/svg">
<path d="M257.33 804.639C261.63 804.639 264.947 805.639 267.28 807.639C269.614 809.639 270.78 812.472 270.78 816.139C270.78 819.906 269.614 822.822 267.28 824.889C264.947 826.922 261.63 827.939 257.33 827.939H247.13V839.589H245.03V804.639H257.33ZM257.28 825.889C260.947 825.889 263.78 825.056 265.78 823.389C267.78 821.689 268.78 819.289 268.78 816.189C268.78 813.122 267.78 810.772 265.78 809.139C263.78 807.506 260.947 806.689 257.28 806.689H247.13V825.889H257.28ZM287.333 813.489C289.833 813.489 292 814.072 293.833 815.239C295.7 816.372 297.1 817.972 298.033 820.039C299 822.106 299.467 824.472 299.433 827.139H276.683C276.783 829.239 277.3 831.089 278.233 832.689C279.167 834.289 280.433 835.539 282.033 836.439C283.633 837.306 285.433 837.739 287.433 837.739C289.2 837.739 290.833 837.439 292.333 836.839C293.867 836.206 295.167 835.306 296.233 834.139L297.433 835.489C296.2 836.822 294.717 837.856 292.983 838.589C291.25 839.289 289.367 839.639 287.333 839.639C284.9 839.639 282.717 839.089 280.783 837.989C278.85 836.856 277.333 835.306 276.233 833.339C275.167 831.339 274.633 829.089 274.633 826.589C274.633 824.089 275.183 821.839 276.283 819.839C277.383 817.839 278.883 816.289 280.783 815.189C282.717 814.056 284.9 813.489 287.333 813.489ZM297.533 825.289C297.333 822.289 296.317 819.889 294.483 818.089C292.65 816.289 290.267 815.389 287.333 815.389C284.4 815.389 281.967 816.306 280.033 818.139C278.1 819.939 277 822.322 276.733 825.289H297.533ZM329.977 802.489V839.589H327.877V832.789C326.877 834.956 325.41 836.656 323.477 837.889C321.543 839.122 319.31 839.739 316.777 839.739C314.343 839.739 312.16 839.172 310.227 838.039C308.293 836.906 306.777 835.356 305.677 833.389C304.61 831.389 304.077 829.122 304.077 826.589C304.077 824.056 304.61 821.789 305.677 819.789C306.777 817.789 308.277 816.222 310.177 815.089C312.11 813.956 314.293 813.389 316.727 813.389C319.293 813.389 321.543 814.006 323.477 815.239C325.41 816.472 326.877 818.172 327.877 820.339V802.489H329.977ZM317.027 837.789C319.093 837.789 320.943 837.306 322.577 836.339C324.243 835.372 325.543 834.039 326.477 832.339C327.41 830.639 327.877 828.722 327.877 826.589C327.877 824.456 327.41 822.539 326.477 820.839C325.543 819.139 324.243 817.806 322.577 816.839C320.943 815.872 319.093 815.389 317.027 815.389C314.96 815.389 313.093 815.872 311.427 816.839C309.793 817.806 308.493 819.139 307.527 820.839C306.593 822.539 306.127 824.456 306.127 826.589C306.127 828.722 306.593 830.639 307.527 832.339C308.46 834.039 309.743 835.372 311.377 836.339C313.043 837.306 314.927 837.789 317.027 837.789ZM342.667 813.539V839.589H340.617V813.539H342.667ZM341.667 804.239C342.134 804.239 342.534 804.422 342.867 804.789C343.234 805.122 343.417 805.539 343.417 806.039C343.417 806.572 343.234 807.022 342.867 807.389C342.534 807.722 342.134 807.889 341.667 807.889C341.2 807.889 340.784 807.722 340.417 807.389C340.084 807.022 339.917 806.572 339.917 806.039C339.917 805.539 340.084 805.122 340.417 804.789C340.784 804.422 341.2 804.239 341.667 804.239ZM369.867 839.589L369.817 834.439C368.75 836.206 367.317 837.522 365.517 838.389C363.75 839.222 361.717 839.639 359.417 839.639C357.717 839.639 356.217 839.306 354.917 838.639C353.617 837.972 352.6 837.072 351.867 835.939C351.167 834.772 350.817 833.456 350.817 831.989C350.817 829.822 351.684 828.122 353.417 826.889C355.15 825.622 357.517 824.989 360.517 824.989H369.767V822.439C369.734 820.206 369.067 818.472 367.767 817.239C366.467 816.006 364.534 815.389 361.967 815.389C360.4 815.389 358.917 815.689 357.517 816.289C356.117 816.856 354.684 817.689 353.217 818.789L352.217 817.189C353.917 815.956 355.55 815.039 357.117 814.439C358.684 813.806 360.4 813.489 362.267 813.489C365.3 813.489 367.634 814.272 369.267 815.839C370.934 817.406 371.784 819.556 371.817 822.289L371.917 839.589H369.867ZM359.717 837.739C362.217 837.739 364.334 837.189 366.067 836.089C367.8 834.989 369.05 833.322 369.817 831.089V826.839H360.717C358.15 826.839 356.184 827.272 354.817 828.139C353.484 829.006 352.817 830.272 352.817 831.939C352.817 833.672 353.434 835.072 354.667 836.139C355.934 837.206 357.617 837.739 359.717 837.739ZM393.736 837.789C391.903 839.022 390.053 839.639 388.186 839.639C386.319 839.639 384.886 839.039 383.886 837.839C382.886 836.606 382.386 834.789 382.386 832.389V815.989H378.586V814.189H382.386V807.739H384.386V814.189H393.236V815.989H384.386V832.139C384.386 835.772 385.736 837.589 388.436 837.589C389.969 837.589 391.469 837.089 392.936 836.089L393.736 837.789ZM402.19 820.089C403.023 817.989 404.256 816.389 405.89 815.289C407.556 814.156 409.556 813.556 411.89 813.489V815.639C409.056 815.639 406.79 816.522 405.09 818.289C403.39 820.022 402.423 822.422 402.19 825.489V839.589H400.09V813.539H402.19V820.089ZM419.62 813.539V839.589H417.57V813.539H419.62ZM418.62 804.239C419.087 804.239 419.487 804.422 419.82 804.789C420.187 805.122 420.37 805.539 420.37 806.039C420.37 806.572 420.187 807.022 419.82 807.389C419.487 807.722 419.087 807.889 418.62 807.889C418.153 807.889 417.737 807.722 417.37 807.389C417.037 807.022 416.87 806.572 416.87 806.039C416.87 805.539 417.037 805.122 417.37 804.789C417.737 804.422 418.153 804.239 418.62 804.239ZM448.12 818.639C445.853 816.539 443.17 815.489 440.07 815.489C438.003 815.489 436.153 815.956 434.52 816.889C432.887 817.822 431.603 819.139 430.67 820.839C429.77 822.506 429.32 824.406 429.32 826.539C429.32 828.706 429.77 830.639 430.67 832.339C431.603 834.039 432.887 835.356 434.52 836.289C436.153 837.222 438.003 837.689 440.07 837.689C441.803 837.689 443.403 837.372 444.87 836.739C446.337 836.106 447.57 835.206 448.57 834.039L449.82 835.389C448.653 836.756 447.22 837.806 445.52 838.539C443.853 839.272 442.02 839.639 440.02 839.639C437.587 839.639 435.403 839.089 433.47 837.989C431.537 836.856 430.02 835.306 428.92 833.339C427.82 831.339 427.27 829.089 427.27 826.589C427.27 824.089 427.82 821.839 428.92 819.839C430.02 817.839 431.537 816.289 433.47 815.189C435.403 814.056 437.587 813.489 440.02 813.489C441.887 813.489 443.603 813.806 445.17 814.439C446.77 815.072 448.153 815.972 449.32 817.139L448.12 818.639ZM466.341 804.639L479.591 837.089L492.891 804.639H495.191L480.691 839.589H478.491L463.991 804.639H466.341ZM502.823 813.539V839.589H500.773V813.539H502.823ZM501.823 804.239C502.29 804.239 502.69 804.422 503.023 804.789C503.39 805.122 503.573 805.539 503.573 806.039C503.573 806.572 503.39 807.022 503.023 807.389C502.69 807.722 502.29 807.889 501.823 807.889C501.357 807.889 500.94 807.722 500.573 807.389C500.24 807.022 500.073 806.572 500.073 806.039C500.073 805.539 500.24 805.122 500.573 804.789C500.94 804.422 501.357 804.239 501.823 804.239ZM515.373 820.089C516.207 817.989 517.44 816.389 519.073 815.289C520.74 814.156 522.74 813.556 525.073 813.489V815.639C522.24 815.639 519.973 816.522 518.273 818.289C516.573 820.022 515.607 822.422 515.373 825.489V839.589H513.273V813.539H515.373V820.089ZM543.004 837.789C541.17 839.022 539.32 839.639 537.454 839.639C535.587 839.639 534.154 839.039 533.154 837.839C532.154 836.606 531.654 834.789 531.654 832.389V815.989H527.854V814.189H531.654V807.739H533.654V814.189H542.504V815.989H533.654V832.139C533.654 835.772 535.004 837.589 537.704 837.589C539.237 837.589 540.737 837.089 542.204 836.089L543.004 837.789ZM570.957 813.539V839.589H568.907V832.639C568.074 834.906 566.757 836.639 564.957 837.839C563.191 839.006 561.024 839.606 558.457 839.639C555.324 839.639 552.874 838.739 551.107 836.939C549.374 835.139 548.507 832.639 548.507 829.439V813.539H550.557V829.039C550.557 831.706 551.291 833.789 552.757 835.289C554.224 836.789 556.274 837.539 558.907 837.539C562.041 837.472 564.491 836.439 566.257 834.439C568.024 832.439 568.907 829.722 568.907 826.289V813.539H570.957ZM598.138 839.589L598.088 834.439C597.022 836.206 595.588 837.522 593.788 838.389C592.022 839.222 589.988 839.639 587.688 839.639C585.988 839.639 584.488 839.306 583.188 838.639C581.888 837.972 580.872 837.072 580.138 835.939C579.438 834.772 579.088 833.456 579.088 831.989C579.088 829.822 579.955 828.122 581.688 826.889C583.422 825.622 585.788 824.989 588.788 824.989H598.038V822.439C598.005 820.206 597.338 818.472 596.038 817.239C594.738 816.006 592.805 815.389 590.238 815.389C588.672 815.389 587.188 815.689 585.788 816.289C584.388 816.856 582.955 817.689 581.488 818.789L580.488 817.189C582.188 815.956 583.822 815.039 585.388 814.439C586.955 813.806 588.672 813.489 590.538 813.489C593.572 813.489 595.905 814.272 597.538 815.839C599.205 817.406 600.055 819.556 600.088 822.289L600.188 839.589H598.138ZM587.988 837.739C590.488 837.739 592.605 837.189 594.338 836.089C596.072 834.989 597.322 833.322 598.088 831.089V826.839H588.988C586.422 826.839 584.455 827.272 583.088 828.139C581.755 829.006 581.088 830.272 581.088 831.939C581.088 833.672 581.705 835.072 582.938 836.139C584.205 837.206 585.888 837.739 587.988 837.739ZM612.108 802.489V839.589H610.008V802.489H612.108ZM659.737 810.739C658.27 809.372 656.587 808.306 654.687 807.539C652.787 806.772 650.804 806.389 648.737 806.389C645.837 806.389 643.154 807.089 640.687 808.489C638.254 809.889 636.32 811.789 634.887 814.189C633.454 816.589 632.737 819.206 632.737 822.039C632.737 824.872 633.454 827.489 634.887 829.889C636.32 832.289 638.254 834.206 640.687 835.639C643.154 837.039 645.837 837.739 648.737 837.739C650.804 837.739 652.77 837.372 654.637 836.639C656.537 835.872 658.237 834.806 659.737 833.439L661.037 834.889C659.404 836.422 657.504 837.622 655.337 838.489C653.204 839.356 650.987 839.789 648.687 839.789C645.42 839.789 642.404 839.006 639.637 837.439C636.87 835.839 634.67 833.689 633.037 830.989C631.437 828.256 630.637 825.289 630.637 822.089C630.637 818.889 631.437 815.939 633.037 813.239C634.67 810.506 636.87 808.356 639.637 806.789C642.404 805.189 645.42 804.389 648.687 804.389C650.987 804.389 653.187 804.806 655.287 805.639C657.42 806.472 659.32 807.639 660.987 809.139L659.737 810.739ZM671.043 802.489V839.589H668.943V802.489H671.043ZM683.731 813.539V839.589H681.681V813.539H683.731ZM682.731 804.239C683.198 804.239 683.598 804.422 683.931 804.789C684.298 805.122 684.481 805.539 684.481 806.039C684.481 806.572 684.298 807.022 683.931 807.389C683.598 807.722 683.198 807.889 682.731 807.889C682.265 807.889 681.848 807.722 681.481 807.389C681.148 807.022 680.981 806.572 680.981 806.039C680.981 805.539 681.148 805.122 681.481 804.789C681.848 804.422 682.265 804.239 682.731 804.239ZM706.931 813.489C710.098 813.489 712.565 814.406 714.331 816.239C716.131 818.039 717.031 820.522 717.031 823.689V839.589H714.931V824.089C714.931 821.422 714.181 819.339 712.681 817.839C711.181 816.339 709.098 815.589 706.431 815.589C703.465 815.656 701.081 816.572 699.281 818.339C697.515 820.072 696.515 822.456 696.281 825.489V839.589H694.181V813.539H696.281V820.189C697.148 818.056 698.481 816.422 700.281 815.289C702.115 814.156 704.331 813.556 706.931 813.489ZM728.653 813.539V839.589H726.603V813.539H728.653ZM727.653 804.239C728.12 804.239 728.52 804.422 728.853 804.789C729.22 805.122 729.403 805.539 729.403 806.039C729.403 806.572 729.22 807.022 728.853 807.389C728.52 807.722 728.12 807.889 727.653 807.889C727.187 807.889 726.77 807.722 726.403 807.389C726.07 807.022 725.903 806.572 725.903 806.039C725.903 805.539 726.07 805.122 726.403 804.789C726.77 804.422 727.187 804.239 727.653 804.239ZM757.153 818.639C754.887 816.539 752.203 815.489 749.103 815.489C747.037 815.489 745.187 815.956 743.553 816.889C741.92 817.822 740.637 819.139 739.703 820.839C738.803 822.506 738.353 824.406 738.353 826.539C738.353 828.706 738.803 830.639 739.703 832.339C740.637 834.039 741.92 835.356 743.553 836.289C745.187 837.222 747.037 837.689 749.103 837.689C750.837 837.689 752.437 837.372 753.903 836.739C755.37 836.106 756.603 835.206 757.603 834.039L758.853 835.389C757.687 836.756 756.253 837.806 754.553 838.539C752.887 839.272 751.053 839.639 749.053 839.639C746.62 839.639 744.437 839.089 742.503 837.989C740.57 836.856 739.053 835.306 737.953 833.339C736.853 831.339 736.303 829.089 736.303 826.589C736.303 824.089 736.853 821.839 737.953 819.839C739.053 817.839 740.57 816.289 742.503 815.189C744.437 814.056 746.62 813.489 749.053 813.489C750.92 813.489 752.637 813.806 754.203 814.439C755.803 815.072 757.187 815.972 758.353 817.139L757.153 818.639Z" fill="black"/>
<path d="M246.277 692.31C255.077 692.31 261.877 694.41 266.677 698.61C271.543 702.81 273.977 708.743 273.977 716.41C273.977 724.41 271.543 730.643 266.677 735.11C261.877 739.51 255.077 741.71 246.277 741.71H230.977V762.31H217.577V692.31H246.277ZM245.577 729.91C250.643 729.91 254.51 728.81 257.177 726.61C259.91 724.41 261.277 721.143 261.277 716.81C261.277 712.543 259.91 709.343 257.177 707.21C254.51 705.076 250.643 704.01 245.577 704.01H230.977V729.91H245.577ZM336.357 692.31V704.01H298.457V721.31H332.457V733.01H298.457V750.61H337.557V762.31H285.057V692.31H336.357ZM380.27 692.31C387.27 692.31 393.537 693.81 399.07 696.81C404.604 699.743 408.937 703.876 412.07 709.21C415.204 714.543 416.77 720.576 416.77 727.31C416.77 734.043 415.17 740.076 411.97 745.41C408.837 750.676 404.47 754.81 398.87 757.81C393.27 760.81 386.904 762.31 379.77 762.31H351.17V692.31H380.27ZM380.57 750.51C384.837 750.51 388.67 749.543 392.07 747.61C395.537 745.61 398.237 742.876 400.17 739.41C402.104 735.876 403.07 731.876 403.07 727.41C403.07 722.943 402.07 718.943 400.07 715.41C398.07 711.81 395.304 709.043 391.77 707.11C388.304 705.11 384.404 704.11 380.07 704.11H364.57V750.51H380.57ZM441.914 692.31V762.31H428.514V692.31H441.914ZM504.68 747.51H470.48L464.28 762.31H450.38L481.08 692.31H494.98L525.28 762.31H510.88L504.68 747.51ZM499.88 736.01L487.68 706.61L475.28 736.01H499.88ZM547.188 692.31V722.21H582.088V692.31H595.488V762.31H582.088V733.91H547.188V762.31H533.788V692.31H547.188ZM664.091 692.31V704.01H626.191V721.31H660.191V733.01H626.191V750.61H665.291V762.31H612.791V692.31H664.091ZM692.305 692.31V750.21H722.505V762.31H678.905V692.31H692.305ZM761.706 692.31C770.506 692.31 777.306 694.41 782.106 698.61C786.973 702.81 789.406 708.743 789.406 716.41C789.406 724.41 786.973 730.643 782.106 735.11C777.306 739.51 770.506 741.71 761.706 741.71H746.406V762.31H733.006V692.31H761.706ZM761.006 729.91C766.073 729.91 769.94 728.81 772.606 726.61C775.34 724.41 776.706 721.143 776.706 716.81C776.706 712.543 775.34 709.343 772.606 707.21C769.94 705.076 766.073 704.01 761.006 704.01H746.406V729.91H761.006Z" fill="black"/>
<path d="M663.881 304.712C715.177 304.712 756.761 346.295 756.761 397.589C756.761 448.883 715.177 490.465 663.881 490.465H599.639V554.705C599.639 606 558.055 647.582 506.759 647.582C455.463 647.582 413.879 606 413.879 554.705V476.207C413.879 374.293 483.545 304.712 585.32 304.712H663.881Z" fill="#1E7561"/>
<path d="M349.641 490.451C298.344 490.451 256.761 448.869 256.761 397.575C256.761 346.28 298.344 304.698 349.641 304.698H413.882V240.458C413.882 189.164 455.466 147.582 506.762 147.582C558.059 147.582 599.643 189.164 599.643 240.458V318.957C599.643 420.87 529.976 490.451 428.202 490.451H349.641Z" fill="#B1D782"/>
<path d="M599.642 318.956C599.642 420.87 529.976 490.451 428.202 490.451H413.879V476.207C413.879 374.293 483.545 304.712 585.319 304.712H599.642V318.956Z" fill="#FFED8D"/>
</svg>
