<svg width="1000" height="1000" viewBox="0 0 1000 1000" fill="none" xmlns="http://www.w3.org/2000/svg">
<path d="M784.581 690.421C707.947 790.041 584.958 827.854 462.737 821.855C447.669 821.136 424.156 811.49 410.911 813.314C400.642 814.706 378.761 830.493 365.564 835.196C337.156 845.321 232.354 869.074 221.269 832.988C212.392 804.149 260.906 772.526 253.132 734.28C250.781 722.62 204.714 672.618 193.821 654.143C22.9895 364.065 335.525 56.2327 636.4 173.176C845.764 254.56 923.79 509.464 784.677 690.421H784.581Z" fill="#1E7561"/>
<circle cx="323.689" cy="499.999" r="48.4233" fill="#B1D782"/>
<circle cx="500.001" cy="499.999" r="48.4233" fill="#B1D782"/>
<circle cx="676.31" cy="499.999" r="48.4233" fill="#B1D782"/>
</svg>
