<svg width="1000" height="1000" viewBox="0 0 1000 1000" fill="none" xmlns="http://www.w3.org/2000/svg">
<path d="M218.266 678.132C411.602 650.066 595.034 650.067 781.472 678.132C866.454 690.925 867.219 816.028 781.472 810.283C592.218 797.605 407.526 797.637 218.266 810.283C132.517 816.013 133.218 690.479 218.266 678.132Z" fill="#1C947B"/>
<path d="M218.553 444.353C411.889 416.287 595.321 416.287 781.759 444.353C866.741 457.146 867.506 582.248 781.759 576.504C592.505 563.825 407.813 563.858 218.553 576.504C132.804 582.234 133.505 456.699 218.553 444.353Z" fill="#1C947B"/>
<path d="M218.553 210.574C411.889 182.508 595.321 182.509 781.759 210.574C866.741 223.367 867.506 348.469 781.759 342.725C592.505 330.046 407.813 330.079 218.553 342.725C132.804 348.455 133.505 222.921 218.553 210.574Z" fill="#1C947B"/>
</svg>
