<svg width="1000" height="1000" viewBox="0 0 1000 1000" fill="none" xmlns="http://www.w3.org/2000/svg">
<path d="M499.996 345.019C755.453 345.019 875.446 298.089 875.446 613.931C875.446 929.767 758.738 918.598 503.281 918.598C247.814 918.598 124.555 929.768 124.555 613.931C124.555 298.089 244.529 345.019 499.996 345.019Z" fill="#1C947B"/>
<path d="M500 648.127C593.258 648.127 637.064 625.996 637.064 774.943C637.064 923.887 594.458 918.619 501.199 918.619C407.937 918.619 362.939 923.887 362.939 774.943C362.939 625.996 406.738 648.127 500 648.127Z" fill="#B1D782"/>
<path d="M767.368 273.862C1165.6 633.65 914.83 544.757 500.346 544.757C85.8624 544.757 -165.874 633.65 232.354 273.862C516.456 17.184 483.266 17.184 767.368 273.862Z" fill="#1C947B"/>
</svg>
