<svg width="1000" height="1000" viewBox="0 0 1000 1000" fill="none" xmlns="http://www.w3.org/2000/svg">
<path d="M499.997 375.77C704.766 375.77 800.95 338.152 800.95 591.325C800.95 844.493 707.399 835.54 502.63 835.54C297.853 835.54 199.051 844.493 199.051 591.325C199.051 338.152 295.22 375.77 499.997 375.77Z" fill="#1C947B"/>
<path d="M500 618.737C574.754 618.737 609.867 600.997 609.867 720.389C609.867 839.78 575.715 835.558 500.961 835.558C426.204 835.558 390.135 839.78 390.135 720.389C390.135 600.996 425.243 618.737 500 618.737Z" fill="#B1D782"/>
<path d="M714.317 318.732C1033.53 607.131 832.519 535.876 500.277 535.876C168.036 535.876 -33.7508 607.131 285.461 318.732C513.191 112.984 486.587 112.984 714.317 318.732Z" fill="#1C947B"/>
</svg>
