<svg width="1000" height="1000" viewBox="0 0 1000 1000" fill="none" xmlns="http://www.w3.org/2000/svg">
<path d="M499.995 351.512C744.75 351.512 859.716 306.548 859.716 609.158C859.716 911.762 747.897 901.061 503.143 901.061C258.379 901.061 140.283 911.763 140.283 609.158C140.283 306.548 255.231 351.512 499.995 351.512Z" fill="#1C947B"/>
<path d="M500 641.921C589.351 641.921 631.321 620.717 631.321 763.424C631.321 906.128 590.5 901.081 501.149 901.081C411.794 901.081 368.682 906.128 368.682 763.424C368.682 620.717 410.645 641.921 500 641.921Z" fill="#B1D782"/>
<path d="M756.167 283.336C1137.71 628.051 897.451 542.882 500.332 542.882C103.213 542.882 -137.977 628.051 243.567 283.336C515.767 37.4114 483.968 37.4114 756.167 283.336Z" fill="#1C947B"/>
</svg>
