<svg width="1000" height="1000" viewBox="0 0 1000 1000" fill="none" xmlns="http://www.w3.org/2000/svg">
<path d="M531.759 77.7986C732.894 77.7986 895.946 73.0095 895.946 466.101C895.946 859.192 732.894 854.403 531.759 854.403C330.624 854.403 167.572 842.056 167.572 466.101C167.572 90.1454 330.624 77.7986 531.759 77.7986Z" fill="#B1D782"/>
<path d="M468.238 145.597C669.373 145.597 832.425 140.808 832.425 533.899C832.425 926.99 669.373 922.201 468.238 922.201C267.103 922.201 104.051 909.855 104.051 533.899C104.051 157.944 267.103 145.597 468.238 145.597Z" fill="#1C947B"/>
<path d="M468.236 299.649C603.484 299.649 713.124 298.205 713.124 416.775C713.124 535.345 603.484 533.9 468.236 533.9C332.988 533.9 223.348 530.176 223.348 416.775C223.348 303.373 332.988 299.649 468.236 299.649Z" fill="#B1D782"/>
<path d="M468.24 562.61C539.355 562.61 597.004 562.122 597.004 602.147C597.004 642.171 539.355 641.683 468.24 641.683C397.126 641.683 339.477 640.426 339.477 602.147C339.477 563.867 397.126 562.61 468.24 562.61Z" fill="#B1D782"/>
</svg>
